<?xml version="1.0" encoding="UTF-8" standalone="no"?>
<svg
   width="16"
   height="16"
   id="svg2"
   version="1.1"
   inkscape:version="1.4.2 (ebf0e940, 2025-05-08)"
   sodipodi:docname="save_edit.svg"
   inkscape:export-filename="C:\Users\D019122\OneDrive - SAP SE\Desktop\iam_package.png"
   inkscape:export-xdpi="96"
   inkscape:export-ydpi="96"
   xml:space="preserve"
   xmlns:inkscape="http://www.inkscape.org/namespaces/inkscape"
   xmlns:sodipodi="http://sodipodi.sourceforge.net/DTD/sodipodi-0.dtd"
   xmlns="http://www.w3.org/2000/svg"
   xmlns:svg="http://www.w3.org/2000/svg"
   xmlns:rdf="http://www.w3.org/1999/02/22-rdf-syntax-ns#"
   xmlns:cc="http://creativecommons.org/ns#"
   xmlns:dc="http://purl.org/dc/elements/1.1/"><defs
     id="defs4" /><sodipodi:namedview
     id="base"
     pagecolor="#ffffff"
     bordercolor="#ffffff"
     borderopacity="1"
     inkscape:pageopacity="0"
     inkscape:pageshadow="2"
     inkscape:zoom="28.001063"
     inkscape:cx="-0.24999051"
     inkscape:cy="6.8568824"
     inkscape:document-units="px"
     inkscape:current-layer="layer2"
     showgrid="true"
     inkscape:window-width="1920"
     inkscape:window-height="1021"
     inkscape:window-x="0"
     inkscape:window-y="31"
     inkscape:window-maximized="0"
     showguides="false"
     inkscape:guide-bbox="true"
     inkscape:snap-global="false"
     inkscape:snap-bbox="true"
     inkscape:bbox-nodes="true"
     inkscape:document-rotation="0"
     inkscape:showpageshadow="false"
     inkscape:pagecheckerboard="0"
     inkscape:deskcolor="#ffffff"><inkscape:grid
       type="xygrid"
       id="grid3999"
       originx="0"
       originy="0"
       spacingy="1"
       spacingx="1"
       units="px"
       visible="false"
       enabled="true" /><inkscape:grid
       id="grid1"
       units="px"
       originx="0"
       originy="0"
       spacingx="1"
       spacingy="1"
       empcolor="#0099e5"
       empopacity="0.30196078"
       color="#0099e5"
       opacity="0.14901961"
       empspacing="5"
       enabled="true"
       visible="true" /></sodipodi:namedview><metadata
     id="metadata7"><rdf:RDF><cc:Work
         rdf:about=""><dc:format>image/svg+xml</dc:format><dc:type
           rdf:resource="http://purl.org/dc/dcmitype/StillImage" /></cc:Work></rdf:RDF></metadata><g
     inkscape:groupmode="layer"
     id="layer2"
     inkscape:label="Layer 2"><path
       id="rect1-5-5"
       style="fill:#a8a8a8;stroke-width:2;stroke-linecap:round;stroke-linejoin:round"
       d="m -19,0 c -0.552285,0 -1,0.44771525 -1,1 v 14 c 0,0.552285 0.447715,1 1,1 h 1 V 10.5 9.5253906 C -17.999857,9.2352846 -17.764715,9.0001432 -17.474609,9 H -7.5 -6.546875 C -6.2450435,9.0004804 -6.0004804,9.2450435 -6,9.546875 V 10.5 16 h 1 c 0.5522847,0 1,-0.447715 1,-1 V 4.5175781 C -4.0005734,4.1535561 -4.1452265,3.804563 -4.4023438,3.546875 L -7.5332031,0.40039062 C -7.7893378,0.14357623 -8.2372902,-5.2526913e-4 -8.6,0 Z m 4,0 h 1.5 v 2 c 0,0.2934013 0.206599,0.531 0.5,0.531 h 2 c 0.269849,4.327e-4 0.500433,-0.218182 0.5,-0.4880312 V 0 H -9 V 2.53125 3.4746094 C -8.999784,3.7821229 -9.2491271,4.000216 -9.5566406,4 H -13.5 -14.474609 C -14.764864,4.0002163 -15.000216,3.7961142 -15,3.5058594 V 2.53125 Z m -0.910156,10.5 c -0.32558,4.39e-4 -0.589405,0.264264 -0.589844,0.589844 V 16 h 9 V 11.050781 C -7.4995675,10.746414 -7.7464142,10.499567 -8.0507812,10.5 Z"
       transform="translate(20)"
       sodipodi:nodetypes="sssscccccccccssccccsccssccccccccccccccccccc" /></g></svg>
