<?xml version="1.0" encoding="UTF-8" standalone="no"?>
<svg
   width="16"
   height="16"
   id="svg2"
   version="1.1"
   inkscape:version="1.4.2 (ebf0e94, 2025-05-08)"
   sodipodi:docname="undo_edit.svg"
   inkscape:export-filename="C:\Users\D019122\OneDrive - SAP SE\Desktop\iam_package.png"
   inkscape:export-xdpi="96"
   inkscape:export-ydpi="96"
   xml:space="preserve"
   xmlns:inkscape="http://www.inkscape.org/namespaces/inkscape"
   xmlns:sodipodi="http://sodipodi.sourceforge.net/DTD/sodipodi-0.dtd"
   xmlns="http://www.w3.org/2000/svg"
   xmlns:svg="http://www.w3.org/2000/svg"
   xmlns:rdf="http://www.w3.org/1999/02/22-rdf-syntax-ns#"
   xmlns:cc="http://creativecommons.org/ns#"
   xmlns:dc="http://purl.org/dc/elements/1.1/"><defs
     id="defs4" /><sodipodi:namedview
     id="base"
     pagecolor="#ffffff"
     bordercolor="#666666"
     borderopacity="1.0"
     inkscape:pageopacity="0"
     inkscape:pageshadow="2"
     inkscape:zoom="45.254834"
     inkscape:cx="10.69499"
     inkscape:cy="10.407728"
     inkscape:document-units="px"
     inkscape:current-layer="layer1"
     showgrid="true"
     inkscape:window-width="2470"
     inkscape:window-height="1400"
     inkscape:window-x="887"
     inkscape:window-y="66"
     inkscape:window-maximized="0"
     showguides="false"
     inkscape:guide-bbox="true"
     inkscape:snap-global="false"
     inkscape:snap-bbox="true"
     inkscape:bbox-nodes="true"
     inkscape:document-rotation="0"
     inkscape:showpageshadow="false"
     inkscape:pagecheckerboard="0"
     inkscape:deskcolor="#ffffff"><inkscape:grid
       type="xygrid"
       id="grid3999"
       originx="0"
       originy="0"
       spacingy="1"
       spacingx="1"
       units="px"
       visible="false"
       enabled="true" /><inkscape:grid
       id="grid1"
       units="px"
       originx="0"
       originy="0"
       spacingx="1"
       spacingy="1"
       empcolor="#0099e5"
       empopacity="0.30196078"
       color="#0099e5"
       opacity="0.14901961"
       empspacing="5"
       enabled="true"
       visible="true" /></sodipodi:namedview><metadata
     id="metadata7"><rdf:RDF><cc:Work
         rdf:about=""><dc:format>image/svg+xml</dc:format><dc:type
           rdf:resource="http://purl.org/dc/dcmitype/StillImage" /></cc:Work></rdf:RDF></metadata><g
     inkscape:label="Layer 1"
     inkscape:groupmode="layer"
     id="layer1"
     style="display:inline"
     transform="translate(0,-1036.3622)"><path
       id="rect6-22"
       style="fill:#a8a8a8;fill-opacity:1;stroke:none;stroke-width:2.00153;stroke-linecap:round;stroke-linejoin:round;stroke-dasharray:none;stroke-opacity:1"
       d="M 758.2315 751.02501 C 758.05554 751.20508 757.947 751.45411 757.947 751.73007 L 757.94671 757.52722 C 757.94671 757.82106 758.06902 758.08347 758.2655 758.2655 C 758.44751 758.46167 758.71022 758.5843 759.00378 758.5843 L 764.80094 758.584 C 765.35285 758.584 765.79648 758.15053 765.79648 757.6112 C 765.79648 757.07187 765.35302 756.63734 764.80111 756.63734 L 761.34985 756.63605 L 766.59606 751.38984 A 3.0863054 2.8773441 45 0 1 770.81263 751.53797 A 3.0863054 2.8773441 45 0 1 770.96076 755.75454 L 770.93387 755.78143 L 769.6203 757.095 A 1.0350213 1.0447301 45 0 0 769.57936 758.56526 A 1.0468668 1.0566867 45 0 0 771.06713 758.55796 L 772.38473 757.24036 L 772.52187 757.10322 L 772.51761 757.09896 A 5.1443053 4.9163496 45 0 0 772.18939 750.16121 A 5.1443053 4.9163496 45 0 0 765.25164 749.83299 L 765.24738 749.82873 L 759.89495 755.18116 L 759.89367 751.7299 C 759.89367 751.17799 759.45914 750.73453 758.91981 750.73453 C 758.65014 750.73453 758.40746 750.84494 758.2315 751.02501 z "
       transform="matrix(0.7263422,0.68733326,-0.7263422,0.68733326,0,0)" /></g></svg>
