<?xml version="1.0" encoding="UTF-8" standalone="no"?>
<svg
   width="16"
   height="16"
   viewBox="0 0 16 16"
   version="1.1"
   xml:space="preserve"
   style="fill-rule:evenodd;clip-rule:evenodd;stroke-linejoin:round;stroke-miterlimit:2;"
   id="svg3"
   sodipodi:docname="variable_view.svg"
   inkscape:version="1.4 (86a8ad7, 2024-10-11)"
   xmlns:inkscape="http://www.inkscape.org/namespaces/inkscape"
   xmlns:sodipodi="http://sodipodi.sourceforge.net/DTD/sodipodi-0.dtd"
   xmlns="http://www.w3.org/2000/svg"
   xmlns:svg="http://www.w3.org/2000/svg"><defs
   id="defs3" /><sodipodi:namedview
   id="namedview3"
   pagecolor="#ffffff"
   bordercolor="#000000"
   borderopacity="0.25"
   inkscape:showpageshadow="2"
   inkscape:pageopacity="0.0"
   inkscape:pagecheckerboard="0"
   inkscape:deskcolor="#d1d1d1"
   inkscape:zoom="34.162096"
   inkscape:cx="7.6400464"
   inkscape:cy="7.9181323"
   inkscape:window-width="1920"
   inkscape:window-height="991"
   inkscape:window-x="-9"
   inkscape:window-y="-9"
   inkscape:window-maximized="1"
   inkscape:current-layer="svg3" />
    
    
    <path
   d="M 6.5754988,8.0000012 4.7948721,6.2193739 c -0.3931625,-0.3931624 -0.3931625,-1.0313393 0,-1.4245016 0.3931623,-0.3931627 1.031339,-0.3931627 1.4245013,0 l 1.7806268,1.780627 1.7806268,-1.780627 c 0.393162,-0.3931627 1.031339,-0.3931627 1.424502,0 0.393161,0.3931623 0.393161,1.0313392 0,1.4245016 L 9.4245016,8.0000012 11.205129,9.7806284 c 0.393161,0.3931616 0.393161,1.0313376 0,1.4244996 -0.393163,0.393162 -1.03134,0.393162 -1.424502,0 L 8.0000002,9.4245029 6.2193734,11.205128 c -0.3931623,0.393162 -1.031339,0.393162 -1.4245013,0 -0.3931625,-0.393162 -0.3931625,-1.031338 0,-1.4244996 z"
   style="clip-rule:evenodd;fill:#a8a8a8;fill-rule:evenodd;stroke-width:1;stroke-linejoin:round;stroke-miterlimit:2"
   id="path1" /><path
   d="M 3.5811632,0.18401886 C 4.0315959,-0.13513273 4.6559581,-0.02802763 4.9743828,0.4231121 5.2936995,0.87316995 5.186666,1.4984907 4.7362333,1.8176423 3.8095014,2.4743373 2.0006349,3.8082828 2.0006349,8.0048559 c 0,4.3296421 1.7803242,5.5564831 2.7025964,6.1558391 0.4629199,0.30076 0.5949279,0.920672 0.2943421,1.383712 -0.3014777,0.46304 -0.9204882,0.595028 -1.3834082,0.294268 C 2.4305528,15.069466 0,13.560258 0,8.0048559 0,2.6690739 2.4020106,1.0192224 3.5811632,0.18401886 Z"
   style="clip-rule:evenodd;fill:#a8a8a8;fill-rule:evenodd;stroke-width:0.982033;stroke-linejoin:round;stroke-miterlimit:2"
   id="path2" /><path
   d="M 11.263767,1.8174085 C 10.813334,1.4982569 10.7063,0.87293614 11.025617,0.42287829 11.344042,-0.02826144 11.968404,-0.13536654 12.418837,0.18378505 13.597989,1.0189885 16,2.66884 16,8.0046221 c 0,5.5554009 -2.430553,7.0646099 -3.614165,7.8338189 -0.46292,0.30076 -1.081931,0.168772 -1.383408,-0.294269 -0.300586,-0.463039 -0.168578,-1.082951 0.294342,-1.383711 0.922272,-0.599356 2.702596,-1.826197 2.702596,-6.1558389 0,-4.1965732 -1.808866,-5.5305187 -2.735598,-6.1872136 z"
   style="clip-rule:evenodd;fill:#a8a8a8;fill-rule:evenodd;stroke-width:0.982033;stroke-linejoin:round;stroke-miterlimit:2"
   id="path3" />
</svg>
