<?xml version="1.0" encoding="UTF-8" standalone="no"?>
<svg
   width="16"
   height="16"
   id="svg2"
   version="1.1"
   inkscape:version="1.4.2 (ebf0e94, 2025-05-08)"
   sodipodi:docname="next_nav.svg"
   inkscape:export-filename="C:\Users\D019122\OneDrive - SAP SE\Desktop\iam_package.png"
   inkscape:export-xdpi="96"
   inkscape:export-ydpi="96"
   xml:space="preserve"
   xmlns:inkscape="http://www.inkscape.org/namespaces/inkscape"
   xmlns:sodipodi="http://sodipodi.sourceforge.net/DTD/sodipodi-0.dtd"
   xmlns="http://www.w3.org/2000/svg"
   xmlns:svg="http://www.w3.org/2000/svg"
   xmlns:rdf="http://www.w3.org/1999/02/22-rdf-syntax-ns#"
   xmlns:cc="http://creativecommons.org/ns#"
   xmlns:dc="http://purl.org/dc/elements/1.1/"><defs
     id="defs4" /><sodipodi:namedview
     id="base"
     pagecolor="#ffffff"
     bordercolor="#666666"
     borderopacity="1.0"
     inkscape:pageopacity="0"
     inkscape:pageshadow="2"
     inkscape:zoom="16"
     inkscape:cx="-5.53125"
     inkscape:cy="22.875"
     inkscape:document-units="px"
     inkscape:current-layer="layer1"
     showgrid="true"
     inkscape:window-width="2109"
     inkscape:window-height="1322"
     inkscape:window-x="608"
     inkscape:window-y="115"
     inkscape:window-maximized="0"
     showguides="false"
     inkscape:guide-bbox="true"
     inkscape:snap-global="false"
     inkscape:snap-bbox="true"
     inkscape:bbox-nodes="true"
     inkscape:document-rotation="0"
     inkscape:showpageshadow="false"
     inkscape:pagecheckerboard="0"
     inkscape:deskcolor="#ffffff"><inkscape:grid
       type="xygrid"
       id="grid3999"
       originx="0"
       originy="0"
       spacingy="1"
       spacingx="1"
       units="px"
       visible="false"
       enabled="true" /><inkscape:grid
       id="grid1"
       units="px"
       originx="0"
       originy="0"
       spacingx="1"
       spacingy="1"
       empcolor="#0099e5"
       empopacity="0.30196078"
       color="#0099e5"
       opacity="0.14901961"
       empspacing="5"
       enabled="true"
       visible="true" /></sodipodi:namedview><metadata
     id="metadata7"><rdf:RDF><cc:Work
         rdf:about=""><dc:format>image/svg+xml</dc:format><dc:type
           rdf:resource="http://purl.org/dc/dcmitype/StillImage" /></cc:Work></rdf:RDF></metadata><g
     inkscape:label="Layer 1"
     inkscape:groupmode="layer"
     id="layer1"
     style="display:inline"
     transform="translate(0,-1036.3622)"><path
       id="rect1"
       style="display:inline;fill:#a8a8a8;stroke-width:2;stroke-linecap:round;stroke-linejoin:round"
       d="M 2.75 1036.3622 C 2.3357864 1036.3622 2 1036.8099 2 1037.3622 L 2 1051.3622 C 2 1051.9145 2.3357864 1052.3622 2.75 1052.3622 L 13.25 1052.3622 C 13.664214 1052.3622 14 1051.9145 14 1051.3622 L 14 1040.3036 A 2.3753742 2.3753742 0 0 0 13.308594 1038.6278 L 11.794922 1037.1063 A 2.5296687 2.5296687 0 0 0 10.001953 1036.3622 L 2.75 1036.3622 z M 5.046875 1042.3622 C 5.3126378 1042.3622 5.5775911 1042.4631 5.78125 1042.6649 L 8 1044.8642 L 10.21875 1042.6649 C 10.626068 1042.2612 11.282206 1042.2613 11.689453 1042.6649 L 11.695312 1042.6708 C 12.10256 1043.0744 12.10263 1043.7241 11.695312 1044.1278 L 8.7363281 1047.0595 L 8.734375 1047.0595 C 8.6094419 1047.1833 8.4601449 1047.2694 8.3027344 1047.3173 C 8.1427831 1047.3653 7.9738924 1047.3749 7.8105469 1047.3446 C 7.7109243 1047.3265 7.6154197 1047.2942 7.5234375 1047.247 C 7.5229464 1047.2467 7.5219751 1047.2472 7.5214844 1047.247 C 7.4911611 1047.2313 7.4606353 1047.213 7.4316406 1047.1942 C 7.4312016 1047.1939 7.4301262 1047.1945 7.4296875 1047.1942 C 7.3711991 1047.1562 7.3171778 1047.1104 7.265625 1047.0595 L 7.2636719 1047.0595 L 4.3046875 1044.1278 C 3.8973697 1043.7241 3.8974405 1043.0744 4.3046875 1042.6708 L 4.3105469 1042.6649 C 4.5141704 1042.4631 4.7811122 1042.3622 5.046875 1042.3622 z " /></g></svg>
