<?xml version="1.0" encoding="UTF-8" standalone="no"?>
<svg
   width="16"
   height="16"
   viewBox="0 0 16 16"
   fill="none"
   version="1.1"
   id="svg6"
   sodipodi:docname="synced.svg"
   inkscape:version="1.4 (86a8ad7, 2024-10-11)"
   inkscape:export-filename="collapseall_16x16.png"
   inkscape:export-xdpi="96"
   inkscape:export-ydpi="96"
   xmlns:inkscape="http://www.inkscape.org/namespaces/inkscape"
   xmlns:sodipodi="http://sodipodi.sourceforge.net/DTD/sodipodi-0.dtd"
   xmlns="http://www.w3.org/2000/svg"
   xmlns:svg="http://www.w3.org/2000/svg">
  <sodipodi:namedview
     id="namedview6"
     pagecolor="#ffffff"
     bordercolor="#eeeeee"
     borderopacity="1"
     inkscape:showpageshadow="0"
     inkscape:pageopacity="0"
     inkscape:pagecheckerboard="0"
     inkscape:deskcolor="#545454"
     inkscape:zoom="32"
     inkscape:cx="8.234375"
     inkscape:cy="8.671875"
     inkscape:window-width="1920"
     inkscape:window-height="991"
     inkscape:window-x="-9"
     inkscape:window-y="-9"
     inkscape:window-maximized="1"
     inkscape:current-layer="svg6"
     showgrid="true">
    <inkscape:grid
       id="grid1"
       units="px"
       originx="0"
       originy="0"
       spacingx="1"
       spacingy="1"
       empcolor="#0099e5"
       empopacity="0.30196078"
       color="#0099e5"
       opacity="0.14901961"
       empspacing="5"
       enabled="true"
       visible="true" />
  </sodipodi:namedview>
  <path
     id="rect5"
     clip-path="none"
     style="fill:#a8a8a8;stroke-width:1.5"
     d="M 4.537118,0 C 4.2814989,0 4.0259553,0.0971002 3.8300867,0.29296875 L 0.38282115,3.7382813 c -0.0309203,0.024398 -0.0612796,0.049561 -0.0898438,0.078125 -0.19736503,0.197365 -0.29447663,0.455322 -0.292968704057,0.7128906 -1.1433766e-5,0.00195 0,0.00391 0,0.00586 3.28390207e-4,0.028045 0.00121993406,0.05604 0.00390625406,0.083984 0.01913264,0.2269324 0.11468449,0.4486689 0.2890625,0.6230469 0.0285642,0.028564 0.0589234,0.05568 0.0898438,0.080078 l 3.4472656,3.4453125 c 0.3917372,0.3917372 1.0223254,0.3917372 1.4140625,0 0.3917372,-0.3917371 0.3917372,-1.0223253 0,-1.4140625 L 3.4160242,5.5234375 H 15.000009 c 0.554,0 1,-0.446 1,-1 0,-0.554 -0.446,-1 -1,-1 H 3.427743 L 5.2441492,1.7070313 c 0.3917372,-0.3917372 0.3917372,-1.0223254 0,-1.41406255 C 5.0482806,0.09710017 4.7927371,0 4.537118,0 Z" />
  <path
     id="rect5-4"
     clip-path="none"
     style="fill:#a8a8a8;stroke-width:1.5"
     d="m 11.462884,6.938613 c 0.255619,0 0.511163,0.0971 0.707032,0.2929687 l 3.447265,3.4453133 c 0.03092,0.0244 0.06128,0.04956 0.08984,0.07813 0.197365,0.197365 0.294477,0.455321 0.292969,0.71289 1.1e-5,0.0019 0,0.0039 0,0.0059 -3.29e-4,0.02804 -0.0012,0.05604 -0.0039,0.08398 -0.01913,0.226933 -0.114685,0.448669 -0.289063,0.623047 -0.02856,0.02856 -0.05892,0.05568 -0.08984,0.08008 l -3.447276,3.445313 c -0.391737,0.391694 -1.022325,0.391694 -1.414062,-4.3e-5 -0.391737,-0.391738 -0.391737,-1.022326 0,-1.414063 l 1.828129,-1.830078 H 0.99999282 c -0.554,0 -1.000000002557,-0.446 -1.000000002557,-1 0,-0.554 0.446000002557,-1 1.000000002557,-1 H 12.572259 L 10.755853,8.6456443 c -0.391737,-0.3917372 -0.391737,-1.0223254 0,-1.4140626 0.195869,-0.1958685 0.451412,-0.2929687 0.707031,-0.2929687 z" />
  <defs
     id="defs6">
    <clipPath
       clipPathUnits="userSpaceOnUse"
       id="clipPath7">
      <g
         id="g8">
        <rect
           width="16"
           height="16"
           fill="#ffffff"
           id="rect8"
           x="0"
           y="0" />
      </g>
    </clipPath>
  </defs>
</svg>
