<?xml version="1.0" encoding="UTF-8" standalone="no"?>
<svg
   width="16"
   height="16"
   viewBox="0 0 16 16"
   fill="none"
   version="1.1"
   id="svg6"
   sodipodi:docname="brkp_type.svg"
   inkscape:version="1.3.2 (091e20e, 2023-11-25, custom)"
   inkscape:export-filename="brkp_type_16x16.png"
   inkscape:export-xdpi="96"
   inkscape:export-ydpi="96"
   xmlns:inkscape="http://www.inkscape.org/namespaces/inkscape"
   xmlns:sodipodi="http://sodipodi.sourceforge.net/DTD/sodipodi-0.dtd"
   xmlns="http://www.w3.org/2000/svg"
   xmlns:svg="http://www.w3.org/2000/svg">
  <sodipodi:namedview
     id="namedview6"
     pagecolor="#ffffff"
     bordercolor="#eeeeee"
     borderopacity="1"
     inkscape:showpageshadow="0"
     inkscape:pageopacity="0"
     inkscape:pagecheckerboard="0"
     inkscape:deskcolor="#545454"
     inkscape:zoom="8"
     inkscape:cx="-20.125"
     inkscape:cy="33.0625"
     inkscape:window-width="1920"
     inkscape:window-height="991"
     inkscape:window-x="-9"
     inkscape:window-y="-9"
     inkscape:window-maximized="1"
     inkscape:current-layer="svg6"
     showguides="false" />
  <defs
     id="defs6">
    <inkscape:path-effect
       effect="fillet_chamfer"
       id="path-effect1"
       is_visible="true"
       lpeversion="1"
       nodesatellites_param="F,0,0,1,0,1,0,1 @ F,0,0,1,0,1,0,1 @ F,0,0,1,0,1,0,1"
       radius="0.25"
       unit="px"
       method="auto"
       mode="F"
       chamfer_steps="1"
       flexible="false"
       use_knot_distance="true"
       apply_no_radius="true"
       apply_with_radius="true"
       only_selected="false"
       hide_knots="false" />
    <inkscape:perspective
       sodipodi:type="inkscape:persp3d"
       inkscape:vp_x="1.4641604e-15 : -21.061751 : 0"
       inkscape:vp_y="-2385.4101 : 1378.6851 : 0"
       inkscape:vp_z="20.115543 : 11.626094 : 0"
       inkscape:persp3d-origin="17.786866 : 1.777515 : 1"
       id="perspective1" />
    <clipPath
       clipPathUnits="userSpaceOnUse"
       id="clipPath7">
      <g
         id="g8">
        <rect
           width="16"
           height="16"
           fill="#ffffff"
           id="rect8"
           x="0"
           y="0" />
      </g>
    </clipPath>
    <inkscape:perspective
       sodipodi:type="inkscape:persp3d"
       inkscape:vp_x="1.4641604e-15 : -21.061751 : 0"
       inkscape:vp_y="-2385.4101 : 1378.6851 : 0"
       inkscape:vp_z="20.115543 : 11.626094 : 0"
       inkscape:persp3d-origin="30.236303 : -7.549373 : 1"
       id="perspective1-4" />
    <inkscape:path-effect
       effect="fillet_chamfer"
       id="path-effect1-3"
       is_visible="true"
       lpeversion="1"
       nodesatellites_param="F,0,0,1,0,1,0,1 @ F,0,0,1,0,1,0,1 @ F,0,0,1,0,1,0,1"
       radius="1"
       unit="px"
       method="auto"
       mode="F"
       chamfer_steps="1"
       flexible="false"
       use_knot_distance="true"
       apply_no_radius="true"
       apply_with_radius="true"
       only_selected="false"
       hide_knots="false" />
  </defs>
  <path
     id="path1"
     style="fill:#c80000;stroke:none;stroke-width:3;stroke-linecap:square;stroke-dasharray:none;stroke-opacity:1;paint-order:markers stroke fill;fill-opacity:1"
     d="M 8 0 A 7.9999995 7.9999995 0 0 0 0 8 A 7.9999995 7.9999995 0 0 0 0.71679688 11.310547 L 3.1328125 7.5273438 C 3.5477265 6.8776542 4.2736241 6.5546875 5 6.5546875 C 5.7263759 6.5546875 6.4522736 6.8776542 6.8671875 7.5273438 L 11.193359 14.302734 C 11.371587 14.58181 11.464931 14.884583 11.486328 15.189453 A 7.9999995 7.9999995 0 0 0 16 8 A 7.9999995 7.9999995 0 0 0 8 0 z M 5 8 A 0.68617262 0.67152381 0 0 0 4.4179688 8.3164062 L 1.5878906 12.748047 A 7.9999995 7.9999995 0 0 0 8 16 A 7.9999995 7.9999995 0 0 0 9.8789062 15.757812 A 0.60849529 0.59550478 0 0 0 9.9082031 15.089844 L 5.5820312 8.3164062 A 0.68617262 0.67152381 0 0 0 5 8 z " />
  <path
     style="color:#000000;fill:#0065c7;fill-opacity:1;stroke:none;stroke-width:0.920731;stroke-linecap:square;-inkscape-stroke:none;paint-order:markers stroke fill"
     d="M 9.4700011,15.152002 5.5299989,8.8479983 a 0.625,0.625 0 0 0 -1.0599978,0 L 0.52999894,15.152002 A 0.55424764,0.55424764 61.002692 0 0 1,16 h 8 a 0.55424764,0.55424764 118.99731 0 0 0.4700011,-0.847998 z"
     id="path40-3"
     inkscape:path-effect="#path-effect1"
     inkscape:original-d="M 10,16 5,8 0,16 Z"
     transform="matrix(1.0978762,0,0,1.0744381,-0.48938091,-1.1910096)" />
</svg>
