<?xml version="1.0" encoding="UTF-8" standalone="no"?>
<!-- Created with Inkscape (http://www.inkscape.org/) -->

<svg
   width="16"
   height="16"
   viewBox="0 0 16 16"
   version="1.1"
   id="svg1"
   inkscape:version="1.3.2 (091e20e, 2023-11-25, custom)"
   sodipodi:docname="threadt_obj.svg"
   xml:space="preserve"
   inkscape:export-filename="threadt_obj_16x16.png"
   inkscape:export-xdpi="96"
   inkscape:export-ydpi="96"
   xmlns:inkscape="http://www.inkscape.org/namespaces/inkscape"
   xmlns:sodipodi="http://sodipodi.sourceforge.net/DTD/sodipodi-0.dtd"
   xmlns="http://www.w3.org/2000/svg"
   xmlns:svg="http://www.w3.org/2000/svg"><sodipodi:namedview
     id="namedview1"
     pagecolor="#ffffff"
     bordercolor="#000000"
     borderopacity="0.25"
     inkscape:showpageshadow="2"
     inkscape:pageopacity="0.0"
     inkscape:pagecheckerboard="0"
     inkscape:deskcolor="#d1d1d1"
     inkscape:document-units="px"
     inkscape:zoom="16"
     inkscape:cx="5.5625"
     inkscape:cy="11.03125"
     inkscape:window-width="1920"
     inkscape:window-height="991"
     inkscape:window-x="-9"
     inkscape:window-y="-9"
     inkscape:window-maximized="1"
     inkscape:current-layer="layer2"
     showguides="true"
     inkscape:export-bgcolor="#ffffff00"
     showgrid="true"><inkscape:grid
       id="grid1"
       units="px"
       originx="0"
       originy="0"
       spacingx="1"
       spacingy="1"
       empcolor="#0099e5"
       empopacity="0.30196078"
       color="#0099e5"
       opacity="0.14901961"
       empspacing="5"
       dotted="false"
       gridanglex="30"
       gridanglez="30"
       visible="true" /></sodipodi:namedview><defs
     id="defs1"><inkscape:path-effect
       effect="fillet_chamfer"
       id="path-effect1"
       is_visible="true"
       lpeversion="1"
       nodesatellites_param="F,0,0,1,0,1,0,1 @ F,0,0,1,0,1,0,1 @ F,0,0,1,0,1,0,1"
       radius="0.25"
       unit="px"
       method="auto"
       mode="F"
       chamfer_steps="1"
       flexible="false"
       use_knot_distance="true"
       apply_no_radius="true"
       apply_with_radius="true"
       only_selected="false"
       hide_knots="false" /><inkscape:path-effect
       effect="fillet_chamfer"
       id="path-effect1-9"
       is_visible="true"
       lpeversion="1"
       nodesatellites_param="F,0,0,1,0,1,0,1 @ F,0,0,1,0,1,0,1 @ F,0,0,1,0,1,0,1"
       radius="0.25"
       unit="px"
       method="auto"
       mode="F"
       chamfer_steps="1"
       flexible="false"
       use_knot_distance="true"
       apply_no_radius="true"
       apply_with_radius="true"
       only_selected="false"
       hide_knots="false" /></defs><g
     inkscape:groupmode="layer"
     id="layer2"
     inkscape:label="Icon"
     transform="matrix(1.2534827,0,0,1.2534827,-1.8232783,-2.3969923)"
     style="display:inline"><path
       id="path6"
       style="color:#000000;fill:#a8a8a8;stroke-width:1;stroke-linecap:round;-inkscape-stroke:none;paint-order:markers stroke fill"
       d="M 4.645679,1.912266 C 4.4341116,1.9122902 4.2312177,1.9963622 4.0816256,2.1459898 L 2.486071,3.7415443 c -0.3113807,0.3115593 -0.3113807,0.8165476 0,1.1281069 0.3113579,0.3104731 0.8151909,0.3104731 1.1265488,0 l 0.235282,-0.235282 V 5.5022637 H 5.4434563 V 4.6359274 l 0.2337238,0.2337238 c 0.3115371,0.3115103 0.8165698,0.3115103 1.1281069,0 0.3113807,-0.3115593 0.3113807,-0.8165476 0,-1.1281069 L 5.2097325,2.1459898 C 5.0601403,1.9963622 4.8572464,1.9122901 4.645679,1.912266 Z m 6.382218,0 c -0.158028,-3.067e-4 -0.312587,0.046332 -0.444075,0.1340016 -0.0437,0.029158 -0.08441,0.062561 -0.121536,0.099722 L 8.8698473,3.7415443 c -0.3113807,0.3115593 -0.3113807,0.8165476 0,1.1281069 0.3113579,0.3104731 0.8151909,0.3104731 1.1265488,0 L 10.23012,4.6359274 V 6.703604 H 9.9247208 C 10.285601,7.1533698 10.527889,7.7009329 10.60252,8.2991586 h 0.425377 c 0.351676,-8.81e-5 0.661812,-0.230475 0.763498,-0.5671698 0.0058,-0.017988 0.01104,-0.036178 0.01558,-0.054536 v -0.00156 -0.00156 c 0.0043,-0.018046 0.0079,-0.036236 0.01091,-0.054536 v -0.00156 -0.00156 -0.00156 c 0.0027,-0.018618 0.0048,-0.037328 0.0062,-0.056094 v -0.00156 -0.00156 c 0.0012,-0.018674 0.0017,-0.037383 0.0016,-0.056094 v -0.00156 -0.00156 -2.8592212 l 0.232166,0.2321656 c 0.311715,0.3125504 0.81795,0.3125504 1.129665,0 0.311381,-0.3115593 0.311381,-0.8165476 0,-1.1281069 L 11.591951,2.1459898 C 11.442359,1.9963621 11.239465,1.91229 11.027897,1.912266 Z"
       sodipodi:nodetypes="ccccccccccccccccccccccccccccccccccccccccccccc" /><path
       id="path5"
       style="color:#000000;display:inline;fill:#0065c7;stroke-linecap:round;-inkscape-stroke:none;paint-order:markers stroke fill;fill-opacity:1"
       d="m 3.4490131,6.6989296 c -1.0842199,0 -1.9944431,0.9102231 -1.9944431,1.9944431 v 3.9888863 c 0,1.084219 0.9102243,1.992885 1.9944431,1.992885 h 3.9888864 c 1.0842187,0 1.9944431,-0.908666 1.9944431,-1.992885 V 8.6933727 c 0,-1.0842198 -0.9102233,-1.994443 -1.9944431,-1.9944431 z" /></g></svg>
