<?xml version="1.0" encoding="UTF-8" standalone="no"?>
<svg
   width="16"
   height="16"
   id="svg2"
   version="1.1"
   inkscape:version="1.4.2 (ebf0e94, 2025-05-08)"
   sodipodi:docname="redo_edit.svg"
   inkscape:export-filename="C:\Users\D019122\OneDrive - SAP SE\Desktop\iam_package.png"
   inkscape:export-xdpi="96"
   inkscape:export-ydpi="96"
   xml:space="preserve"
   xmlns:inkscape="http://www.inkscape.org/namespaces/inkscape"
   xmlns:sodipodi="http://sodipodi.sourceforge.net/DTD/sodipodi-0.dtd"
   xmlns="http://www.w3.org/2000/svg"
   xmlns:svg="http://www.w3.org/2000/svg"
   xmlns:rdf="http://www.w3.org/1999/02/22-rdf-syntax-ns#"
   xmlns:cc="http://creativecommons.org/ns#"
   xmlns:dc="http://purl.org/dc/elements/1.1/"><defs
     id="defs4" /><sodipodi:namedview
     id="base"
     pagecolor="#ffffff"
     bordercolor="#666666"
     borderopacity="1.0"
     inkscape:pageopacity="0"
     inkscape:pageshadow="2"
     inkscape:zoom="32"
     inkscape:cx="8.9375"
     inkscape:cy="12.921875"
     inkscape:document-units="px"
     inkscape:current-layer="layer1"
     showgrid="true"
     inkscape:window-width="2470"
     inkscape:window-height="1399"
     inkscape:window-x="619"
     inkscape:window-y="82"
     inkscape:window-maximized="0"
     showguides="false"
     inkscape:guide-bbox="true"
     inkscape:snap-global="false"
     inkscape:snap-bbox="true"
     inkscape:bbox-nodes="true"
     inkscape:document-rotation="0"
     inkscape:showpageshadow="false"
     inkscape:pagecheckerboard="0"
     inkscape:deskcolor="#ffffff"><inkscape:grid
       type="xygrid"
       id="grid3999"
       originx="0"
       originy="0"
       spacingy="1"
       spacingx="1"
       units="px"
       visible="false"
       enabled="true" /><inkscape:grid
       id="grid1"
       units="px"
       originx="0"
       originy="0"
       spacingx="1"
       spacingy="1"
       empcolor="#0099e5"
       empopacity="0.30196078"
       color="#0099e5"
       opacity="0.14901961"
       empspacing="5"
       enabled="true"
       visible="true" /></sodipodi:namedview><metadata
     id="metadata7"><rdf:RDF><cc:Work
         rdf:about=""><dc:format>image/svg+xml</dc:format><dc:type
           rdf:resource="http://purl.org/dc/dcmitype/StillImage" /></cc:Work></rdf:RDF></metadata><g
     inkscape:label="Layer 1"
     inkscape:groupmode="layer"
     id="layer1"
     style="display:inline"
     transform="translate(0,-1036.3622)"><path
       id="rect6-22"
       style="display:inline;fill:#a8a8a8;fill-opacity:1;stroke:none;stroke-width:2.00153;stroke-linecap:round;stroke-linejoin:round;stroke-dasharray:none;stroke-opacity:1"
       d="M 747.21741 762.03911 C 747.39337 761.85904 747.63605 761.74862 747.90572 761.74862 C 748.44504 761.74862 748.87957 762.19208 748.87957 762.74399 L 748.88086 766.19525 L 754.23329 760.84282 L 754.23755 760.84708 A 5.1443053 4.9163496 45 0 1 761.1753 761.1753 A 5.1443053 4.9163496 45 0 1 761.50352 768.11305 L 761.50778 768.11731 L 761.37199 768.2531 L 761.37064 768.25445 L 760.05304 769.57205 A 1.0468668 1.0566867 45 0 1 758.56526 769.57936 A 1.0350213 1.0447301 45 0 1 758.60621 768.10909 L 759.91978 766.79552 L 759.95339 766.7619 A 3.0863054 2.8773441 45 0 0 759.79854 762.55206 A 3.0863054 2.8773441 45 0 0 755.58197 762.40393 L 750.33576 767.65015 L 753.78701 767.65143 C 754.33893 767.65143 754.78238 768.08596 754.78238 768.62529 C 754.78238 769.16462 754.33876 769.59809 753.78685 769.59809 L 747.98969 769.59839 C 747.69612 769.59839 747.43342 769.47576 747.25141 769.2796 C 747.05493 769.09757 746.93261 768.83515 746.93261 768.54132 L 746.93291 762.74416 C 746.93291 762.4682 747.04144 762.21918 747.21741 762.03911 z "
       transform="matrix(-0.7263422,0.68733326,0.7263422,0.68733326,0,0)" /></g></svg>
