<?xml version="1.0" encoding="UTF-8" standalone="no"?>
<svg
   width="16"
   height="16"
   viewBox="0 0 16 16"
   fill="none"
   version="1.1"
   id="svg5"
   sodipodi:docname="jar_obj.svg"
   inkscape:export-filename="jar_obj_16x16.png"
   inkscape:export-xdpi="96"
   inkscape:export-ydpi="96"
   inkscape:version="1.3.2 (091e20e, 2023-11-25, custom)"
   xmlns:inkscape="http://www.inkscape.org/namespaces/inkscape"
   xmlns:sodipodi="http://sodipodi.sourceforge.net/DTD/sodipodi-0.dtd"
   xmlns="http://www.w3.org/2000/svg"
   xmlns:svg="http://www.w3.org/2000/svg">
  <sodipodi:namedview
     id="namedview5"
     pagecolor="#505050"
     bordercolor="#eeeeee"
     borderopacity="1"
     inkscape:showpageshadow="0"
     inkscape:pageopacity="0"
     inkscape:pagecheckerboard="0"
     inkscape:deskcolor="#505050"
     showgrid="true"
     showguides="false"
     inkscape:zoom="16"
     inkscape:cx="11.6875"
     inkscape:cy="13.65625"
     inkscape:window-width="1920"
     inkscape:window-height="991"
     inkscape:window-x="-9"
     inkscape:window-y="-9"
     inkscape:window-maximized="1"
     inkscape:current-layer="svg5">
    <inkscape:grid
       id="grid5"
       units="px"
       originx="0"
       originy="0"
       spacingx="1"
       spacingy="1"
       empcolor="#0099e5"
       empopacity="0.30196078"
       color="#0099e5"
       opacity="0.14901961"
       empspacing="5"
       dotted="false"
       gridanglex="30"
       gridanglez="30"
       visible="true" />
  </sodipodi:namedview>
  <defs
     id="defs5">
    <inkscape:path-effect
       effect="fillet_chamfer"
       id="path-effect5"
       is_visible="true"
       lpeversion="1"
       nodesatellites_param="F,0,0,1,0,0,0,1 @ F,0,0,1,0,0,0,1 @ F,0,0,1,0,0,0,1 @ F,0,0,1,0,0,0,1 @ F,0,0,1,0,0.93154167,0,1 @ F,0,0,1,0,0,0,1 @ F,0,0,1,0,0,0,1 @ F,0,0,1,0,0,0,1"
       radius="0"
       unit="px"
       method="auto"
       mode="F"
       chamfer_steps="1"
       flexible="false"
       use_knot_distance="true"
       apply_no_radius="true"
       apply_with_radius="true"
       only_selected="false"
       hide_knots="false" />
    <inkscape:path-effect
       effect="fillet_chamfer"
       id="path-effect7"
       is_visible="true"
       lpeversion="1"
       nodesatellites_param="F,0,0,1,0,0,0,1 @ F,0,0,1,0,0,0,1 @ F,0,0,1,0,0,0,1 @ F,0,0,1,0,0,0,1 @ F,0,0,1,0,0,0,1 @ F,0,0,1,0,0,0,1 @ F,0,1,1,0,0.77593665,0,1 @ F,0,0,1,0,0.77593665,0,1 | F,0,0,1,0,0,0,1 @ F,0,0,1,0,0,0,1 @ F,0,0,1,0,0,0,1 @ F,0,0,1,0,0,0,1 @ F,0,0,1,0,0,0,1"
       radius="0"
       unit="px"
       method="auto"
       mode="F"
       chamfer_steps="1"
       flexible="false"
       use_knot_distance="true"
       apply_no_radius="true"
       apply_with_radius="true"
       only_selected="false"
       hide_knots="false" />
    <mask
       id="path-1-inside-1_1_2"
       fill="#ffffff">
      <rect
         width="10"
         height="10"
         rx="1"
         id="rect2"
         x="0"
         y="0" />
    </mask>
    <clipPath
       clipPathUnits="userSpaceOnUse"
       id="clipPath1">
      <g
         id="g3">
        <rect
           width="16"
           height="16"
           fill="#ffffff"
           id="rect3"
           x="0"
           y="0" />
      </g>
    </clipPath>
  </defs>
  <path
     id="rect5"
     style="fill:#a8a8a8;fill-opacity:1;stroke:none;stroke-width:2;stroke-linecap:round;stroke-opacity:1;paint-order:markers stroke fill"
     d="M 1 -5.0117188 C 0.44600444 -5.0117188 0 -5.4577228 0 -6.0117188 L 0 -10 L 2 -10 L 2 -12 L 4 -12 L 4 -10 L 6 -10 L 6 -12 L 8 -12 L 8 -10 L 10 -10 L 10 -12 L 12 -12 L 12 -10 L 14 -10 L 14 -12 L 16 -12 L 16 -6.0117188 C 16 -5.4577228 15.553992 -5.0117187 15 -5.0117188 L 1 -5.0117188 z M 14 -12 L 12 -12 L 12 -14 L 10 -14 L 10 -12 L 8 -12 L 8 -14 L 6 -14 L 6 -12 L 4 -12 L 4 -14 L 2 -14 L 2 -12 L 0 -12 L 0 -15 C 0 -15.553992 0.44600444 -16 1 -16 L 15 -16 C 15.553992 -16 16 -15.553992 16 -15 L 16 -14 L 14 -14 L 14 -12 z "
     transform="scale(1,-1)" />
  <path
     id="rect5-2"
     style="fill:#a8a8a8;stroke-width:2.00109;stroke-linecap:round;paint-order:markers stroke fill"
     transform="matrix(1,0,0,-0.99891407,0,0.01737494)"
     d="M 0.99999994,-6.710629 H 7.0008536 c 0.554,0 0.4460002,0.9994428 0.9999999,1.0000001 l 1.7125242,-0.00986 -2.0565022,2.0732553 A 2.2361013,2.2361013 157.38379 0 1 6.0693119,-2.9858675 H 0.99999994 C 0.44599997,-2.9858675 0,-3.4318668 0,-3.9858669 v -1.724762 c 0,-0.554 0.44599997,-1.0000001 0.99999994,-1.0000001 z"
     sodipodi:nodetypes="sssccssss"
     inkscape:path-effect="#path-effect5"
     inkscape:original-d="M 0.99999994,-6.710629 H 7.0008536 c 0.554,0 0.4460002,0.9994428 0.9999999,1.0000001 l 1.7125242,-0.00986 -2.7125241,2.7346214 H 0.99999994 C 0.44599997,-2.9858675 0,-3.4318668 0,-3.9858669 v -1.724762 c 0,-0.554 0.44599997,-1.0000001 0.99999994,-1.0000001 z" />
</svg>
