<?xml version="1.0" encoding="UTF-8" standalone="no"?>
<!-- Created with Inkscape (http://www.inkscape.org/) -->

<svg
   width="16"
   height="16"
   viewBox="0 0 16 16"
   version="1.1"
   id="svg1"
   inkscape:version="1.3.2 (091e20e, 2023-11-25, custom)"
   sodipodi:docname="ldebug_obj.svg"
   xml:space="preserve"
   inkscape:export-filename="ldebug_obj_16x16.png"
   inkscape:export-xdpi="96"
   inkscape:export-ydpi="96"
   xmlns:inkscape="http://www.inkscape.org/namespaces/inkscape"
   xmlns:sodipodi="http://sodipodi.sourceforge.net/DTD/sodipodi-0.dtd"
   xmlns="http://www.w3.org/2000/svg"
   xmlns:svg="http://www.w3.org/2000/svg"><sodipodi:namedview
     id="namedview1"
     pagecolor="#ffffff"
     bordercolor="#000000"
     borderopacity="0.25"
     inkscape:showpageshadow="2"
     inkscape:pageopacity="0.0"
     inkscape:pagecheckerboard="0"
     inkscape:deskcolor="#d1d1d1"
     inkscape:document-units="px"
     inkscape:zoom="32"
     inkscape:cx="7.625"
     inkscape:cy="6.046875"
     inkscape:window-width="1920"
     inkscape:window-height="991"
     inkscape:window-x="-9"
     inkscape:window-y="-9"
     inkscape:window-maximized="1"
     inkscape:current-layer="layer2"
     showguides="true"
     inkscape:export-bgcolor="#ffffff00" /><defs
     id="defs1" /><g
     inkscape:groupmode="layer"
     id="layer2"
     inkscape:label="Icon"
     transform="matrix(1.2534827,0,0,1.2534827,-1.8232783,-2.3969923)"><path
       style="color:#000000;fill:#499C54;fill-opacity:1;stroke-width:0.999996;stroke-linecap:round;stroke-linejoin:round;-inkscape-stroke:none"
       d="M 5.7630728,1.9756165 A 0.79777497,0.75248957 0 0 0 5.1516414,1.9641272 0.79777497,0.75248957 0 0 0 4.7007521,2.9392064 L 5.9701006,5.9873798 A 0.79777497,0.75248957 0 0 0 7.0057474,6.4131513 0.79777497,0.75248957 0 0 0 7.4552556,5.4358158 L 6.1854016,2.3894219 A 0.79777497,0.75248957 0 0 0 5.7630728,1.9756165 Z"
       id="path11" /><path
       style="color:#000000;fill:#499C54;fill-opacity:1;stroke-width:0.999996;stroke-linecap:round;stroke-linejoin:round;-inkscape-stroke:none"
       d="m 9.5850455,1.9756166 a 0.79777497,0.75248957 0 0 1 0.6114305,-0.01149 0.79777497,0.75248957 0 0 1 0.45089,0.9750792 L 9.3780175,5.9873799 A 0.79777497,0.75248957 0 0 1 8.3423708,6.4131514 0.79777497,0.75248957 0 0 1 7.8928628,5.4358159 L 9.1627168,2.389422 A 0.79777497,0.75248957 0 0 1 9.5850455,1.9756166 Z"
       id="path11-6" /><path
       style="color:#000000;fill:#499C54;fill-opacity:1;stroke-width:1;stroke-linecap:round;stroke-linejoin:round;-inkscape-stroke:none"
       d="M 2.1210938,6.7099459 A 0.79777497,0.79781183 0 0 0 1.6035156,7.0341797 0.79777497,0.79781183 0 0 0 1.7890625,8.1475123 L 4.5800781,10.141745 A 0.79777497,0.79781183 0 0 0 5.6933594,9.9561896 0.79777497,0.79781183 0 0 0 5.5078125,8.8428569 L 2.7167969,6.8486242 A 0.79777497,0.79781183 0 0 0 2.1210938,6.7099459 Z"
       id="path11-5" /><path
       id="path4"
       style="color:#000000;fill:#499C54;fill-opacity:1;stroke-width:1;stroke-linecap:round;stroke-linejoin:round;-inkscape-stroke:none"
       d="M 3.673388 6.3436694 C 3.2763393 7.1639535 3.0501245 8.1048797 3.0501245 9.0922613 C 3.0501245 10.434319 3.4623501 11.692937 4.1626498 12.674468 L 3.3835705 13.230731 A 0.79801446 0.79781183 0 0 0 3.1981496 14.341698 A 0.79801446 0.79781183 0 0 0 4.3122331 14.528677 L 5.2923149 13.827506 C 5.8646666 14.247293 6.5227064 14.527867 7.2384551 14.629957 L 7.2384551 10.488372 A 0.59803533 0.59833503 0 0 1 7.8383463 9.8900386 A 0.59803533 0.59833503 0 0 1 8.435121 10.488372 L 8.435121 14.629957 C 9.1499939 14.527492 9.80772 14.246764 10.379703 13.827506 L 11.361343 14.528677 A 0.79801446 0.79781183 0 0 0 12.475427 14.341698 A 0.79801446 0.79781183 0 0 0 12.290006 13.230731 L 11.509368 12.67291 C 12.209857 11.691478 12.623452 10.433794 12.623452 9.0922613 C 12.623452 8.1050173 12.397587 7.1639195 12.000188 6.3436694 C 10.881197 7.3095643 9.4249562 7.8955954 7.8352299 7.8955954 C 6.2459256 7.8955954 4.7918239 7.309106 3.673388 6.3436694 z " /><path
       style="color:#000000;fill:#499C54;fill-opacity:1;stroke-width:1;stroke-linecap:round;stroke-linejoin:round;-inkscape-stroke:none"
       d="M 6.1739127,9.9079801 A 0.79777497,0.79781183 0 0 0 5.5896591,9.7285222 L 2.1745215,10.061699 a 0.79777497,0.79781183 0 0 0 -0.7163523,0.869705 0.79777497,0.79781183 0 0 0 0.8713566,0.717363 l 3.414161,-0.331485 A 0.79777497,0.79781183 0 0 0 6.4610156,10.445885 0.79777497,0.79781183 0 0 0 6.1739127,9.9079801 Z"
       id="path11-5-7-9" /><path
       style="color:#000000;fill:#499C54;fill-opacity:1;stroke-width:1;stroke-linecap:round;stroke-linejoin:round;-inkscape-stroke:none"
       d="m 13.552482,6.7099459 a 0.79777497,0.79781183 0 0 1 0.517579,0.324233 0.79777497,0.79781183 0 0 1 -0.185547,1.1133334 L 11.093498,10.141744 A 0.79777497,0.79781183 0 0 1 9.9802174,9.9561889 0.79777497,0.79781183 0 0 1 10.165764,8.8428564 l 2.791015,-1.9942321 a 0.79777497,0.79781183 0 0 1 0.595703,-0.1386784 z"
       id="path11-5-4" /><path
       style="color:#000000;fill:#499C54;fill-opacity:1;stroke-width:1;stroke-linecap:round;stroke-linejoin:round;-inkscape-stroke:none"
       d="M 9.4996631,9.9079797 A 0.79777497,0.79781183 0 0 1 10.083917,9.7285213 l 3.415138,0.3331767 a 0.79777497,0.79781183 0 0 1 0.716352,0.869705 0.79777497,0.79781183 0 0 1 -0.871357,0.717363 L 9.9298894,11.317281 A 0.79777497,0.79781183 0 0 1 9.2125611,10.445884 0.79777497,0.79781183 0 0 1 9.4996631,9.9079797 Z"
       id="path11-5-7-9-6" /><path
       id="path2"
       style="color:#000000;fill:#499C54;fill-opacity:1;stroke:none;stroke-width:1.59554;stroke-linecap:round;stroke-linejoin:round;stroke-dasharray:none"
       d="M 4.3091168 5.3184009 C 5.2331426 6.1749847 6.4697799 6.6985279 7.8336718 6.6989296 C 7.83577 6.6989296 7.8378069 6.6989316 7.8399044 6.6989296 C 9.2025653 6.6977326 10.43958 6.1743318 11.362901 5.3184009 C 10.500495 4.2161857 9.2595009 3.5078205 7.8352299 3.5078205 C 6.4109953 3.5078205 5.1707431 4.216248 4.3091168 5.3184009 z " /></g></svg>
