<?xml version="1.0" encoding="UTF-8" standalone="no"?>
<svg
   width="16"
   height="16"
   viewBox="0 0 16 16"
   fill="none"
   version="1.1"
   id="svg6"
   sodipodi:docname="refresh_tab.svg"
   inkscape:version="1.3.2 (091e20e, 2023-11-25, custom)"
   inkscape:export-filename="refresh_tab_16x16.png"
   inkscape:export-xdpi="96"
   inkscape:export-ydpi="96"
   xmlns:inkscape="http://www.inkscape.org/namespaces/inkscape"
   xmlns:sodipodi="http://sodipodi.sourceforge.net/DTD/sodipodi-0.dtd"
   xmlns="http://www.w3.org/2000/svg"
   xmlns:svg="http://www.w3.org/2000/svg">
  <sodipodi:namedview
     id="namedview6"
     pagecolor="#ffffff"
     bordercolor="#eeeeee"
     borderopacity="1"
     inkscape:showpageshadow="0"
     inkscape:pageopacity="0"
     inkscape:pagecheckerboard="0"
     inkscape:deskcolor="#545454"
     inkscape:zoom="32"
     inkscape:cx="6.046875"
     inkscape:cy="8.078125"
     inkscape:window-width="1920"
     inkscape:window-height="991"
     inkscape:window-x="-9"
     inkscape:window-y="-9"
     inkscape:window-maximized="1"
     inkscape:current-layer="svg6"
     showguides="false"
     showgrid="true">
    <inkscape:grid
       id="grid1"
       units="px"
       originx="0"
       originy="0"
       spacingx="1"
       spacingy="1"
       empcolor="#0099e5"
       empopacity="0.30196078"
       color="#0099e5"
       opacity="0.14901961"
       empspacing="5"
       enabled="true"
       visible="true" />
  </sodipodi:namedview>
  <defs
     id="defs6">
    <inkscape:path-effect
       effect="fillet_chamfer"
       id="path-effect4"
       is_visible="true"
       lpeversion="1"
       nodesatellites_param="F,0,0,1,0,0,0,1 @ F,0,0,1,0,0,0,1 @ F,0,0,1,0,0,0,1 @ F,0,0,1,0,0.91274802,0,1 @ F,0,0,1,0,0.79375784,0,1 @ F,0,0,1,0,0,0,1 @ F,0,0,1,0,0,0,1 @ F,0,0,1,0,0,0,1 @ F,0,0,1,0,0,0,1 @ F,0,0,1,0,0,0,1 @ F,0,0,1,0,0,0,1 @ F,0,0,1,0,0,0,1"
       radius="0"
       unit="px"
       method="auto"
       mode="F"
       chamfer_steps="1"
       flexible="false"
       use_knot_distance="true"
       apply_no_radius="true"
       apply_with_radius="true"
       only_selected="false"
       hide_knots="false" />
    <inkscape:path-effect
       effect="fillet_chamfer"
       id="path-effect5"
       is_visible="true"
       lpeversion="1"
       nodesatellites_param="F,0,0,1,0,0,0,1 @ F,0,0,1,0,0,0,1 @ F,0,0,1,0,0,0,1 @ F,0,0,1,0,0.5785156,0,1 @ F,0,1,1,0,0.5785156,0,1 @ F,0,0,1,0,0,0,1 @ F,0,0,1,0,0,0,1 @ F,0,0,1,0,0,0,1 @ F,0,0,1,0,0,0,1 @ F,0,0,1,0,0,0,1 @ F,0,0,1,0,0,0,1"
       radius="0"
       unit="px"
       method="auto"
       mode="F"
       chamfer_steps="1"
       flexible="false"
       use_knot_distance="true"
       apply_no_radius="true"
       apply_with_radius="true"
       only_selected="false"
       hide_knots="false" />
    <inkscape:perspective
       sodipodi:type="inkscape:persp3d"
       inkscape:vp_x="1.4641604e-15 : -21.061751 : 0"
       inkscape:vp_y="-2385.4101 : 1378.6851 : 0"
       inkscape:vp_z="20.115543 : 11.626094 : 0"
       inkscape:persp3d-origin="17.786866 : 1.777515 : 1"
       id="perspective1" />
    <clipPath
       clipPathUnits="userSpaceOnUse"
       id="clipPath7">
      <g
         id="g8">
        <rect
           width="16"
           height="16"
           fill="#ffffff"
           id="rect8"
           x="0"
           y="0" />
      </g>
    </clipPath>
    <inkscape:perspective
       sodipodi:type="inkscape:persp3d"
       inkscape:vp_x="1.4641604e-15 : -21.061751 : 0"
       inkscape:vp_y="-2385.4101 : 1378.6851 : 0"
       inkscape:vp_z="20.115543 : 11.626094 : 0"
       inkscape:persp3d-origin="30.236303 : -7.549373 : 1"
       id="perspective1-4" />
  </defs>
  <path
     id="path2"
     style="fill:#ff7f27;stroke-width:0.991981;stroke-linecap:round;stroke-linejoin:bevel;fill-opacity:1"
     d="m 7.28125,1.8052852 c -3.7728638,0 -6.85096305,3.0781011 -6.85096305,6.8509649 0,3.7728639 3.07809925,6.8509649 6.85096305,6.8509649 3.14751,0 5.810198,-2.142846 6.606663,-5.043758 0.133364,-0.4857408 -0.226795,-0.8937449 -0.730892,-0.8937449 h -0.141826 c -0.438381,0 -0.851545,0.3533734 -0.996945,0.7664529 -0.687402,1.952893 -2.5416829,3.344126 -4.737,3.344126 -2.7855176,0 -5.0240396,-2.238523 -5.0240396,-5.0240409 0,-2.7855176 2.238522,-5.024041 5.0240396,-5.024041 1.2365203,0 2.3648453,0.441375 3.237401,1.1758849 0.436278,0.3672549 0.573225,1.0719879 1.09856,1.3030859 0.55235,0.2429818 1.299064,-0.134617 1.689236,-0.7066936 C 13.763723,4.7340221 12.409638,4.0534143 11.805599,3.5201994 10.597521,2.4537694 9.0127455,1.8052852 7.28125,1.8052852 Z"
     transform="matrix(1.1122987,0,0,1.0949498,0.02139237,-0.979357)"
     sodipodi:nodetypes="sssccssssssss"
     inkscape:path-effect="#path-effect4"
     inkscape:original-d="m 7.28125,1.8052852 c -3.7728638,0 -6.85096305,3.0781011 -6.85096305,6.8509649 0,3.7728639 3.07809925,6.8509649 6.85096305,6.8509649 3.462991,0 6.3391,-2.593937 6.788519,-5.9375029 H 12.221437 C 11.79455,11.914791 9.7542906,13.680291 7.28125,13.680291 c -2.7855176,0 -5.0240396,-2.238523 -5.0240396,-5.0240409 0,-2.7855176 2.238522,-5.024041 5.0240396,-5.024041 1.2365203,0 2.3648453,0.441375 3.237401,1.1758849 0.436278,0.3672549 0.573225,1.0719879 1.09856,1.3030859 0.55235,0.2429818 1.299064,-0.134617 1.689236,-0.7066936 C 13.763723,4.7340221 12.409638,4.0534143 11.805599,3.5201994 10.597521,2.4537694 9.0127455,1.8052852 7.28125,1.8052852 Z" />
  <path
     style="color:#000000;fill:#ff7f27;stroke-linecap:round;stroke-linejoin:bevel;-inkscape-stroke:none"
     d="m 14.210938,-0.0078125 a 1.000005,1.000005 0 0 0 -0.994141,1.00585938 l 0.02539,4.32031252 A 1.000005,1.000005 0 0 0 14.246094,6.3125 1.000005,1.000005 0 0 0 15.242188,5.3066406 L 15.216797,0.98632813 A 1.000005,1.000005 0 0 0 14.210938,-0.0078125 Z"
     id="path4" />
  <path
     style="color:#000000;fill:#ff7f27;stroke-linecap:round;stroke-linejoin:bevel;-inkscape-stroke:none"
     d="M 14.224609,4.3183594 9.8027344,4.34375 A 1.000005,1.000005 0 0 0 8.8085938,5.3496094 1.000005,1.000005 0 0 0 9.8144531,6.34375 l 4.4199219,-0.025391 a 1.000005,1.000005 0 0 0 0.996094,-1.0039063 1.000005,1.000005 0 0 0 -1.00586,-0.9960937 z"
     id="path4-21" />
</svg>
