<?xml version="1.0" encoding="UTF-8" standalone="no"?>
<!-- Created with Inkscape (http://www.inkscape.org/) -->

<svg
   width="16"
   height="16"
   viewBox="0 0 16 16"
   version="1.1"
   id="svg1"
   inkscape:version="1.3.2 (091e20e, 2023-11-25, custom)"
   sodipodi:docname="rundebug.svg"
   xml:space="preserve"
   inkscape:export-filename="rundebug_32x32.png"
   inkscape:export-xdpi="192"
   inkscape:export-ydpi="192"
   xmlns:inkscape="http://www.inkscape.org/namespaces/inkscape"
   xmlns:sodipodi="http://sodipodi.sourceforge.net/DTD/sodipodi-0.dtd"
   xmlns="http://www.w3.org/2000/svg"
   xmlns:svg="http://www.w3.org/2000/svg"><sodipodi:namedview
     id="namedview1"
     pagecolor="#ffffff"
     bordercolor="#000000"
     borderopacity="0.25"
     inkscape:showpageshadow="2"
     inkscape:pageopacity="0.0"
     inkscape:pagecheckerboard="0"
     inkscape:deskcolor="#d1d1d1"
     inkscape:document-units="px"
     inkscape:zoom="11.313709"
     inkscape:cx="9.7227182"
     inkscape:cy="10.739184"
     inkscape:window-width="1920"
     inkscape:window-height="991"
     inkscape:window-x="-9"
     inkscape:window-y="-9"
     inkscape:window-maximized="1"
     inkscape:current-layer="layer2"
     showguides="true"
     inkscape:export-bgcolor="#ffffff00" /><defs
     id="defs1"><inkscape:path-effect
       effect="fillet_chamfer"
       id="path-effect1"
       is_visible="true"
       lpeversion="1"
       nodesatellites_param="F,0,0,1,0,1,0,1 @ F,0,0,1,0,1,0,1 @ F,0,0,1,0,1,0,1"
       radius="0.25"
       unit="px"
       method="auto"
       mode="F"
       chamfer_steps="1"
       flexible="false"
       use_knot_distance="true"
       apply_no_radius="true"
       apply_with_radius="true"
       only_selected="false"
       hide_knots="false" /><inkscape:path-effect
       effect="fillet_chamfer"
       id="path-effect1-9"
       is_visible="true"
       lpeversion="1"
       nodesatellites_param="F,0,0,1,0,1,0,1 @ F,0,0,1,0,1,0,1 @ F,0,0,1,0,1,0,1"
       radius="0.25"
       unit="px"
       method="auto"
       mode="F"
       chamfer_steps="1"
       flexible="false"
       use_knot_distance="true"
       apply_no_radius="true"
       apply_with_radius="true"
       only_selected="false"
       hide_knots="false" /></defs><g
     inkscape:groupmode="layer"
     id="layer2"
     inkscape:label="Icon"
     transform="matrix(1.2534827,0,0,1.2534827,-1.8232783,-2.3969923)"
     style="display:inline"><path
       id="path11"
       style="color:#000000;fill:#a8a8a8;fill-opacity:1;stroke-width:0.999991;stroke-linecap:round;stroke-linejoin:round;-inkscape-stroke:none"
       d="M 5.4593909,1.912266 C 5.3544867,1.9101961 5.2501801,1.9276685 5.152446,1.9636822 4.7420224,2.1152225 4.5396766,2.5520025 4.7005983,2.9390326 L 5.2926747,4.3584323 C 4.9278809,4.6268886 4.5971531,4.9502692 4.3095163,5.3182019 4.9859356,5.9452526 5.8309775,6.3925437 6.7697495,6.5880271 7.1393192,5.6769474 8.3148809,5.1871418 9.1910303,5.7466706 L 9.9685201,6.242136 C 10.483936,6.0100298 10.954256,5.6971289 11.363016,5.3182019 11.010387,4.867516 10.593329,4.4845128 10.127446,4.1870448 L 10.64785,2.9390326 C 10.808771,2.5520025 10.606425,2.1152225 10.196002,1.9636822 9.9987237,1.8912229 9.7789995,1.8957071 9.5852286,1.9761468 9.3921957,2.0557785 9.2404016,2.204209 9.1629846,2.3890346 L 8.6628358,3.5903049 C 8.3953916,3.536644 8.118998,3.5077277 7.835487,3.5077277 c -0.3886322,0 -0.7629954,0.052019 -1.1202709,0.1511325 L 6.1854636,2.3890346 C 6.1080465,2.204209 5.9562525,2.0557784 5.7632196,1.9761468 5.6673736,1.9362398 5.5641319,1.914533 5.4593909,1.912266 Z M 3.6738132,6.3434105 C 3.5305438,6.6393988 3.4100689,6.9512134 3.313893,7.275135 L 2.7171423,6.8482244 C 2.5450191,6.7248181 2.330888,6.6749298 2.1219497,6.7095564 1.9133752,6.7447234 1.7273065,6.8612945 1.6046619,7.0336345 1.3477578,7.392351 1.4308338,7.8914954 1.7900753,8.1476529 L 3.052133,9.0497741 c -9.24e-5,0.014102 -0.00156,0.027946 -0.00156,0.042067 0,0.2972744 0.020101,0.590212 0.059208,0.8771922 L 2.1749236,10.06096 c -0.4377106,0.04267 -0.7583146,0.431567 -0.716724,0.869403 0.041851,0.439703 0.4330052,0.761699 0.8725336,0.718269 L 3.532025,11.531777 c 0.1704609,0.409773 0.3823442,0.793511 0.6310288,1.142064 l -0.7790482,0.556228 c -0.3573686,0.256002 -0.4402807,0.752769 -0.1854134,1.110902 0.255723,0.359614 0.7548757,0.443385 1.1140385,0.186968 l 0.9800422,-0.70113 c 0.4212564,0.308967 0.8899918,0.53997 1.3929376,0.682433 -0.020928,-0.102469 -0.03272,-0.209856 -0.03272,-0.319403 V 7.7846231 C 5.528524,7.5723055 4.5079208,7.0634156 3.6738132,6.3434105 Z m 8.3264638,0 C 11.727085,6.5792261 11.433504,6.791576 11.123069,6.9791021 l 2.321563,1.4832804 0.439383,-0.3147296 C 14.243256,7.8914955 14.326332,7.392351 14.069428,7.0336345 13.946783,6.8612944 13.760715,6.7447233 13.55214,6.7095564 13.343203,6.6749304 13.129071,6.7248185 12.956948,6.8482244 L 12.360198,7.275135 C 12.264031,6.9511964 12.143673,6.6393865 12.000277,6.3434105 Z"
       sodipodi:nodetypes="cccccccccccccccscccccccccccscccccccccccsccccccccccc" /><path
       style="color:#000000;display:inline;fill:#499C54;fill-opacity:1;stroke:none;stroke-width:0.920778;stroke-linecap:square;-inkscape-stroke:none;paint-order:markers stroke fill"
       d="M 9.4700011,15.152002 5.5299989,8.8479983 a 0.625,0.625 0 0 0 -1.0599978,0 L 0.52999894,15.152002 A 0.55424764,0.55424764 61.002692 0 0 1,16 h 8 a 0.55424764,0.55424764 118.99731 0 0 0.4700011,-0.847998 z"
       id="path40-3"
       inkscape:path-effect="#path-effect1"
       inkscape:original-d="M 10,16 5,8 0,16 Z"
       transform="matrix(0,0.87580949,-0.85712767,0,21.551088,6.3082558)" /></g></svg>
