<?xml version="1.0" encoding="UTF-8" standalone="no"?>
<!-- Created with Inkscape (http://www.inkscape.org/) -->

<svg
   width="16"
   height="16"
   viewBox="0 0 16 16"
   version="1.1"
   id="svg1"
   inkscape:version="1.4 (86a8ad7, 2024-10-11)"
   sodipodi:docname="threads_obj.svg"
   xml:space="preserve"
   inkscape:export-filename="threads_obj2_16x16.png"
   inkscape:export-xdpi="96"
   inkscape:export-ydpi="96"
   xmlns:inkscape="http://www.inkscape.org/namespaces/inkscape"
   xmlns:sodipodi="http://sodipodi.sourceforge.net/DTD/sodipodi-0.dtd"
   xmlns="http://www.w3.org/2000/svg"
   xmlns:svg="http://www.w3.org/2000/svg"><sodipodi:namedview
     id="namedview1"
     pagecolor="#ffffff"
     bordercolor="#000000"
     borderopacity="0.25"
     inkscape:showpageshadow="2"
     inkscape:pageopacity="0.0"
     inkscape:pagecheckerboard="0"
     inkscape:deskcolor="#d1d1d1"
     inkscape:document-units="px"
     inkscape:zoom="32"
     inkscape:cx="8.1875"
     inkscape:cy="8.453125"
     inkscape:window-width="1920"
     inkscape:window-height="991"
     inkscape:window-x="-9"
     inkscape:window-y="-9"
     inkscape:window-maximized="1"
     inkscape:current-layer="layer2"
     showguides="false"
     inkscape:export-bgcolor="#ffffff00"
     showgrid="true"><inkscape:grid
       id="grid1"
       units="px"
       originx="0"
       originy="0"
       spacingx="1"
       spacingy="1"
       empcolor="#0099e5"
       empopacity="0.30196078"
       color="#0099e5"
       opacity="0.14901961"
       empspacing="5"
       dotted="false"
       gridanglex="30"
       gridanglez="30"
       visible="true" /></sodipodi:namedview><defs
     id="defs1"><inkscape:path-effect
       effect="fillet_chamfer"
       id="path-effect1"
       is_visible="true"
       lpeversion="1"
       nodesatellites_param="F,0,0,1,0,1,0,1 @ F,0,0,1,0,1,0,1 @ F,0,0,1,0,1,0,1"
       radius="0.25"
       unit="px"
       method="auto"
       mode="F"
       chamfer_steps="1"
       flexible="false"
       use_knot_distance="true"
       apply_no_radius="true"
       apply_with_radius="true"
       only_selected="false"
       hide_knots="false" /><inkscape:path-effect
       effect="fillet_chamfer"
       id="path-effect1-9"
       is_visible="true"
       lpeversion="1"
       nodesatellites_param="F,0,0,1,0,1,0,1 @ F,0,0,1,0,1,0,1 @ F,0,0,1,0,1,0,1"
       radius="0.25"
       unit="px"
       method="auto"
       mode="F"
       chamfer_steps="1"
       flexible="false"
       use_knot_distance="true"
       apply_no_radius="true"
       apply_with_radius="true"
       only_selected="false"
       hide_knots="false" /></defs><g
     inkscape:groupmode="layer"
     id="layer2"
     inkscape:label="Icon"
     transform="matrix(1.2534827,0,0,1.2534827,-1.8232783,-2.3969923)"
     style="display:inline"><path
       id="path19"
       style="display:inline;fill:#a8a8a8;stroke-linecap:round;paint-order:markers stroke fill"
       d="M 4.645679 1.9075915 A 0.79777497 0.79777497 0 0 0 4.0816256 2.1413153 L 2.486071 3.7368698 A 0.79777497 0.79777497 0 0 0 2.486071 4.8649767 A 0.79777497 0.79777497 0 0 0 3.6126198 4.8649767 L 3.8479018 4.6296948 L 3.8479018 7.4920323 A 0.79777497 0.79777497 0 0 0 3.8479018 7.4935905 A 0.79777497 0.79777497 0 0 0 3.8479018 7.4951487 A 0.79777497 0.79777497 0 0 0 3.8681578 7.6696624 A 0.79777497 0.79777497 0 0 0 4.6472372 8.2944841 L 7.0390108 8.2944841 L 7.0390108 13.87425 A 0.79777497 0.79777497 0 0 0 7.5859245 14.620608 C 7.4919511 14.391665 7.4384438 14.143177 7.4378995 13.883599 L 7.4378995 13.880483 L 7.4378995 7.4935905 L 7.4378995 7.4920323 C 7.4384891 7.2111937 7.5002972 6.9429644 7.6092969 6.6989296 L 5.4434563 6.6989296 L 5.4434563 4.6312529 L 5.6771801 4.8649767 A 0.79777497 0.79777497 0 0 0 6.805287 4.8649767 A 0.79777497 0.79777497 0 0 0 6.805287 3.7368698 L 5.2097325 2.1413153 A 0.79777497 0.79777497 0 0 0 4.645679 1.9075915 z M 11.027897 1.9075915 A 0.79777497 0.79777497 0 0 0 10.462286 2.1413153 L 8.8698473 3.7368698 A 0.79777497 0.79777497 0 0 0 8.8698473 4.8649767 A 0.79777497 0.79777497 0 0 0 9.9963961 4.8649767 L 10.23012 4.6312529 L 10.23012 5.6736611 C 10.92837 5.9857665 11.426658 6.6890061 11.428344 7.4920323 L 11.428344 7.4935905 L 11.428344 8.176064 A 0.79777497 0.79777497 0 0 0 11.791395 7.7273143 A 0.79777497 0.79777497 0 0 0 11.806977 7.6727788 A 0.79777497 0.79777497 0 0 0 11.806977 7.6712206 A 0.79777497 0.79777497 0 0 0 11.806977 7.6696624 A 0.79777497 0.79777497 0 0 0 11.817884 7.6151269 A 0.79777497 0.79777497 0 0 0 11.817884 7.6135687 A 0.79777497 0.79777497 0 0 0 11.817884 7.6120106 A 0.79777497 0.79777497 0 0 0 11.817884 7.6104524 A 0.79777497 0.79777497 0 0 0 11.824116 7.5543587 A 0.79777497 0.79777497 0 0 0 11.824116 7.5528005 A 0.79777497 0.79777497 0 0 0 11.824116 7.5512424 A 0.79777497 0.79777497 0 0 0 11.825674 7.4951487 A 0.79777497 0.79777497 0 0 0 11.825674 7.4935905 A 0.79777497 0.79777497 0 0 0 11.825674 7.4920323 L 11.825674 4.6328111 L 12.05784 4.8649767 A 0.79777497 0.79777497 0 0 0 13.187505 4.8649767 A 0.79777497 0.79777497 0 0 0 13.187505 3.7368698 L 11.591951 2.1413153 A 0.79777497 0.79777497 0 0 0 11.027897 1.9075915 z " /><path
       id="path5"
       style="color:#000000;fill:#0065c7;stroke-width:0.999615;stroke-linecap:round;stroke-dasharray:none;paint-order:markers stroke fill"
       d="m 13.422787,6.6989295 a 0.79789583,0.79789583 0 0 0 -0.799335,0.7962191 v 6.3853344 a 0.79789583,0.79789583 0 0 0 0.799335,0.796219 0.79789583,0.79789583 0 0 0 0.796219,-0.796219 V 7.4951486 A 0.79789583,0.79789583 0 0 0 13.422787,6.6989295 Z" /><path
       id="path5-1"
       style="color:#000000;fill:#0065c7;stroke-width:0.999615;stroke-linecap:round;stroke-dasharray:none;paint-order:markers stroke fill"
       d="M 9.4339008,6.6989295 A 0.79789583,0.79789583 0 0 0 8.6345654,7.4951487 v 6.3853343 a 0.79789583,0.79789583 0 0 0 0.7993354,0.79622 0.79789583,0.79789583 0 0 0 0.7962192,-0.79622 V 7.4951487 A 0.79789583,0.79789583 0 0 0 9.4339008,6.6989295 Z" /></g></svg>
