<?xml version="1.0" encoding="UTF-8" standalone="no"?>
<!-- Created with Inkscape (http://www.inkscape.org/) -->

<svg
   width="16"
   height="16"
   viewBox="0 0 16 16"
   version="1.1"
   id="svg1"
   inkscape:version="1.4 (86a8ad7, 2024-10-11)"
   sodipodi:docname="threadt_obj.svg"
   xml:space="preserve"
   inkscape:export-filename="threadt_obj_16x16.png"
   inkscape:export-xdpi="96"
   inkscape:export-ydpi="96"
   xmlns:inkscape="http://www.inkscape.org/namespaces/inkscape"
   xmlns:sodipodi="http://sodipodi.sourceforge.net/DTD/sodipodi-0.dtd"
   xmlns="http://www.w3.org/2000/svg"
   xmlns:svg="http://www.w3.org/2000/svg"><sodipodi:namedview
     id="namedview1"
     pagecolor="#ffffff"
     bordercolor="#000000"
     borderopacity="0.25"
     inkscape:showpageshadow="2"
     inkscape:pageopacity="0.0"
     inkscape:pagecheckerboard="0"
     inkscape:deskcolor="#d1d1d1"
     inkscape:document-units="px"
     inkscape:zoom="32"
     inkscape:cx="8.125"
     inkscape:cy="10.046875"
     inkscape:window-width="1920"
     inkscape:window-height="991"
     inkscape:window-x="-9"
     inkscape:window-y="-9"
     inkscape:window-maximized="1"
     inkscape:current-layer="layer2"
     showguides="true"
     inkscape:export-bgcolor="#ffffff00"
     showgrid="true"><inkscape:grid
       id="grid1"
       units="px"
       originx="0"
       originy="0"
       spacingx="1"
       spacingy="1"
       empcolor="#0099e5"
       empopacity="0.30196078"
       color="#0099e5"
       opacity="0.14901961"
       empspacing="5"
       dotted="false"
       gridanglex="30"
       gridanglez="30"
       visible="true" /></sodipodi:namedview><defs
     id="defs1"><inkscape:path-effect
       effect="fillet_chamfer"
       id="path-effect1"
       is_visible="true"
       lpeversion="1"
       nodesatellites_param="F,0,0,1,0,1,0,1 @ F,0,0,1,0,1,0,1 @ F,0,0,1,0,1,0,1"
       radius="0.25"
       unit="px"
       method="auto"
       mode="F"
       chamfer_steps="1"
       flexible="false"
       use_knot_distance="true"
       apply_no_radius="true"
       apply_with_radius="true"
       only_selected="false"
       hide_knots="false" /><inkscape:path-effect
       effect="fillet_chamfer"
       id="path-effect1-9"
       is_visible="true"
       lpeversion="1"
       nodesatellites_param="F,0,0,1,0,1,0,1 @ F,0,0,1,0,1,0,1 @ F,0,0,1,0,1,0,1"
       radius="0.25"
       unit="px"
       method="auto"
       mode="F"
       chamfer_steps="1"
       flexible="false"
       use_knot_distance="true"
       apply_no_radius="true"
       apply_with_radius="true"
       only_selected="false"
       hide_knots="false" /></defs><g
     inkscape:groupmode="layer"
     id="layer2"
     inkscape:label="Icon"
     transform="matrix(1.2534827,0,0,1.2534827,-1.8232783,-2.3969923)"
     style="display:inline"><path
       id="path13"
       style="display:inline;fill:#a8a8a8;stroke-linecap:round;paint-order:markers stroke fill"
       d="M 11.027897 1.912266 A 0.79777497 0.79777497 0 0 0 10.583822 2.0462676 A 0.79777497 0.79777497 0 0 0 10.462286 2.1459898 L 8.8698473 3.7415443 A 0.79777497 0.79777497 0 0 0 8.8698473 4.8696512 A 0.79777497 0.79777497 0 0 0 9.9963961 4.8696512 L 10.23012 4.6359274 L 10.23012 5.5038218 L 11.825674 5.5038218 L 11.825674 4.6374856 L 12.05784 4.8696512 A 0.79777497 0.79777497 0 0 0 13.187505 4.8696512 A 0.79777497 0.79777497 0 0 0 13.187505 3.7415443 L 11.591951 2.1459898 A 0.79777497 0.79777497 0 0 0 11.027897 1.912266 z M 4.645679 1.9138241 A 0.79777497 0.79777497 0 0 0 4.0816256 2.1459898 L 2.486071 3.7415443 A 0.79777497 0.79777497 0 0 0 2.486071 4.8696512 A 0.79777497 0.79777497 0 0 0 3.6126198 4.8696512 L 3.8479018 4.6343692 L 3.8479018 7.4967068 A 0.79777497 0.79777497 0 0 0 3.8479018 7.4998231 A 0.79777497 0.79777497 0 0 0 3.8479018 7.5013813 A 0.79777497 0.79777497 0 0 0 3.8681578 7.6758951 A 0.79777497 0.79777497 0 0 0 4.6472372 8.3007167 L 5.0710564 8.3007167 C 5.1460578 7.7019069 5.3886613 7.1534826 5.7504136 6.703604 L 5.4434563 6.703604 L 5.4434563 4.6359274 L 5.6771801 4.8696512 A 0.79777497 0.79777497 0 0 0 6.805287 4.8696512 A 0.79777497 0.79777497 0 0 0 6.805287 3.7415443 L 5.2097325 2.1459898 A 0.79777497 0.79777497 0 0 0 4.645679 1.9138241 z M 8.2356767 7.8971536 C 7.8212041 7.8971536 7.4378995 8.2804599 7.4378995 8.6949309 L 7.4378995 12.683817 C 7.4378995 13.098285 7.8200616 13.480036 8.2356767 13.480036 L 8.6345654 13.480036 L 8.6345654 8.2991586 L 11.027897 8.2991586 A 0.79777497 0.79777497 0 0 0 11.711929 7.8971536 L 8.2356767 7.8971536 z " /><path
       id="path5"
       style="color:#000000;display:inline;fill:#0065c7;fill-opacity:1;stroke-linecap:round;-inkscape-stroke:none;paint-order:markers stroke fill"
       d="m 8.2356767,6.6989296 c -1.0842199,0 -1.9944431,0.9102231 -1.9944431,1.9944431 v 3.9888863 c 0,1.084219 0.9102243,1.992885 1.9944431,1.992885 h 3.9888863 c 1.084219,0 1.994443,-0.908666 1.994443,-1.992885 V 8.6933727 c 0,-1.0842198 -0.910223,-1.994443 -1.994443,-1.9944431 z" /></g></svg>
