<?xml version="1.0" encoding="UTF-8" standalone="no"?>
<!-- Created with Inkscape (http://www.inkscape.org/) -->

<svg
   width="16"
   height="16"
   viewBox="0 0 16 16"
   version="1.1"
   id="svg1"
   inkscape:version="1.3.2 (091e20e, 2023-11-25, custom)"
   sodipodi:docname="threads_obj.svg"
   xml:space="preserve"
   inkscape:export-filename="threads_obj2_16x16.png"
   inkscape:export-xdpi="96"
   inkscape:export-ydpi="96"
   xmlns:inkscape="http://www.inkscape.org/namespaces/inkscape"
   xmlns:sodipodi="http://sodipodi.sourceforge.net/DTD/sodipodi-0.dtd"
   xmlns="http://www.w3.org/2000/svg"
   xmlns:svg="http://www.w3.org/2000/svg"><sodipodi:namedview
     id="namedview1"
     pagecolor="#ffffff"
     bordercolor="#000000"
     borderopacity="0.25"
     inkscape:showpageshadow="2"
     inkscape:pageopacity="0.0"
     inkscape:pagecheckerboard="0"
     inkscape:deskcolor="#d1d1d1"
     inkscape:document-units="px"
     inkscape:zoom="22.627417"
     inkscape:cx="7.3362328"
     inkscape:cy="8.4189901"
     inkscape:window-width="1920"
     inkscape:window-height="991"
     inkscape:window-x="-9"
     inkscape:window-y="-9"
     inkscape:window-maximized="1"
     inkscape:current-layer="layer2"
     showguides="false"
     inkscape:export-bgcolor="#ffffff00"
     showgrid="true"><inkscape:grid
       id="grid1"
       units="px"
       originx="0"
       originy="0"
       spacingx="1"
       spacingy="1"
       empcolor="#0099e5"
       empopacity="0.30196078"
       color="#0099e5"
       opacity="0.14901961"
       empspacing="5"
       dotted="false"
       gridanglex="30"
       gridanglez="30"
       visible="true" /></sodipodi:namedview><defs
     id="defs1"><inkscape:path-effect
       effect="fillet_chamfer"
       id="path-effect1"
       is_visible="true"
       lpeversion="1"
       nodesatellites_param="F,0,0,1,0,1,0,1 @ F,0,0,1,0,1,0,1 @ F,0,0,1,0,1,0,1"
       radius="0.25"
       unit="px"
       method="auto"
       mode="F"
       chamfer_steps="1"
       flexible="false"
       use_knot_distance="true"
       apply_no_radius="true"
       apply_with_radius="true"
       only_selected="false"
       hide_knots="false" /><inkscape:path-effect
       effect="fillet_chamfer"
       id="path-effect1-9"
       is_visible="true"
       lpeversion="1"
       nodesatellites_param="F,0,0,1,0,1,0,1 @ F,0,0,1,0,1,0,1 @ F,0,0,1,0,1,0,1"
       radius="0.25"
       unit="px"
       method="auto"
       mode="F"
       chamfer_steps="1"
       flexible="false"
       use_knot_distance="true"
       apply_no_radius="true"
       apply_with_radius="true"
       only_selected="false"
       hide_knots="false" /></defs><g
     inkscape:groupmode="layer"
     id="layer2"
     inkscape:label="Icon"
     transform="matrix(1.2534827,0,0,1.2534827,-1.8232783,-2.3969923)"
     style="display:inline"><path
       id="path8"
       style="color:#000000;fill:#a8a8a8;stroke-linecap:round;-inkscape-stroke:none;paint-order:markers stroke fill"
       d="M 4.645679,1.912266 C 4.4341075,1.9122977 4.2312131,1.99637 4.0816256,2.1459898 L 2.486071,3.7415443 c -0.3114723,0.3115371 -0.3114723,0.8165698 0,1.1281069 0.3113579,0.3104352 0.8151909,0.3104352 1.1265488,0 l 0.235282,-0.235282 V 6.3171807 C 4.5707033,8.0866418 4.109872,6.5647634 5.4434563,5.6736611 V 4.6359274 l 0.2337238,0.2337238 c 0.3115371,0.3114723 0.8165698,0.3114723 1.1281069,0 0.3114723,-0.3115371 0.3114723,-0.8165698 0,-1.1281069 L 5.2097325,2.1459898 C 5.060145,1.99637 4.8572505,1.9122977 4.645679,1.912266 Z m 6.382218,0 c -0.15803,-3.018e-4 -0.312589,0.046337 -0.444075,0.1340016 -0.0437,0.029158 -0.08441,0.062561 -0.121536,0.099722 L 8.8698473,3.7415443 c -0.3114723,0.3115371 -0.3114723,0.8165698 0,1.1281069 0.3113579,0.3104352 0.8151909,0.3104352 1.1265488,0 L 10.23012,4.6359274 V 6.703604 H 8.0673956 C 8.1750111,6.9463595 8.235092,7.2130979 8.2356767,7.4920323 v 0.00156 l 10e-8,0.8055681 h 2.7922202 c 0.351695,-9.73e-5 0.661837,-0.2304886 0.763498,-0.5671698 0.0058,-0.017988 0.01104,-0.036178 0.01558,-0.054536 v -0.00156 -0.00156 c 0.0043,-0.018046 0.0079,-0.036236 0.01091,-0.054536 v -0.00156 -0.00156 -0.00156 c 0.0027,-0.018618 0.0048,-0.037328 0.0062,-0.056094 v -0.00156 -0.00156 c 0.0012,-0.018674 0.0017,-0.037383 0.0016,-0.056094 v -0.00156 -0.00156 -2.8592212 l 0.232166,0.2321656 c 0.311715,0.3125123 0.81795,0.3125123 1.129665,0 0.311472,-0.3115371 0.311472,-0.8165698 0,-1.1281069 L 11.591951,2.1459898 C 11.442363,1.9963699 11.239469,1.9122976 11.027897,1.912266 Z"
       sodipodi:nodetypes="ccccccccccccccccccccccccccccccccccccccccccccccc" /><path
       id="path5"
       style="color:#000000;fill:#0065c7;stroke-width:0.999615;stroke-linecap:round;stroke-dasharray:none;paint-order:markers stroke fill"
       d="M 6.2427917,6.6989295 A 0.79789583,0.79789583 0 0 0 5.4434563,7.4951486 v 6.3853344 a 0.79789583,0.79789583 0 0 0 0.7993354,0.796219 0.79789583,0.79789583 0 0 0 0.7962191,-0.796219 V 7.4951486 A 0.79789583,0.79789583 0 0 0 6.2427917,6.6989295 Z" /><path
       id="path5-1"
       style="color:#000000;fill:#0065c7;stroke-width:0.999615;stroke-linecap:round;stroke-dasharray:none;paint-order:markers stroke fill"
       d="M 2.2539054,6.6989295 A 0.79789583,0.79789583 0 0 0 1.45457,7.4951487 v 6.3853343 a 0.79789583,0.79789583 0 0 0 0.7993354,0.79622 0.79789583,0.79789583 0 0 0 0.7962191,-0.79622 V 7.4951487 A 0.79789583,0.79789583 0 0 0 2.2539054,6.6989295 Z" /></g></svg>
