<?xml version="1.0" encoding="UTF-8" standalone="no"?>
<!-- Created with Inkscape (http://www.inkscape.org/) -->

<svg
   width="16"
   height="16"
   viewBox="0 0 4.2333332 4.2333333"
   version="1.1"
   id="svg1"
   inkscape:version="1.4.3 (0d15f75, 2025-12-25)"
   sodipodi:docname="component_repeat-action.svg"
   xmlns:inkscape="http://www.inkscape.org/namespaces/inkscape"
   xmlns:sodipodi="http://sodipodi.sourceforge.net/DTD/sodipodi-0.dtd"
   xmlns="http://www.w3.org/2000/svg"
   xmlns:svg="http://www.w3.org/2000/svg">
  <sodipodi:namedview
     id="namedview1"
     pagecolor="#ffffff"
     bordercolor="#000000"
     borderopacity="0.25"
     inkscape:showpageshadow="false"
     inkscape:pageopacity="0.0"
     inkscape:pagecheckerboard="0"
     inkscape:deskcolor="#ffffff"
     inkscape:document-units="px"
     showgrid="true"
     inkscape:zoom="28.459365"
     inkscape:cx="7.537062"
     inkscape:cy="8.1344049"
     inkscape:window-width="1728"
     inkscape:window-height="990"
     inkscape:window-x="0"
     inkscape:window-y="33"
     inkscape:window-maximized="0"
     inkscape:current-layer="svg1"
     showguides="true">
    <inkscape:grid
       id="grid1"
       units="px"
       originx="0"
       originy="0"
       spacingx="0.26458333"
       spacingy="0.26458333"
       empcolor="#0099e5"
       empopacity="0.30196078"
       color="#0099e5"
       opacity="0.14901961"
       empspacing="5"
       enabled="true"
       visible="true" />
  </sodipodi:namedview>
  <defs
     id="defs1" />
  <g
     inkscape:label="Layer 1"
     inkscape:groupmode="layer"
     id="layer1" />
  <path
     id="path1-4"
     style="baseline-shift:baseline;display:inline;overflow:visible;vector-effect:none;fill:#ff7f27;stroke-width:0.264583;stroke-linecap:round;stroke-linejoin:round;enable-background:accumulate;stop-color:#000000"
     d="m 3.7521411,2.1167029 a 0.26423611,0.26620985 0 0 0 -0.2121114,0.1013883 0.26423611,0.26620985 0 0 0 0.044899,0.3753974 c 0,0 0.04665,0.0391 0.077929,0.098269 0.043072,0.081477 0.051667,0.1671501 0.029417,0.2360531 -0.031358,0.097107 -0.098295,0.1328656 -0.2244974,0.1804195 -0.039754,0.014979 -0.1239707,0.021748 -0.2451407,0.024437 H 3.0192992 l 0.1094102,-0.110228 a 0.26423461,0.26620834 0 0 0 0,-0.376437 0.26423461,0.26620834 0 0 0 -0.1868231,-0.077991 0.26423461,0.26620834 0 0 0 -0.1868231,0.077991 L 2.1971745,3.2080586 a 0.26423594,0.26620968 0 0 0 -0.023223,0.025997 0.26423461,0.26620834 0 0 0 -0.00103,0.00104 0.26423594,0.26620968 0 0 0 -0.053672,0.1263456 0.26423461,0.26620834 0 0 0 -0.00207,0.031196 0.26423461,0.26620834 0 0 0 -5.16e-4,0.00415 0.26423461,0.26620834 0 0 0 5.16e-4,0.0078 0.26423461,0.26620834 0 0 0 0.076897,0.1861388 l 0.5604693,0.5646558 a 0.26423461,0.26620834 0 0 0 0.3736461,0 0.26423461,0.26620834 0 0 0 0,-0.3764372 L 3.0239439,3.6739255 c 0.2294288,0.00718 0.4276706,0.00799 0.6296248,-0.068112 C 3.8245152,3.5413999 4.0953941,3.4025093 4.1954587,3.0926317 4.2686204,2.8660664 4.229964,2.6324168 4.1293998,2.4421857 4.0402254,2.2734999 3.9126438,2.1749363 3.9126438,2.1749363 A 0.26423611,0.26620985 0 0 0 3.7521411,2.1167029 Z" />
</svg>
