<?xml version="1.0" encoding="UTF-8" standalone="no"?>
<!-- Created with Inkscape (http://www.inkscape.org/) -->

<svg
   width="16"
   height="16"
   viewBox="0 0 4.2333332 4.2333333"
   version="1.1"
   id="svg1"
   inkscape:version="1.4.3 (0d15f75, 2025-12-25)"
   sodipodi:docname="add-bookmark.svg"
   xml:space="preserve"
   xmlns:inkscape="http://www.inkscape.org/namespaces/inkscape"
   xmlns:sodipodi="http://sodipodi.sourceforge.net/DTD/sodipodi-0.dtd"
   xmlns="http://www.w3.org/2000/svg"
   xmlns:svg="http://www.w3.org/2000/svg"><sodipodi:namedview
     id="namedview1"
     pagecolor="#ffffff"
     bordercolor="#000000"
     borderopacity="0.25"
     inkscape:showpageshadow="false"
     inkscape:pageopacity="0.0"
     inkscape:pagecheckerboard="0"
     inkscape:deskcolor="#ffffff"
     inkscape:document-units="px"
     showgrid="true"
     inkscape:zoom="17.625"
     inkscape:cx="21.787234"
     inkscape:cy="8.6241135"
     inkscape:window-width="2894"
     inkscape:window-height="1308"
     inkscape:window-x="212"
     inkscape:window-y="212"
     inkscape:window-maximized="0"
     inkscape:current-layer="layer1"
     showguides="true"><inkscape:grid
       id="grid1"
       units="px"
       originx="0"
       originy="0"
       spacingx="0.26458333"
       spacingy="0.26458333"
       empcolor="#0099e5"
       empopacity="0.30196078"
       color="#0099e5"
       opacity="0.14901961"
       empspacing="5"
       enabled="true"
       visible="true" /></sodipodi:namedview><defs
     id="defs1" /><g
     inkscape:label="Layer 1"
     inkscape:groupmode="layer"
     id="layer1"><path
       id="path1-88"
       style="display:inline;fill:#a8a8a8;stroke-width:2.3094;stroke-linecap:round;stroke-linejoin:round"
       d="M 3.999349 1053.3622 C 3.4470643 1053.3622 3.0000001 1053.8102 3.0000001 1054.3625 L 3.0000001 1068.3613 A 0.43241393 0.43241393 0 0 0 3.7291667 1068.6778 L 7.6289063 1065.01 C 7.8400179 1064.8121 8.1599821 1064.8121 8.3710937 1065.01 L 8.4215495 1065.0571 C 8.4198816 1065.0182 8.4199219 1064.9796 8.4199219 1064.9403 C 8.4199222 1063.6257 9.3625834 1062.5252 10.498372 1062.5252 L 10.916667 1062.5252 L 10.916667 1062.0411 C 10.916667 1060.7274 11.8653 1059.637 13 1059.6354 L 13 1054.3625 C 13 1053.8102 12.552936 1053.3622 12.000651 1053.3622 L 3.999349 1053.3622 z M 10.854818 1067.3459 L 10.916667 1067.4043 L 10.916667 1067.3459 L 10.854818 1067.3459 z "
       transform="matrix(0.3175,0,0,0.27431439,-0.95250003,-288.95241)" /><path
       id="path1"
       style="baseline-shift:baseline;display:inline;overflow:visible;vector-effect:none;fill:#499c54;stroke-width:0.264583;stroke-linecap:round;stroke-linejoin:round;enable-background:accumulate;stop-color:#000000"
       d="m 3.1750002,2.1166666 a 0.26458333,0.26458333 0 0 0 -0.264584,0.2645833 v 0.5291667 h -0.529166 a 0.26458333,0.26458333 0 0 0 -0.264584,0.2645833 0.26458333,0.26458333 0 0 0 0.264584,0.2645834 h 0.529166 v 0.5291666 a 0.26458333,0.26458333 0 0 0 0.264584,0.2645833 0.26458333,0.26458333 0 0 0 0.264583,-0.2645833 V 3.4395833 h 0.529167 A 0.26458333,0.26458333 0 0 0 4.2333332,3.1749999 0.26458333,0.26458333 0 0 0 3.9687502,2.9104166 H 3.4395832 V 2.3812499 A 0.26458333,0.26458333 0 0 0 3.1750002,2.1166666 Z" /></g></svg>
