<?xml version="1.0" encoding="UTF-8" standalone="no"?>
<!-- Created with Inkscape (http://www.inkscape.org/) -->

<svg
   width="16"
   height="16"
   viewBox="0 0 4.2333332 4.2333333"
   version="1.1"
   id="svg1"
   inkscape:version="1.4.3 (0d15f75, 2025-12-25)"
   sodipodi:docname="annotation.svg"
   xml:space="preserve"
   xmlns:inkscape="http://www.inkscape.org/namespaces/inkscape"
   xmlns:sodipodi="http://sodipodi.sourceforge.net/DTD/sodipodi-0.dtd"
   xmlns="http://www.w3.org/2000/svg"
   xmlns:svg="http://www.w3.org/2000/svg"><sodipodi:namedview
     id="namedview1"
     pagecolor="#ffffff"
     bordercolor="#000000"
     borderopacity="0.25"
     inkscape:showpageshadow="false"
     inkscape:pageopacity="0.0"
     inkscape:pagecheckerboard="0"
     inkscape:deskcolor="#ffffff"
     inkscape:document-units="px"
     showgrid="true"
     inkscape:zoom="16.734375"
     inkscape:cx="9.4117647"
     inkscape:cy="12.638655"
     inkscape:window-width="1728"
     inkscape:window-height="990"
     inkscape:window-x="0"
     inkscape:window-y="344"
     inkscape:window-maximized="0"
     inkscape:current-layer="layer1"
     showguides="true"><inkscape:grid
       id="grid1"
       units="px"
       originx="0"
       originy="0"
       spacingx="0.26458333"
       spacingy="0.26458333"
       empcolor="#0099e5"
       empopacity="0.30196078"
       color="#0099e5"
       opacity="0.14901961"
       empspacing="5"
       enabled="true"
       visible="true" /></sodipodi:namedview><defs
     id="defs1" /><g
     inkscape:label="Layer 1"
     inkscape:groupmode="layer"
     id="layer1"><path
       id="path1-2"
       style="baseline-shift:baseline;display:inline;overflow:visible;opacity:1;vector-effect:none;fill:#a8a8a8;stroke-width:1;stroke-linecap:round;stroke-linejoin:round;enable-background:accumulate;stop-color:#000000;stop-opacity:1"
       d="M 2.0521254,0.00102023 C 1.6537251,0.01311642 1.2565451,0.13730051 0.91182379,0.3757382 0.12388929,0.92073861 -0.19923217,1.9312422 0.12457116,2.8328544 0.44837451,3.7344664 1.3403909,4.3064738 2.2950727,4.2257716 A 0.26465714,0.26462807 0 0 0 2.5354354,3.9404691 0.26465714,0.26462807 0 0 0 2.2501016,3.6985821 C 1.5318484,3.7592984 0.86441683,3.3318329 0.62080395,2.6535066 0.37719105,1.9751803 0.61986379,1.2214748 1.212665,0.81144475 1.8054661,0.4014146 2.5959868,0.43988713 3.1448713,0.90706243 3.6739492,1.3573797 3.8471118,2.0937169 3.5811427,2.7289671 a 0.26465765,0.26462859 0 0 0 -0.023778,0.04755 C 3.4825694,2.9711661 3.3150864,3.0482781 3.1665815,3.044247 3.0923291,3.0422313 3.0299531,3.0188736 2.9903155,2.9853258 2.9506779,2.951778 2.9247672,2.9120734 2.9184652,2.8251016 L 2.9163975,1.3505218 A 0.26465765,0.26462859 0 0 0 2.6507062,1.0864102 0.26465765,0.26462859 0 0 0 2.4056913,1.2533535 C 2.2613437,1.1710927 2.0945656,1.1236236 1.917729,1.1236236 c -0.5449888,0 -0.99246565,0.4474275 -0.99246558,0.9923565 1e-8,0.544929 0.44747678,0.9923566 0.99246558,0.9923566 0.1769394,0 0.3440735,-0.046863 0.4884791,-0.1292131 0.037097,0.1655738 0.125014,0.3094534 0.2424305,0.4088302 0.1442464,0.1220846 0.3226538,0.180684 0.5019188,0.18555 0.3282494,0.00891 0.6796833,-0.1674151 0.8565183,-0.5090996 a 0.26465714,0.26462807 0 0 0 0.020677,-0.03618 C 4.4399883,2.1634537 4.2181775,1.1253906 3.4886159,0.50443444 3.123835,0.19395635 2.6772456,0.02532204 2.2227054,0.00257079 2.1658879,-2.7311849e-4 2.1090397,-7.0780095e-4 2.0521254,0.00102023 Z M 1.917729,1.6528804 c 0.2589263,1e-7 0.4631506,0.2042019 0.4631506,0.4630997 0,0.2588977 -0.2042243,0.4630998 -0.4631506,0.4630998 -0.2589261,0 -0.4626337,-0.2042021 -0.4626337,-0.4630998 0,-0.2588978 0.2037076,-0.4630996 0.4626337,-0.4630997 z" /></g></svg>
