<?xml version="1.0" encoding="UTF-8" standalone="no"?>
<!-- Created with Inkscape (http://www.inkscape.org/) -->

<svg
   width="16"
   height="16"
   viewBox="0 0 4.2333332 4.2333333"
   version="1.1"
   id="svg1"
   inkscape:version="1.4.3 (0d15f75, 2025-12-25)"
   sodipodi:docname="back.svg"
   xml:space="preserve"
   xmlns:inkscape="http://www.inkscape.org/namespaces/inkscape"
   xmlns:sodipodi="http://sodipodi.sourceforge.net/DTD/sodipodi-0.dtd"
   xmlns="http://www.w3.org/2000/svg"
   xmlns:svg="http://www.w3.org/2000/svg"><sodipodi:namedview
     id="namedview1"
     pagecolor="#ffffff"
     bordercolor="#000000"
     borderopacity="0.25"
     inkscape:showpageshadow="false"
     inkscape:pageopacity="0.0"
     inkscape:pagecheckerboard="0"
     inkscape:deskcolor="#ffffff"
     inkscape:document-units="px"
     showgrid="true"
     inkscape:zoom="18.673653"
     inkscape:cx="9.7731278"
     inkscape:cy="15.610229"
     inkscape:window-width="1728"
     inkscape:window-height="990"
     inkscape:window-x="0"
     inkscape:window-y="33"
     inkscape:window-maximized="0"
     inkscape:current-layer="layer1"
     showguides="true"><inkscape:grid
       id="grid1"
       units="px"
       originx="0"
       originy="0"
       spacingx="0.26458333"
       spacingy="0.26458333"
       empcolor="#0099e5"
       empopacity="0.30196078"
       color="#0099e5"
       opacity="0.14901961"
       empspacing="5"
       enabled="true"
       visible="true" /></sodipodi:namedview><defs
     id="defs1" /><g
     inkscape:label="Layer 1"
     inkscape:groupmode="layer"
     id="layer1"><path
       id="rect2"
       style="fill:#ff7f27;fill-opacity:1;stroke:none;stroke-width:0.396874;stroke-linecap:round;stroke-linejoin:round"
       d="M 3.3390966e-4,2.131138 A 0.13489103,0.20795182 0 0 0 0.06701591,2.2965246 L 1.1933687,3.2991811 1.914979,3.941088 A 0.13489103,0.20795182 0 0 0 2.117092,3.7612301 V 2.9105225 H 3.9247362 A 0.30876926,0.26461862 0 0 0 4.2333332,2.6459039 V 1.5874294 A 0.30876926,0.26461862 0 0 0 3.9247362,1.3228108 H 2.117092 V 0.47210317 A 0.13489103,0.20795182 0 0 0 1.914979,0.29224527 L 0.78862601,1.294385 0.06701571,1.9368087 A 0.13489103,0.20795182 0 0 0 3.3390966e-4,2.131138 Z" /></g></svg>
