<?xml version="1.0" encoding="UTF-8" standalone="no"?>
<!-- Created with Inkscape (http://www.inkscape.org/) -->

<svg
   width="16"
   height="16"
   viewBox="0 0 4.2333332 4.2333333"
   version="1.1"
   id="svg1"
   inkscape:version="1.4.3 (0d15f75, 2025-12-25)"
   sodipodi:docname="code-coverage.svg"
   xml:space="preserve"
   xmlns:inkscape="http://www.inkscape.org/namespaces/inkscape"
   xmlns:sodipodi="http://sodipodi.sourceforge.net/DTD/sodipodi-0.dtd"
   xmlns="http://www.w3.org/2000/svg"
   xmlns:svg="http://www.w3.org/2000/svg"><sodipodi:namedview
     id="namedview1"
     pagecolor="#ffffff"
     bordercolor="#000000"
     borderopacity="0.25"
     inkscape:showpageshadow="false"
     inkscape:pageopacity="0.0"
     inkscape:pagecheckerboard="0"
     inkscape:deskcolor="#ffffff"
     inkscape:document-units="px"
     showgrid="true"
     inkscape:zoom="20.452893"
     inkscape:cx="6.7472119"
     inkscape:cy="5.8426943"
     inkscape:window-width="1728"
     inkscape:window-height="990"
     inkscape:window-x="0"
     inkscape:window-y="33"
     inkscape:window-maximized="0"
     inkscape:current-layer="layer1"
     showguides="true"><inkscape:grid
       id="grid1"
       units="px"
       originx="0"
       originy="0"
       spacingx="0.26458333"
       spacingy="0.26458333"
       empcolor="#0099e5"
       empopacity="0.30196078"
       color="#0099e5"
       opacity="0.14901961"
       empspacing="5"
       enabled="true"
       visible="true" /></sodipodi:namedview><defs
     id="defs1" /><g
     inkscape:label="Layer 1"
     inkscape:groupmode="layer"
     id="layer1"><path
       id="path3"
       style="baseline-shift:baseline;display:inline;overflow:visible;vector-effect:none;fill:#a8a8a8;stroke-width:1;stroke-linecap:round;stroke-linejoin:round;enable-background:accumulate;stop-color:#000000"
       d="M 2.1177002 0 C 0.95178084 -2.4994977e-08 0.00038227397 0.95135009 0 2.1171834 A 0.26441045 0.26460567 0 0 1 0.020153808 2.0153808 A 0.2645835 0.26460567 0 0 0 0.020153808 2.0148641 A 0.26441045 0.26460567 0 0 1 0.054777017 1.9554362 A 0.2645835 0.26460567 0 0 0 0.054777017 1.9549194 A 0.26441045 0.26460567 0 0 1 0.078031411 1.9290812 A 0.26441045 0.26460567 0 0 1 0.083715819 1.9233968 L 0.87074787 1.1363647 A 0.2645835 0.26460567 0 0 1 1.0583333 1.0583333 A 0.2645835 0.26460567 0 0 1 1.2459188 1.1363647 A 0.2645835 0.26460567 0 0 1 1.2459188 1.5094686 L 0.63872069 2.1166666 L 1.2448852 2.7223144 A 0.26441045 0.26460567 0 0 1 1.2448852 3.0969685 A 0.26441045 0.26460567 0 0 1 0.8702311 3.0969685 L 0.081648761 2.3078694 A 0.2645835 0.26460567 0 0 1 0.078031411 2.3042521 A 0.26441045 0.26460567 0 0 1 0.054777017 2.2784139 A 0.2645835 0.26460567 0 0 0 0.054777017 2.2778971 A 0.26441045 0.26460567 0 0 1 0.035656738 2.2494751 A 0.2645835 0.26460567 0 0 0 0.035656738 2.2489583 A 0.26441045 0.26460567 0 0 1 0.020153808 2.2179524 A 0.2645835 0.26460567 0 0 1 0.0020670573 2.1512898 A 0.26441045 0.26460567 0 0 1 0 2.1177002 C 6.2964399e-08 3.2838539 0.95154657 4.2333332 2.1177002 4.2333332 C 3.283425 4.2333332 4.2326358 3.2842996 4.2333332 2.1187337 A 0.26441045 0.26460562 0 0 1 4.2312662 2.1512898 A 0.2645835 0.26460562 0 0 1 4.2131794 2.2179524 A 0.26441045 0.26460562 0 0 1 4.1976765 2.2489583 A 0.2645835 0.26460562 0 0 1 4.1976765 2.2494751 A 0.26441045 0.26460562 0 0 1 4.1785562 2.2778971 A 0.2645835 0.26460562 0 0 1 4.1785562 2.2784139 A 0.26441045 0.26460562 0 0 1 4.1553018 2.3042521 A 0.2645835 0.26460562 0 0 1 4.1516845 2.3078694 L 3.3631021 3.0969685 A 0.26441045 0.26460562 0 0 1 2.988448 3.0969685 A 0.26441045 0.26460562 0 0 1 2.988448 2.7223144 L 3.5946126 2.1166666 L 2.9874145 1.5094686 A 0.2645835 0.26460562 0 0 1 2.9874145 1.1363647 A 0.2645835 0.26460562 0 0 1 3.1749999 1.0583333 A 0.2645835 0.26460562 0 0 1 3.3625854 1.1363647 L 4.1496174 1.9233968 A 0.26441045 0.26460562 0 0 1 4.1553018 1.9290812 A 0.26441045 0.26460562 0 0 1 4.1785562 1.9549194 A 0.2645835 0.26460562 0 0 1 4.1785562 1.9554362 A 0.26441045 0.26460562 0 0 1 4.2131794 2.0148641 A 0.2645835 0.26460562 0 0 1 4.2131794 2.0153808 A 0.26441045 0.26460562 0 0 1 4.2333332 2.1166666 C 4.2328992 0.95087775 3.283587 6.2950049e-08 2.1177002 0 z M 2.2153686 1.0583333 A 0.2645835 0.2645835 0 0 1 2.2499918 1.0604004 A 0.2645835 0.2645835 0 0 1 2.4784016 1.3554728 L 2.2794474 2.9434895 A 0.2645835 0.2645835 0 0 1 1.984375 3.1739664 A 0.2645835 0.2645835 0 0 1 1.7538981 2.8768269 L 1.9533691 1.2888102 A 0.2645835 0.2645835 0 0 1 2.2153686 1.0583333 z " /></g></svg>
