<?xml version="1.0" encoding="UTF-8" standalone="no"?>
<!-- Created with Inkscape (http://www.inkscape.org/) -->

<svg
   width="16"
   height="16"
   viewBox="0 0 4.2333332 4.2333333"
   version="1.1"
   id="svg1"
   inkscape:version="1.4.3 (0d15f75, 2025-12-25)"
   sodipodi:docname="compare-next-difference.svg"
   xmlns:inkscape="http://www.inkscape.org/namespaces/inkscape"
   xmlns:sodipodi="http://sodipodi.sourceforge.net/DTD/sodipodi-0.dtd"
   xmlns="http://www.w3.org/2000/svg"
   xmlns:svg="http://www.w3.org/2000/svg">
  <sodipodi:namedview
     id="namedview1"
     pagecolor="#ffffff"
     bordercolor="#000000"
     borderopacity="0.25"
     inkscape:showpageshadow="false"
     inkscape:pageopacity="0.0"
     inkscape:pagecheckerboard="0"
     inkscape:deskcolor="#ffffff"
     inkscape:document-units="px"
     showgrid="true"
     inkscape:zoom="23.405543"
     inkscape:cx="5.7465021"
     inkscape:cy="9.0790461"
     inkscape:window-width="1728"
     inkscape:window-height="990"
     inkscape:window-x="0"
     inkscape:window-y="344"
     inkscape:window-maximized="0"
     inkscape:current-layer="layer1"
     showguides="true">
    <inkscape:grid
       id="grid1"
       units="px"
       originx="0"
       originy="0"
       spacingx="0.26458333"
       spacingy="0.26458333"
       empcolor="#0099e5"
       empopacity="0.30196078"
       color="#0099e5"
       opacity="0.14901961"
       empspacing="5"
       enabled="true"
       visible="true" />
  </sodipodi:namedview>
  <defs
     id="defs1" />
  <g
     inkscape:label="Layer 1"
     inkscape:groupmode="layer"
     id="layer1">
    <path
       id="path10-2"
       style="baseline-shift:baseline;display:inline;overflow:visible;vector-effect:none;fill:#a8a8a8;stroke-width:1;stroke-linecap:round;stroke-linejoin:round;enable-background:accumulate;stop-color:#000000"
       d="M 3.0685465 0 A 0.29118425 0.2645835 0 0 0 2.7781249 0.2635498 A 0.29118425 0.2645835 0 0 0 3.0685465 0.52916666 L 3.7041666 0.52916666 L 3.7041666 2.6024251 C 3.8632394 2.5051829 4.0590079 2.4851405 4.2333332 2.5419637 L 4.2333332 0.26510009 A 0.29118425 0.2645835 0 0 0 4.2333332 0.2635498 A 0.2645835 0.26464022 0 0 0 3.9697835 0 A 0.2645835 0.26464022 0 0 0 3.9558308 0.00051676431 A 0.29118425 0.2645835 0 0 0 3.9429117 0 L 3.0685465 0 z " />
    <path
       id="path10-2-2"
       style="baseline-shift:baseline;display:inline;overflow:visible;vector-effect:none;fill:#a8a8a8;stroke-width:1;stroke-linecap:round;stroke-linejoin:round;enable-background:accumulate;stop-color:#000000"
       d="M 1.1647877,2.0560341e-6 A 0.29118425,0.2645835 0 0 1 1.4552093,0.26355186 0.29118425,0.2645835 0 0 1 1.1647877,0.52916876 H 0.52916765 V 3.7041687 H 1.1647877 A 0.29118515,0.26549809 0 0 1 1.4552093,3.968752 0.29118515,0.26549809 0 0 1 1.1647877,4.2333353 H 0.29042245 a 0.29118515,0.26549809 0 0 1 -0.012919,-5.167e-4 0.2645835,0.26464022 0 0 1 -0.013953,5.167e-4 0.2645835,0.26464022 0 0 1 -0.2604492,-0.227893 0.2645835,0.26464022 0 0 1 -0.00310000084,-0.035657 0.29118515,0.26549809 0 0 1 0,-0.00103 V 0.26510216 a 0.29118425,0.2645835 0 0 1 0,-0.00155 A 0.2645835,0.26464022 0 0 1 0.26355075,2.0560341e-6 0.2645835,0.26464022 0 0 1 0.27750375,5.1885603e-4 0.29118425,0.2645835 0 0 1 0.29042275,2.0560341e-6 Z" />
    <path
       id="path1"
       style="baseline-shift:baseline;display:inline;overflow:visible;vector-effect:none;fill:#a8a8a8;stroke-linecap:round;stroke-linejoin:round;enable-background:accumulate;stop-color:#000000"
       d="M 2.1171834 0 A 0.2645835 0.2645835 0 0 0 1.8515665 0.2635498 L 1.8515665 2.7817423 C 1.870361 2.7562906 1.8912019 2.731831 1.914095 2.7088785 C 2.0413364 2.5811924 2.2108834 2.5173854 2.3807332 2.517159 L 2.3807332 0.2635498 A 0.2645835 0.2645835 0 0 0 2.1171834 0 z M 1.8515665 3.5723917 L 1.8515665 3.9687499 A 0.2645835 0.2645835 0 0 0 2.1171834 4.2322997 A 0.2645835 0.2645835 0 0 0 2.3543782 4.0834716 L 1.914095 3.6447387 C 1.8911934 3.6219371 1.870354 3.5976859 1.8515665 3.5723917 z " />
    <path
       id="path9-3-6"
       style="baseline-shift:baseline;display:inline;overflow:visible;vector-effect:none;fill:#ff7f27;stroke-width:1;stroke-linecap:round;stroke-linejoin:round;enable-background:accumulate;stop-color:#000000"
       d="M 3.1719313,4.2301386 A 0.26433502,0.2645835 0 0 1 2.9855546,4.1531406 0.26433502,0.2645835 0 0 1 2.9850383,4.1526239 L 2.1915175,3.3604244 a 0.26433502,0.2645835 0 0 1 0,-0.3751708 0.26433502,0.2645835 0 0 1 0.3743022,0 L 3.1719313,3.591418 3.7775266,2.9852536 a 0.26433502,0.2645835 0 0 1 0.3748184,0 0.26433502,0.2645835 0 0 1 0,0.3751708 L 3.3588243,4.1526241 a 0.26433502,0.2645835 0 0 1 -5.162e-4,5.167e-4 0.26433502,0.2645835 0 0 1 -0.1863768,0.076998 z" />
  </g>
</svg>
