<?xml version="1.0" encoding="UTF-8" standalone="no"?>
<!-- Created with Inkscape (http://www.inkscape.org/) -->

<svg
   width="16"
   height="16"
   viewBox="0 0 4.2333332 4.2333333"
   version="1.1"
   id="svg1"
   inkscape:version="1.4.3 (0d15f75, 2025-12-25)"
   sodipodi:docname="compact-view.svg"
   xmlns:inkscape="http://www.inkscape.org/namespaces/inkscape"
   xmlns:sodipodi="http://sodipodi.sourceforge.net/DTD/sodipodi-0.dtd"
   xmlns="http://www.w3.org/2000/svg"
   xmlns:svg="http://www.w3.org/2000/svg">
  <sodipodi:namedview
     id="namedview1"
     pagecolor="#ffffff"
     bordercolor="#000000"
     borderopacity="0.25"
     inkscape:showpageshadow="false"
     inkscape:pageopacity="0.0"
     inkscape:pagecheckerboard="0"
     inkscape:deskcolor="#ffffff"
     inkscape:document-units="px"
     showgrid="true"
     inkscape:zoom="14.904485"
     inkscape:cx="-1.5096127"
     inkscape:cy="1.5096127"
     inkscape:window-width="1728"
     inkscape:window-height="990"
     inkscape:window-x="0"
     inkscape:window-y="344"
     inkscape:window-maximized="0"
     inkscape:current-layer="layer1"
     showguides="true">
    <inkscape:grid
       id="grid1"
       units="px"
       originx="0"
       originy="0"
       spacingx="0.26458333"
       spacingy="0.26458333"
       empcolor="#0099e5"
       empopacity="0.30196078"
       color="#0099e5"
       opacity="0.14901961"
       empspacing="5"
       enabled="true"
       visible="true" />
  </sodipodi:namedview>
  <defs
     id="defs1" />
  <g
     inkscape:label="Layer 1"
     inkscape:groupmode="layer"
     id="layer1">
    <path
       id="path1"
       style="fill:#a8a8a8;stroke-width:0.529167;stroke-linecap:round;stroke-linejoin:round"
       d="M 2.5135415,1.3229166 A 0.39687499,0.39687499 0 0 1 2.1166666,1.7197915 0.39687499,0.39687499 0 0 1 1.7197916,1.3229166 0.39687499,0.39687499 0 0 1 2.1166666,0.92604162 0.39687499,0.39687499 0 0 1 2.5135415,1.3229166 Z" />
    <path
       id="rect1"
       style="fill:#a8a8a8;fill-opacity:1;fill-rule:evenodd;stroke-width:0.264582"
       d="M 0,0.26458332 V 2.3812501 A 0.26458321,0.26458321 0 0 0 0.2645832,2.6458333 H 3.9687497 A 0.2645835,0.2645835 0 0 0 4.2333332,2.3812498 V 0.26458352 A 0.26458348,0.26458348 0 0 0 3.9687497,0 H 0.2645833 A 0.26458329,0.26458329 0 0 0 0,0.26458332 Z m 0.5291666,0.2645833 h 3.175 V 2.1166666 h -3.175 z" />
  </g>
</svg>
