<?xml version="1.0" encoding="UTF-8" standalone="no"?>
<!-- Created with Inkscape (http://www.inkscape.org/) -->

<svg
   width="16"
   height="16"
   viewBox="0 0 4.2333332 4.2333333"
   version="1.1"
   id="svg1"
   inkscape:version="1.4.3 (0d15f75, 2025-12-25)"
   sodipodi:docname="compare-view.svg"
   xml:space="preserve"
   xmlns:inkscape="http://www.inkscape.org/namespaces/inkscape"
   xmlns:sodipodi="http://sodipodi.sourceforge.net/DTD/sodipodi-0.dtd"
   xmlns="http://www.w3.org/2000/svg"
   xmlns:svg="http://www.w3.org/2000/svg"><sodipodi:namedview
     id="namedview1"
     pagecolor="#ffffff"
     bordercolor="#000000"
     borderopacity="0.25"
     inkscape:showpageshadow="false"
     inkscape:pageopacity="0.0"
     inkscape:pagecheckerboard="0"
     inkscape:deskcolor="#ffffff"
     inkscape:document-units="px"
     showgrid="true"
     inkscape:zoom="35.5"
     inkscape:cx="8.3098592"
     inkscape:cy="7.4507042"
     inkscape:window-width="1728"
     inkscape:window-height="990"
     inkscape:window-x="0"
     inkscape:window-y="344"
     inkscape:window-maximized="0"
     inkscape:current-layer="layer1"
     showguides="true"><inkscape:grid
       id="grid1"
       units="px"
       originx="0"
       originy="0"
       spacingx="0.26458333"
       spacingy="0.26458333"
       empcolor="#0099e5"
       empopacity="0.30196078"
       color="#0099e5"
       opacity="0.14901961"
       empspacing="5"
       enabled="true"
       visible="true" /></sodipodi:namedview><defs
     id="defs1" /><g
     inkscape:label="Layer 1"
     inkscape:groupmode="layer"
     id="layer1"><path
       id="path10"
       style="baseline-shift:baseline;display:inline;overflow:visible;vector-effect:none;fill:#a8a8a8;stroke-width:1;stroke-linecap:round;stroke-linejoin:round;enable-background:accumulate;stop-color:#000000"
       d="M 0.2635498 0 A 0.2645835 0.26464023 0 0 0 0.0031005859 0.22634277 A 0.2645835 0.26464023 0 0 0 0 0.26303304 A 0.2645835 0.26464023 0 0 0 0 0.2635498 A 0.29118425 0.2645835 0 0 0 0 0.26561686 L 0 3.9697835 A 0.2645835 0.26464023 0 0 0 0.2635498 4.2333332 A 0.2645835 0.26464023 0 0 0 0.27750244 4.2328165 A 0.29118515 0.26549809 0 0 0 0.29042154 4.2333332 L 1.1647868 4.2333332 A 0.29118515 0.26549809 0 0 0 1.4552083 3.9687499 A 0.29118515 0.26549809 0 0 0 1.1647868 3.7041666 L 0.52916666 3.7041666 L 0.52916666 0.52916666 L 1.1647868 0.52916666 A 0.29118425 0.2645835 0 0 0 1.4552083 0.2635498 A 0.29118425 0.2645835 0 0 0 1.1647868 0 L 0.29042154 0 A 0.29118425 0.2645835 0 0 0 0.27750244 0.00051676431 A 0.2645835 0.26464023 0 0 0 0.2635498 0 z " /><path
       id="path10-2"
       style="baseline-shift:baseline;display:inline;overflow:visible;vector-effect:none;fill:#a8a8a8;stroke-width:1;stroke-linecap:round;stroke-linejoin:round;enable-background:accumulate;stop-color:#000000"
       d="M 3.0685465 0 A 0.29118425 0.2645835 0 0 0 2.7781249 0.2635498 A 0.29118425 0.2645835 0 0 0 3.0685465 0.52916666 L 3.7041666 0.52916666 L 3.7041666 3.7041666 L 3.0685465 3.7041666 A 0.29118515 0.26549809 0 0 0 2.7781249 3.9687499 A 0.29118515 0.26549809 0 0 0 3.0685465 4.2333332 L 3.9429117 4.2333332 A 0.29118515 0.26549809 0 0 0 3.9558308 4.2328165 A 0.2645835 0.26464022 0 0 0 3.9697835 4.2333332 A 0.2645835 0.26464022 0 0 0 4.2333332 3.9697835 A 0.29118515 0.26549809 0 0 0 4.2333332 3.9687499 L 4.2333332 0.26510009 A 0.29118425 0.2645835 0 0 0 4.2333332 0.2635498 A 0.2645835 0.26464022 0 0 0 4.2302327 0.2273763 A 0.2645835 0.26464022 0 0 0 3.9697835 0 A 0.2645835 0.26464022 0 0 0 3.9558308 0.00051676431 A 0.29118425 0.2645835 0 0 0 3.9429117 0 L 3.0685465 0 z " /><path
       style="fill:none;stroke:#a8a8a8;stroke-width:0.529167;stroke-linecap:round;stroke-linejoin:round;stroke-opacity:1"
       d="M 2.1166666,0.26458332 V 3.9687497"
       id="path1" /></g></svg>
