<?xml version="1.0" encoding="UTF-8" standalone="no"?>
<!-- Created with Inkscape (http://www.inkscape.org/) -->

<svg
   width="16"
   height="16"
   viewBox="0 0 4.2333332 4.2333333"
   version="1.1"
   id="svg1"
   inkscape:version="1.4.3 (0d15f75, 2025-12-25)"
   sodipodi:docname="compare-previous-change.svg"
   xml:space="preserve"
   xmlns:inkscape="http://www.inkscape.org/namespaces/inkscape"
   xmlns:sodipodi="http://sodipodi.sourceforge.net/DTD/sodipodi-0.dtd"
   xmlns="http://www.w3.org/2000/svg"
   xmlns:svg="http://www.w3.org/2000/svg"><sodipodi:namedview
     id="namedview1"
     pagecolor="#ffffff"
     bordercolor="#000000"
     borderopacity="0.25"
     inkscape:showpageshadow="false"
     inkscape:pageopacity="0.0"
     inkscape:pagecheckerboard="0"
     inkscape:deskcolor="#ffffff"
     inkscape:document-units="px"
     showgrid="true"
     inkscape:zoom="12.551145"
     inkscape:cx="8.0470746"
     inkscape:cy="22.786766"
     inkscape:window-width="1982"
     inkscape:window-height="1402"
     inkscape:window-x="1811"
     inkscape:window-y="41"
     inkscape:window-maximized="0"
     inkscape:current-layer="layer1"
     showguides="true"><inkscape:grid
       id="grid1"
       units="px"
       originx="0"
       originy="0"
       spacingx="0.26458333"
       spacingy="0.26458333"
       empcolor="#0099e5"
       empopacity="0.30196078"
       color="#0099e5"
       opacity="0.14901961"
       empspacing="5"
       enabled="true"
       visible="true" /></sodipodi:namedview><defs
     id="defs1" /><g
     inkscape:label="Layer 1"
     inkscape:groupmode="layer"
     id="layer1"><path
       id="path10-2"
       style="baseline-shift:baseline;display:inline;overflow:visible;vector-effect:none;fill:#a8a8a8;stroke-width:1;stroke-linecap:round;stroke-linejoin:round;enable-background:accumulate;stop-color:#000000"
       d="M 3.0685465 0 A 0.29118425 0.2645835 0 0 0 2.7781249 0.2635498 A 0.29118425 0.2645835 0 0 0 3.0685465 0.52916666 L 3.7041666 0.52916666 L 3.7041666 2.7683064 L 4.2333332 3.2964396 L 4.2333332 0.26510009 A 0.29118425 0.2645835 0 0 0 4.2333332 0.2635498 A 0.2645835 0.26464022 0 0 0 3.9697835 0 A 0.2645835 0.26464022 0 0 0 3.9558308 0.00051676431 A 0.29118425 0.2645835 0 0 0 3.9429117 0 L 3.0685465 0 z " /><path
       id="path1"
       style="baseline-shift:baseline;display:inline;overflow:visible;vector-effect:none;fill:#a8a8a8;stroke-linecap:round;stroke-linejoin:round;enable-background:accumulate;stop-color:#000000"
       d="M 2.1171834 0 A 0.2645835 0.2645835 0 0 0 1.8515665 0.2635498 L 1.8515665 3.5723917 C 1.8703091 3.5469785 1.8912465 3.5229522 1.914095 3.5000447 L 2.3807332 3.0328898 L 2.3807332 0.2635498 A 0.2645835 0.2645835 0 0 0 2.1171834 0 z " /><path
       id="path9-3-6-4"
       style="baseline-shift:baseline;display:inline;overflow:visible;vector-effect:none;fill:#ff7f27;stroke-width:1;stroke-linecap:round;stroke-linejoin:round;enable-background:accumulate;stop-color:#000000"
       d="m 3.1750001,2.9104556 a 0.26433502,0.2645835 0 0 0 -0.1863767,0.076998 0.26433502,0.2645835 0 0 0 -5.163e-4,5.167e-4 L 2.1945863,3.7801698 a 0.26433502,0.2645835 0 0 0 0,0.3751708 0.26433502,0.2645835 0 0 0 0.3743022,0 L 3.1750001,3.5491762 3.7805954,4.1553406 a 0.26433502,0.2645835 0 0 0 0.3748184,0 0.26433502,0.2645835 0 0 0 0,-0.3751708 L 3.3618931,2.9879701 A 0.26433502,0.2645835 0 0 0 3.3613769,2.9874534 0.26433502,0.2645835 0 0 0 3.1750001,2.9104556 Z" /><path
       id="path10-2-2"
       style="baseline-shift:baseline;display:inline;overflow:visible;vector-effect:none;fill:#a8a8a8;stroke-width:1;stroke-linecap:round;stroke-linejoin:round;enable-background:accumulate;stop-color:#000000"
       d="M 0.26355105,0 A 0.2645835,0.26464022 0 0 0 1.2491561e-6,0.2635498 a 0.29118425,0.2645835 0 0 0 0,0.00155 V 1.1456665 H 0.52916795 V 0.5291667 H 1.164788 A 0.29118425,0.2645835 0 0 0 1.4552095,0.2635498 0.29118425,0.2645835 0 0 0 1.164788,0 H 0.29042275 A 0.29118425,0.2645835 0 0 0 0.27750375,5.168e-4 0.2645835,0.26464022 0 0 0 0.26355105,0 Z M 1.2491561e-6,1.5425415 V 2.688208 H 0.52916795 V 1.5425415 Z m 0,1.5425414 v 0.883667 a 0.29118515,0.26549809 0 0 0 0,0.00103 0.2645835,0.26464022 0 0 0 0.00310000084,0.035657 0.2645835,0.26464022 0 0 0 0.2604492,0.227893 0.2645835,0.26464022 0 0 0 0.013953,-5.167e-4 0.29118515,0.26549809 0 0 0 0.012919,5.167e-4 H 1.1647884 A 0.29118515,0.26549809 0 0 0 1.4552095,3.9687499 0.29118515,0.26549809 0 0 0 1.164788,3.7041666 H 0.52916795 V 3.0850829 Z" /></g></svg>
