<?xml version="1.0" encoding="UTF-8" standalone="no"?>
<!-- Created with Inkscape (http://www.inkscape.org/) -->

<svg
   width="16"
   height="16"
   viewBox="0 0 4.2333332 4.2333333"
   version="1.1"
   id="svg1"
   inkscape:version="1.4.3 (0d15f75, 2025-12-25)"
   sodipodi:docname="console-standard-output.svg"
   xmlns:inkscape="http://www.inkscape.org/namespaces/inkscape"
   xmlns:sodipodi="http://sodipodi.sourceforge.net/DTD/sodipodi-0.dtd"
   xmlns="http://www.w3.org/2000/svg"
   xmlns:svg="http://www.w3.org/2000/svg">
  <sodipodi:namedview
     id="namedview1"
     pagecolor="#ffffff"
     bordercolor="#000000"
     borderopacity="0.25"
     inkscape:showpageshadow="false"
     inkscape:pageopacity="0.0"
     inkscape:pagecheckerboard="0"
     inkscape:deskcolor="#ffffff"
     inkscape:document-units="px"
     showgrid="true"
     inkscape:zoom="14.904485"
     inkscape:cx="-5.6023405"
     inkscape:cy="13.351686"
     inkscape:window-width="2894"
     inkscape:window-height="1308"
     inkscape:window-x="301"
     inkscape:window-y="172"
     inkscape:window-maximized="0"
     inkscape:current-layer="layer1"
     showguides="true">
    <inkscape:grid
       id="grid1"
       units="px"
       originx="0"
       originy="0"
       spacingx="0.26458333"
       spacingy="0.26458333"
       empcolor="#0099e5"
       empopacity="0.30196078"
       color="#0099e5"
       opacity="0.14901961"
       empspacing="5"
       enabled="true"
       visible="true" />
  </sodipodi:namedview>
  <defs
     id="defs1" />
  <g
     inkscape:label="Layer 1"
     inkscape:groupmode="layer"
     id="layer1">
    <path
       id="rect1-2"
       style="fill:#a8a8a8;stroke-width:0.529164;stroke-linecap:round;stroke-linejoin:round"
       d="M 0.2635498 0 A 0.26460996 0.26460996 0 0 0 0 0.2635498 L 0 3.043225 A 0.26460996 0.26460996 0 0 0 0.2635498 3.3067748 L 1.7197916 3.3067748 L 1.7197916 2.7770914 L 0.52916666 2.7770914 L 0.52916666 0.52916666 L 3.7052001 0.52916666 L 3.7052001 1.7197916 L 4.2322997 1.7197916 L 4.2322997 0.2635498 A 0.26460996 0.26460996 0 0 0 3.9687499 0 L 0.2635498 0 z M 1.4552083 3.7052001 A 0.2645835 0.2645835 0 0 0 1.1916585 3.9687499 A 0.2645835 0.2645835 0 0 0 1.4552083 4.2322997 L 1.7197916 4.2322997 L 1.7197916 3.7052001 L 1.4552083 3.7052001 z " />
    <path
       id="path2"
       style="baseline-shift:baseline;display:inline;overflow:visible;vector-effect:none;fill:#a8a8a8;stroke-linecap:round;stroke-linejoin:round;enable-background:accumulate;stop-color:#000000;stop-opacity:1;opacity:1"
       d="M 1.3223999 1.8515665 A 0.2645835 0.2645835 0 0 0 1.0588501 2.1171834 A 0.2645835 0.2645835 0 0 0 1.3223999 2.3807332 L 1.7197916 2.3807332 L 1.7197916 2.0432861 A 0.30496943 0.32337962 0 0 1 1.7792195 1.8515665 L 1.3223999 1.8515665 z " />
    <path
       style="baseline-shift:baseline;display:inline;overflow:visible;vector-effect:none;fill:#a8a8a8;stroke-linecap:round;stroke-linejoin:round;enable-background:accumulate;stop-color:#000000;stop-opacity:1;opacity:1"
       d="M 1.3222656,0.92578125 A 0.2645835,0.2645835 0 0 0 1.0585937,1.1914062 0.2645835,0.2645835 0 0 0 1.3222656,1.4550781 H 2.9101563 A 0.2645835,0.2645835 0 0 0 3.1757813,1.1914062 0.2645835,0.2645835 0 0 0 2.9101563,0.92578125 Z"
       id="path2-2" />
    <path
       id="rect2-76"
       style="fill:#a8a8a8;fill-opacity:1;fill-rule:evenodd;stroke-width:0.264583"
       d="M 2.4189737 2.1166666 A 0.30238077 0.30238077 0 0 0 2.1166666 2.4189737 L 2.1166666 3.9310261 A 0.30238115 0.30238115 0 0 0 2.4189737 4.2333332 L 3.9310261 4.2333332 A 0.30238122 0.30238122 0 0 0 4.2333332 3.9310261 L 4.2333332 2.4194905 A 0.30296229 0.30296229 0 0 0 3.9305094 2.1166666 L 2.4189737 2.1166666 z M 2.7770914 2.5388631 L 3.5723917 2.5388631 A 0.2645835 0.2645835 0 0 1 3.8359415 2.8044799 A 0.2645835 0.2645835 0 0 1 3.5723917 3.0685465 L 2.7770914 3.0685465 A 0.2645835 0.2645835 0 0 1 2.5135416 2.8044799 A 0.2645835 0.2645835 0 0 1 2.7770914 2.5388631 z M 2.7770914 3.3341633 L 3.5723917 3.3341633 A 0.2645835 0.2645835 0 0 1 3.8359415 3.5977131 A 0.2645835 0.2645835 0 0 1 3.5723917 3.86333 L 2.7770914 3.86333 A 0.2645835 0.2645835 0 0 1 2.5135416 3.5977131 A 0.2645835 0.2645835 0 0 1 2.7770914 3.3341633 z " />
  </g>
</svg>
