<?xml version="1.0" encoding="UTF-8" standalone="no"?>
<!-- Created with Inkscape (http://www.inkscape.org/) -->

<svg
   width="16"
   height="16"
   viewBox="0 0 4.2333332 4.2333333"
   version="1.1"
   id="svg1"
   inkscape:version="1.4.3 (0d15f75, 2025-12-25)"
   sodipodi:docname="container.svg"
   xml:space="preserve"
   xmlns:inkscape="http://www.inkscape.org/namespaces/inkscape"
   xmlns:sodipodi="http://sodipodi.sourceforge.net/DTD/sodipodi-0.dtd"
   xmlns="http://www.w3.org/2000/svg"
   xmlns:svg="http://www.w3.org/2000/svg"><sodipodi:namedview
     id="namedview1"
     pagecolor="#ffffff"
     bordercolor="#000000"
     borderopacity="0.25"
     inkscape:showpageshadow="false"
     inkscape:pageopacity="0.0"
     inkscape:pagecheckerboard="0"
     inkscape:deskcolor="#ffffff"
     inkscape:document-units="px"
     showgrid="true"
     inkscape:zoom="12.738971"
     inkscape:cx="3.4539682"
     inkscape:cy="10.087157"
     inkscape:window-width="1853"
     inkscape:window-height="1337"
     inkscape:window-x="1669"
     inkscape:window-y="119"
     inkscape:window-maximized="0"
     inkscape:current-layer="layer1"
     showguides="true"><inkscape:grid
       id="grid1"
       units="px"
       originx="0"
       originy="0"
       spacingx="0.26458333"
       spacingy="0.26458333"
       empcolor="#0099e5"
       empopacity="0.30196078"
       color="#0099e5"
       opacity="0.14901961"
       empspacing="5"
       enabled="true"
       visible="true" /></sodipodi:namedview><defs
     id="defs1" /><g
     inkscape:label="Layer 1"
     inkscape:groupmode="layer"
     id="layer1"><path
       id="rect1"
       style="fill:#a8a8a8;fill-opacity:1;fill-rule:evenodd;stroke-width:0.264583"
       d="M 0.26458333 0.52916666 A 0.26458332 0.26458332 0 0 0 0 0.79374998 L 0 3.4395833 A 0.26458332 0.26458332 0 0 0 0.26458333 3.7041666 L 3.9687499 3.7041666 A 0.26458332 0.26458332 0 0 0 4.2333332 3.4395833 L 4.2333332 0.79374998 A 0.26458332 0.26458332 0 0 0 3.9687499 0.52916666 L 0.26458333 0.52916666 z M 0.52916666 1.0583333 L 3.7041666 1.0583333 L 3.7041666 3.1749999 L 0.52916666 3.1749999 L 0.52916666 1.0583333 z " /><path
       style="baseline-shift:baseline;display:inline;overflow:visible;vector-effect:none;fill:#a8a8a8;stroke-linecap:round;stroke-linejoin:round;enable-background:accumulate;stop-color:#000000;stop-opacity:1;opacity:1"
       d="M 1.1914062,1.4550781 A 0.2645835,0.2645835 0 0 0 0.92578125,1.7207031 V 2.6015625 A 0.2645835,0.2645835 0 0 0 1.1914062,2.8671875 0.2645835,0.2645835 0 0 0 1.4550781,2.6015625 V 1.7207031 A 0.2645835,0.2645835 0 0 0 1.1914062,1.4550781 Z"
       id="path2" /><path
       style="baseline-shift:baseline;display:inline;overflow:visible;vector-effect:none;fill:#a8a8a8;stroke-linecap:round;stroke-linejoin:round;enable-background:accumulate;stop-color:#000000;stop-opacity:1;opacity:1"
       d="m 3.0429688,1.4550781 a 0.2645835,0.2645835 0 0 0 -0.265625,0.265625 v 0.8808594 a 0.2645835,0.2645835 0 0 0 0.265625,0.265625 0.2645835,0.2645835 0 0 0 0.2636718,-0.265625 V 1.7207031 A 0.2645835,0.2645835 0 0 0 3.0429688,1.4550781 Z"
       id="path2-1" /><path
       style="baseline-shift:baseline;display:inline;overflow:visible;vector-effect:none;fill:#a8a8a8;stroke-linecap:round;stroke-linejoin:round;enable-background:accumulate;stop-color:#000000;stop-opacity:1;opacity:1"
       d="m 2.1171875,1.4550781 a 0.2645835,0.2645835 0 0 0 -0.265625,0.265625 v 0.8808594 a 0.2645835,0.2645835 0 0 0 0.265625,0.265625 0.2645835,0.2645835 0 0 0 0.2636719,-0.265625 V 1.7207031 A 0.2645835,0.2645835 0 0 0 2.1171875,1.4550781 Z"
       id="path2-1-2" /></g></svg>
