<?xml version="1.0" encoding="UTF-8" standalone="no"?>
<!-- Created with Inkscape (http://www.inkscape.org/) -->

<svg
   width="16"
   height="16"
   viewBox="0 0 4.2333332 4.2333333"
   version="1.1"
   id="svg1"
   inkscape:version="1.4.3 (0d15f75, 2025-12-25)"
   sodipodi:docname="copy-content-to-right.svg"
   xml:space="preserve"
   xmlns:inkscape="http://www.inkscape.org/namespaces/inkscape"
   xmlns:sodipodi="http://sodipodi.sourceforge.net/DTD/sodipodi-0.dtd"
   xmlns="http://www.w3.org/2000/svg"
   xmlns:svg="http://www.w3.org/2000/svg"><sodipodi:namedview
     id="namedview1"
     pagecolor="#ffffff"
     bordercolor="#000000"
     borderopacity="0.25"
     inkscape:showpageshadow="false"
     inkscape:pageopacity="0.0"
     inkscape:pagecheckerboard="0"
     inkscape:deskcolor="#ffffff"
     inkscape:document-units="px"
     showgrid="true"
     inkscape:zoom="25.102292"
     inkscape:cx="4.342233"
     inkscape:cy="8.1466664"
     inkscape:window-width="1728"
     inkscape:window-height="990"
     inkscape:window-x="0"
     inkscape:window-y="33"
     inkscape:window-maximized="0"
     inkscape:current-layer="layer1"
     showguides="true"><inkscape:grid
       id="grid1"
       units="px"
       originx="0"
       originy="0"
       spacingx="0.26458333"
       spacingy="0.26458333"
       empcolor="#0099e5"
       empopacity="0.30196078"
       color="#0099e5"
       opacity="0.14901961"
       empspacing="5"
       enabled="true"
       visible="true" /></sodipodi:namedview><defs
     id="defs1"><inkscape:path-effect
       effect="fillet_chamfer"
       id="path-effect2"
       is_visible="true"
       lpeversion="1"
       nodesatellites_param="F,0,0,1,0,0.26458332,0,1 @ F,0,0,1,0,0.26458332,0,1 @ F,0,0,1,0,0.26458332,0,1 @ F,0,0,1,0,0.26458332,0,1"
       radius="1"
       unit="px"
       method="auto"
       mode="F"
       chamfer_steps="1"
       flexible="false"
       use_knot_distance="true"
       apply_no_radius="true"
       apply_with_radius="true"
       only_selected="false"
       hide_knots="false" /><inkscape:path-effect
       effect="perspective-envelope"
       up_left_point="-1.7602144,0.27404535"
       up_right_point="2.4731187,0.27404535"
       down_left_point="-1.7602144,4.5073789"
       down_right_point="2.4731187,4.5073789"
       id="path-effect1"
       is_visible="true"
       lpeversion="1"
       deform_type="perspective"
       horizontal_mirror="false"
       vertical_mirror="false"
       overflow_perspective="false" /></defs><g
     inkscape:label="Layer 1"
     inkscape:groupmode="layer"
     id="layer1"><path
       id="rect1"
       style="fill:#a8a8a8;stroke:none;stroke-width:0.79375;stroke-linecap:round;stroke-linejoin:round"
       d="M -1.4956312 0.27404552 A 0.26458332 0.26458332 0 0 0 -1.7602145 0.53862885 L -1.7602145 4.2427954 A 0.26458332 0.26458332 0 0 0 -1.4956312 4.5073788 L 2.2085354 4.5073788 A 0.26458332 0.26458332 0 0 0 2.4731187 4.2427954 L 2.4731187 0.53862885 A 0.26458332 0.26458332 0 0 0 2.2085354 0.27404552 L -1.4956312 0.27404552 z M -0.040422867 1.3323788 A 0.2645835 0.2645835 0 0 1 0.14716258 1.4104102 L 0.93419463 2.1974423 A 0.26441045 0.2645835 0 0 1 0.93987903 2.2031267 A 0.26441045 0.2645835 0 0 1 0.96313343 2.2289649 A 0.2645835 0.2645835 0 0 0 0.96313343 2.2294817 A 0.26441045 0.2645835 0 0 1 0.99775664 2.2889096 A 0.2645835 0.2645835 0 0 0 0.99775664 2.2894263 A 0.26441045 0.2645835 0 0 1 1.0158434 2.4253354 A 0.2645835 0.2645835 0 0 1 0.99775664 2.491998 A 0.26441045 0.2645835 0 0 1 0.96313343 2.5519426 A 0.2645835 0.2645835 0 0 0 0.96313343 2.5524594 A 0.26441045 0.2645835 0 0 1 0.93987903 2.5782976 A 0.2645835 0.2645835 0 0 1 0.93626168 2.5819149 L 0.14767934 3.371014 A 0.26441045 0.2645835 0 0 1 -0.22697478 3.371014 A 0.26441045 0.2645835 0 0 1 -0.22697478 2.9963599 L 0.37918975 2.3907121 L -0.22800831 1.7835141 A 0.2645835 0.2645835 0 0 1 -0.22800831 1.4104102 A 0.2645835 0.2645835 0 0 1 -0.040422867 1.3323788 z "
       transform="translate(1.7602145,-0.27404552)" /></g></svg>
