<?xml version="1.0" encoding="UTF-8" standalone="no"?>
<!-- Created with Inkscape (http://www.inkscape.org/) -->

<svg
   width="16"
   height="16"
   viewBox="0 0 4.2333332 4.2333333"
   version="1.1"
   id="svg1"
   inkscape:version="1.4.3 (0d15f75, 2025-12-25)"
   sodipodi:docname="copy-from-right-to-left.svg"
   xml:space="preserve"
   xmlns:inkscape="http://www.inkscape.org/namespaces/inkscape"
   xmlns:sodipodi="http://sodipodi.sourceforge.net/DTD/sodipodi-0.dtd"
   xmlns="http://www.w3.org/2000/svg"
   xmlns:svg="http://www.w3.org/2000/svg"><sodipodi:namedview
     id="namedview1"
     pagecolor="#ffffff"
     bordercolor="#000000"
     borderopacity="0.25"
     inkscape:showpageshadow="false"
     inkscape:pageopacity="0.0"
     inkscape:pagecheckerboard="0"
     inkscape:deskcolor="#ffffff"
     inkscape:document-units="px"
     showgrid="true"
     inkscape:zoom="25.102291"
     inkscape:cx="1.8922576"
     inkscape:cy="9.1425918"
     inkscape:window-width="1728"
     inkscape:window-height="990"
     inkscape:window-x="0"
     inkscape:window-y="344"
     inkscape:window-maximized="0"
     inkscape:current-layer="layer1"
     showguides="true"><inkscape:grid
       id="grid1"
       units="px"
       originx="0"
       originy="0"
       spacingx="0.26458333"
       spacingy="0.26458333"
       empcolor="#0099e5"
       empopacity="0.30196078"
       color="#0099e5"
       opacity="0.14901961"
       empspacing="5"
       enabled="true"
       visible="true" /></sodipodi:namedview><defs
     id="defs1" /><g
     inkscape:label="Layer 1"
     inkscape:groupmode="layer"
     id="layer1"><path
       id="path2-6"
       style="baseline-shift:baseline;display:inline;overflow:visible;vector-effect:none;fill:#a8a8a8;stroke-linecap:round;stroke-linejoin:round;enable-background:accumulate;stop-color:#000000"
       d="M 2.5135416,1.0583333 A 0.2645835,0.2645835 0 0 0 2.3259562,1.1363647 L 1.5389241,1.9233968 a 0.26441045,0.2645835 0 0 0 -0.00568,0.00568 0.26441045,0.2645835 0 0 0 -0.023254,0.025838 0.2645835,0.2645835 0 0 0 0,5.167e-4 0.26441045,0.2645835 0 0 0 -0.034623,0.059428 0.2645835,0.2645835 0 0 0 0,5.168e-4 0.26441045,0.2645835 0 0 0 -0.018087,0.135909 0.2645835,0.2645835 0 0 0 0.018087,0.066663 0.26441045,0.2645835 0 0 0 0.015503,0.031006 0.2645835,0.2645835 0 0 0 0,5.167e-4 0.26441045,0.2645835 0 0 0 0.01912,0.028422 0.2645835,0.2645835 0 0 0 0,5.167e-4 0.26441045,0.2645835 0 0 0 0.023254,0.025838 0.2645835,0.2645835 0 0 0 0.00362,0.00362 l 0.7885823,0.7890991 a 0.26441045,0.2645835 0 0 0 0.3746541,0 0.26441045,0.2645835 0 0 0 0,-0.3746541 L 2.093929,2.1166666 2.7011271,1.5094685 a 0.2645835,0.2645835 0 0 0 0,-0.3731038 0.2645835,0.2645835 0 0 0 -0.1875855,-0.078031 z" /><path
       style="baseline-shift:baseline;display:inline;overflow:visible;vector-effect:none;fill:#a8a8a8;stroke-width:1;stroke-linecap:round;stroke-linejoin:round;enable-background:accumulate;stop-color:#000000"
       d="M 0.29018098,0 A 0.29118425,0.2645835 0 0 0 0,0.26367188 0.29118425,0.2645835 0 0 0 0.29018098,0.52929687 H 1.1650228 A 0.29118425,0.2645835 0 0 0 1.4552038,0.26367188 0.29118425,0.2645835 0 0 0 1.1650228,0 Z"
       id="path10-4" /><path
       style="baseline-shift:baseline;display:inline;overflow:visible;vector-effect:none;fill:#a8a8a8;stroke-width:1;stroke-linecap:round;stroke-linejoin:round;enable-background:accumulate;stop-color:#000000"
       d="M 0.29018187,3.7041667 A 0.29118515,0.26549809 0 0 0 0,3.96875 0.29118515,0.26549809 0 0 0 0.29018187,4.2333334 H 1.1650264 A 0.29118515,0.26549809 0 0 0 1.4552083,3.96875 0.29118515,0.26549809 0 0 0 1.1650264,3.7041667 Z"
       id="path14-5" /><path
       style="baseline-shift:baseline;display:inline;overflow:visible;vector-effect:none;fill:#a8a8a8;stroke-width:1;stroke-linecap:round;stroke-linejoin:round;enable-background:accumulate;stop-color:#000000"
       d="M 0.26367188,0 A 0.2645835,0.26464023 0 0 0 0,0.26372841 V 3.9696009 A 0.2645835,0.26464023 0 0 0 0.26367188,4.2333293 0.2645835,0.26464023 0 0 0 0.52929687,3.9696009 V 0.26372841 A 0.2645835,0.26464023 0 0 0 0.26367188,0 Z"
       id="path12-5" /><path
       style="baseline-shift:baseline;display:inline;overflow:visible;vector-effect:none;fill:#a8a8a8;stroke-width:1;stroke-linecap:round;stroke-linejoin:round;enable-background:accumulate;stop-color:#000000"
       d="M 3.94315,0 A 0.29118425,0.2645835 0 0 1 4.233331,0.2636719 0.29118425,0.2645835 0 0 1 3.94315,0.5292969 H 3.0683082 A 0.29118425,0.2645835 0 0 1 2.7781272,0.2636719 0.29118425,0.2645835 0 0 1 3.0683082,0 Z"
       id="path10-2-1" /><path
       style="baseline-shift:baseline;display:inline;overflow:visible;vector-effect:none;fill:#a8a8a8;stroke-width:1;stroke-linecap:round;stroke-linejoin:round;enable-background:accumulate;stop-color:#000000"
       d="M 3.9431513,3.7041667 A 0.29118515,0.26549809 0 0 1 4.2333332,3.96875 0.29118515,0.26549809 0 0 1 3.9431513,4.2333334 H 3.0683068 A 0.29118515,0.26549809 0 0 1 2.7781249,3.96875 0.29118515,0.26549809 0 0 1 3.0683068,3.7041667 Z"
       id="path14-2-7" /><path
       style="baseline-shift:baseline;display:inline;overflow:visible;vector-effect:none;fill:#a8a8a8;stroke-width:1;stroke-linecap:round;stroke-linejoin:round;enable-background:accumulate;stop-color:#000000"
       d="M 3.9696613,2.0564751e-6 A 0.2645835,0.26464022 0 0 1 4.2333332,0.26373046 V 3.9696028 A 0.2645835,0.26464022 0 0 1 3.9696613,4.2333312 0.2645835,0.26464022 0 0 1 3.7040363,3.9696028 V 0.26373046 A 0.2645835,0.26464022 0 0 1 3.9696613,2.0564751e-6 Z"
       id="path12-1-1" /></g></svg>
