<?xml version="1.0" encoding="UTF-8" standalone="no"?>
<!-- Created with Inkscape (http://www.inkscape.org/) -->

<svg
   width="16"
   height="16"
   viewBox="0 0 4.2333332 4.2333333"
   version="1.1"
   id="svg1"
   inkscape:version="1.4.3 (0d15f75, 2025-12-25)"
   sodipodi:docname="copy-content-to-left.svg"
   xml:space="preserve"
   xmlns:inkscape="http://www.inkscape.org/namespaces/inkscape"
   xmlns:sodipodi="http://sodipodi.sourceforge.net/DTD/sodipodi-0.dtd"
   xmlns="http://www.w3.org/2000/svg"
   xmlns:svg="http://www.w3.org/2000/svg"><sodipodi:namedview
     id="namedview1"
     pagecolor="#ffffff"
     bordercolor="#000000"
     borderopacity="0.25"
     inkscape:showpageshadow="false"
     inkscape:pageopacity="0.0"
     inkscape:pagecheckerboard="0"
     inkscape:deskcolor="#ffffff"
     inkscape:document-units="px"
     showgrid="true"
     inkscape:zoom="25.102291"
     inkscape:cx="5.2584842"
     inkscape:cy="6.9913937"
     inkscape:window-width="1728"
     inkscape:window-height="990"
     inkscape:window-x="0"
     inkscape:window-y="33"
     inkscape:window-maximized="0"
     inkscape:current-layer="layer1"
     showguides="true"><inkscape:grid
       id="grid1"
       units="px"
       originx="0"
       originy="0"
       spacingx="0.26458333"
       spacingy="0.26458333"
       empcolor="#0099e5"
       empopacity="0.30196078"
       color="#0099e5"
       opacity="0.14901961"
       empspacing="5"
       enabled="true"
       visible="true" /></sodipodi:namedview><defs
     id="defs1"><inkscape:path-effect
       effect="fillet_chamfer"
       id="path-effect1"
       is_visible="true"
       lpeversion="1"
       nodesatellites_param="F,0,0,1,0,0.26458332,0,1 @ F,0,0,1,0,0.26458332,0,1 @ F,0,0,1,0,0.26458332,0,1 @ F,0,0,1,0,0.26458332,0,1"
       radius="1"
       unit="px"
       method="auto"
       mode="F"
       chamfer_steps="1"
       flexible="false"
       use_knot_distance="true"
       apply_no_radius="true"
       apply_with_radius="true"
       only_selected="false"
       hide_knots="false" /></defs><g
     inkscape:label="Layer 1"
     inkscape:groupmode="layer"
     id="layer1"><path
       id="rect1"
       style="fill:#a8a8a8;stroke-width:0.79375;stroke-linecap:round;stroke-linejoin:round"
       d="M -0.33620849 0.46376901 A 0.26458332 0.26458332 0 0 0 -0.60079182 0.72835234 L -0.60079182 4.4325189 A 0.26458332 0.26458332 0 0 0 -0.33620849 4.6971023 L 3.3679581 4.6971023 A 0.26458332 0.26458332 0 0 0 3.6325414 4.4325189 L 3.6325414 0.72835234 A 0.26458332 0.26458332 0 0 0 3.3679581 0.46376901 L -0.33620849 0.46376901 z M 1.9127498 1.5221023 A 0.2645835 0.2645835 0 0 1 2.1003352 1.6001337 A 0.2645835 0.2645835 0 0 1 2.1003352 1.9732376 L 1.4931372 2.5804356 L 2.0993017 3.1860834 A 0.26441045 0.2645835 0 0 1 2.0993017 3.5607375 A 0.26441045 0.2645835 0 0 1 1.7246476 3.5607375 L 0.93606525 2.7716384 A 0.2645835 0.2645835 0 0 1 0.9324479 2.7680211 A 0.26441045 0.2645835 0 0 1 0.9091935 2.7421829 A 0.2645835 0.2645835 0 0 0 0.9091935 2.7416661 A 0.26441045 0.2645835 0 0 1 0.89007322 2.7132441 A 0.2645835 0.2645835 0 0 0 0.89007322 2.7127273 A 0.26441045 0.2645835 0 0 1 0.87457029 2.6817214 A 0.2645835 0.2645835 0 0 1 0.85648354 2.6150588 A 0.26441045 0.2645835 0 0 1 0.87457029 2.4791498 A 0.2645835 0.2645835 0 0 0 0.87457029 2.4786331 A 0.26441045 0.2645835 0 0 1 0.9091935 2.4192052 A 0.2645835 0.2645835 0 0 0 0.9091935 2.4186884 A 0.26441045 0.2645835 0 0 1 0.9324479 2.3928502 A 0.26441045 0.2645835 0 0 1 0.9381323 2.3871658 L 1.7251644 1.6001337 A 0.2645835 0.2645835 0 0 1 1.9127498 1.5221023 z "
       transform="translate(0.60079182,-0.46376901)" /></g></svg>
