<?xml version="1.0" encoding="UTF-8" standalone="no"?>
<!-- Created with Inkscape (http://www.inkscape.org/) -->

<svg
   width="16"
   height="16"
   viewBox="0 0 4.2333332 4.2333333"
   version="1.1"
   id="svg1"
   inkscape:version="1.4.3 (0d15f75, 2025-12-25)"
   sodipodi:docname="copy-from-left-to-right.svg"
   xml:space="preserve"
   xmlns:inkscape="http://www.inkscape.org/namespaces/inkscape"
   xmlns:sodipodi="http://sodipodi.sourceforge.net/DTD/sodipodi-0.dtd"
   xmlns="http://www.w3.org/2000/svg"
   xmlns:svg="http://www.w3.org/2000/svg"><sodipodi:namedview
     id="namedview1"
     pagecolor="#ffffff"
     bordercolor="#000000"
     borderopacity="0.25"
     inkscape:showpageshadow="false"
     inkscape:pageopacity="0.0"
     inkscape:pagecheckerboard="0"
     inkscape:deskcolor="#ffffff"
     inkscape:document-units="px"
     showgrid="true"
     inkscape:zoom="25.102292"
     inkscape:cx="4.3223145"
     inkscape:cy="8.1466664"
     inkscape:window-width="1728"
     inkscape:window-height="990"
     inkscape:window-x="0"
     inkscape:window-y="344"
     inkscape:window-maximized="0"
     inkscape:current-layer="layer1"
     showguides="true"><inkscape:grid
       id="grid1"
       units="px"
       originx="0"
       originy="0"
       spacingx="0.26458333"
       spacingy="0.26458333"
       empcolor="#0099e5"
       empopacity="0.30196078"
       color="#0099e5"
       opacity="0.14901961"
       empspacing="5"
       enabled="true"
       visible="true" /></sodipodi:namedview><defs
     id="defs1" /><g
     inkscape:label="Layer 1"
     inkscape:groupmode="layer"
     id="layer1"><path
       id="path2-6"
       style="baseline-shift:baseline;display:inline;overflow:visible;vector-effect:none;fill:#a8a8a8;stroke-linecap:round;stroke-linejoin:round;enable-background:accumulate;stop-color:#000000"
       d="m 1.7197916,1.0583334 a 0.2645835,0.2645835 0 0 0 -0.1875854,0.078031 0.2645835,0.2645835 0 0 0 0,0.3731038 L 2.1394043,2.1166667 1.5332397,2.7223144 a 0.26441045,0.2645835 0 0 0 0,0.3746542 0.26441045,0.2645835 0 0 0 0.3746541,0 L 2.6964762,2.3078695 a 0.2645835,0.2645835 0 0 0 0.00362,-0.00362 0.26441045,0.2645835 0 0 0 0.023254,-0.025838 0.2645835,0.2645835 0 0 0 0,-5.168e-4 0.26441045,0.2645835 0 0 0 0.034623,-0.059945 0.2645835,0.2645835 0 0 0 0.018087,-0.066663 0.26441045,0.2645835 0 0 0 -0.018087,-0.135909 0.2645835,0.2645835 0 0 0 0,-5.168e-4 0.26441045,0.2645835 0 0 0 -0.034623,-0.059428 0.2645835,0.2645835 0 0 0 0,-5.168e-4 0.26441045,0.2645835 0 0 0 -0.023254,-0.025838 0.26441045,0.2645835 0 0 0 -0.00568,-0.00568 L 1.9073842,1.1363661 A 0.2645835,0.2645835 0 0 0 1.7197916,1.0583334 Z" /><path
       style="baseline-shift:baseline;display:inline;overflow:visible;vector-effect:none;fill:#a8a8a8;stroke-width:1;stroke-linecap:round;stroke-linejoin:round;enable-background:accumulate;stop-color:#000000"
       d="M 0.29018326,2.0564754e-6 A 0.29118425,0.2645835 0 0 0 2.262744e-6,0.26367396 0.29118425,0.2645835 0 0 0 0.29018326,0.52929896 H 1.1650251 A 0.29118425,0.2645835 0 0 0 1.4552061,0.26367396 0.29118425,0.2645835 0 0 0 1.1650251,2.0564754e-6 Z"
       id="path10-4" /><path
       style="baseline-shift:baseline;display:inline;overflow:visible;vector-effect:none;fill:#a8a8a8;stroke-width:1;stroke-linecap:round;stroke-linejoin:round;enable-background:accumulate;stop-color:#000000"
       d="M 0.29018416,3.7041687 A 0.29118515,0.26549809 0 0 0 2.262744e-6,3.968752 0.29118515,0.26549809 0 0 0 0.29018416,4.2333354 H 1.1650287 A 0.29118515,0.26549809 0 0 0 1.4552106,3.968752 0.29118515,0.26549809 0 0 0 1.1650287,3.7041687 Z"
       id="path14-5" /><path
       style="baseline-shift:baseline;display:inline;overflow:visible;vector-effect:none;fill:#a8a8a8;stroke-width:1;stroke-linecap:round;stroke-linejoin:round;enable-background:accumulate;stop-color:#000000"
       d="M 0.26367416,2.0564754e-6 A 0.2645835,0.26464023 0 0 0 2.262744e-6,0.26373046 V 3.9696029 A 0.2645835,0.26464023 0 0 0 0.26367416,4.2333313 0.2645835,0.26464023 0 0 0 0.52929916,3.9696029 V 0.26373046 A 0.2645835,0.26464023 0 0 0 0.26367416,2.0564754e-6 Z"
       id="path12-5" /><path
       style="baseline-shift:baseline;display:inline;overflow:visible;vector-effect:none;fill:#a8a8a8;stroke-width:1;stroke-linecap:round;stroke-linejoin:round;enable-background:accumulate;stop-color:#000000"
       d="M 3.9431523,2.0564754e-6 A 0.29118425,0.2645835 0 0 1 4.2333333,0.26367396 0.29118425,0.2645835 0 0 1 3.9431523,0.52929896 H 3.0683105 A 0.29118425,0.2645835 0 0 1 2.7781295,0.26367396 0.29118425,0.2645835 0 0 1 3.0683105,2.0564754e-6 Z"
       id="path10-2-1" /><path
       style="baseline-shift:baseline;display:inline;overflow:visible;vector-effect:none;fill:#a8a8a8;stroke-width:1;stroke-linecap:round;stroke-linejoin:round;enable-background:accumulate;stop-color:#000000"
       d="M 3.9431536,3.7041687 A 0.29118515,0.26549809 0 0 1 4.2333355,3.968752 0.29118515,0.26549809 0 0 1 3.9431536,4.2333354 H 3.0683091 A 0.29118515,0.26549809 0 0 1 2.7781272,3.968752 0.29118515,0.26549809 0 0 1 3.0683091,3.7041687 Z"
       id="path14-2-7" /><path
       style="baseline-shift:baseline;display:inline;overflow:visible;vector-effect:none;fill:#a8a8a8;stroke-width:1;stroke-linecap:round;stroke-linejoin:round;enable-background:accumulate;stop-color:#000000"
       d="M 3.9696636,4.1564754e-6 A 0.2645835,0.26464022 0 0 1 4.2333355,0.26373256 V 3.9696048 A 0.2645835,0.26464022 0 0 1 3.9696636,4.2333332 0.2645835,0.26464022 0 0 1 3.7040386,3.9696048 V 0.26373256 A 0.2645835,0.26464022 0 0 1 3.9696636,4.1564754e-6 Z"
       id="path12-1-1" /></g></svg>
