<?xml version="1.0" encoding="UTF-8" standalone="no"?>
<!-- Created with Inkscape (http://www.inkscape.org/) -->

<svg
   width="16"
   height="16"
   viewBox="0 0 4.2333332 4.2333333"
   version="1.1"
   id="svg1"
   inkscape:version="1.4.3 (0d15f75, 2025-12-25)"
   sodipodi:docname="date.svg"
   xmlns:inkscape="http://www.inkscape.org/namespaces/inkscape"
   xmlns:sodipodi="http://sodipodi.sourceforge.net/DTD/sodipodi-0.dtd"
   xmlns="http://www.w3.org/2000/svg"
   xmlns:svg="http://www.w3.org/2000/svg">
  <sodipodi:namedview
     id="namedview1"
     pagecolor="#ffffff"
     bordercolor="#000000"
     borderopacity="0.25"
     inkscape:showpageshadow="false"
     inkscape:pageopacity="0.0"
     inkscape:pagecheckerboard="0"
     inkscape:deskcolor="#ffffff"
     inkscape:document-units="px"
     showgrid="true"
     inkscape:zoom="14.904485"
     inkscape:cx="0.23482864"
     inkscape:cy="0.87222067"
     inkscape:window-width="2894"
     inkscape:window-height="1308"
     inkscape:window-x="253"
     inkscape:window-y="185"
     inkscape:window-maximized="0"
     inkscape:current-layer="layer1"
     showguides="true">
    <inkscape:grid
       id="grid1"
       units="px"
       originx="0"
       originy="0"
       spacingx="0.26458333"
       spacingy="0.26458333"
       empcolor="#0099e5"
       empopacity="0.30196078"
       color="#0099e5"
       opacity="0.14901961"
       empspacing="5"
       enabled="true"
       visible="true" />
  </sodipodi:namedview>
  <defs
     id="defs1" />
  <g
     inkscape:label="Layer 1"
     inkscape:groupmode="layer"
     id="layer1">
    <path
       id="path1"
       style="fill:#a8a8a8;stroke:none;stroke-width:0.529167;stroke-linecap:round;stroke-linejoin:round;stroke-dasharray:none;stroke-opacity:1"
       d="M 1.3229166 0 A 0.26458334 0.26458334 0 0 0 1.0583333 0.26458333 L 1.0583333 0.39687499 L 0.28370361 0.39687499 A 0.28348213 0.25690567 0 0 0 0 0.65370686 L 0 3.9765014 A 0.28348213 0.25690567 0 0 0 0.28370361 4.2333332 L 3.9496296 4.2333332 A 0.28348213 0.25690567 0 0 0 4.2333332 3.9765014 L 4.2333332 0.65370686 A 0.28348213 0.25690567 0 0 0 3.9496296 0.39687499 L 3.1749999 0.39687499 L 3.1749999 0.26458333 A 0.2645833 0.2645833 0 0 0 2.9104166 0 A 0.26458327 0.26458327 0 0 0 2.6458333 0.26458333 L 2.6458333 0.39687499 L 1.5875 0.39687499 L 1.5875 0.26458333 A 0.2645833 0.2645833 0 0 0 1.3229166 0 z M 0.52916666 0.94516193 L 1.0583333 0.94516193 L 1.0583333 1.0583333 A 0.26458326 0.26458326 0 0 0 1.3229166 1.3229166 A 0.2645833 0.2645833 0 0 0 1.5875 1.0583333 L 1.5875 0.94516193 L 2.6458333 0.94516193 L 2.6458333 1.0583333 A 0.26458326 0.26458326 0 0 0 2.9104166 1.3229166 A 0.2645833 0.2645833 0 0 0 3.1749999 1.0583333 L 3.1749999 0.94516193 L 3.7041666 0.94516193 L 3.7041666 1.5875 L 0.52916666 1.5875 L 0.52916666 0.94516193 z M 0.52916666 2.1166666 L 3.7041666 2.1166666 L 3.7041666 3.6850463 L 0.52916666 3.6850463 L 0.52916666 2.1166666 z " />
  </g>
</svg>
