<?xml version="1.0" encoding="UTF-8" standalone="no"?>
<!-- Created with Inkscape (http://www.inkscape.org/) -->

<svg
   width="16"
   height="16"
   viewBox="0 0 4.2333332 4.2333333"
   version="1.1"
   id="svg1"
   inkscape:version="1.4.3 (0d15f75, 2025-12-25)"
   sodipodi:docname="default.svg"
   xmlns:inkscape="http://www.inkscape.org/namespaces/inkscape"
   xmlns:sodipodi="http://sodipodi.sourceforge.net/DTD/sodipodi-0.dtd"
   xmlns="http://www.w3.org/2000/svg"
   xmlns:svg="http://www.w3.org/2000/svg">
  <sodipodi:namedview
     id="namedview1"
     pagecolor="#ffffff"
     bordercolor="#000000"
     borderopacity="0.25"
     inkscape:showpageshadow="false"
     inkscape:pageopacity="0.0"
     inkscape:pagecheckerboard="0"
     inkscape:deskcolor="#ffffff"
     inkscape:document-units="px"
     showgrid="true"
     inkscape:zoom="10.539062"
     inkscape:cx="6.4996297"
     inkscape:cy="7.2112679"
     inkscape:window-width="2894"
     inkscape:window-height="1308"
     inkscape:window-x="253"
     inkscape:window-y="185"
     inkscape:window-maximized="0"
     inkscape:current-layer="layer1"
     showguides="true">
    <inkscape:grid
       id="grid1"
       units="px"
       originx="0"
       originy="0"
       spacingx="0.26458333"
       spacingy="0.26458333"
       empcolor="#0099e5"
       empopacity="0.30196078"
       color="#0099e5"
       opacity="0.14901961"
       empspacing="5"
       enabled="true"
       visible="true" />
  </sodipodi:namedview>
  <defs
     id="defs1" />
  <g
     inkscape:label="Layer 1"
     inkscape:groupmode="layer"
     id="layer1">
    <path
       id="path1"
       style="fill:#a8a8a8;stroke-width:0.793749;stroke-linecap:round;stroke-linejoin:bevel"
       d="M 2.1166666 0 A 2.1166666 2.1166666 0 0 0 0.10593668 1.4552083 L 4.1273966 1.4552083 A 2.1166666 2.1166666 0 0 0 2.1166666 0 z M 0.016536458 1.8515665 A 2.1166666 2.1166666 0 0 0 0 2.1166666 A 2.1166666 2.1166666 0 0 0 0.016536458 2.3807332 L 4.2167968 2.3807332 A 2.1166666 2.1166666 0 0 0 4.2333332 2.1166666 A 2.1166666 2.1166666 0 0 0 4.2167968 1.8515665 L 0.016536458 1.8515665 z M 0.10593668 2.7770914 A 2.1166666 2.1166666 0 0 0 2.1166666 4.2333332 A 2.1166666 2.1166666 0 0 0 4.1273966 2.7770914 L 0.10593668 2.7770914 z " />
  </g>
</svg>
