<?xml version="1.0" encoding="UTF-8" standalone="no"?>
<svg
   width="16"
   height="16"
   id="svg2"
   version="1.1"
   inkscape:version="1.4.3 (0d15f75, 2025-12-25)"
   sodipodi:docname="delete.svg"
   inkscape:export-filename="C:\Users\D019122\OneDrive - SAP SE\Desktop\iam_package.png"
   inkscape:export-xdpi="96"
   inkscape:export-ydpi="96"
   xml:space="preserve"
   xmlns:inkscape="http://www.inkscape.org/namespaces/inkscape"
   xmlns:sodipodi="http://sodipodi.sourceforge.net/DTD/sodipodi-0.dtd"
   xmlns="http://www.w3.org/2000/svg"
   xmlns:svg="http://www.w3.org/2000/svg"
   xmlns:rdf="http://www.w3.org/1999/02/22-rdf-syntax-ns#"
   xmlns:cc="http://creativecommons.org/ns#"
   xmlns:dc="http://purl.org/dc/elements/1.1/"><defs
     id="defs4" /><sodipodi:namedview
     id="base"
     pagecolor="#ffffff"
     bordercolor="#666666"
     borderopacity="1.0"
     inkscape:pageopacity="0"
     inkscape:pageshadow="2"
     inkscape:zoom="29.967463"
     inkscape:cx="8.0420555"
     inkscape:cy="9.0931955"
     inkscape:document-units="px"
     inkscape:current-layer="layer1"
     showgrid="true"
     inkscape:window-width="1728"
     inkscape:window-height="990"
     inkscape:window-x="0"
     inkscape:window-y="344"
     inkscape:window-maximized="0"
     showguides="false"
     inkscape:guide-bbox="true"
     inkscape:snap-global="false"
     inkscape:snap-bbox="true"
     inkscape:bbox-nodes="true"
     inkscape:document-rotation="0"
     inkscape:showpageshadow="false"
     inkscape:pagecheckerboard="0"
     inkscape:deskcolor="#ffffff"><sodipodi:guide
       position="-32.526912,-1.7218637"
       orientation="1,0"
       id="guide1"
       inkscape:locked="false" /><inkscape:grid
       id="grid14"
       units="px"
       originx="0"
       originy="0"
       spacingx="1"
       spacingy="1"
       empcolor="#0099e5"
       empopacity="0.30196078"
       color="#0099e5"
       opacity="0.14901961"
       empspacing="5"
       enabled="true"
       visible="true"
       dotted="false" /><sodipodi:guide
       position="-14.318912,58.426407"
       orientation="0,-1"
       id="guide16"
       inkscape:locked="false" /><sodipodi:guide
       position="-15.202796,51.708892"
       orientation="0.70710678,-0.70710678"
       id="guide17"
       inkscape:locked="false" /><sodipodi:guide
       position="-4.065864,27.711456"
       orientation="0,-1"
       id="guide18"
       inkscape:locked="false" /></sodipodi:namedview><metadata
     id="metadata7"><rdf:RDF><cc:Work
         rdf:about=""><dc:format>image/svg+xml</dc:format><dc:type
           rdf:resource="http://purl.org/dc/dcmitype/StillImage" /></cc:Work></rdf:RDF></metadata><g
     inkscape:label="Layer 1"
     inkscape:groupmode="layer"
     id="layer1"
     style="display:inline"
     transform="translate(0,-1036.3622)"><path
       style="baseline-shift:baseline;display:inline;overflow:visible;vector-effect:none;fill:#c80000;fill-rule:evenodd;enable-background:accumulate;stop-color:#000000;stop-opacity:1;opacity:1;fill-opacity:1"
       d="M 1.0996094,1036.3613 C 0.50394079,1036.3613 0,1036.8672 0,1037.4629 v 13.7988 c 0,0.5957 0.50394079,1.0996 1.0996094,1.0996 H 14.900391 c 0.595668,0 1.099609,-0.5039 1.099609,-1.0996 v -13.7988 c 0,-0.5957 -0.503941,-1.1016 -1.099609,-1.1016 z m 0.9003906,2 h 12 v 12 H 2 Z"
       id="rect1"
       transform="translate(0,1.7382813e-5)" /><path
       id="path2"
       style="baseline-shift:baseline;display:inline;overflow:visible;vector-effect:none;fill:#c80000;stroke-linecap:round;stroke-linejoin:round;enable-background:accumulate;stop-color:#000000;stop-opacity:1;opacity:1;fill-opacity:1"
       d="M 4.5 1039.8622 A 1 1 0 0 0 3.7929688 1040.1552 A 1 1 0 0 0 3.7929688 1041.5692 L 6.5859375 1044.3622 L 3.7929688 1047.1552 A 1 1 0 0 0 3.7929688 1048.5692 A 1 1 0 0 0 5.2070312 1048.5692 L 8 1045.7763 L 10.792969 1048.5692 A 1 1 0 0 0 12.207031 1048.5692 A 1 1 0 0 0 12.207031 1047.1552 L 9.4140625 1044.3622 L 12.207031 1041.5692 A 1 1 0 0 0 12.207031 1040.1552 A 1 1 0 0 0 11.5 1039.8622 A 1 1 0 0 0 10.792969 1040.1552 L 8 1042.9481 L 5.2070312 1040.1552 A 1 1 0 0 0 4.5 1039.8622 z " /></g></svg>
