<?xml version="1.0" encoding="UTF-8" standalone="no"?>
<!-- Created with Inkscape (http://www.inkscape.org/) -->

<svg
   width="16"
   height="16"
   viewBox="0 0 4.2333332 4.2333333"
   version="1.1"
   id="svg1"
   inkscape:version="1.4.3 (0d15f75, 2025-12-25)"
   sodipodi:docname="drag-handle-horizontal.svg"
   xml:space="preserve"
   xmlns:inkscape="http://www.inkscape.org/namespaces/inkscape"
   xmlns:sodipodi="http://sodipodi.sourceforge.net/DTD/sodipodi-0.dtd"
   xmlns="http://www.w3.org/2000/svg"
   xmlns:svg="http://www.w3.org/2000/svg"><sodipodi:namedview
     id="namedview1"
     pagecolor="#ffffff"
     bordercolor="#000000"
     borderopacity="0.25"
     inkscape:showpageshadow="false"
     inkscape:pageopacity="0.0"
     inkscape:pagecheckerboard="0"
     inkscape:deskcolor="#ffffff"
     inkscape:document-units="px"
     showgrid="true"
     inkscape:zoom="26.582796"
     inkscape:cx="0.92164872"
     inkscape:cy="2.9530377"
     inkscape:window-width="2065"
     inkscape:window-height="1383"
     inkscape:window-x="614"
     inkscape:window-y="181"
     inkscape:window-maximized="0"
     inkscape:current-layer="layer1"
     showguides="true"><inkscape:grid
       id="grid1"
       units="px"
       originx="0"
       originy="0"
       spacingx="0.26458333"
       spacingy="0.26458333"
       empcolor="#0099e5"
       empopacity="0.30196078"
       color="#0099e5"
       opacity="0.14901961"
       empspacing="5"
       enabled="true"
       visible="true" /></sodipodi:namedview><defs
     id="defs1" /><g
     inkscape:label="Layer 1"
     inkscape:groupmode="layer"
     id="layer1"><path
       id="path1"
       style="fill:#a8a8a8;stroke-width:0.529166;stroke-linecap:round;stroke-linejoin:round"
       d="M 0.7606771,2.1166666 A 0.38033855,0.38033855 0 0 1 0.38033855,2.4970051 0.38033855,0.38033855 0 0 1 0,2.1166666 0.38033855,0.38033855 0 0 1 0.38033855,1.736328 0.38033855,0.38033855 0 0 1 0.7606771,2.1166666 Z" /><path
       id="path1-4"
       style="fill:#a8a8a8;stroke-width:0.529166;stroke-linecap:round;stroke-linejoin:round"
       d="M 4.233333,2.1166666 A 0.38033855,0.38033855 0 0 1 3.8529944,2.4970051 0.38033855,0.38033855 0 0 1 3.4726559,2.1166666 0.38033855,0.38033855 0 0 1 3.8529944,1.736328 0.38033855,0.38033855 0 0 1 4.233333,2.1166666 Z" /><path
       id="path1-1"
       style="fill:#a8a8a8;stroke-width:0.529166;stroke-linecap:round;stroke-linejoin:round"
       d="M 1.9182291,2.1165342 A 0.38033855,0.38033855 0 0 1 1.5378906,2.4968728 0.38033855,0.38033855 0 0 1 1.157552,2.1165342 0.38033855,0.38033855 0 0 1 1.5378906,1.7361957 0.38033855,0.38033855 0 0 1 1.9182291,2.1165342 Z" /><path
       id="path1-1-6"
       style="fill:#a8a8a8;stroke-width:0.529166;stroke-linecap:round;stroke-linejoin:round"
       d="M 3.0757812,2.1165342 A 0.38033855,0.38033855 0 0 1 2.6954427,2.4968728 0.38033855,0.38033855 0 0 1 2.3151041,2.1165342 0.38033855,0.38033855 0 0 1 2.6954427,1.7361957 0.38033855,0.38033855 0 0 1 3.0757812,2.1165342 Z" /></g></svg>
