<?xml version="1.0" encoding="UTF-8" standalone="no"?>
<!-- Created with Inkscape (http://www.inkscape.org/) -->

<svg
   width="16"
   height="16"
   viewBox="0 0 4.2333332 4.2333333"
   version="1.1"
   id="svg1"
   inkscape:version="1.4.3 (0d15f75, 2025-12-25)"
   sodipodi:docname="drag-handle-vertical.svg"
   xml:space="preserve"
   xmlns:inkscape="http://www.inkscape.org/namespaces/inkscape"
   xmlns:sodipodi="http://sodipodi.sourceforge.net/DTD/sodipodi-0.dtd"
   xmlns="http://www.w3.org/2000/svg"
   xmlns:svg="http://www.w3.org/2000/svg"><sodipodi:namedview
     id="namedview1"
     pagecolor="#ffffff"
     bordercolor="#000000"
     borderopacity="0.25"
     inkscape:showpageshadow="false"
     inkscape:pageopacity="0.0"
     inkscape:pagecheckerboard="0"
     inkscape:deskcolor="#ffffff"
     inkscape:document-units="px"
     showgrid="true"
     inkscape:zoom="26.582796"
     inkscape:cx="1.7304425"
     inkscape:cy="2.9530377"
     inkscape:window-width="2065"
     inkscape:window-height="1383"
     inkscape:window-x="1068"
     inkscape:window-y="133"
     inkscape:window-maximized="0"
     inkscape:current-layer="layer1"
     showguides="true"><inkscape:grid
       id="grid1"
       units="px"
       originx="0"
       originy="0"
       spacingx="0.26458333"
       spacingy="0.26458333"
       empcolor="#0099e5"
       empopacity="0.30196078"
       color="#0099e5"
       opacity="0.14901961"
       empspacing="5"
       enabled="true"
       visible="true" /></sodipodi:namedview><defs
     id="defs1" /><g
     inkscape:label="Layer 1"
     inkscape:groupmode="layer"
     id="layer1"><path
       id="path1"
       style="fill:#a8a8a8;stroke-width:0.529166;stroke-linecap:round;stroke-linejoin:round"
       d="M 2.1167327,3.4725898 A 0.38033855,0.38033855 0 0 1 2.4970712,3.8529284 0.38033855,0.38033855 0 0 1 2.1167327,4.2332669 0.38033855,0.38033855 0 0 1 1.7363941,3.8529284 0.38033855,0.38033855 0 0 1 2.1167327,3.4725898 Z" /><path
       id="path1-4"
       style="fill:#a8a8a8;stroke-width:0.529166;stroke-linecap:round;stroke-linejoin:round"
       d="M 2.1167327,-6.61e-5 A 0.38033855,0.38033855 0 0 1 2.4970712,0.3802725 0.38033855,0.38033855 0 0 1 2.1167327,0.760611 0.38033855,0.38033855 0 0 1 1.7363941,0.3802725 0.38033855,0.38033855 0 0 1 2.1167327,-6.61e-5 Z" /><path
       id="path1-1"
       style="fill:#a8a8a8;stroke-width:0.529166;stroke-linecap:round;stroke-linejoin:round"
       d="M 2.1166003,2.3150378 A 0.38033855,0.38033855 0 0 1 2.4969389,2.6953763 0.38033855,0.38033855 0 0 1 2.1166003,3.0757149 0.38033855,0.38033855 0 0 1 1.7362618,2.6953763 0.38033855,0.38033855 0 0 1 2.1166003,2.3150378 Z" /><path
       id="path1-1-6"
       style="fill:#a8a8a8;stroke-width:0.529166;stroke-linecap:round;stroke-linejoin:round"
       d="M 2.1166003,1.1574857 A 0.38033855,0.38033855 0 0 1 2.4969389,1.5378242 0.38033855,0.38033855 0 0 1 2.1166003,1.9181628 0.38033855,0.38033855 0 0 1 1.7362618,1.5378242 0.38033855,0.38033855 0 0 1 2.1166003,1.1574857 Z" /></g></svg>
