<?xml version="1.0" encoding="UTF-8" standalone="no"?>
<!-- Created with Inkscape (http://www.inkscape.org/) -->

<svg
   width="16"
   height="16"
   viewBox="0 0 16 16"
   version="1.1"
   id="svg1"
   inkscape:version="1.4.3 (0d15f75, 2025-12-25)"
   sodipodi:docname="drop-to-frame.svg"
   xml:space="preserve"
   inkscape:export-filename="drop_to_frame_16x16.png"
   inkscape:export-xdpi="96"
   inkscape:export-ydpi="96"
   xmlns:inkscape="http://www.inkscape.org/namespaces/inkscape"
   xmlns:sodipodi="http://sodipodi.sourceforge.net/DTD/sodipodi-0.dtd"
   xmlns="http://www.w3.org/2000/svg"
   xmlns:svg="http://www.w3.org/2000/svg"><sodipodi:namedview
     id="namedview1"
     pagecolor="#ffffff"
     bordercolor="#000000"
     borderopacity="0.25"
     inkscape:showpageshadow="2"
     inkscape:pageopacity="0.0"
     inkscape:pagecheckerboard="0"
     inkscape:deskcolor="#d1d1d1"
     inkscape:document-units="px"
     inkscape:zoom="24.736952"
     inkscape:cx="11.096759"
     inkscape:cy="9.3180436"
     inkscape:window-width="1728"
     inkscape:window-height="990"
     inkscape:window-x="0"
     inkscape:window-y="344"
     inkscape:window-maximized="1"
     inkscape:current-layer="layer2"
     showguides="true"
     inkscape:export-bgcolor="#ffffff00"
     showgrid="true"><inkscape:grid
       id="grid1"
       units="px"
       originx="0"
       originy="0"
       spacingx="1"
       spacingy="1"
       empcolor="#0099e5"
       empopacity="0.30196078"
       color="#0099e5"
       opacity="0.14901961"
       empspacing="5"
       dotted="false"
       gridanglex="30"
       gridanglez="30"
       visible="true" /></sodipodi:namedview><defs
     id="defs1"><inkscape:path-effect
       effect="fillet_chamfer"
       id="path-effect1"
       is_visible="true"
       lpeversion="1"
       nodesatellites_param="F,0,0,1,0,1,0,1 @ F,0,0,1,0,1,0,1 @ F,0,0,1,0,1,0,1"
       radius="0.25"
       unit="px"
       method="auto"
       mode="F"
       chamfer_steps="1"
       flexible="false"
       use_knot_distance="true"
       apply_no_radius="true"
       apply_with_radius="true"
       only_selected="false"
       hide_knots="false" /><inkscape:path-effect
       effect="fillet_chamfer"
       id="path-effect1-9"
       is_visible="true"
       lpeversion="1"
       nodesatellites_param="F,0,0,1,0,1,0,1 @ F,0,0,1,0,1,0,1 @ F,0,0,1,0,1,0,1"
       radius="0.25"
       unit="px"
       method="auto"
       mode="F"
       chamfer_steps="1"
       flexible="false"
       use_knot_distance="true"
       apply_no_radius="true"
       apply_with_radius="true"
       only_selected="false"
       hide_knots="false" /></defs><g
     inkscape:groupmode="layer"
     id="layer2"
     inkscape:label="Icon"
     transform="matrix(1.2534827,0,0,1.2534827,-1.8232783,-2.3969923)"
     style="display:inline"><path
       style="display:inline;fill:#c80000;stroke:#a8a8a8;stroke-width:0.79776;stroke-linecap:round;stroke-dasharray:none;stroke-opacity:1;paint-order:markers stroke fill"
       d="M 7.8367882,13.878788 V 8.2944818"
       id="path1-8"
       transform="matrix(0,2.0000323,-2.0000323,0,30.010416,-9.7726816)" /><path
       id="path3"
       style="baseline-shift:baseline;display:inline;overflow:visible;vector-effect:none;fill:#a8a8a8;stroke-linecap:round;paint-order:markers stroke fill;enable-background:accumulate;stop-color:#000000"
       d="M 2.2523472 8.2944841 A 0.79777497 0.79777497 0 0 0 1.45457 9.0922613 A 0.79777497 0.79777497 0 0 0 2.2523472 9.8900386 L 9.91693 9.8900386 C 9.9831749 9.5904774 10.09065 9.3018946 10.318935 9.0735634 C 10.703349 8.6892289 11.216207 8.4954866 11.729069 8.4954866 C 12.24193 8.4954866 12.754789 8.6892289 13.139202 9.0735634 L 13.838815 9.7731767 A 0.79777497 0.79777497 0 0 0 14.219006 9.0922613 A 0.79777497 0.79777497 0 0 0 13.421229 8.2944841 L 2.2523472 8.2944841 z " /><path
       style="display:inline;fill:#c80000;stroke:#a8a8a8;stroke-width:0.79776;stroke-linecap:round;stroke-dasharray:none;stroke-opacity:1;paint-order:markers stroke fill"
       d="M 7.8367882,13.878788 V 8.2944818"
       id="path1-8-3"
       transform="matrix(0,2.0000323,-2.0000323,0,30.010416,-12.963791)" /><path
       id="path1"
       style="baseline-shift:baseline;display:inline;overflow:visible;vector-effect:none;fill:#ff7f27;stroke-width:0.797777;stroke-linecap:round;stroke-linejoin:round;enable-background:accumulate;stop-color:#000000"
       d="m 7.8367462,12.186886 a 0.79777726,0.79777726 0 0 1 0.797777,-0.797778 h 2.8716858 l -0.341236,-0.341236 a 0.79777326,0.79777326 0 0 1 0,-1.1281073 0.79777326,0.79777326 0 0 1 1.128106,0 l 1.692161,1.6921603 a 0.79777326,0.79777326 0 0 1 0.232166,0.557821 0.79777326,0.79777326 0 0 1 0.0016,0.02338 0.79777326,0.79777326 0 0 1 -0.0016,0.01247 0.79777326,0.79777326 0 0 1 -0.0062,0.09349 0.79777726,0.79777726 0 0 1 -0.162048,0.378633 0.79777326,0.79777326 0 0 1 -0.0016,0.0031 0.79777726,0.79777726 0 0 1 -0.07012,0.07791 l -1.684371,1.684369 a 0.79777326,0.79777326 0 0 1 -1.128106,0 0.79777326,0.79777326 0 0 1 0,-1.128107 L 11.49529,12.984662 H 8.6345382 a 0.79777726,0.79777726 0 0 1 -0.797777,-0.797778 z" /></g></svg>
