<?xml version="1.0" encoding="UTF-8" standalone="no"?>
<svg
   width="16"
   height="16"
   id="svg2"
   version="1.1"
   inkscape:version="1.4.3 (0d15f75, 2025-12-25)"
   sodipodi:docname="error_log_2.svg"
   inkscape:export-filename="C:\Users\D019122\OneDrive - SAP SE\Desktop\iam_package.png"
   inkscape:export-xdpi="96"
   inkscape:export-ydpi="96"
   xml:space="preserve"
   xmlns:inkscape="http://www.inkscape.org/namespaces/inkscape"
   xmlns:sodipodi="http://sodipodi.sourceforge.net/DTD/sodipodi-0.dtd"
   xmlns="http://www.w3.org/2000/svg"
   xmlns:svg="http://www.w3.org/2000/svg"
   xmlns:rdf="http://www.w3.org/1999/02/22-rdf-syntax-ns#"
   xmlns:cc="http://creativecommons.org/ns#"
   xmlns:dc="http://purl.org/dc/elements/1.1/"><defs
     id="defs4" /><sodipodi:namedview
     id="base"
     pagecolor="#ffffff"
     bordercolor="#666666"
     borderopacity="1.0"
     inkscape:pageopacity="0"
     inkscape:pageshadow="2"
     inkscape:zoom="22.627417"
     inkscape:cx="-4.1321553"
     inkscape:cy="12.904699"
     inkscape:document-units="px"
     inkscape:current-layer="layer1"
     showgrid="true"
     inkscape:window-width="2923"
     inkscape:window-height="1264"
     inkscape:window-x="763"
     inkscape:window-y="114"
     inkscape:window-maximized="0"
     showguides="false"
     inkscape:guide-bbox="true"
     inkscape:snap-global="false"
     inkscape:snap-bbox="true"
     inkscape:bbox-nodes="true"
     inkscape:document-rotation="0"
     inkscape:showpageshadow="false"
     inkscape:pagecheckerboard="0"
     inkscape:deskcolor="#ffffff"><inkscape:grid
       type="xygrid"
       id="grid3999"
       originx="0"
       originy="0"
       spacingy="1"
       spacingx="1"
       units="px"
       visible="false"
       enabled="true" /><inkscape:grid
       id="grid1"
       units="px"
       originx="0"
       originy="0"
       spacingx="1"
       spacingy="1"
       empcolor="#0099e5"
       empopacity="0.30196078"
       color="#0099e5"
       opacity="0.14901961"
       empspacing="5"
       enabled="true"
       visible="true" /></sodipodi:namedview><metadata
     id="metadata7"><rdf:RDF><cc:Work
         rdf:about=""><dc:format>image/svg+xml</dc:format><dc:type
           rdf:resource="http://purl.org/dc/dcmitype/StillImage" /></cc:Work></rdf:RDF></metadata><g
     inkscape:label="Layer 1"
     inkscape:groupmode="layer"
     id="layer1"
     style="display:inline"
     transform="translate(0,-1036.3622)"><path
       id="path2-1-1"
       style="baseline-shift:baseline;display:inline;overflow:visible;vector-effect:none;fill:#a8a8a8;stroke-linecap:round;enable-background:accumulate;stop-color:#000000;stop-opacity:1;opacity:1"
       d="M 1 1036.3622 A 1.000105 1.000105 0 0 0 0 1037.3622 L 0 1051.3622 A 1.000105 1.000105 0 0 0 1 1052.3622 L 7.5 1052.3622 L 7.5 1050.3622 L 2 1050.3622 L 2 1038.3622 L 10 1038.3622 L 10 1043.8622 L 12 1043.8622 L 12 1037.3622 A 1.000105 1.000105 0 0 0 11 1036.3622 L 1 1036.3622 z M 4.5 1039.8622 A 1 1 0 0 0 3.5 1040.8622 A 1 1 0 0 0 4.5 1041.8622 L 7.5 1041.8622 A 1 1 0 0 0 8.5 1040.8622 A 1 1 0 0 0 7.5 1039.8622 L 4.5 1039.8622 z M 4.5 1043.3622 A 1 1 0 0 0 3.5 1044.3622 A 1 1 0 0 0 4.5 1045.3622 L 7.5 1045.3622 L 7.5 1044.9735 A 1.0478549 1.1111111 0 0 1 8.375 1043.8778 A 1 1 0 0 0 7.5 1043.3622 L 4.5 1043.3622 z M 4.5 1046.8622 A 1 1 0 0 0 3.5 1047.8622 A 1 1 0 0 0 4.5 1048.8622 L 7.5 1048.8622 L 7.5 1046.8622 L 4.5 1046.8622 z " /><path
       id="rect13"
       style="display:inline;fill:#c80000;fill-opacity:1;stroke:none;stroke-width:0.570945;stroke-linecap:square;stroke-linejoin:round"
       d="M 9.734375 1045.3622 A 0.73349841 0.77777778 0 0 0 9 1046.1395 L 9 1051.5849 A 0.73349841 0.77777778 0 0 0 9.734375 1052.3622 L 15.265625 1052.3622 A 0.73349841 0.77777778 0 0 0 16 1051.5849 L 16 1046.1395 A 0.73349841 0.77777778 0 0 0 15.265625 1045.3622 L 9.734375 1045.3622 z M 13.662109 1046.8622 C 13.685517 1046.8608 13.70884 1046.8613 13.732422 1046.8622 C 13.921077 1046.8692 14.111798 1046.9485 14.261719 1047.0985 C 14.561511 1047.3983 14.579166 1047.865 14.300781 1048.1435 L 13.582031 1048.8622 L 14.302734 1049.5829 C 14.581076 1049.8613 14.56349 1050.326 14.263672 1050.6259 L 14.261719 1050.6259 C 13.961894 1050.9258 13.495189 1050.944 13.216797 1050.6649 L 12.498047 1049.9462 L 11.78125 1050.663 C 11.502809 1050.9414 11.038072 1050.9241 10.738281 1050.6239 C 10.438491 1050.3241 10.420824 1049.8594 10.699219 1049.581 L 11.416016 1048.8642 L 10.697266 1048.1435 C 10.418874 1047.865 10.43651 1047.4003 10.736328 1047.1005 L 10.738281 1047.1005 C 11.038106 1046.8006 11.504811 1046.7822 11.783203 1047.0614 L 12.5 1047.7782 L 13.21875 1047.0595 C 13.340546 1046.9377 13.498255 1046.8719 13.662109 1046.8622 z " /></g></svg>
