<?xml version="1.0" encoding="UTF-8" standalone="no"?>
<svg
   width="16"
   height="16"
   id="svg2"
   version="1.1"
   inkscape:version="1.4.3 (0d15f75, 2025-12-25)"
   sodipodi:docname="error_tsk.svg"
   inkscape:export-filename="C:\Users\D019122\OneDrive - SAP SE\Desktop\iam_package.png"
   inkscape:export-xdpi="96"
   inkscape:export-ydpi="96"
   xml:space="preserve"
   xmlns:inkscape="http://www.inkscape.org/namespaces/inkscape"
   xmlns:sodipodi="http://sodipodi.sourceforge.net/DTD/sodipodi-0.dtd"
   xmlns="http://www.w3.org/2000/svg"
   xmlns:svg="http://www.w3.org/2000/svg"
   xmlns:rdf="http://www.w3.org/1999/02/22-rdf-syntax-ns#"
   xmlns:cc="http://creativecommons.org/ns#"
   xmlns:dc="http://purl.org/dc/elements/1.1/"><defs
     id="defs4" /><sodipodi:namedview
     id="base"
     pagecolor="#ffffff"
     bordercolor="#666666"
     borderopacity="1.0"
     inkscape:pageopacity="0"
     inkscape:pageshadow="2"
     inkscape:zoom="22.627417"
     inkscape:cx="4.1100582"
     inkscape:cy="9.3912619"
     inkscape:document-units="px"
     inkscape:current-layer="layer1"
     showgrid="true"
     inkscape:window-width="1684"
     inkscape:window-height="1281"
     inkscape:window-x="1381"
     inkscape:window-y="48"
     inkscape:window-maximized="0"
     showguides="true"
     inkscape:guide-bbox="true"
     inkscape:snap-global="false"
     inkscape:snap-bbox="true"
     inkscape:bbox-nodes="true"
     inkscape:document-rotation="0"
     inkscape:showpageshadow="false"
     inkscape:pagecheckerboard="0"
     inkscape:deskcolor="#ffffff"><sodipodi:guide
       position="-32.526912,-1.7218637"
       orientation="1,0"
       id="guide1"
       inkscape:locked="false" /><inkscape:grid
       id="grid14"
       units="px"
       originx="0"
       originy="0"
       spacingx="1"
       spacingy="1"
       empcolor="#0099e5"
       empopacity="0.30196078"
       color="#0099e5"
       opacity="0.14901961"
       empspacing="5"
       enabled="true"
       visible="true"
       dotted="false" /><sodipodi:guide
       position="-14.318912,58.426407"
       orientation="0,-1"
       id="guide16"
       inkscape:locked="false" /><sodipodi:guide
       position="-15.202796,51.708892"
       orientation="0.70710678,-0.70710678"
       id="guide17"
       inkscape:locked="false" /><sodipodi:guide
       position="-4.065864,27.711456"
       orientation="0,-1"
       id="guide18"
       inkscape:locked="false" /></sodipodi:namedview><metadata
     id="metadata7"><rdf:RDF><cc:Work
         rdf:about=""><dc:format>image/svg+xml</dc:format><dc:type
           rdf:resource="http://purl.org/dc/dcmitype/StillImage" /></cc:Work></rdf:RDF></metadata><g
     inkscape:label="Layer 1"
     inkscape:groupmode="layer"
     id="layer1"
     style="display:inline"
     transform="translate(0,-1036.3622)"><path
       id="rect19"
       style="display:inline;fill:#c80000;fill-opacity:1;stroke:none;stroke-width:2;stroke-linecap:round;stroke-opacity:1"
       d="M 1.1386719 1036.3622 C 0.50731325 1036.3622 0 1036.8738 0 1037.5087 L 0 1051.2157 C -1.4802974e-16 1051.8507 0.50731324 1052.3622 1.1386719 1052.3622 L 14.861328 1052.3622 C 15.492687 1052.3622 16 1051.8507 16 1051.2157 L 16 1037.5087 C 16 1036.8738 15.492687 1036.3622 14.861328 1036.3622 L 1.1386719 1036.3622 z M 2.5 1037.8622 A 1 1 0 0 1 3.2070312 1038.1552 L 8 1042.9481 L 12.792969 1038.1552 A 1 1 0 0 1 14.207031 1038.1552 A 1 1 0 0 1 14.207031 1039.5692 L 9.4140625 1044.3622 L 14.207031 1049.1552 A 1 1 0 0 1 14.207031 1050.5692 A 1 1 0 0 1 12.792969 1050.5692 L 8 1045.7763 L 3.2070312 1050.5692 A 1 1 0 0 1 1.7929688 1050.5692 A 1 1 0 0 1 1.7929688 1049.1552 L 6.5859375 1044.3622 L 1.7929688 1039.5692 A 1 1 0 0 1 1.7929688 1038.1552 A 1 1 0 0 1 2.5 1037.8622 z " /></g></svg>
