<?xml version="1.0" encoding="UTF-8" standalone="no"?>
<svg
   width="16"
   height="16"
   viewBox="0 0 16 16"
   fill="none"
   version="1.1"
   id="svg5"
   sodipodi:docname="explorer.svg"
   inkscape:export-filename="file_obj_16x16.png"
   inkscape:export-xdpi="96"
   inkscape:export-ydpi="96"
   inkscape:version="1.4.3 (0d15f75, 2025-12-25)"
   xmlns:inkscape="http://www.inkscape.org/namespaces/inkscape"
   xmlns:sodipodi="http://sodipodi.sourceforge.net/DTD/sodipodi-0.dtd"
   xmlns="http://www.w3.org/2000/svg"
   xmlns:svg="http://www.w3.org/2000/svg">
  <sodipodi:namedview
     id="namedview5"
     pagecolor="#ffffff"
     bordercolor="#eeeeee"
     borderopacity="1"
     inkscape:showpageshadow="0"
     inkscape:pageopacity="0"
     inkscape:pagecheckerboard="0"
     inkscape:deskcolor="#505050"
     showgrid="true"
     showguides="false"
     inkscape:zoom="15.153865"
     inkscape:cx="16.068508"
     inkscape:cy="13.626887"
     inkscape:window-width="1728"
     inkscape:window-height="990"
     inkscape:window-x="0"
     inkscape:window-y="33"
     inkscape:window-maximized="1"
     inkscape:current-layer="svg5">
    <inkscape:grid
       id="grid5"
       units="px"
       originx="0"
       originy="0"
       spacingx="1"
       spacingy="1"
       empcolor="#0099e5"
       empopacity="0.30196078"
       color="#0099e5"
       opacity="0.14901961"
       empspacing="5"
       dotted="false"
       gridanglex="30"
       gridanglez="30"
       visible="true" />
  </sodipodi:namedview>
  <defs
     id="defs5">
    <inkscape:path-effect
       effect="fillet_chamfer"
       id="path-effect7"
       is_visible="true"
       lpeversion="1"
       nodesatellites_param="F,0,0,1,0,0,0,1 @ F,0,0,1,0,0,0,1 @ F,0,0,1,0,0,0,1 @ F,0,0,1,0,0,0,1 @ F,0,0,1,0,0,0,1 @ F,0,0,1,0,0,0,1 @ F,0,1,1,0,0.77593665,0,1 @ F,0,0,1,0,0.77593665,0,1 | F,0,0,1,0,0,0,1 @ F,0,0,1,0,0,0,1 @ F,0,0,1,0,0,0,1 @ F,0,0,1,0,0,0,1 @ F,0,0,1,0,0,0,1"
       radius="0"
       unit="px"
       method="auto"
       mode="F"
       chamfer_steps="1"
       flexible="false"
       use_knot_distance="true"
       apply_no_radius="true"
       apply_with_radius="true"
       only_selected="false"
       hide_knots="false" />
    <mask
       id="path-1-inside-1_1_2"
       fill="#ffffff">
      <rect
         width="10"
         height="10"
         rx="1"
         id="rect2"
         x="0"
         y="0" />
    </mask>
    <clipPath
       clipPathUnits="userSpaceOnUse"
       id="clipPath1">
      <g
         id="g3">
        <rect
           width="16"
           height="16"
           fill="#ffffff"
           id="rect3"
           x="0"
           y="0" />
      </g>
    </clipPath>
  </defs>
  <path
     id="rect1"
     style="display:inline;fill:#a8a8a8;stroke-width:2;stroke-linecap:round;stroke-linejoin:round"
     d="m 0.75,-1e-7 C 0.335786,-10e-8 0,0.4476999 0,0.99999991 V 15 c 0,0.5523 0.335786,1 0.75,1 h 5.816406 c -0.04327,-0.160517 -0.06641,-0.32819 -0.06641,-0.5 v -4.494141 c 0,-0.02154 0.0052,-0.04973 0.0059,-0.07226 -7.8e-4,-0.02353 -0.0059,-0.05209 -0.0059,-0.07422 V 9.9999999 c 0,-1.082628 0.920386,-2 2,-2 h 2.533203 c 0.333895,-1.218e-4 0.661768,0.064503 0.966797,0.1855469 V 3.9414061 A 2.3753742,2.3753742 0 0 0 11.308594,2.2656249 L 9.794922,0.74414053 A 2.5296687,2.5296687 0 0 0 8.001953,-10e-8 Z" />
  <path
     id="rect5"
     style="fill:#a8a8a8;stroke-width:2;stroke-linecap:round;paint-order:markers stroke fill"
     d="m 8.5,9.4999996 c -0.277,0 -0.5,0.2223239 -0.5,0.4990234 v 0.861328 c 0,0.02461 0.0015,0.04862 0.0049,0.07226 C 8.0015,10.956281 8,10.981216 8,11.005859 V 15.5 C 8,15.777 8.223,16 8.5,16 h 7 c 0.277,0 0.5,-0.223 0.5,-0.5 v -4.494141 c 0,-0.277 -0.223,-0.5 -0.5,-0.5 H 12.499023 L 11.828125,9.8300777 A 1.1180506,1.1168365 0 0 0 11.034179,9.4999996 Z m 3.488281,2.2060544 a 0.11304696,0.11304696 0 0 1 0.103515,0.06738 l 0.478516,1.075195 1.164063,0.124024 a 0.11568231,0.11568231 0 0 1 0.06543,0.201172 l -0.870117,0.783203 0.236328,1.120117 a 0.12693105,0.12693105 0 0 1 -0.1875,0.136719 l -0.992187,-0.573242 -0.987305,0.568359 a 0.12961034,0.12961034 0 0 1 -0.191406,-0.139648 l 0.237304,-1.114258 -0.838867,-0.756836 a 0.13432136,0.13432136 0 0 1 0.07617,-0.233399 l 1.123047,-0.117187 0.480469,-1.074219 a 0.11304696,0.11304696 0 0 1 0.10254,-0.06738 z" />
</svg>
