<?xml version="1.0" encoding="UTF-8" standalone="no"?>
<svg
   width="16"
   height="16"
   viewBox="0 0 16 16"
   fill="none"
   version="1.1"
   id="svg6"
   sodipodi:docname="export-config.svg"
   inkscape:version="1.4.3 (0d15f75, 2025-12-25)"
   inkscape:export-filename="export_config_obj_16x16.png"
   inkscape:export-xdpi="96"
   inkscape:export-ydpi="96"
   xmlns:inkscape="http://www.inkscape.org/namespaces/inkscape"
   xmlns:sodipodi="http://sodipodi.sourceforge.net/DTD/sodipodi-0.dtd"
   xmlns="http://www.w3.org/2000/svg"
   xmlns:svg="http://www.w3.org/2000/svg">
  <sodipodi:namedview
     id="namedview6"
     pagecolor="#ffffff"
     bordercolor="#eeeeee"
     borderopacity="1"
     inkscape:showpageshadow="0"
     inkscape:pageopacity="0"
     inkscape:pagecheckerboard="0"
     inkscape:deskcolor="#545454"
     inkscape:zoom="26.158319"
     inkscape:cx="7.0149768"
     inkscape:cy="9.6909897"
     inkscape:window-width="1728"
     inkscape:window-height="990"
     inkscape:window-x="0"
     inkscape:window-y="344"
     inkscape:window-maximized="1"
     inkscape:current-layer="svg6"
     showguides="true"
     showgrid="true"
     inkscape:lockguides="false">
    <inkscape:grid
       id="grid1"
       units="px"
       originx="0"
       originy="0"
       spacingx="1"
       spacingy="1"
       empcolor="#0099e5"
       empopacity="0.30196078"
       color="#0099e5"
       opacity="0.14901961"
       empspacing="5"
       enabled="true"
       visible="true" />
  </sodipodi:namedview>
  <defs
     id="defs6">
    <inkscape:path-effect
       effect="fillet_chamfer"
       id="path-effect2"
       is_visible="true"
       lpeversion="1"
       nodesatellites_param="F,0,0,1,0,0,0,1 @ F,0,0,1,0,0,0,1 @ F,0,0,1,0,0,0,1 @ F,0,0,1,0,0,0,1 @ F,0,0,1,0,0,0,1 @ F,0,1,1,0,0.59581869,0,1 @ F,0,0,1,0,0,0,1 @ F,0,1,1,0,0.59581869,0,1 @ F,0,1,1,0,0.59581869,0,1 @ F,0,0,1,0,0,0,1 @ F,0,0,1,0,0.59581869,0,1 @ F,0,0,1,0,0,0,1 @ F,0,0,1,0,0,0,1 @ F,0,0,1,0,0,0,1 @ F,0,0,1,0,0,0,1 @ F,0,0,1,0,0,0,1 @ F,0,0,1,0,0,0,1 @ F,0,0,1,0,0,0,1 @ F,0,0,1,0,0,0,1 @ F,0,0,1,0,0,0,1 @ F,0,0,1,0,0,0,1 @ F,0,0,1,0,0,0,1 @ F,0,1,1,0,0.59581869,0,1 @ F,0,0,1,0,0,0,1 @ F,0,1,1,0,0.59581869,0,1 @ F,0,1,1,0,0.59581869,0,1 @ F,0,0,1,0,0,0,1 @ F,0,1,1,0,0.59581869,0,1"
       radius="0"
       unit="px"
       method="auto"
       mode="F"
       chamfer_steps="1"
       flexible="false"
       use_knot_distance="true"
       apply_no_radius="true"
       apply_with_radius="true"
       only_selected="false"
       hide_knots="false" />
    <inkscape:path-effect
       effect="fillet_chamfer"
       id="path-effect15"
       is_visible="true"
       lpeversion="1"
       nodesatellites_param="F,0,0,1,0,0,0,1 @ F,0,0,1,0,0,0,1 @ F,0,0,1,0,0,0,1"
       radius="0"
       unit="px"
       method="auto"
       mode="F"
       chamfer_steps="1"
       flexible="false"
       use_knot_distance="true"
       apply_no_radius="true"
       apply_with_radius="true"
       only_selected="false"
       hide_knots="false" />
    <inkscape:path-effect
       effect="fillet_chamfer"
       id="path-effect11"
       is_visible="true"
       lpeversion="1"
       nodesatellites_param="F,0,0,1,0,0,0,1 @ F,0,0,1,0,0,0,1 @ F,0,0,1,0,0,0,1"
       radius="0"
       unit="px"
       method="auto"
       mode="F"
       chamfer_steps="1"
       flexible="false"
       use_knot_distance="true"
       apply_no_radius="true"
       apply_with_radius="true"
       only_selected="false"
       hide_knots="false" />
    <inkscape:path-effect
       effect="fillet_chamfer"
       id="path-effect14"
       is_visible="true"
       lpeversion="1"
       nodesatellites_param="F,0,0,1,0,0.65435276,0,1 @ F,0,0,1,0,0,0,1 @ F,0,0,1,0,0.66816499,0,1 @ F,0,0,1,0,0,0,1 @ F,0,0,1,0,0.69245136,0,1 @ F,0,0,1,0,0,0,1 @ F,0,0,1,0,0.5827778,0,1 @ F,0,0,1,0,0,0,1 @ F,0,0,1,0,0.59636339,0,1 @ F,0,0,1,0,0,0,1"
       radius="0"
       unit="px"
       method="auto"
       mode="F"
       chamfer_steps="1"
       flexible="false"
       use_knot_distance="true"
       apply_no_radius="true"
       apply_with_radius="true"
       only_selected="false"
       hide_knots="false" />
    <inkscape:path-effect
       effect="fillet_chamfer"
       id="path-effect13"
       is_visible="true"
       lpeversion="1"
       nodesatellites_param="F,0,0,1,0,0,0,1 @ F,0,0,1,0,0,0,1 @ F,0,0,1,0,0,0,1 @ F,0,0,1,0,0,0,1 @ F,0,0,1,0,0,0,1 @ F,0,0,1,0,0,0,1 @ F,0,0,1,0,0,0,1 @ F,0,0,1,0,0,0,1 @ F,0,0,1,0,0,0,1 @ F,0,0,1,0,0,0,1"
       radius="0"
       unit="px"
       method="auto"
       mode="F"
       chamfer_steps="1"
       flexible="false"
       use_knot_distance="true"
       apply_no_radius="true"
       apply_with_radius="true"
       only_selected="false"
       hide_knots="false" />
    <inkscape:path-effect
       effect="fillet_chamfer"
       id="path-effect10"
       is_visible="true"
       lpeversion="1"
       nodesatellites_param="F,0,0,1,0,0,0,1 @ F,0,0,1,0,1.9317919,0,1 @ F,0,0,1,0,0,0,1 @ F,0,0,1,0,1.6236164,0,1 | F,0,0,1,0,0,0,1 @ F,0,0,1,0,0,0,1 @ F,0,0,1,0,0,0,1 @ F,0,0,1,0,0,0,1"
       radius="0"
       unit="px"
       method="auto"
       mode="F"
       chamfer_steps="1"
       flexible="false"
       use_knot_distance="true"
       apply_no_radius="true"
       apply_with_radius="true"
       only_selected="false"
       hide_knots="false" />
    <inkscape:path-effect
       effect="fillet_chamfer"
       id="path-effect9"
       is_visible="true"
       lpeversion="1"
       nodesatellites_param="F,0,0,1,0,0,0,1 @ F,0,0,1,0,0,0,1 @ F,0,0,1,0,0,0,1 @ F,0,0,1,0,0,0,1 @ F,0,0,1,0,0,0,1 @ F,0,0,1,0,0,0,1 @ F,0,0,1,0,0,0,1 @ F,0,0,1,0,0,0,1 | F,0,0,1,0,0,0,1 @ F,0,0,1,0,0.31603796,0,1 @ F,0,0,1,0,0,0,1 @ F,0,1,1,0,0.34159412,0,1 @ F,0,1,1,0,0.34159412,0,1 @ F,0,0,1,0,0,0,1 @ F,0,0,1,0,0,0,1"
       radius="0"
       unit="px"
       method="auto"
       mode="F"
       chamfer_steps="1"
       flexible="false"
       use_knot_distance="true"
       apply_no_radius="true"
       apply_with_radius="true"
       only_selected="false"
       hide_knots="false" />
    <inkscape:path-effect
       effect="fillet_chamfer"
       id="path-effect8"
       is_visible="true"
       lpeversion="1"
       nodesatellites_param="F,0,0,1,0,0.98037675,0,1 @ F,0,0,1,0,0.70484716,0,1 @ F,0,0,1,0,1.132047,0,1 @ F,0,0,1,0,0.63096812,0,1"
       radius="0"
       unit="px"
       method="auto"
       mode="F"
       chamfer_steps="1"
       flexible="false"
       use_knot_distance="true"
       apply_no_radius="true"
       apply_with_radius="true"
       only_selected="false"
       hide_knots="false" />
    <inkscape:path-effect
       effect="fillet_chamfer"
       id="path-effect6"
       is_visible="true"
       lpeversion="1"
       nodesatellites_param="F,0,0,1,0,0,0,1 @ F,0,0,1,0,0,0,1 @ F,0,0,1,0,0,0,1 @ F,0,0,1,0,0,0,1"
       radius="0"
       unit="px"
       method="auto"
       mode="F"
       chamfer_steps="1"
       flexible="false"
       use_knot_distance="true"
       apply_no_radius="true"
       apply_with_radius="true"
       only_selected="false"
       hide_knots="false" />
    <inkscape:path-effect
       effect="fillet_chamfer"
       id="path-effect5"
       is_visible="true"
       lpeversion="1"
       nodesatellites_param="F,0,0,1,0,0,0,1 @ F,0,0,1,0,0,0,1 @ F,0,0,1,0,0,0,1 @ F,0,0,1,0,0.5785156,0,1 @ F,0,1,1,0,0.5785156,0,1 @ F,0,0,1,0,0,0,1 @ F,0,0,1,0,0,0,1 @ F,0,0,1,0,0,0,1 @ F,0,0,1,0,0,0,1 @ F,0,0,1,0,0,0,1 @ F,0,0,1,0,0,0,1"
       radius="0"
       unit="px"
       method="auto"
       mode="F"
       chamfer_steps="1"
       flexible="false"
       use_knot_distance="true"
       apply_no_radius="true"
       apply_with_radius="true"
       only_selected="false"
       hide_knots="false" />
    <inkscape:perspective
       sodipodi:type="inkscape:persp3d"
       inkscape:vp_x="1.4641604e-15 : -21.061751 : 0"
       inkscape:vp_y="-2385.4101 : 1378.6851 : 0"
       inkscape:vp_z="20.115543 : 11.626094 : 0"
       inkscape:persp3d-origin="17.786866 : 1.777515 : 1"
       id="perspective1" />
    <clipPath
       clipPathUnits="userSpaceOnUse"
       id="clipPath7">
      <g
         id="g8">
        <rect
           width="16"
           height="16"
           fill="#ffffff"
           id="rect8"
           x="0"
           y="0" />
      </g>
    </clipPath>
    <inkscape:perspective
       sodipodi:type="inkscape:persp3d"
       inkscape:vp_x="1.4641604e-15 : -21.061751 : 0"
       inkscape:vp_y="-2385.4101 : 1378.6851 : 0"
       inkscape:vp_z="20.115543 : 11.626094 : 0"
       inkscape:persp3d-origin="30.236303 : -7.549373 : 1"
       id="perspective1-4" />
    <inkscape:path-effect
       effect="fillet_chamfer"
       id="path-effect7"
       is_visible="true"
       lpeversion="1"
       nodesatellites_param="F,0,0,1,0,0,0,1 @ F,0,0,1,0,0,0,1 @ F,0,0,1,0,0,0,1 @ F,0,0,1,0,0,0,1 @ F,0,0,1,0,0,0,1 @ F,0,0,1,0,0,0,1 @ F,0,1,1,0,0.77593665,0,1 @ F,0,0,1,0,0.77593665,0,1 | F,0,0,1,0,0,0,1 @ F,0,0,1,0,0,0,1 @ F,0,0,1,0,0,0,1 @ F,0,0,1,0,0,0,1 @ F,0,0,1,0,0,0,1"
       radius="0"
       unit="px"
       method="auto"
       mode="F"
       chamfer_steps="1"
       flexible="false"
       use_knot_distance="true"
       apply_no_radius="true"
       apply_with_radius="true"
       only_selected="false"
       hide_knots="false" />
    <inkscape:path-effect
       effect="fillet_chamfer"
       id="path-effect7-8"
       is_visible="true"
       lpeversion="1"
       nodesatellites_param="F,0,0,1,0,0,0,1 @ F,0,0,1,0,0,0,1 @ F,0,0,1,0,0,0,1 @ F,0,0,1,0,0,0,1 @ F,0,0,1,0,0,0,1 @ F,0,0,1,0,0,0,1 @ F,0,1,1,0,0.77593665,0,1 @ F,0,0,1,0,0.77593665,0,1 | F,0,0,1,0,0,0,1 @ F,0,0,1,0,0,0,1 @ F,0,0,1,0,0,0,1 @ F,0,0,1,0,0,0,1 @ F,0,0,1,0,0,0,1"
       radius="0"
       unit="px"
       method="auto"
       mode="F"
       chamfer_steps="1"
       flexible="false"
       use_knot_distance="true"
       apply_no_radius="true"
       apply_with_radius="true"
       only_selected="false"
       hide_knots="false" />
    <inkscape:path-effect
       effect="fillet_chamfer"
       id="path-effect10-8"
       is_visible="true"
       lpeversion="1"
       nodesatellites_param="F,0,0,1,0,0,0,1 @ F,0,0,1,0,1.9317919,0,1 @ F,0,0,1,0,0,0,1 @ F,0,0,1,0,1.6236164,0,1 | F,0,0,1,0,0,0,1 @ F,0,0,1,0,0,0,1 @ F,0,0,1,0,0,0,1 @ F,0,0,1,0,0,0,1"
       radius="0"
       unit="px"
       method="auto"
       mode="F"
       chamfer_steps="1"
       flexible="false"
       use_knot_distance="true"
       apply_no_radius="true"
       apply_with_radius="true"
       only_selected="false"
       hide_knots="false" />
    <inkscape:path-effect
       effect="fillet_chamfer"
       id="path-effect5-5"
       is_visible="true"
       lpeversion="1"
       nodesatellites_param="F,0,0,1,0,0,0,1 @ F,0,0,1,0,0,0,1 @ F,0,0,1,0,0,0,1 @ F,0,0,1,0,0,0,1 @ F,0,0,1,0,0.93154167,0,1 @ F,0,0,1,0,0,0,1 @ F,0,0,1,0,0,0,1 @ F,0,0,1,0,0,0,1"
       radius="0"
       unit="px"
       method="auto"
       mode="F"
       chamfer_steps="1"
       flexible="false"
       use_knot_distance="true"
       apply_no_radius="true"
       apply_with_radius="true"
       only_selected="false"
       hide_knots="false" />
    <inkscape:path-effect
       effect="fillet_chamfer"
       id="path-effect7-1"
       is_visible="true"
       lpeversion="1"
       nodesatellites_param="F,0,0,1,0,0,0,1 @ F,0,0,1,0,0,0,1 @ F,0,0,1,0,0,0,1 @ F,0,0,1,0,0,0,1 @ F,0,0,1,0,0,0,1 @ F,0,0,1,0,0,0,1 @ F,0,1,1,0,0.77593665,0,1 @ F,0,0,1,0,0.77593665,0,1 | F,0,0,1,0,0,0,1 @ F,0,0,1,0,0,0,1 @ F,0,0,1,0,0,0,1 @ F,0,0,1,0,0,0,1 @ F,0,0,1,0,0,0,1"
       radius="0"
       unit="px"
       method="auto"
       mode="F"
       chamfer_steps="1"
       flexible="false"
       use_knot_distance="true"
       apply_no_radius="true"
       apply_with_radius="true"
       only_selected="false"
       hide_knots="false" />
    <inkscape:path-effect
       effect="fillet_chamfer"
       id="path-effect5-52"
       is_visible="true"
       lpeversion="1"
       nodesatellites_param="F,0,0,1,0,0,0,1 @ F,0,0,1,0,0,0,1 @ F,0,0,1,0,0,0,1 @ F,0,0,1,0,0,0,1 @ F,0,0,1,0,0.93154167,0,1 @ F,0,0,1,0,0,0,1 @ F,0,0,1,0,0,0,1 @ F,0,0,1,0,0,0,1"
       radius="0"
       unit="px"
       method="auto"
       mode="F"
       chamfer_steps="1"
       flexible="false"
       use_knot_distance="true"
       apply_no_radius="true"
       apply_with_radius="true"
       only_selected="false"
       hide_knots="false" />
    <inkscape:path-effect
       effect="fillet_chamfer"
       id="path-effect5-52-6"
       is_visible="true"
       lpeversion="1"
       nodesatellites_param="F,0,0,1,0,0,0,1 @ F,0,0,1,0,0,0,1 @ F,0,0,1,0,0,0,1 @ F,0,0,1,0,0,0,1 @ F,0,0,1,0,0.93154167,0,1 @ F,0,0,1,0,0,0,1 @ F,0,0,1,0,0,0,1 @ F,0,0,1,0,0,0,1"
       radius="0"
       unit="px"
       method="auto"
       mode="F"
       chamfer_steps="1"
       flexible="false"
       use_knot_distance="true"
       apply_no_radius="true"
       apply_with_radius="true"
       only_selected="false"
       hide_knots="false" />
    <inkscape:path-effect
       effect="fillet_chamfer"
       id="path-effect1"
       is_visible="true"
       lpeversion="1"
       nodesatellites_param="F,0,0,1,0,1,0,1 @ F,0,0,1,0,1,0,1 @ F,0,0,1,0,1,0,1"
       radius="0.25"
       unit="px"
       method="auto"
       mode="F"
       chamfer_steps="1"
       flexible="false"
       use_knot_distance="true"
       apply_no_radius="true"
       apply_with_radius="true"
       only_selected="false"
       hide_knots="false" />
    <inkscape:path-effect
       effect="fillet_chamfer"
       id="path-effect1-9"
       is_visible="true"
       lpeversion="1"
       nodesatellites_param="F,0,0,1,0,1,0,1 @ F,0,0,1,0,1,0,1 @ F,0,0,1,0,1,0,1"
       radius="0.25"
       unit="px"
       method="auto"
       mode="F"
       chamfer_steps="1"
       flexible="false"
       use_knot_distance="true"
       apply_no_radius="true"
       apply_with_radius="true"
       only_selected="false"
       hide_knots="false" />
    <inkscape:path-effect
       effect="fillet_chamfer"
       id="path-effect2-4"
       is_visible="true"
       lpeversion="1"
       nodesatellites_param="F,0,0,1,0,0,0,1 @ F,0,0,1,0,0,0,1 @ F,0,0,1,0,0,0,1 @ F,0,0,1,0,0,0,1 @ F,0,0,1,0,0,0,1 @ F,0,1,1,0,0.59581869,0,1 @ F,0,0,1,0,0,0,1 @ F,0,1,1,0,0.59581869,0,1 @ F,0,1,1,0,0.59581869,0,1 @ F,0,0,1,0,0,0,1 @ F,0,0,1,0,0.59581869,0,1 @ F,0,0,1,0,0,0,1 @ F,0,0,1,0,0,0,1 @ F,0,0,1,0,0,0,1 @ F,0,0,1,0,0,0,1 @ F,0,0,1,0,0,0,1 @ F,0,0,1,0,0,0,1 @ F,0,0,1,0,0,0,1 @ F,0,0,1,0,0,0,1 @ F,0,0,1,0,0,0,1 @ F,0,0,1,0,0,0,1 @ F,0,0,1,0,0,0,1 @ F,0,1,1,0,0.59581869,0,1 @ F,0,0,1,0,0,0,1 @ F,0,1,1,0,0.59581869,0,1 @ F,0,1,1,0,0.59581869,0,1 @ F,0,0,1,0,0,0,1 @ F,0,1,1,0,0.59581869,0,1 @ F,0,0,1,0,0,0,1"
       radius="0"
       unit="px"
       method="auto"
       mode="F"
       chamfer_steps="1"
       flexible="false"
       use_knot_distance="true"
       apply_no_radius="true"
       apply_with_radius="true"
       only_selected="false"
       hide_knots="false" />
  </defs>
  <path
     id="path21"
     style="fill:#a8a8a8;stroke-width:1.25266;stroke-linecap:round;stroke-linejoin:round"
     d="M 12.884766 0.0078125 C 12.822908 0.0077417505 12.759388 0.0097129101 12.697266 0.013671875 C 12.418867 0.031651625 12.14798 0.087521697 11.888672 0.17773438 C 11.802236 0.20780527 11.716114 0.24165816 11.632812 0.27929688 C 11.46621 0.35457431 11.307273 0.44465355 11.15625 0.54882812 C 11.005227 0.6530027 10.861857 0.77110425 10.730469 0.90234375 C 10.61525 1.018093 10.511403 1.1400494 10.417969 1.2695312 C 10.417681 1.2699302 10.418257 1.2710853 10.417969 1.2714844 C 10.231583 1.5300793 10.088985 1.8128102 9.9921875 2.109375 C 9.9920014 2.1099441 9.9923733 2.110759 9.9921875 2.1113281 C 9.7504275 2.8535809 9.7928495 3.6807233 10.152344 4.4160156 L 7.5351562 7.0332031 L 4.4160156 10.152344 C 3.3050144 9.6091574 1.9915183 9.7919193 1.0683594 10.587891 L 1.0644531 10.583984 C 1.0189832 10.623256 0.97532337 10.665044 0.93164062 10.707031 C 0.92295791 10.715464 0.91289674 10.721917 0.90429688 10.730469 C 0.90394183 10.730822 0.90269865 10.730115 0.90234375 10.730469 C 0.839611 10.793208 0.78101441 10.858698 0.72460938 10.925781 C 0.55539426 11.12703 0.41521063 11.345916 0.3046875 11.578125 C 0.24209123 11.709499 0.18959674 11.844188 0.14648438 11.982422 C 0.10310786 12.121364 0.070126211 12.26261 0.046875 12.40625 C 0.023618334 12.549794 0.010452133 12.693791 0.0078125 12.839844 C 0.0050921737 12.985326 0.011108063 13.131637 0.029296875 13.277344 C 0.03161758 13.295937 0.035355243 13.312974 0.0390625 13.330078 C 0.042769757 13.347182 0.047761087 13.363252 0.052734375 13.378906 C 0.057427801 13.393938 0.062629813 13.408121 0.068359375 13.421875 C 0.071123259 13.428402 0.073186851 13.435166 0.076171875 13.441406 C 0.079443344 13.448363 0.082406771 13.456286 0.0859375 13.462891 C 0.086336803 13.463625 0.087488217 13.464114 0.087890625 13.464844 C 0.10092445 13.488853 0.11478117 13.509932 0.13085938 13.529297 C 0.13200857 13.530684 0.13360353 13.531838 0.13476562 13.533203 L 0.13476562 13.535156 C 0.13688023 13.53762 0.138488 13.540548 0.140625 13.542969 C 0.14295951 13.545844 0.14603867 13.54801 0.1484375 13.550781 C 0.15399094 13.556825 0.16021254 13.562774 0.16601562 13.568359 C 0.22662869 13.629306 0.30355868 13.65988 0.38867188 13.660156 C 0.39465851 13.660176 0.4001956 13.660442 0.40625 13.660156 C 0.41075259 13.660008 0.41538479 13.658521 0.41992188 13.658203 C 0.42366753 13.657891 0.42787348 13.658631 0.43164062 13.658203 C 0.43426843 13.657937 0.43681544 13.656573 0.43945312 13.65625 C 0.4509578 13.654707 0.46294647 13.653007 0.47460938 13.650391 C 0.52795089 13.63892 0.5826838 13.616579 0.63671875 13.582031 C 0.65637465 13.569347 0.67597215 13.554801 0.6953125 13.539062 C 0.71466796 13.523374 0.73310466 13.507129 0.75195312 13.488281 L 0.75195312 13.486328 L 1.5214844 12.716797 L 1.8769531 12.361328 A 0.74806407 0.74547468 45 0 1 2.2128906 12.167969 A 0.74806596 0.74547655 45 0 1 2.5039062 12.150391 A 0.74806596 0.74547655 45 0 1 2.6914062 12.201172 A 0.74806407 0.74547468 45 0 1 2.9335938 12.363281 L 3.6367188 13.064453 A 0.74888781 0.74629556 45 0 1 3.6386719 13.066406 L 3.640625 13.070312 A 0.74888992 0.74629766 45 0 1 3.8320312 13.789062 A 0.74888781 0.74629556 45 0 1 3.8027344 13.878906 A 0.74888992 0.74629766 45 0 1 3.8007812 13.880859 A 0.74888992 0.74629766 45 0 1 3.7050781 14.046875 A 0.74888781 0.74629556 45 0 1 3.7050781 14.048828 A 0.74888992 0.74629766 45 0 1 3.640625 14.121094 L 3.2832031 14.478516 L 2.5136719 15.246094 C 2.4991148 15.260629 2.4872995 15.274208 2.4746094 15.289062 C 2.4742945 15.289429 2.4749231 15.290649 2.4746094 15.291016 C 2.4623102 15.305476 2.4499981 15.319314 2.4394531 15.333984 C 2.4391599 15.33439 2.439745 15.335532 2.4394531 15.335938 C 2.4074124 15.380749 2.3811677 15.425632 2.3652344 15.470703 C 2.3650415 15.471241 2.365425 15.472119 2.3652344 15.472656 C 2.3364553 15.555106 2.3340289 15.635754 2.3574219 15.707031 C 2.3576057 15.707604 2.3572348 15.708412 2.3574219 15.708984 C 2.3680677 15.740826 2.3835277 15.771487 2.4042969 15.798828 C 2.4218069 15.821878 2.4401338 15.844391 2.4648438 15.863281 L 2.4667969 15.863281 C 2.4847579 15.878739 2.505374 15.893566 2.5273438 15.90625 C 2.5805496 15.936967 2.6438832 15.958867 2.7226562 15.96875 C 2.7789933 15.975817 2.8359012 15.98045 2.8925781 15.984375 C 2.9323981 15.986942 2.9719465 15.989014 3.0117188 15.990234 C 3.0440354 15.99124 3.0771247 15.992081 3.109375 15.992188 C 3.1734197 15.992105 3.2366982 15.990412 3.3007812 15.986328 C 3.5791794 15.968347 3.8520197 15.912478 4.1113281 15.822266 C 4.1977644 15.792195 4.2838861 15.758342 4.3671875 15.720703 C 4.5337903 15.645426 4.6927272 15.555346 4.84375 15.451172 C 4.9947727 15.346998 5.1361904 15.228896 5.2675781 15.097656 C 5.3824291 14.982276 5.4888247 14.859499 5.5820312 14.730469 C 5.5823599 14.730013 5.5817029 14.728971 5.5820312 14.728516 C 5.7685246 14.470083 5.9108497 14.18705 6.0078125 13.890625 C 6.0080088 13.890023 6.0076165 13.889274 6.0078125 13.888672 C 6.2017588 13.29458 6.213072 12.647309 6.0253906 12.035156 C 5.9784703 11.882118 5.9195801 11.731151 5.8476562 11.583984 L 8.4628906 8.9667969 L 11.582031 5.8476562 C 12.69304 6.3908466 14.006528 6.2061413 14.929688 5.4101562 L 14.935547 5.4160156 C 14.990057 5.3689356 15.044078 5.3209193 15.095703 5.2695312 C 15.670777 4.6943948 15.982082 3.9292809 15.992188 3.1445312 C 15.994072 3.0049609 15.986104 2.8643537 15.96875 2.7246094 C 15.968668 2.723951 15.968834 2.7233129 15.96875 2.7226562 C 15.966507 2.7046845 15.964478 2.6884547 15.960938 2.671875 C 15.953678 2.6373788 15.94367 2.6069638 15.931641 2.578125 C 15.925919 2.5645672 15.920711 2.5513926 15.914062 2.5390625 C 15.913642 2.5382685 15.912534 2.5378984 15.912109 2.5371094 C 15.898891 2.512545 15.883576 2.4904416 15.867188 2.4707031 C 15.866121 2.4692543 15.864363 2.4682221 15.863281 2.4667969 L 15.863281 2.4648438 C 15.858294 2.4590337 15.854741 2.4528014 15.849609 2.4472656 C 15.84445 2.441318 15.83943 2.4371078 15.833984 2.4316406 C 15.772733 2.3701454 15.693541 2.3394413 15.607422 2.3398438 C 15.597628 2.3398895 15.588091 2.3409358 15.578125 2.3417969 C 15.563452 2.342914 15.548168 2.3447544 15.533203 2.3476562 C 15.513992 2.3513816 15.49412 2.3565825 15.474609 2.3632812 C 15.436281 2.3768201 15.397649 2.3949024 15.359375 2.4199219 C 15.321104 2.444717 15.282815 2.4749983 15.246094 2.5117188 L 15.246094 2.5136719 L 14.476562 3.2832031 L 14.121094 3.6386719 A 0.74806596 0.74547655 45 0 1 14.048828 3.703125 A 0.74806596 0.74547655 45 0 1 13.880859 3.8007812 A 0.74806596 0.74547655 45 0 1 13.787109 3.8320312 A 0.74806596 0.74547655 45 0 1 13.496094 3.8496094 A 0.74806596 0.74547655 45 0 1 13.308594 3.7988281 A 0.74806596 0.74547655 45 0 1 13.066406 3.6367188 L 13.064453 3.6367188 L 12.361328 2.9355469 A 0.74888781 0.74629556 45 0 1 12.361328 2.9335938 A 0.74888781 0.74629556 45 0 1 12.357422 2.9296875 A 0.74888992 0.74629766 45 0 1 12.349609 2.921875 A 0.74888992 0.74629766 45 0 1 12.167969 2.2109375 A 0.74888992 0.74629766 45 0 1 12.197266 2.1210938 A 0.74888781 0.74629556 45 0 1 12.199219 2.1191406 A 0.74888992 0.74629766 45 0 1 12.294922 1.953125 A 0.74888992 0.74629766 45 0 1 12.294922 1.9511719 A 0.74888781 0.74629556 45 0 1 12.357422 1.8789062 L 12.714844 1.5214844 L 13.484375 0.75390625 C 13.498576 0.73972619 13.512966 0.72542228 13.525391 0.7109375 C 13.525716 0.7105566 13.525066 0.70936545 13.525391 0.70898438 C 13.550375 0.6796096 13.574023 0.64919317 13.591797 0.61914062 C 13.64793 0.52433907 13.667685 0.42803175 13.654297 0.34179688 C 13.651637 0.32466094 13.647903 0.30726223 13.642578 0.29101562 C 13.634591 0.26664571 13.623282 0.24451134 13.609375 0.22265625 C 13.604739 0.21537122 13.60099 0.2081318 13.595703 0.20117188 C 13.590236 0.1929887 13.582784 0.18527082 13.576172 0.17773438 C 13.569689 0.17001774 13.562057 0.16345495 13.554688 0.15625 C 13.547871 0.14977165 13.540472 0.1429629 13.533203 0.13671875 C 13.524759 0.12952289 13.515164 0.12190414 13.505859 0.11523438 C 13.505442 0.11493783 13.504326 0.1155297 13.503906 0.11523438 C 13.445715 0.073857445 13.372008 0.043124973 13.277344 0.03125 C 13.276704 0.031169688 13.276031 0.031329822 13.275391 0.03125 C 13.217802 0.0240255 13.161458 0.019566085 13.103516 0.015625 C 13.064953 0.013184389 13.026795 0.010949924 12.988281 0.009765625 L 12.986328 0.009765625 C 12.951865 0.0087079847 12.919156 0.007851834 12.884766 0.0078125 z " />
  <path
     id="path1"
     style="baseline-shift:baseline;display:inline;overflow:visible;vector-effect:none;fill:#ff7f27;stroke-linecap:round;stroke-linejoin:round;enable-background:accumulate;stop-color:#000000"
     d="m 12.879049,16 a 1,1 0 0 1 -1,-1 v -3.599609 l -0.427734,0.427734 a 0.99999499,0.99999499 0 0 1 -1.414063,0 0.99999499,0.99999499 0 0 1 0,-1.414062 l 2.121094,-2.1210936 a 0.99999499,0.99999499 0 0 1 0.699219,-0.291016 0.99999499,0.99999499 0 0 1 0.0293,-0.002 0.99999499,0.99999499 0 0 1 0.01563,0.002 0.99999499,0.99999499 0 0 1 0.117188,0.0078 1,1 0 0 1 0.474609,0.203125 0.99999499,0.99999499 0 0 1 0.0039,0.002 1,1 0 0 1 0.09766,0.08789 l 2.111328,2.1113286 a 0.99999499,0.99999499 0 0 1 0,1.414062 0.99999499,0.99999499 0 0 1 -1.414063,0 L 13.879055,11.414097 V 15 a 1,1 0 0 1 -1,1 z" />
</svg>
