<?xml version="1.0" encoding="UTF-8" standalone="no"?>
<!-- Created with Inkscape (http://www.inkscape.org/) -->

<svg
   width="16"
   height="16"
   viewBox="0 0 4.2333332 4.2333333"
   version="1.1"
   id="svg1"
   inkscape:version="1.4.3 (0d15f75, 2025-12-25)"
   sodipodi:docname="export-breakpoints.svg"
   xmlns:inkscape="http://www.inkscape.org/namespaces/inkscape"
   xmlns:sodipodi="http://sodipodi.sourceforge.net/DTD/sodipodi-0.dtd"
   xmlns="http://www.w3.org/2000/svg"
   xmlns:svg="http://www.w3.org/2000/svg">
  <sodipodi:namedview
     id="namedview1"
     pagecolor="#ffffff"
     bordercolor="#000000"
     borderopacity="0.25"
     inkscape:showpageshadow="false"
     inkscape:pageopacity="0.0"
     inkscape:pagecheckerboard="0"
     inkscape:deskcolor="#ffffff"
     inkscape:document-units="px"
     showgrid="true"
     inkscape:zoom="21.078125"
     inkscape:cx="11.315048"
     inkscape:cy="10.081542"
     inkscape:window-width="1728"
     inkscape:window-height="990"
     inkscape:window-x="0"
     inkscape:window-y="344"
     inkscape:window-maximized="0"
     inkscape:current-layer="layer1"
     showguides="true">
    <inkscape:grid
       id="grid1"
       units="px"
       originx="0"
       originy="0"
       spacingx="0.26458333"
       spacingy="0.26458333"
       empcolor="#0099e5"
       empopacity="0.30196078"
       color="#0099e5"
       opacity="0.14901961"
       empspacing="5"
       enabled="true"
       visible="true" />
  </sodipodi:namedview>
  <defs
     id="defs1" />
  <g
     inkscape:label="Layer 1"
     inkscape:groupmode="layer"
     id="layer1">
    <path
       id="path1-8-2"
       style="display:inline;fill:#a8a8a8;fill-opacity:1;stroke-width:0.529167;stroke-linecap:round;stroke-linejoin:round"
       d="M 2.1166666 0 A 2.1166667 2.1166667 0 0 0 0 2.1166666 A 2.1166667 2.1166667 0 0 0 2.1166666 4.2333332 A 2.1166667 2.1166667 0 0 0 2.7553873 4.1346313 C 2.7418047 4.0830197 2.7343913 4.0293077 2.7342 3.9739176 L 2.7342 3.9718505 L 2.7342 3.5940958 C 2.5984963 3.574123 2.4680521 3.512926 2.3652303 3.4111612 L 2.36368 3.4096109 C 2.1093598 3.1548492 2.1093598 2.7321298 2.36368 2.4773681 L 2.9264363 1.9146118 C 2.9615444 1.8794998 3.0009737 1.8512223 3.0416747 1.8257283 C 3.0477307 1.8219273 3.0536015 1.8179495 3.0597615 1.8143595 C 3.0768955 1.8043945 3.0941217 1.795281 3.1119547 1.786971 C 3.1203357 1.783047 3.1287561 1.7796789 3.1372761 1.7761189 C 3.1544861 1.7689569 3.1717933 1.7616351 3.1894693 1.7559651 L 3.1899861 1.7559651 L 3.1905029 1.7554484 L 3.1910196 1.7554484 C 3.2106936 1.7491454 3.2303425 1.7438987 3.2504475 1.7394287 L 3.2509643 1.7394287 L 3.2514811 1.7394287 L 3.2519978 1.7394287 C 3.2577708 1.7381687 3.2637678 1.7358778 3.2695678 1.7347778 C 3.2976518 1.7290238 3.3256909 1.7259257 3.3548339 1.7239257 L 3.3553507 1.7239257 L 3.3558674 1.723409 L 3.3563842 1.723409 L 3.356901 1.723409 C 3.357931 1.7233417 3.3589716 1.7234714 3.3600016 1.723409 C 3.3722706 1.722669 3.3847886 1.7213845 3.3972086 1.7213419 C 3.4618546 1.7210879 3.5242555 1.7311284 3.5837605 1.7487304 C 3.5956415 1.7522444 3.6078072 1.7554225 3.6194172 1.7595825 C 3.6220472 1.7604925 3.6245487 1.7617416 3.6271687 1.7626831 C 3.6394857 1.7670841 3.6512692 1.7725292 3.6633422 1.7776692 C 3.6735872 1.7820472 3.6837863 1.7861951 3.6938313 1.7911051 C 3.7062143 1.7971391 3.7179658 1.8039022 3.7300048 1.8107422 C 3.7381488 1.8153872 3.7468395 1.8196848 3.7548095 1.8246948 C 3.7709425 1.8348258 3.786498 1.8461147 3.801835 1.8577677 C 3.805015 1.8601977 3.8085136 1.8619956 3.8116536 1.8644856 C 3.8312336 1.8799436 3.8504986 1.8966108 3.8684976 1.9146118 L 3.8684976 1.9151285 L 4.2276488 2.273763 A 2.1166667 2.1166667 0 0 0 4.2333332 2.1166666 A 2.1166667 2.1166667 0 0 0 2.1166666 0 z " />
    <path
       id="path1"
       style="baseline-shift:baseline;display:inline;overflow:visible;vector-effect:none;fill:#ff7f27;stroke-width:0.264583;stroke-linecap:round;stroke-linejoin:round;enable-background:accumulate;stop-color:#000000"
       d="M 3.407591,4.2333332 A 0.26458333,0.26458333 0 0 1 3.1430077,3.9687499 V 3.0163534 L 3.0298364,3.1295247 a 0.264582,0.264582 0 0 1 -0.3741375,0 0.264582,0.264582 0 0 1 0,-0.3741373 L 3.216905,2.1941813 a 0.264582,0.264582 0 0 1 0.1850017,-0.076998 0.264582,0.264582 0 0 1 0.00775,-5.291e-4 0.264582,0.264582 0 0 1 0.00413,5.291e-4 0.264582,0.264582 0 0 1 0.031006,0.00206 0.26458333,0.26458333 0 0 1 0.1255736,0.053743 0.264582,0.264582 0 0 1 0.00103,5.291e-4 0.26458333,0.26458333 0 0 1 0.025839,0.023254 l 0.5586228,0.558627 a 0.264582,0.264582 0 0 1 0,0.3741372 0.264582,0.264582 0 0 1 -0.3741375,0 L 3.6721759,3.0199797 V 3.9687499 A 0.26458333,0.26458333 0 0 1 3.4075926,4.2333332 Z" />
  </g>
</svg>
