<?xml version="1.0" encoding="UTF-8" standalone="no"?>
<!-- Created with Inkscape (http://www.inkscape.org/) -->

<svg
   width="16"
   height="16"
   viewBox="0 0 4.2333332 4.2333333"
   version="1.1"
   id="svg1"
   inkscape:version="1.4.3 (0d15f75, 2025-12-25)"
   sodipodi:docname="fatal_error.svg"
   xmlns:inkscape="http://www.inkscape.org/namespaces/inkscape"
   xmlns:sodipodi="http://sodipodi.sourceforge.net/DTD/sodipodi-0.dtd"
   xmlns="http://www.w3.org/2000/svg"
   xmlns:svg="http://www.w3.org/2000/svg">
  <sodipodi:namedview
     id="namedview1"
     pagecolor="#ffffff"
     bordercolor="#000000"
     borderopacity="0.25"
     inkscape:showpageshadow="false"
     inkscape:pageopacity="0.0"
     inkscape:pagecheckerboard="0"
     inkscape:deskcolor="#ffffff"
     inkscape:document-units="px"
     showgrid="true"
     inkscape:zoom="14.904485"
     inkscape:cx="4.3946503"
     inkscape:cy="20.530733"
     inkscape:window-width="2894"
     inkscape:window-height="1308"
     inkscape:window-x="253"
     inkscape:window-y="185"
     inkscape:window-maximized="0"
     inkscape:current-layer="layer1"
     showguides="true">
    <inkscape:grid
       id="grid1"
       units="px"
       originx="0"
       originy="0"
       spacingx="0.26458333"
       spacingy="0.26458333"
       empcolor="#0099e5"
       empopacity="0.30196078"
       color="#0099e5"
       opacity="0.14901961"
       empspacing="5"
       enabled="true"
       visible="true" />
  </sodipodi:namedview>
  <defs
     id="defs1" />
  <g
     inkscape:label="Layer 1"
     inkscape:groupmode="layer"
     id="layer1">
    <path
       id="rect2"
       style="fill:#c80000;fill-opacity:1;fill-rule:evenodd;stroke-width:0.264583"
       d="M 0.26458333 0 A 0.26458332 0.26458332 0 0 0 0 0.26458333 L 0 3.9687499 A 0.26458332 0.26458332 0 0 0 0.26458333 4.2333332 L 3.9687499 4.2333332 A 0.26458332 0.26458332 0 0 0 4.2333332 3.9687499 L 4.2333332 0.26458333 A 0.26458332 0.26458332 0 0 0 3.9687499 0 L 0.26458333 0 z M 0.62683511 1.8515665 L 3.6075317 1.8515665 A 0.2645835 0.2645835 0 0 1 3.8710815 2.1171834 A 0.2645835 0.2645835 0 0 1 3.6075317 2.3807332 L 0.62683511 2.3807332 A 0.2645835 0.2645835 0 0 1 0.36121825 2.1171834 A 0.2645835 0.2645835 0 0 1 0.62683511 1.8515665 z " />
  </g>
</svg>
