<?xml version="1.0" encoding="UTF-8" standalone="no"?>
<!-- Created with Inkscape (http://www.inkscape.org/) -->

<svg
   width="16"
   height="16"
   viewBox="0 0 4.2333332 4.2333333"
   version="1.1"
   id="svg1"
   inkscape:version="1.4.3 (0d15f75, 2025-12-25)"
   sodipodi:docname="font.svg"
   xml:space="preserve"
   xmlns:inkscape="http://www.inkscape.org/namespaces/inkscape"
   xmlns:sodipodi="http://sodipodi.sourceforge.net/DTD/sodipodi-0.dtd"
   xmlns="http://www.w3.org/2000/svg"
   xmlns:svg="http://www.w3.org/2000/svg"><sodipodi:namedview
     id="namedview1"
     pagecolor="#ffffff"
     bordercolor="#000000"
     borderopacity="0.25"
     inkscape:showpageshadow="false"
     inkscape:pageopacity="0.0"
     inkscape:pagecheckerboard="0"
     inkscape:deskcolor="#ffffff"
     inkscape:document-units="px"
     showgrid="true"
     inkscape:zoom="25.433747"
     inkscape:cx="4.9933657"
     inkscape:cy="7.8439091"
     inkscape:window-width="2301"
     inkscape:window-height="1331"
     inkscape:window-x="1342"
     inkscape:window-y="47"
     inkscape:window-maximized="0"
     inkscape:current-layer="layer1"
     showguides="true"><inkscape:grid
       id="grid1"
       units="px"
       originx="0"
       originy="0"
       spacingx="0.26458333"
       spacingy="0.26458333"
       empcolor="#0099e5"
       empopacity="0.30196078"
       color="#0099e5"
       opacity="0.14901961"
       empspacing="5"
       enabled="true"
       visible="true" /></sodipodi:namedview><defs
     id="defs1" /><g
     inkscape:label="Layer 1"
     inkscape:groupmode="layer"
     id="layer1"><path
       id="path1"
       style="baseline-shift:baseline;display:inline;overflow:visible;opacity:1;vector-effect:none;fill:#a8a8a8;stroke-width:0.999997;stroke-linecap:round;stroke-linejoin:round;enable-background:accumulate;stop-color:#000000;stop-opacity:1"
       d="M 0.2634637,0 A 0.26449706,0.26464771 0 0 0 0,0.26361376 0.26449706,0.26464771 0 0 0 0.2634637,0.52929509 H 1.3219679 V 3.9697131 a 0.26449706,0.26464771 0 0 0 0.26553,0.2636138 0.26449706,0.26464771 0 0 0 0.2634637,-0.2636138 V 0.52929509 H 2.9089491 A 0.26449706,0.26464771 0 0 0 3.1749959,0.26361376 0.26449706,0.26464771 0 0 0 2.9089491,0 h -1.3214512 -0.00207 z" /><path
       id="path4"
       style="baseline-shift:baseline;display:inline;overflow:visible;opacity:1;vector-effect:none;fill:#a8a8a8;stroke-width:1;stroke-linecap:round;stroke-linejoin:round;enable-background:accumulate;stop-color:#000000;stop-opacity:1"
       d="M 2.5145796,0.92604368 A 0.264584,0.26462503 0 0 0 2.2489628,1.1922186 0.264584,0.26462503 0 0 0 2.5145796,1.4558092 H 2.9776004 V 3.9697405 A 0.264584,0.26462503 0 0 0 3.2411502,4.2333312 0.264584,0.26462503 0 0 0 3.5067671,3.9697405 V 1.4558092 H 3.9697879 A 0.264584,0.26462503 0 0 0 4.2333377,1.1922186 0.264584,0.26462503 0 0 0 3.9697879,0.92604368 Z" /></g></svg>
