<?xml version="1.0" encoding="UTF-8" standalone="no"?>
<!-- Created with Inkscape (http://www.inkscape.org/) -->

<svg
   width="16"
   height="16"
   viewBox="0 0 4.2333332 4.2333333"
   version="1.1"
   id="svg1"
   inkscape:version="1.4.3 (0d15f75, 2025-12-25)"
   sodipodi:docname="forward.svg"
   xml:space="preserve"
   xmlns:inkscape="http://www.inkscape.org/namespaces/inkscape"
   xmlns:sodipodi="http://sodipodi.sourceforge.net/DTD/sodipodi-0.dtd"
   xmlns="http://www.w3.org/2000/svg"
   xmlns:svg="http://www.w3.org/2000/svg"><sodipodi:namedview
     id="namedview1"
     pagecolor="#ffffff"
     bordercolor="#000000"
     borderopacity="0.25"
     inkscape:showpageshadow="false"
     inkscape:pageopacity="0.0"
     inkscape:pagecheckerboard="0"
     inkscape:deskcolor="#ffffff"
     inkscape:document-units="px"
     showgrid="true"
     inkscape:zoom="21.078125"
     inkscape:cx="6.4759081"
     inkscape:cy="8.0889548"
     inkscape:window-width="1728"
     inkscape:window-height="990"
     inkscape:window-x="0"
     inkscape:window-y="33"
     inkscape:window-maximized="0"
     inkscape:current-layer="layer1"
     showguides="true"><inkscape:grid
       id="grid1"
       units="px"
       originx="0"
       originy="0"
       spacingx="0.26458333"
       spacingy="0.26458333"
       empcolor="#0099e5"
       empopacity="0.30196078"
       color="#0099e5"
       opacity="0.14901961"
       empspacing="5"
       enabled="true"
       visible="true" /></sodipodi:namedview><defs
     id="defs1" /><g
     inkscape:label="Layer 1"
     inkscape:groupmode="layer"
     id="layer1"><path
       id="rect2"
       style="fill:#ff7f27;fill-opacity:1;stroke:none;stroke-width:0.396874;stroke-linecap:round;stroke-linejoin:round"
       d="M 4.2329993,2.1021952 A 0.13489103,0.20795182 0 0 0 4.1663175,1.9368086 L 3.0399645,0.93415215 2.3183542,0.29224525 a 0.13489103,0.20795182 0 0 0 -0.202113,0.1798579 V 1.3228107 H 0.30859705 A 0.30876926,0.26461862 0 0 0 4.51461e-8,1.5874293 V 2.6459038 A 0.30876926,0.26461862 0 0 0 0.30859705,2.9105224 H 2.1162412 V 3.7612301 A 0.13489103,0.20795182 0 0 0 2.3183542,3.941088 L 3.4447072,2.9389482 4.1663175,2.2965245 a 0.13489103,0.20795182 0 0 0 0.066682,-0.1943293 z" /></g></svg>
