<?xml version="1.0" encoding="UTF-8" standalone="no"?>
<svg
   width="16"
   height="16"
   id="svg2"
   version="1.1"
   inkscape:version="1.4.2 (ebf0e94, 2025-05-08)"
   sodipodi:docname="prev_nav.svg"
   inkscape:export-filename="C:\Users\D019122\OneDrive - SAP SE\Desktop\iam_package.png"
   inkscape:export-xdpi="96"
   inkscape:export-ydpi="96"
   xml:space="preserve"
   xmlns:inkscape="http://www.inkscape.org/namespaces/inkscape"
   xmlns:sodipodi="http://sodipodi.sourceforge.net/DTD/sodipodi-0.dtd"
   xmlns="http://www.w3.org/2000/svg"
   xmlns:svg="http://www.w3.org/2000/svg"
   xmlns:rdf="http://www.w3.org/1999/02/22-rdf-syntax-ns#"
   xmlns:cc="http://creativecommons.org/ns#"
   xmlns:dc="http://purl.org/dc/elements/1.1/"><defs
     id="defs4" /><sodipodi:namedview
     id="base"
     pagecolor="#ffffff"
     bordercolor="#666666"
     borderopacity="1.0"
     inkscape:pageopacity="0"
     inkscape:pageshadow="2"
     inkscape:zoom="16"
     inkscape:cx="-9.4375"
     inkscape:cy="14.0625"
     inkscape:document-units="px"
     inkscape:current-layer="layer1"
     showgrid="true"
     inkscape:window-width="2470"
     inkscape:window-height="1400"
     inkscape:window-x="1156"
     inkscape:window-y="30"
     inkscape:window-maximized="0"
     showguides="false"
     inkscape:guide-bbox="true"
     inkscape:snap-global="false"
     inkscape:snap-bbox="true"
     inkscape:bbox-nodes="true"
     inkscape:document-rotation="0"
     inkscape:showpageshadow="false"
     inkscape:pagecheckerboard="0"
     inkscape:deskcolor="#ffffff"><inkscape:grid
       type="xygrid"
       id="grid3999"
       originx="0"
       originy="0"
       spacingy="1"
       spacingx="1"
       units="px"
       visible="false"
       enabled="true" /><inkscape:grid
       id="grid1"
       units="px"
       originx="0"
       originy="0"
       spacingx="1"
       spacingy="1"
       empcolor="#0099e5"
       empopacity="0.30196078"
       color="#0099e5"
       opacity="0.14901961"
       empspacing="5"
       enabled="true"
       visible="true" /></sodipodi:namedview><metadata
     id="metadata7"><rdf:RDF><cc:Work
         rdf:about=""><dc:format>image/svg+xml</dc:format><dc:type
           rdf:resource="http://purl.org/dc/dcmitype/StillImage" /></cc:Work></rdf:RDF></metadata><g
     inkscape:label="Layer 1"
     inkscape:groupmode="layer"
     id="layer1"
     style="display:inline"
     transform="translate(0,-1036.3622)"><path
       id="rect1"
       style="display:inline;fill:#a8a8a8;stroke-width:2;stroke-linecap:round;stroke-linejoin:round"
       d="M 2.75 1036.3622 C 2.3357864 1036.3622 2 1036.8099 2 1037.3622 L 2 1051.3622 C 2 1051.9145 2.3357864 1052.3622 2.75 1052.3622 L 13.25 1052.3622 C 13.664214 1052.3622 14 1051.9145 14 1051.3622 L 14 1040.3036 A 2.3753742 2.3753742 0 0 0 13.308594 1038.6278 L 11.794922 1037.1063 A 2.5296687 2.5296687 0 0 0 10.001953 1036.3622 L 2.75 1036.3622 z M 7.9980469 1042.3622 C 7.9999633 1042.3622 8.0019898 1042.3622 8.0039062 1042.3622 C 8.0370365 1042.3623 8.0705107 1042.3649 8.1035156 1042.3681 C 8.1692781 1042.3746 8.2329969 1042.3862 8.296875 1042.4052 C 8.297481 1042.4053 8.2982224 1042.405 8.2988281 1042.4052 C 8.3626202 1042.4243 8.4264024 1042.4498 8.4863281 1042.4813 C 8.5460712 1042.5126 8.6022099 1042.551 8.65625 1042.5946 C 8.6566575 1042.595 8.657796 1042.5943 8.6582031 1042.5946 C 8.684902 1042.6163 8.7094546 1042.6402 8.734375 1042.6649 C 8.734726 1042.6653 8.7359775 1042.6646 8.7363281 1042.6649 L 11.695312 1045.5966 C 12.10263 1046.0003 12.10256 1046.65 11.695312 1047.0536 L 11.689453 1047.0595 C 11.282206 1047.4631 10.626068 1047.4632 10.21875 1047.0595 L 8 1044.8602 L 5.78125 1047.0595 C 5.3739322 1047.4632 4.7177939 1047.4631 4.3105469 1047.0595 L 4.3046875 1047.0536 C 3.8974405 1046.65 3.8973697 1046.0003 4.3046875 1045.5966 L 7.2636719 1042.6649 C 7.3411405 1042.5882 7.427654 1042.527 7.5195312 1042.4794 C 7.5213822 1042.4784 7.5235352 1042.4784 7.5253906 1042.4774 C 7.5839283 1042.4476 7.6449257 1042.4232 7.7070312 1042.4052 C 7.8021434 1042.3775 7.8996423 1042.3622 7.9980469 1042.3622 z " /></g></svg>
