<?xml version="1.0" encoding="UTF-8" standalone="no"?>
<svg
   width="16"
   height="16"
   viewBox="0 0 16 16"
   fill="none"
   version="1.1"
   id="svg5"
   sodipodi:docname="go-backward-to-visited-file.svg"
   inkscape:export-filename="file_obj_16x16.png"
   inkscape:export-xdpi="96"
   inkscape:export-ydpi="96"
   inkscape:version="1.4.3 (0d15f75, 2025-12-25)"
   xmlns:inkscape="http://www.inkscape.org/namespaces/inkscape"
   xmlns:sodipodi="http://sodipodi.sourceforge.net/DTD/sodipodi-0.dtd"
   xmlns="http://www.w3.org/2000/svg"
   xmlns:svg="http://www.w3.org/2000/svg">
  <sodipodi:namedview
     id="namedview5"
     pagecolor="#ffffff"
     bordercolor="#eeeeee"
     borderopacity="1"
     inkscape:showpageshadow="0"
     inkscape:pageopacity="0"
     inkscape:pagecheckerboard="0"
     inkscape:deskcolor="#505050"
     showgrid="true"
     showguides="false"
     inkscape:zoom="22.627417"
     inkscape:cx="4.0437669"
     inkscape:cy="8.6841552"
     inkscape:window-width="1728"
     inkscape:window-height="990"
     inkscape:window-x="0"
     inkscape:window-y="33"
     inkscape:window-maximized="1"
     inkscape:current-layer="svg5">
    <inkscape:grid
       id="grid5"
       units="px"
       originx="0"
       originy="0"
       spacingx="1"
       spacingy="1"
       empcolor="#0099e5"
       empopacity="0.30196078"
       color="#0099e5"
       opacity="0.14901961"
       empspacing="5"
       dotted="false"
       gridanglex="30"
       gridanglez="30"
       visible="true" />
  </sodipodi:namedview>
  <defs
     id="defs5">
    <inkscape:path-effect
       effect="fillet_chamfer"
       id="path-effect7"
       is_visible="true"
       lpeversion="1"
       nodesatellites_param="F,0,0,1,0,0,0,1 @ F,0,0,1,0,0,0,1 @ F,0,0,1,0,0,0,1 @ F,0,0,1,0,0,0,1 @ F,0,0,1,0,0,0,1 @ F,0,0,1,0,0,0,1 @ F,0,1,1,0,0.77593665,0,1 @ F,0,0,1,0,0.77593665,0,1 | F,0,0,1,0,0,0,1 @ F,0,0,1,0,0,0,1 @ F,0,0,1,0,0,0,1 @ F,0,0,1,0,0,0,1 @ F,0,0,1,0,0,0,1"
       radius="0"
       unit="px"
       method="auto"
       mode="F"
       chamfer_steps="1"
       flexible="false"
       use_knot_distance="true"
       apply_no_radius="true"
       apply_with_radius="true"
       only_selected="false"
       hide_knots="false" />
    <mask
       id="path-1-inside-1_1_2"
       fill="#ffffff">
      <rect
         width="10"
         height="10"
         rx="1"
         id="rect2"
         x="0"
         y="0" />
    </mask>
    <clipPath
       clipPathUnits="userSpaceOnUse"
       id="clipPath1">
      <g
         id="g3">
        <rect
           width="16"
           height="16"
           fill="#ffffff"
           id="rect3"
           x="0"
           y="0" />
      </g>
    </clipPath>
  </defs>
  <path
     id="rect1"
     style="display:inline;fill:#a8a8a8;stroke-width:2;stroke-linecap:round;stroke-linejoin:round"
     d="M 0.75 0 C 0.335786 0 0 0.4477 0 1 L 0 15 C 0 15.5523 0.335786 16 0.75 16 L 11.25 16 C 11.541711 16 11.793946 15.777376 11.917969 15.453125 L 10.232422 13.767578 C 9.2689169 12.803867 9.2689169 11.196133 10.232422 10.232422 L 12 8.4648438 L 12 3.9414062 A 2.3753742 2.3753742 0 0 0 11.308594 2.265625 L 9.7949219 0.74414062 A 2.5296687 2.5296687 0 0 0 8.0019531 0 L 0.75 0 z " />
  <path
     id="path4"
     style="fill:#ff7f27;stroke-linecap:round"
     d="m 14.888824,8.0060106 a 1,1 0 0 0 -0.595703,0.28711 l -3,3.0000004 a 1,1 0 0 0 0,1.414062 l 3,3 a 1,1 0 0 0 1.414062,0 1,1 0 0 0 0,-1.414062 l -2.292969,-2.292969 2.292969,-2.2929694 a 1,1 0 0 0 0,-1.414062 1,1 0 0 0 -0.818359,-0.28711 z" />
</svg>
