<?xml version="1.0" encoding="UTF-8" standalone="no"?>
<svg
   width="16"
   height="16"
   viewBox="0 0 16 16"
   fill="none"
   version="1.1"
   id="svg6"
   sodipodi:docname="search_goto.svg"
   inkscape:version="1.4 (86a8ad7, 2024-10-11)"
   inkscape:export-filename="collapseall_16x16.png"
   inkscape:export-xdpi="96"
   inkscape:export-ydpi="96"
   xmlns:inkscape="http://www.inkscape.org/namespaces/inkscape"
   xmlns:sodipodi="http://sodipodi.sourceforge.net/DTD/sodipodi-0.dtd"
   xmlns="http://www.w3.org/2000/svg"
   xmlns:svg="http://www.w3.org/2000/svg">
  <sodipodi:namedview
     id="namedview6"
     pagecolor="#ffffff"
     bordercolor="#eeeeee"
     borderopacity="1"
     inkscape:showpageshadow="0"
     inkscape:pageopacity="0"
     inkscape:pagecheckerboard="0"
     inkscape:deskcolor="#545454"
     inkscape:zoom="22.627417"
     inkscape:cx="6.098796"
     inkscape:cy="6.7838057"
     inkscape:window-width="1920"
     inkscape:window-height="991"
     inkscape:window-x="-9"
     inkscape:window-y="-9"
     inkscape:window-maximized="1"
     inkscape:current-layer="svg6"
     showgrid="true">
    <inkscape:grid
       id="grid1"
       units="px"
       originx="0"
       originy="0"
       spacingx="1"
       spacingy="1"
       empcolor="#0099e5"
       empopacity="0.30196078"
       color="#0099e5"
       opacity="0.14901961"
       empspacing="5"
       enabled="true"
       visible="true" />
  </sodipodi:namedview>
  <defs
     id="defs6">
    <clipPath
       clipPathUnits="userSpaceOnUse"
       id="clipPath7">
      <g
         id="g8">
        <rect
           width="16"
           height="16"
           fill="#ffffff"
           id="rect8"
           x="0"
           y="0" />
      </g>
    </clipPath>
  </defs>
  <path
     id="rect1"
     style="fill:#a8a8a8;stroke-linecap:round;paint-order:markers stroke fill"
     d="M 2 0 C 0.90929723 0 0 0.90929723 0 2 L 0 14 C 0 15.090703 0.90929723 16 2 16 L 14 16 C 15.090703 16 16 15.090703 16 14 L 16 8.5332031 C 15.692081 8.6710329 15.354522 8.75 15 8.75 C 14.631964 8.75 14.295967 8.6594279 14 8.5019531 L 14 14 L 2 14 L 2 2 L 7.4980469 2 C 7.3405721 1.7040332 7.25 1.3680358 7.25 1 C 7.25 0.64547784 7.3289671 0.30791901 7.4667969 0 L 2 0 z " />
  <path
     id="path1"
     style="fill:#a8a8a8;stroke-linecap:round"
     d="m 9.75,0 a 1,1 0 0 0 -1,1 1,1 0 0 0 1,1 h 2.835938 L 8.292969,6.2929688 a 0.99999499,0.99999499 0 0 0 0,1.4140627 0.99999499,0.99999499 0 0 0 1.414062,0 L 14,3.4140625 V 6.25 A 1,1 0 0 0 15,7.2500005 1,1 0 0 0 16,6.25 V 1 A 1,1 0 0 0 15,0 Z" />
</svg>
