<?xml version="1.0" encoding="UTF-8" standalone="no"?>
<svg
   width="16"
   height="16"
   viewBox="0 0 16 16"
   fill="none"
   version="1.1"
   id="svg6"
   sodipodi:docname="grouped-frame.svg"
   inkscape:version="1.4.2 (f4327f4, 2025-05-13)"
   inkscape:export-filename="import_config_obj_16x16.png"
   inkscape:export-xdpi="96"
   inkscape:export-ydpi="96"
   xmlns:inkscape="http://www.inkscape.org/namespaces/inkscape"
   xmlns:sodipodi="http://sodipodi.sourceforge.net/DTD/sodipodi-0.dtd"
   xmlns="http://www.w3.org/2000/svg"
   xmlns:svg="http://www.w3.org/2000/svg">
  <sodipodi:namedview
     id="namedview6"
     pagecolor="#ffffff"
     bordercolor="#0c0005"
     borderopacity="0.36078431"
     inkscape:showpageshadow="0"
     inkscape:pageopacity="0"
     inkscape:pagecheckerboard="0"
     inkscape:deskcolor="#ffffff"
     inkscape:zoom="14.133223"
     inkscape:cx="11.709997"
     inkscape:cy="13.974166"
     inkscape:window-width="1972"
     inkscape:window-height="1211"
     inkscape:window-x="1554"
     inkscape:window-y="65"
     inkscape:window-maximized="0"
     inkscape:current-layer="svg6"
     showguides="true"
     showgrid="true"
     inkscape:lockguides="false">
    <inkscape:grid
       id="grid1"
       units="px"
       originx="0"
       originy="0"
       spacingx="1"
       spacingy="1"
       empcolor="#0099e5"
       empopacity="0.30196078"
       color="#0099e5"
       opacity="0.14901961"
       empspacing="5"
       enabled="true"
       visible="true" />
  </sodipodi:namedview>
  <defs
     id="defs6" />
  <path
     id="path1-0-9"
     style="baseline-shift:baseline;display:inline;overflow:visible;vector-effect:none;fill:#a8a8a8;stroke-linecap:round;enable-background:accumulate;stop-color:#000000;stop-opacity:1;opacity:1"
     d="M 7.5 1 C 7.5 1.8103564 7.0987277 2.5408595 6.4863281 3 L 15 3 A 1 1 0 0 0 16 2 A 1 1 0 0 0 15 1 L 7.5 1 z M 3.5 5 L 3.5 7 L 15 7 A 1 1 0 0 0 16 6 A 1 1 0 0 0 15 5 L 3.5 5 z M 3.5 9 L 3.5 11 L 15 11 A 1 1 0 0 0 16 10 A 1 1 0 0 0 15 9 L 3.5 9 z M 6.4863281 13 C 7.0987277 13.45914 7.5 14.189644 7.5 15 L 15 15 A 1 1 0 0 0 16 14 A 1 1 0 0 0 15 13 L 6.4863281 13 z " />
  <path
     id="path1"
     style="baseline-shift:baseline;display:inline;overflow:visible;vector-effect:none;fill:#a8a8a8;stroke-linecap:round;enable-background:accumulate;stop-color:#000000"
     d="M 0.99999996,0 A 1,1 0 0 0 0,1 v 14 a 1,1 0 0 0 0.99999996,1 H 5 A 1,1 0 0 0 6,15 1,1 0 0 0 5,14 H 2 V 2 H 5 A 1,1 0 0 0 6,1 1,1 0 0 0 5,0 Z" />
</svg>
