<?xml version="1.0" encoding="UTF-8" standalone="no"?>
<svg
   width="16"
   height="16"
   id="svg2"
   version="1.1"
   inkscape:version="1.4.3 (0d15f75, 2025-12-25)"
   sodipodi:docname="group_by_project.svg"
   inkscape:export-filename="C:\Users\D019122\OneDrive - SAP SE\Desktop\iam_package.png"
   inkscape:export-xdpi="96"
   inkscape:export-ydpi="96"
   xml:space="preserve"
   xmlns:inkscape="http://www.inkscape.org/namespaces/inkscape"
   xmlns:sodipodi="http://sodipodi.sourceforge.net/DTD/sodipodi-0.dtd"
   xmlns="http://www.w3.org/2000/svg"
   xmlns:svg="http://www.w3.org/2000/svg"
   xmlns:rdf="http://www.w3.org/1999/02/22-rdf-syntax-ns#"
   xmlns:cc="http://creativecommons.org/ns#"
   xmlns:dc="http://purl.org/dc/elements/1.1/"><defs
     id="defs4" /><sodipodi:namedview
     id="base"
     pagecolor="#ffffff"
     bordercolor="#666666"
     borderopacity="1.0"
     inkscape:pageopacity="0"
     inkscape:pageshadow="2"
     inkscape:zoom="16"
     inkscape:cx="5.3125"
     inkscape:cy="17.40625"
     inkscape:document-units="px"
     inkscape:current-layer="layer1"
     showgrid="true"
     inkscape:window-width="1728"
     inkscape:window-height="990"
     inkscape:window-x="0"
     inkscape:window-y="33"
     inkscape:window-maximized="1"
     showguides="true"
     inkscape:guide-bbox="true"
     inkscape:snap-global="false"
     inkscape:snap-bbox="true"
     inkscape:bbox-nodes="true"
     inkscape:document-rotation="0"
     inkscape:showpageshadow="false"
     inkscape:pagecheckerboard="0"
     inkscape:deskcolor="#ffffff"><sodipodi:guide
       position="-32.526912,-1.7218637"
       orientation="1,0"
       id="guide1"
       inkscape:locked="false" /><inkscape:grid
       id="grid14"
       units="px"
       originx="0"
       originy="0"
       spacingx="1"
       spacingy="1"
       empcolor="#0099e5"
       empopacity="0.30196078"
       color="#0099e5"
       opacity="0.14901961"
       empspacing="5"
       enabled="true"
       visible="true"
       dotted="false" /><sodipodi:guide
       position="-14.318912,58.426407"
       orientation="0,-1"
       id="guide16"
       inkscape:locked="false" /><sodipodi:guide
       position="-16,35"
       orientation="0.70710678,-0.70710678"
       id="guide17"
       inkscape:locked="false" /><sodipodi:guide
       position="-13.96875,33.28125"
       orientation="0,-1"
       id="guide18"
       inkscape:locked="false" /></sodipodi:namedview><metadata
     id="metadata7"><rdf:RDF><cc:Work
         rdf:about=""><dc:format>image/svg+xml</dc:format><dc:type
           rdf:resource="http://purl.org/dc/dcmitype/StillImage" /></cc:Work></rdf:RDF></metadata><g
     inkscape:label="Layer 1"
     inkscape:groupmode="layer"
     id="layer1"
     style="display:inline"
     transform="translate(0,-1036.3622)"><path
       id="path1"
       style="baseline-shift:baseline;display:inline;overflow:visible;vector-effect:none;fill:#a8a8a8;stroke-linecap:round;enable-background:accumulate;stop-color:#000000"
       d="m 1,1036.3622 a 1,1 0 0 0 -1,1 v 14 a 1,1 0 0 0 1,1 h 4 a 1,1 0 0 0 1,-1 1,1 0 0 0 -1,-1 H 2 v -12 h 3 a 1,1 0 0 0 1,-1 1,1 0 0 0 -1,-1 z" /><path
       id="rect5-5-6"
       style="fill:#a8a8a8;stroke-width:2.00001;stroke-linecap:round;paint-order:markers stroke fill"
       d="M 4.28125 -1039.8622 C 3.8484375 -1039.8622 3.5 -1040.2423 3.5 -1040.7138 L 3.5 -1042.1806 C 3.5 -1042.2106 3.5011453 -1042.2412 3.5039062 -1042.2704 C 3.5011425 -1042.3008 3.5 -1042.331 3.5 -1042.3622 L 3.5 -1047.8622 C 3.5 -1048.4162 3.946 -1048.8622 4.5 -1048.8622 L 15 -1048.8622 C 15.554 -1048.8622 16 -1048.4162 16 -1047.8622 L 16 -1042.3622 C 16 -1041.8082 15.554 -1041.3622 15 -1041.3622 L 10.335938 -1041.3622 L 9.4824219 -1040.4247 A 1.7469541 1.9028443 0 0 1 8.2421875 -1039.8622 L 4.28125 -1039.8622 z M 9.7539062 -1043.0028 L 10.464844 -1044.4032 L 11.992188 -1044.6181 L 10.863281 -1045.7196 L 11.128906 -1047.2216 L 9.7207031 -1046.5009 L 8.3574219 -1047.2157 L 8.6152344 -1045.6688 L 7.5078125 -1044.6083 L 9.0761719 -1044.372 L 9.7539062 -1043.0028 z "
       transform="scale(1,-1)" /></g></svg>
