<?xml version="1.0" encoding="UTF-8" standalone="no"?>
<svg
   width="16"
   height="16"
   id="svg2"
   version="1.1"
   inkscape:version="1.4.3 (0d15f75, 2025-12-25)"
   sodipodi:docname="group_by_project.svg"
   inkscape:export-filename="C:\Users\D019122\OneDrive - SAP SE\Desktop\iam_package.png"
   inkscape:export-xdpi="96"
   inkscape:export-ydpi="96"
   xml:space="preserve"
   xmlns:inkscape="http://www.inkscape.org/namespaces/inkscape"
   xmlns:sodipodi="http://sodipodi.sourceforge.net/DTD/sodipodi-0.dtd"
   xmlns="http://www.w3.org/2000/svg"
   xmlns:svg="http://www.w3.org/2000/svg"
   xmlns:rdf="http://www.w3.org/1999/02/22-rdf-syntax-ns#"
   xmlns:cc="http://creativecommons.org/ns#"
   xmlns:dc="http://purl.org/dc/elements/1.1/"><defs
     id="defs4" /><sodipodi:namedview
     id="base"
     pagecolor="#ffffff"
     bordercolor="#666666"
     borderopacity="1.0"
     inkscape:pageopacity="0"
     inkscape:pageshadow="2"
     inkscape:zoom="26.845192"
     inkscape:cx="7.6177515"
     inkscape:cy="9.3685306"
     inkscape:document-units="px"
     inkscape:current-layer="layer1"
     showgrid="true"
     inkscape:window-width="1728"
     inkscape:window-height="990"
     inkscape:window-x="0"
     inkscape:window-y="344"
     inkscape:window-maximized="0"
     showguides="true"
     inkscape:guide-bbox="true"
     inkscape:snap-global="false"
     inkscape:snap-bbox="true"
     inkscape:bbox-nodes="true"
     inkscape:document-rotation="0"
     inkscape:showpageshadow="false"
     inkscape:pagecheckerboard="0"
     inkscape:deskcolor="#ffffff"><sodipodi:guide
       position="-32.526912,-1.7218637"
       orientation="1,0"
       id="guide1"
       inkscape:locked="false" /><inkscape:grid
       id="grid14"
       units="px"
       originx="0"
       originy="0"
       spacingx="1"
       spacingy="1"
       empcolor="#0099e5"
       empopacity="0.30196078"
       color="#0099e5"
       opacity="0.14901961"
       empspacing="5"
       enabled="true"
       visible="true"
       dotted="false" /><sodipodi:guide
       position="-14.318912,58.426407"
       orientation="0,-1"
       id="guide16"
       inkscape:locked="false" /><sodipodi:guide
       position="-16,35"
       orientation="0.70710678,-0.70710678"
       id="guide17"
       inkscape:locked="false" /><sodipodi:guide
       position="-13.96875,33.28125"
       orientation="0,-1"
       id="guide18"
       inkscape:locked="false" /></sodipodi:namedview><metadata
     id="metadata7"><rdf:RDF><cc:Work
         rdf:about=""><dc:format>image/svg+xml</dc:format><dc:type
           rdf:resource="http://purl.org/dc/dcmitype/StillImage" /></cc:Work></rdf:RDF></metadata><g
     inkscape:label="Layer 1"
     inkscape:groupmode="layer"
     id="layer1"
     style="display:inline"
     transform="translate(0,-1036.3622)"><path
       id="path1"
       style="baseline-shift:baseline;display:inline;overflow:visible;vector-effect:none;fill:#a8a8a8;stroke-linecap:round;enable-background:accumulate;stop-color:#000000"
       d="m 1,1036.3622 a 1,1 0 0 0 -1,1 v 14 a 1,1 0 0 0 1,1 h 4 a 1,1 0 0 0 1,-1 1,1 0 0 0 -1,-1 H 2 v -12 h 3 a 1,1 0 0 0 1,-1 1,1 0 0 0 -1,-1 z" /><path
       id="rect5-9"
       style="display:inline;fill:#a8a8a8;stroke-width:2;stroke-linecap:round;paint-order:markers stroke fill"
       d="m 4.28125,1039.8622 c -0.4328125,0 -0.78125,0.3489 -0.78125,0.7812 v 1.3457 c 0,0.01 -3.719e-4,0.019 0,0.029 -3.708e-4,0.01 0,0.017 0,0.025 v 6.1367 c 0,0.3782 0.3484375,0.6817 0.78125,0.6817 h 10.9375 c 0.432812,0 0.78125,-0.3035 0.78125,-0.6817 v -6.1367 c 0,-0.3781 -0.348438,-0.6816 -0.78125,-0.6816 h -4.759766 l -0.9765621,-0.9844 a 1.7469542,1.7450571 0 0 0 -1.2402344,-0.5156 z m 5.4765625,3 a 0.74965177,0.74978757 0 0 1 0.7499995,0.75 v 0.6133 l 0.5,-0.17 a 0.74965177,0.74978757 0 0 1 0.953126,0.4688 0.74965177,0.74978757 0 0 1 -0.46875,0.9512 l -0.544922,0.1855 0.365234,0.5254 a 0.74965177,0.74978757 0 0 1 -0.1875,1.041 0.74965177,0.74978757 0 0 1 -1.044922,-0.1894 l -0.3183592,-0.4571 -0.3164063,0.4571 a 0.74965177,0.74978757 0 0 1 -1.0449219,0.1875 0.74965177,0.74978757 0 0 1 -0.1855468,-1.0411 l 0.359375,-0.5214 -0.5644532,-0.1914 a 0.74965177,0.74978757 0 0 1 -0.46875,-0.9532 0.74965177,0.74978757 0 0 1 0.9511719,-0.4687 l 0.515625,0.1758 v -0.6133 a 0.74965177,0.74978757 0 0 1 0.75,-0.75 z" /></g></svg>
