<?xml version="1.0" encoding="UTF-8" standalone="no"?>
<!-- Created with Inkscape (http://www.inkscape.org/) -->

<svg
   width="16"
   height="16"
   viewBox="0 0 4.2333332 4.2333333"
   version="1.1"
   id="svg1"
   inkscape:version="1.4.3 (0d15f75, 2025-12-25)"
   sodipodi:docname="help.svg"
   xml:space="preserve"
   xmlns:inkscape="http://www.inkscape.org/namespaces/inkscape"
   xmlns:sodipodi="http://sodipodi.sourceforge.net/DTD/sodipodi-0.dtd"
   xmlns="http://www.w3.org/2000/svg"
   xmlns:svg="http://www.w3.org/2000/svg"><sodipodi:namedview
     id="namedview1"
     pagecolor="#ffffff"
     bordercolor="#000000"
     borderopacity="0.25"
     inkscape:showpageshadow="false"
     inkscape:pageopacity="0.0"
     inkscape:pagecheckerboard="0"
     inkscape:deskcolor="#ffffff"
     inkscape:document-units="px"
     showgrid="true"
     inkscape:zoom="28.439311"
     inkscape:cx="6.2765233"
     inkscape:cy="9.1246935"
     inkscape:window-width="1728"
     inkscape:window-height="990"
     inkscape:window-x="0"
     inkscape:window-y="344"
     inkscape:window-maximized="0"
     inkscape:current-layer="layer1"
     showguides="true"><inkscape:grid
       id="grid1"
       units="px"
       originx="0"
       originy="0"
       spacingx="0.26458333"
       spacingy="0.26458333"
       empcolor="#0099e5"
       empopacity="0.30196078"
       color="#0099e5"
       opacity="0.14901961"
       empspacing="5"
       enabled="true"
       visible="true" /></sodipodi:namedview><defs
     id="defs1" /><g
     inkscape:label="Layer 1"
     inkscape:groupmode="layer"
     id="layer1"><path
       id="path1"
       style="fill:#0065c7;fill-opacity:1;stroke:none;stroke-width:0.529166;stroke-linecap:round;stroke-linejoin:round"
       d="M 2.1166666 0 A 2.1166665 2.1166665 0 0 0 0 2.1166666 A 2.1166665 2.1166665 0 0 0 2.1166666 4.2333332 A 2.1166665 2.1166665 0 0 0 4.2333332 2.1166666 A 2.1166665 2.1166665 0 0 0 2.1166666 0 z M 2.111499 0.52916666 C 2.531545 0.52916666 2.8378846 0.63311285 3.0055012 0.86351317 C 3.1731199 1.0939135 3.1656982 1.3493848 3.1656982 1.5792317 C 3.1656982 1.9559841 2.888363 2.1968108 2.6665039 2.3605794 C 2.563408 2.4366811 2.4610545 2.4983028 2.38125 2.5424804 L 2.38125 2.6458333 A 0.26447095 0.26338298 0 0 1 2.1156331 2.9104166 A 0.26447095 0.26338298 0 0 1 1.8520833 2.6458333 L 1.8520833 2.438094 A 0.26447095 0.26338298 0 0 1 1.8551839 2.3988199 A 0.26447095 0.26338298 0 0 1 2.0102132 2.1409545 C 2.0102132 2.1409545 2.1826044 2.0617237 2.3517944 1.9368326 C 2.5209856 1.8119416 2.6370483 1.6511997 2.6370483 1.5792317 C 2.6370483 1.3603579 2.6134419 1.2231982 2.5765869 1.1725382 C 2.5397314 1.1218779 2.4530259 1.0557495 2.111499 1.0557495 C 1.8234535 1.0557495 1.7675386 1.1588836 1.7110066 1.2929443 C 1.6544696 1.4270052 1.6567464 1.5750976 1.6567464 1.5750976 A 0.26447095 0.26338298 0 0 1 1.4092163 1.8526001 A 0.26447095 0.26338298 0 0 1 1.1296468 1.6045532 C 1.1296468 1.6045533 1.1120014 1.3537018 1.2236979 1.0888224 C 1.3353943 0.82394314 1.637971 0.52916666 2.111499 0.52916666 z M 2.1166666 3.3072916 A 0.26458332 0.26458332 0 0 1 2.38125 3.5718749 A 0.26458332 0.26458332 0 0 1 2.1166666 3.8364583 A 0.26458332 0.26458332 0 0 1 1.8520833 3.5718749 A 0.26458332 0.26458332 0 0 1 2.1166666 3.3072916 z " /></g></svg>
