<?xml version="1.0" encoding="UTF-8" standalone="no"?>
<!-- Created with Inkscape (http://www.inkscape.org/) -->

<svg
   width="16"
   height="16"
   viewBox="0 0 4.2333332 4.2333333"
   version="1.1"
   id="svg1"
   inkscape:version="1.4.3 (0d15f75, 2025-12-25)"
   sodipodi:docname="hide-fields.svg"
   xml:space="preserve"
   xmlns:inkscape="http://www.inkscape.org/namespaces/inkscape"
   xmlns:sodipodi="http://sodipodi.sourceforge.net/DTD/sodipodi-0.dtd"
   xmlns="http://www.w3.org/2000/svg"
   xmlns:svg="http://www.w3.org/2000/svg"><sodipodi:namedview
     id="namedview1"
     pagecolor="#ffffff"
     bordercolor="#000000"
     borderopacity="0.25"
     inkscape:showpageshadow="false"
     inkscape:pageopacity="0.0"
     inkscape:pagecheckerboard="0"
     inkscape:deskcolor="#ffffff"
     inkscape:document-units="px"
     showgrid="true"
     inkscape:zoom="27.676998"
     inkscape:cx="5.0402866"
     inkscape:cy="8.0030357"
     inkscape:window-width="1728"
     inkscape:window-height="990"
     inkscape:window-x="0"
     inkscape:window-y="33"
     inkscape:window-maximized="1"
     inkscape:current-layer="layer1"
     showguides="true"><inkscape:grid
       id="grid1"
       units="px"
       originx="0"
       originy="0"
       spacingx="0.26458333"
       spacingy="0.26458333"
       empcolor="#0099e5"
       empopacity="0.30196078"
       color="#0099e5"
       opacity="0.14901961"
       empspacing="5"
       enabled="true"
       visible="true" /></sodipodi:namedview><defs
     id="defs1" /><g
     inkscape:label="Layer 1"
     inkscape:groupmode="layer"
     id="layer1"><path
       id="path2-1"
       style="baseline-shift:baseline;display:inline;overflow:visible;vector-effect:none;fill:#a8a8a8;fill-opacity:1;stroke-width:1;stroke-linecap:round;stroke-linejoin:round;enable-background:accumulate;stop-color:#000000"
       d="m 0.26592767,1.0582828 a 0.26686461,0.26686468 0 0 0 -0.18861898,0.079065 0.26686461,0.26686468 0 0 0 0,0.3756876 L 0.77132317,2.2075666 A 0.92604148,0.92603949 0 0 0 0.93410393,3.3025902 0.92604148,0.92603949 0 0 0 2.0255101,3.4617536 l 0.6940145,0.6940145 a 0.26686461,0.26686468 0 0 0 0.3762044,0 0.26686461,0.26686468 0 0 0 0.00155,-0.3777547 L 2.4032648,3.0839989 A 0.92604148,0.92603949 0 0 0 2.2363499,1.985358 0.92604148,0.92603949 0 0 0 1.1490778,1.8298119 L 0.45506341,1.1357975 A 0.26686461,0.26686468 0 0 0 0.26592767,1.0582828 Z" /><path
       id="path1"
       style="baseline-shift:baseline;display:inline;overflow:visible;opacity:1;vector-effect:none;fill:#a8a8a8;stroke-width:0.999996;stroke-linecap:round;stroke-linejoin:round;enable-background:accumulate;stop-color:#000000;stop-opacity:1"
       d="m 3.1305566,0 a 0.22070249,0.26458299 0 0 0 -0.2201416,0.26303304 0.2645158,0.26451738 0 0 0 0,5.1676e-4 0.22070249,0.26458299 0 0 0 0,0.002067 V 1.8510498 A 0.2645158,0.26451738 0 0 0 3.1739648,2.1166666 0.2645158,0.26451738 0 0 0 3.4395816,1.8510498 V 1.3223999 H 3.704165 A 0.2645835,0.2645835 0 0 0 3.9697818,1.0588501 0.2645835,0.2645835 0 0 0 3.704165,0.79271646 H 3.4395816 V 0.52916666 H 4.01319 A 0.22070249,0.26458299 0 0 0 4.2333316,0.2635498 0.22070249,0.26458299 0 0 0 4.01319,0 h -0.8371582 -0.00207 z" /></g></svg>
