<?xml version="1.0" encoding="UTF-8" standalone="no"?>
<!-- Created with Inkscape (http://www.inkscape.org/) -->

<svg
   width="16"
   height="16"
   viewBox="0 0 4.2333332 4.2333333"
   version="1.1"
   id="svg1"
   inkscape:version="1.4.3 (0d15f75, 2025-12-25)"
   sodipodi:docname="hide-static-methods.svg"
   xml:space="preserve"
   xmlns:inkscape="http://www.inkscape.org/namespaces/inkscape"
   xmlns:sodipodi="http://sodipodi.sourceforge.net/DTD/sodipodi-0.dtd"
   xmlns="http://www.w3.org/2000/svg"
   xmlns:svg="http://www.w3.org/2000/svg"><sodipodi:namedview
     id="namedview1"
     pagecolor="#ffffff"
     bordercolor="#000000"
     borderopacity="0.25"
     inkscape:showpageshadow="false"
     inkscape:pageopacity="0.0"
     inkscape:pagecheckerboard="0"
     inkscape:deskcolor="#ffffff"
     inkscape:document-units="px"
     showgrid="true"
     inkscape:zoom="26.303174"
     inkscape:cx="8.9532921"
     inkscape:cy="10.169875"
     inkscape:window-width="1728"
     inkscape:window-height="990"
     inkscape:window-x="0"
     inkscape:window-y="33"
     inkscape:window-maximized="0"
     inkscape:current-layer="layer1"
     showguides="true"><inkscape:grid
       id="grid1"
       units="px"
       originx="0"
       originy="0"
       spacingx="0.26458333"
       spacingy="0.26458333"
       empcolor="#0099e5"
       empopacity="0.30196078"
       color="#0099e5"
       opacity="0.14901961"
       empspacing="5"
       enabled="true"
       visible="true" /></sodipodi:namedview><defs
     id="defs1" /><g
     inkscape:label="Layer 1"
     inkscape:groupmode="layer"
     id="layer1"><path
       id="path2-1"
       style="baseline-shift:baseline;display:inline;overflow:visible;vector-effect:none;fill:#a8a8a8;fill-opacity:1;stroke-width:1;stroke-linecap:round;stroke-linejoin:round;enable-background:accumulate;stop-color:#000000"
       d="m 0.26592766,1.0582828 a 0.26686461,0.26686468 0 0 0 -0.18861897,0.079065 0.26686461,0.26686468 0 0 0 0,0.3756876 L 0.77132316,2.2075666 A 0.92604148,0.92603949 0 0 0 0.93410392,3.3025902 0.92604148,0.92603949 0 0 0 2.0255101,3.4617536 l 0.6940145,0.6940145 a 0.26686461,0.26686468 0 0 0 0.3762044,0 0.26686461,0.26686468 0 0 0 0.00155,-0.3777547 L 2.4032648,3.0839989 A 0.92604148,0.92603949 0 0 0 2.2363499,1.985358 0.92604148,0.92603949 0 0 0 1.1490778,1.8298119 L 0.4550634,1.1357975 A 0.26686461,0.26686468 0 0 0 0.26592766,1.0582828 Z" /><path
       style="baseline-shift:baseline;display:inline;overflow:visible;opacity:0.938538;vector-effect:none;fill:#a8a8a8;stroke-linecap:round;stroke-linejoin:round;enable-background:accumulate;stop-color:#000000;stop-opacity:1"
       d="M 3.1679306,0.04439756 C 3.0470757,0.07830919 2.9296108,0.1321622 2.8319931,0.22994444 2.7343753,0.32772668 2.6665137,0.48526766 2.6816024,0.64205381 c 0.014769,0.15346047 0.09068,0.30018363 0.1933594,0.38867189 0.1026795,0.088488 0.2110212,0.1259686 0.3046875,0.15625 0.1873326,0.060563 0.3317835,0.095128 0.4414063,0.1972656 0.08652,0.080613 0.083875,0.1170372 0.083984,0.1152344 1.09e-4,-0.0018 0.00563,0.00457 -0.039063,0.03125 C 3.5765996,1.5840792 3.309951,1.621654 3.0312118,1.4779913 A 0.264584,0.264584 0 0 0 2.6757431,1.5912726 0.264584,0.264584 0 0 0 2.7890243,1.9486944 c 0.4168956,0.2148689 0.842823,0.219544 1.1484375,0.037109 C 4.0902691,1.8945865 4.2203573,1.7317063 4.2323837,1.5326788 4.24441,1.3336514 4.1411834,1.145346 3.9804306,0.99556944 3.7510444,0.7818459 3.4877516,0.73026758 3.3417587,0.68306944 3.2687622,0.65947037 3.2290135,0.63752983 3.2206649,0.63033506 c -0.00632,-0.005446 -0.0078,-0.0129247 -0.00977,-0.0292969 0.010467,-0.009544 0.043787,-0.0312113 0.099609,-0.046875 0.1160732,-0.0325699 0.3024825,-0.0251361 0.4121094,0.0195313 A 0.264584,0.264584 0 0 0 4.0683212,0.42721007 0.264584,0.264584 0 0 0 3.9218368,0.08346006 C 3.6778823,-0.015939 3.4096402,-0.02342569 3.1679306,0.04439756 Z"
       id="path4-3-3-9" /></g></svg>
