<?xml version="1.0" encoding="UTF-8" standalone="no"?>
<!-- Created with Inkscape (http://www.inkscape.org/) -->

<svg
   width="16"
   height="16"
   viewBox="0 0 4.2333332 4.2333333"
   version="1.1"
   id="svg1"
   inkscape:version="1.4.3 (0d15f75, 2025-12-25)"
   sodipodi:docname="import-breakpoints.svg"
   xmlns:inkscape="http://www.inkscape.org/namespaces/inkscape"
   xmlns:sodipodi="http://sodipodi.sourceforge.net/DTD/sodipodi-0.dtd"
   xmlns="http://www.w3.org/2000/svg"
   xmlns:svg="http://www.w3.org/2000/svg">
  <sodipodi:namedview
     id="namedview1"
     pagecolor="#ffffff"
     bordercolor="#000000"
     borderopacity="0.25"
     inkscape:showpageshadow="false"
     inkscape:pageopacity="0.0"
     inkscape:pagecheckerboard="0"
     inkscape:deskcolor="#ffffff"
     inkscape:document-units="px"
     showgrid="true"
     inkscape:zoom="35.786055"
     inkscape:cx="9.235441"
     inkscape:cy="7.3632033"
     inkscape:window-width="1728"
     inkscape:window-height="990"
     inkscape:window-x="0"
     inkscape:window-y="344"
     inkscape:window-maximized="0"
     inkscape:current-layer="layer1"
     showguides="true">
    <inkscape:grid
       id="grid1"
       units="px"
       originx="0"
       originy="0"
       spacingx="0.26458333"
       spacingy="0.26458333"
       empcolor="#0099e5"
       empopacity="0.30196078"
       color="#0099e5"
       opacity="0.14901961"
       empspacing="5"
       enabled="true"
       visible="true" />
  </sodipodi:namedview>
  <defs
     id="defs1" />
  <g
     inkscape:label="Layer 1"
     inkscape:groupmode="layer"
     id="layer1">
    <path
       id="path2"
       style="fill:#a8a8a8;stroke-width:0.79375;stroke-linejoin:bevel"
       d="M 2.1166666 0 A 2.1166666 2.1166666 0 0 0 0 2.1166666 A 2.1166666 2.1166666 0 0 0 2.1166666 4.2333332 A 2.1166666 2.1166666 0 0 0 2.6659871 4.1609862 L 2.3802164 3.8741821 C 2.1270316 3.6194648 2.1270316 3.1971733 2.3802164 2.942456 L 2.3822835 2.9403889 C 2.484644 2.8386444 2.614604 2.77794 2.7497029 2.7579711 L 2.7497029 2.3802164 L 2.7497029 2.3781494 C 2.7509329 2.0192605 3.050532 1.7210277 3.4096109 1.7197916 C 3.7697778 1.7192598 4.0703487 2.0179973 4.071586 2.3781494 L 4.071586 2.3802164 L 4.071586 2.7579711 C 4.0912708 2.7608808 4.1105832 2.7646998 4.1299804 2.76934 A 2.1166666 2.1166666 0 0 0 4.2333332 2.1166666 A 2.1166666 2.1166666 0 0 0 2.1166666 0 z " />
    <path
       id="path3-4"
       style="baseline-shift:baseline;display:inline;overflow:visible;vector-effect:none;fill:#ff7f27;stroke-width:0.999998;stroke-linecap:round;stroke-linejoin:bevel;enable-background:accumulate;stop-color:#000000"
       d="M 3.4080724,4.2333328 A 0.2645835,0.26454542 0 0 1 3.220487,4.1558178 0.2645835,0.26454542 0 0 1 3.218937,4.1542678 L 2.659798,3.5930617 a 0.2645835,0.26454542 0 0 1 0,-0.3731038 0.2645835,0.26454542 0 0 1 0.3731039,0 L 3.1445226,3.3310623 V 2.380216 A 0.2645835,0.26454542 0 0 1 3.4080724,2.1166662 0.2645835,0.26454542 0 0 1 3.6736893,2.380216 V 3.3289953 L 3.7832433,3.219958 a 0.2645835,0.26454542 0 0 1 0.3731039,0 0.2645835,0.26454542 0 0 1 0,0.3731038 L 3.5956579,4.1558182 a 0.2645835,0.26454542 0 0 1 -0.1875855,0.077515 z" />
  </g>
</svg>
