<?xml version="1.0" encoding="UTF-8" standalone="no"?>
<!-- Created with Inkscape (http://www.inkscape.org/) -->

<svg
   width="16"
   height="16"
   viewBox="0 0 4.2333332 4.2333333"
   version="1.1"
   id="svg1"
   inkscape:version="1.4.3 (0d15f75, 2025-12-25)"
   sodipodi:docname="inherited-members-filter.svg"
   xml:space="preserve"
   xmlns:inkscape="http://www.inkscape.org/namespaces/inkscape"
   xmlns:sodipodi="http://sodipodi.sourceforge.net/DTD/sodipodi-0.dtd"
   xmlns="http://www.w3.org/2000/svg"
   xmlns:svg="http://www.w3.org/2000/svg"><sodipodi:namedview
     id="namedview1"
     pagecolor="#ffffff"
     bordercolor="#000000"
     borderopacity="0.25"
     inkscape:showpageshadow="false"
     inkscape:pageopacity="0.0"
     inkscape:pagecheckerboard="0"
     inkscape:deskcolor="#ffffff"
     inkscape:document-units="px"
     showgrid="true"
     inkscape:zoom="29.368728"
     inkscape:cx="6.9972386"
     inkscape:cy="8.7337796"
     inkscape:window-width="1728"
     inkscape:window-height="990"
     inkscape:window-x="0"
     inkscape:window-y="344"
     inkscape:window-maximized="0"
     inkscape:current-layer="layer1"
     showguides="true"><inkscape:grid
       id="grid1"
       units="px"
       originx="0"
       originy="0"
       spacingx="0.26458333"
       spacingy="0.26458333"
       empcolor="#0099e5"
       empopacity="0.30196078"
       color="#0099e5"
       opacity="0.14901961"
       empspacing="5"
       enabled="true"
       visible="true" /></sodipodi:namedview><defs
     id="defs1" /><g
     inkscape:label="Layer 1"
     inkscape:groupmode="layer"
     id="layer1"><path
       id="path1"
       style="fill:#a8a8a8;stroke-width:0.793748;stroke-linecap:round;stroke-linejoin:bevel"
       d="M 2.6458332,0.52916664 A 0.52916664,0.52916664 0 0 1 2.1166666,1.0583333 0.52916664,0.52916664 0 0 1 1.5874999,0.52916664 0.52916664,0.52916664 0 0 1 2.1166666,0 0.52916664,0.52916664 0 0 1 2.6458332,0.52916664 Z" /><path
       id="path1-1"
       style="fill:#a8a8a8;stroke-width:0.793748;stroke-linecap:round;stroke-linejoin:bevel"
       d="M 1.0583333,3.7041667 A 0.52916664,0.52916664 0 0 1 0.52916664,4.2333333 0.52916664,0.52916664 0 0 1 0,3.7041667 0.52916664,0.52916664 0 0 1 0.52916664,3.175 0.52916664,0.52916664 0 0 1 1.0583333,3.7041667 Z" /><path
       id="path1-1-2"
       style="fill:#a8a8a8;stroke-width:0.793748;stroke-linecap:round;stroke-linejoin:bevel"
       inkscape:transform-center-x="0.017751927"
       inkscape:transform-center-y="-5.094803"
       d="M 4.2333333,3.7041667 A 0.52916664,0.52916664 0 0 1 3.7041667,4.2333333 0.52916664,0.52916664 0 0 1 3.175,3.7041667 0.52916664,0.52916664 0 0 1 3.7041667,3.175 0.52916664,0.52916664 0 0 1 4.2333333,3.7041667 Z" /><path
       id="path1-1-2-2"
       style="fill:#a8a8a8;stroke-width:0.793748;stroke-linecap:round;stroke-linejoin:bevel"
       inkscape:transform-center-x="0.017751927"
       inkscape:transform-center-y="-5.094803"
       d="M 2.6458332,3.7041667 A 0.52916664,0.52916664 0 0 1 2.1166666,4.2333333 0.52916664,0.52916664 0 0 1 1.5874999,3.7041667 0.52916664,0.52916664 0 0 1 2.1166666,3.175 0.52916664,0.52916664 0 0 1 2.6458332,3.7041667 Z" /><path
       style="fill:none;fill-opacity:1;stroke:#a8a8a8;stroke-width:0.529167;stroke-linecap:round;stroke-linejoin:bevel;stroke-dasharray:none;stroke-opacity:1"
       d="M 2.1166666,2.5140672 V 1.7197953"
       id="path2" /><path
       id="path5-8"
       style="baseline-shift:baseline;display:inline;overflow:visible;vector-effect:none;fill:#a8a8a8;stroke-linecap:round;stroke-linejoin:bevel;enable-background:accumulate;stop-color:#000000;stop-opacity:1;opacity:1"
       d="M 2.1140828 1.4552083 A 0.2645835 0.2645835 0 0 0 1.984375 1.4882812 L 0.53536783 2.2809977 A 0.2645835 0.2645835 0 0 0 0.42943114 2.6406656 A 0.2645835 0.2645835 0 0 0 0.78909911 2.7460856 L 2.1140828 2.0195149 L 3.4395833 2.7460856 A 0.2645835 0.2645835 0 0 0 3.7987345 2.6406656 A 0.2645835 0.2645835 0 0 0 3.6933145 2.2809977 L 2.2443074 1.4882812 A 0.2645835 0.2645835 0 0 0 2.1140828 1.4552083 z " /></g></svg>
