<?xml version="1.0" encoding="UTF-8" standalone="no"?>
<svg
   width="16"
   height="16"
   id="svg2"
   version="1.1"
   inkscape:version="1.4.3 (0d15f75, 2025-12-25)"
   sodipodi:docname="internal_browser.svg"
   inkscape:export-filename="C:\Users\D019122\OneDrive - SAP SE\Desktop\iam_package.png"
   inkscape:export-xdpi="96"
   inkscape:export-ydpi="96"
   xml:space="preserve"
   xmlns:inkscape="http://www.inkscape.org/namespaces/inkscape"
   xmlns:sodipodi="http://sodipodi.sourceforge.net/DTD/sodipodi-0.dtd"
   xmlns="http://www.w3.org/2000/svg"
   xmlns:svg="http://www.w3.org/2000/svg"
   xmlns:rdf="http://www.w3.org/1999/02/22-rdf-syntax-ns#"
   xmlns:cc="http://creativecommons.org/ns#"
   xmlns:dc="http://purl.org/dc/elements/1.1/"><defs
     id="defs4" /><sodipodi:namedview
     id="base"
     pagecolor="#ffffff"
     bordercolor="#666666"
     borderopacity="1.0"
     inkscape:pageopacity="0"
     inkscape:pageshadow="2"
     inkscape:zoom="24.481875"
     inkscape:cx="2.552909"
     inkscape:cy="9.6193612"
     inkscape:document-units="px"
     inkscape:current-layer="layer1"
     showgrid="true"
     inkscape:window-width="1728"
     inkscape:window-height="990"
     inkscape:window-x="0"
     inkscape:window-y="344"
     inkscape:window-maximized="0"
     showguides="false"
     inkscape:guide-bbox="true"
     inkscape:snap-global="false"
     inkscape:snap-bbox="true"
     inkscape:bbox-nodes="true"
     inkscape:document-rotation="0"
     inkscape:showpageshadow="false"
     inkscape:pagecheckerboard="0"
     inkscape:deskcolor="#ffffff"><sodipodi:guide
       position="-32.526912,-1.7218637"
       orientation="1,0"
       id="guide1"
       inkscape:locked="false" /><inkscape:grid
       id="grid14"
       units="px"
       originx="0"
       originy="0"
       spacingx="1"
       spacingy="1"
       empcolor="#0099e5"
       empopacity="0.30196078"
       color="#0099e5"
       opacity="0.14901961"
       empspacing="5"
       enabled="true"
       visible="true"
       dotted="false" /><sodipodi:guide
       position="-14.318912,58.426407"
       orientation="0,-1"
       id="guide16"
       inkscape:locked="false" /><sodipodi:guide
       position="-15.202796,51.708892"
       orientation="0.70710678,-0.70710678"
       id="guide17"
       inkscape:locked="false" /><sodipodi:guide
       position="-4.065864,27.711456"
       orientation="0,-1"
       id="guide18"
       inkscape:locked="false" /></sodipodi:namedview><metadata
     id="metadata7"><rdf:RDF><cc:Work
         rdf:about=""><dc:format>image/svg+xml</dc:format><dc:type
           rdf:resource="http://purl.org/dc/dcmitype/StillImage" /></cc:Work></rdf:RDF></metadata><g
     inkscape:label="Layer 1"
     inkscape:groupmode="layer"
     id="layer1"
     style="display:inline"
     transform="translate(0,-1036.3622)"><path
       id="path1-8"
       style="display:inline;fill:#a8a8a8;fill-opacity:1;stroke-width:4.57002;stroke-linecap:round;stroke-linejoin:round"
       d="m 8,1036.3622 a 8,7.9950696 0 0 0 -0.054687,0 1,0.9993837 0 0 0 -0.021484,0 1,0.9993837 0 0 0 -0.015625,0 A 8,7.9950696 0 0 0 0,1044.3573 a 8,7.9950696 0 0 0 7.7890625,7.9813 1,0.9993837 0 0 0 0.4316406,0 A 8,7.9950696 0 0 0 16,1044.3573 a 8,7.9950696 0 0 0 -7.9160156,-7.9892 1,0.9993837 0 0 0 -0.048828,0 8,7.9950696 0 0 0 -0.035156,0 z m 2.179688,2.4087 a 6,5.9963022 0 0 1 3.736328,4.587 H 11.46875 c -0.100735,-1.5075 -0.458302,-3.0532 -1.289062,-4.587 z m -4.367188,0 c -0.8271735,1.533 -1.181908,3.0788 -1.28125,4.5851 H 2.0839844 A 6,5.9963022 0 0 1 5.8125,1038.7728 Z m 2.1835938,0.2343 c 0.9928897,1.4631 1.3704441,2.8672 1.4726562,4.3508 h -2.9375 c 0.1008202,-1.4842 0.4743671,-2.8879 1.4648438,-4.3508 z m -5.9121094,6.3496 h 2.4511718 c 0.1064736,1.4984 0.4659269,3.0537 1.2871094,4.5869 a 6,5.9963022 0 0 1 -3.7382812,-4.5869 z m 4.453125,0 h 2.9277344 c -0.1091138,1.474 -0.491282,2.9036 -1.4609376,4.3547 -0.9728878,-1.4512 -1.3562348,-2.8809 -1.4667968,-4.3547 z m 4.9277346,0 h 2.451172 a 6,5.9963022 0 0 1 -3.730469,4.585 c 0.818459,-1.5326 1.174141,-3.0875 1.279297,-4.585 z" /></g></svg>
