<?xml version="1.0" encoding="UTF-8" standalone="no"?>
<!-- Created with Inkscape (http://www.inkscape.org/) -->

<svg
   width="16"
   height="16"
   viewBox="0 0 4.2333332 4.2333333"
   version="1.1"
   id="svg1"
   inkscape:version="1.4.3 (0d15f75, 2025-12-25)"
   sodipodi:docname="java-file.svg"
   xml:space="preserve"
   xmlns:inkscape="http://www.inkscape.org/namespaces/inkscape"
   xmlns:sodipodi="http://sodipodi.sourceforge.net/DTD/sodipodi-0.dtd"
   xmlns="http://www.w3.org/2000/svg"
   xmlns:svg="http://www.w3.org/2000/svg"><sodipodi:namedview
     id="namedview1"
     pagecolor="#ffffff"
     bordercolor="#000000"
     borderopacity="0.25"
     inkscape:showpageshadow="false"
     inkscape:pageopacity="0.0"
     inkscape:pagecheckerboard="0"
     inkscape:deskcolor="#ffffff"
     inkscape:document-units="px"
     showgrid="true"
     inkscape:zoom="25.080194"
     inkscape:cx="6.1403034"
     inkscape:cy="14.732741"
     inkscape:window-width="2272"
     inkscape:window-height="1315"
     inkscape:window-x="1613"
     inkscape:window-y="56"
     inkscape:window-maximized="0"
     inkscape:current-layer="layer1"
     showguides="true"><inkscape:grid
       id="grid1"
       units="px"
       originx="0"
       originy="0"
       spacingx="0.26458333"
       spacingy="0.26458333"
       empcolor="#0099e5"
       empopacity="0.30196078"
       color="#0099e5"
       opacity="0.14901961"
       empspacing="5"
       enabled="true"
       visible="true" /></sodipodi:namedview><defs
     id="defs1" /><g
     inkscape:label="Layer 1"
     inkscape:groupmode="layer"
     id="layer1"><path
       id="path1-8-0-5"
       style="baseline-shift:baseline;display:inline;overflow:visible;vector-effect:none;fill:#0000ff;fill-opacity:1;stroke-width:0.264583;stroke-linecap:round;stroke-linejoin:round;enable-background:accumulate;stop-color:#000000"
       d="m 3.9686794,2.1166666 c -0.1461254,0 -0.2645833,0.118458 -0.2645833,0.2645833 V 3.582727 C 3.6935891,3.64387 3.6766781,3.7041666 3.574905,3.7041666 c -0.2188453,0 -0.2036736,-0.3955751 -0.4221964,-0.3942911 -0.1459235,8.467e-4 -0.2429351,0.099021 -0.2423625,0.2449462 0,0 -0.00257,0.1560581 0.077515,0.3214275 0.080081,0.1653691 0.2961542,0.357084 0.5870442,0.357084 0.2912383,0 0.5074772,-0.1940002 0.5854938,-0.3607015 0.078017,-0.1667015 0.072864,-0.3229777 0.072864,-0.3229777 -3.2e-6,-3.175e-4 5.5e-6,-7.143e-4 0,-0.00103 8.7e-6,-8.731e-4 0,-0.00169 0,-0.00259 V 2.3812497 c 0,-0.1461253 -0.1184579,-0.2645833 -0.2645837,-0.2645831 z" /><path
       id="rect1"
       style="display:inline;fill:#a8a8a8;stroke-width:0.529167;stroke-linecap:round;stroke-linejoin:round"
       d="M 0.1984375 0 C 0.088843296 0 -1.95831e-17 0.11845396 0 0.26458333 L 0 3.9687499 C 0 4.1148792 0.088842996 4.2333333 0.1984375 4.2333332 L 2.7460856 4.2333332 C 2.7003963 4.1747533 2.6617098 4.1125807 2.6308471 4.0488484 C 2.5081027 3.7954001 2.5154606 3.5605717 2.5156087 3.5548217 C 2.5155981 3.3942766 2.5741621 3.2221717 2.6954427 3.0995523 C 2.8173521 2.9762973 2.9887453 2.9129037 3.1501953 2.9119669 C 3.1589213 2.9119157 3.1672724 2.9129143 3.1749999 2.9145507 L 3.1749999 1.0428304 A 0.62848442 0.62848442 0 0 0 2.9920654 0.5994466 L 2.591573 0.1968872 A 0.66930817 0.66930817 0 0 0 2.1171834 0 L 0.1984375 0 z " /></g></svg>
