<?xml version="1.0" encoding="UTF-8" standalone="no"?>
<!-- Created with Inkscape (http://www.inkscape.org/) -->

<svg
   width="16"
   height="16"
   viewBox="0 0 4.2333332 4.2333333"
   version="1.1"
   id="svg1"
   inkscape:version="1.4.3 (0d15f75, 2025-12-25)"
   sodipodi:docname="java-browsing-view.svg"
   xml:space="preserve"
   xmlns:inkscape="http://www.inkscape.org/namespaces/inkscape"
   xmlns:sodipodi="http://sodipodi.sourceforge.net/DTD/sodipodi-0.dtd"
   xmlns="http://www.w3.org/2000/svg"
   xmlns:svg="http://www.w3.org/2000/svg"><sodipodi:namedview
     id="namedview1"
     pagecolor="#ffffff"
     bordercolor="#000000"
     borderopacity="0.25"
     inkscape:showpageshadow="false"
     inkscape:pageopacity="0.0"
     inkscape:pagecheckerboard="0"
     inkscape:deskcolor="#ffffff"
     inkscape:document-units="px"
     showgrid="true"
     inkscape:zoom="22.914679"
     inkscape:cx="13.593906"
     inkscape:cy="7.3097249"
     inkscape:window-width="2081"
     inkscape:window-height="1217"
     inkscape:window-x="1672"
     inkscape:window-y="97"
     inkscape:window-maximized="0"
     inkscape:current-layer="layer1"
     showguides="true"><inkscape:grid
       id="grid1"
       units="px"
       originx="0"
       originy="0"
       spacingx="0.26458333"
       spacingy="0.26458333"
       empcolor="#0099e5"
       empopacity="0.30196078"
       color="#0099e5"
       opacity="0.14901961"
       empspacing="5"
       enabled="true"
       visible="true" /></sodipodi:namedview><defs
     id="defs1" /><g
     inkscape:label="Layer 1"
     inkscape:groupmode="layer"
     id="layer1"><path
       id="path1-8-0-5"
       style="baseline-shift:baseline;display:inline;overflow:visible;vector-effect:none;fill:#a8a8a8;stroke-width:0.264583;stroke-linecap:round;stroke-linejoin:round;enable-background:accumulate;stop-color:#000000"
       d="m 2.513511,1.0583333 c -0.1461254,0 -0.2645833,0.118458 -0.2645833,0.2645833 v 1.2014771 c -0.010507,0.061143 -0.027418,0.1214396 -0.1291911,0.1214396 -0.2188453,0 -0.2036736,-0.3955751 -0.4221964,-0.3942911 -0.1459235,8.467e-4 -0.2429351,0.099021 -0.2423625,0.2449462 0,0 -0.00257,0.1560581 0.077515,0.3214275 C 1.6127737,2.983285 1.8288469,3.175 2.1197369,3.175 c 0.2912383,0 0.5074772,-0.1940002 0.5854938,-0.3607015 0.078017,-0.1667015 0.072864,-0.3229777 0.072864,-0.3229777 -3.2e-6,-3.175e-4 5.5e-6,-7.143e-4 0,-0.00103 8.7e-6,-8.731e-4 0,-0.00169 0,-0.00259 V 1.3229164 c 0,-0.1461253 -0.1184579,-0.2645833 -0.2645837,-0.2645831 z" /><path
       id="path1-7"
       style="baseline-shift:baseline;display:inline;overflow:visible;vector-effect:none;fill:#a8a8a8;stroke-width:0.264583;stroke-linecap:round;stroke-linejoin:round;enable-background:accumulate;stop-color:#000000"
       d="M 0.26458333,2.9104166 A 0.26458333,0.26458333 0 0 0 0,3.175 V 3.96875 A 0.26458333,0.26458333 0 0 0 0.26458333,4.2333333 H 1.0583333 A 0.26458333,0.26458333 0 0 0 1.3229167,3.96875 0.26458333,0.26458333 0 0 0 1.0583333,3.7041666 H 0.52916666 V 3.175 A 0.26458333,0.26458333 0 0 0 0.26458333,2.9104166 Z" /><path
       id="path1-7-5"
       style="baseline-shift:baseline;display:inline;overflow:visible;vector-effect:none;fill:#a8a8a8;stroke-width:0.264583;stroke-linecap:round;stroke-linejoin:round;enable-background:accumulate;stop-color:#000000"
       d="M 1.3229167,0.2645833 A 0.26458333,0.26458333 0 0 0 1.0583333,0 H 0.26458333 A 0.26458333,0.26458333 0 0 0 0,0.2645833 v 0.79375 A 0.26458333,0.26458333 0 0 0 0.26458333,1.3229167 0.26458333,0.26458333 0 0 0 0.52916666,1.0583333 V 0.5291667 H 1.0583333 A 0.26458333,0.26458333 0 0 0 1.3229167,0.2645833 Z" /><path
       id="path1-7-5-3"
       style="baseline-shift:baseline;display:inline;overflow:visible;vector-effect:none;fill:#a8a8a8;stroke-width:0.264583;stroke-linecap:round;stroke-linejoin:round;enable-background:accumulate;stop-color:#000000"
       d="M 2.9104167,3.96875 A 0.26458333,0.26458333 0 0 0 3.175,4.2333333 H 3.96875 A 0.26458333,0.26458333 0 0 0 4.2333333,3.96875 V 3.175 A 0.26458333,0.26458333 0 0 0 3.96875,2.9104166 0.26458333,0.26458333 0 0 0 3.7041667,3.175 V 3.7041666 H 3.175 A 0.26458333,0.26458333 0 0 0 2.9104167,3.96875 Z" /><path
       id="path1-7-5-3-7"
       style="baseline-shift:baseline;display:inline;overflow:visible;vector-effect:none;fill:#a8a8a8;stroke-width:0.264583;stroke-linecap:round;stroke-linejoin:round;enable-background:accumulate;stop-color:#000000"
       d="M 3.96875,1.3229167 A 0.26458333,0.26458333 0 0 0 4.2333333,1.0583333 v -0.79375 A 0.26458333,0.26458333 0 0 0 3.96875,0 H 3.175 A 0.26458333,0.26458333 0 0 0 2.9104167,0.2645833 0.26458333,0.26458333 0 0 0 3.175,0.5291667 H 3.7041667 V 1.0583333 A 0.26458333,0.26458333 0 0 0 3.96875,1.3229167 Z" /></g></svg>
