<?xml version="1.0" encoding="UTF-8" standalone="no"?>
<!-- Created with Inkscape (http://www.inkscape.org/) -->

<svg
   width="16"
   height="16"
   viewBox="0 0 4.2333332 4.2333333"
   version="1.1"
   id="svg1"
   inkscape:version="1.4.3 (0d15f75, 2025-12-25)"
   sodipodi:docname="junit.svg"
   xml:space="preserve"
   xmlns:inkscape="http://www.inkscape.org/namespaces/inkscape"
   xmlns:sodipodi="http://sodipodi.sourceforge.net/DTD/sodipodi-0.dtd"
   xmlns="http://www.w3.org/2000/svg"
   xmlns:svg="http://www.w3.org/2000/svg"><sodipodi:namedview
     id="namedview1"
     pagecolor="#ffffff"
     bordercolor="#000000"
     borderopacity="0.25"
     inkscape:showpageshadow="false"
     inkscape:pageopacity="0.0"
     inkscape:pagecheckerboard="0"
     inkscape:deskcolor="#ffffff"
     inkscape:document-units="px"
     showgrid="true"
     inkscape:zoom="20.40181"
     inkscape:cx="3.6761444"
     inkscape:cy="9.2393763"
     inkscape:window-width="1728"
     inkscape:window-height="990"
     inkscape:window-x="0"
     inkscape:window-y="33"
     inkscape:window-maximized="0"
     inkscape:current-layer="layer1"
     showguides="true"><inkscape:grid
       id="grid1"
       units="px"
       originx="0"
       originy="0"
       spacingx="0.26458333"
       spacingy="0.26458333"
       empcolor="#0099e5"
       empopacity="0.30196078"
       color="#0099e5"
       opacity="0.14901961"
       empspacing="5"
       enabled="true"
       visible="true" /></sodipodi:namedview><defs
     id="defs1" /><g
     inkscape:label="Layer 1"
     inkscape:groupmode="layer"
     id="layer1"><path
       style="baseline-shift:baseline;display:inline;overflow:visible;vector-effect:none;fill:#a8a8a8;stroke-width:1;stroke-linecap:round;stroke-linejoin:round;enable-background:accumulate;stop-color:#000000"
       d="M 2.514227,1.8513907 A 0.26463882,0.26455895 0 0 0 2.2485465,2.116991 v 1.0565426 a 0.26466529,0.2645854 0 0 0 0.00195,0.023435 c 0.031116,0.345597 0.1635332,0.6218179 0.3633572,0.8007068 0.199824,0.1788889 0.4569161,0.2526422 0.6993649,0.2324002 0.4848979,-0.040484 0.9373901,-0.4668698 0.9181607,-1.0663072 l 0.00195,-1.044825 A 0.26463882,0.26455895 0 0 0 3.9696094,1.8533436 0.26463882,0.26455895 0 0 0 3.7058823,2.116991 l -0.00391,1.0545897 a 0.26466529,0.2645854 0 0 0 0,0.00977 c 0.01091,0.339998 -0.21124,0.5028592 -0.4336814,0.5214307 -0.1112207,0.00929 -0.2156477,-0.021581 -0.3027977,-0.0996 C 2.8783432,3.5251617 2.7997401,3.392072 2.777954,3.1500982 V 2.116991 A 0.26463882,0.26455895 0 0 0 2.514227,1.8513907 Z"
       id="path1-8" /><path
       style="baseline-shift:baseline;display:inline;overflow:visible;vector-effect:none;fill:#a8a8a8;stroke-width:1;stroke-linecap:round;stroke-linejoin:round;enable-background:accumulate;stop-color:#000000"
       d="M 1.5882521,0 A 0.26463882,0.26455895 0 0 0 1.3225716,0.26364741 V 3.1754866 a 0.26466529,0.2645854 0 0 0 0,0.00977 c 0.00756,0.2066139 -0.048082,0.32439 -0.1191655,0.4003481 C 1.1323228,3.6615629 1.0359097,3.6990273 0.93381843,3.7008284 0.72963608,3.7044306 0.52696767,3.6014297 0.52943702,3.2457926 A 0.26463882,0.26455895 0 0 0 0.26571001,2.9801922 0.26463882,0.26455895 0 0 0 2.9473062e-5,3.2438395 C -0.00418113,3.8502512 0.47496262,4.2383435 0.94358611,4.2300761 1.1778978,4.2259425 1.4158021,4.1332637 1.5902056,3.9468993 1.7646093,3.760535 1.8637092,3.4864183 1.8519792,3.1657218 V 0.26364741 A 0.26463882,0.26455895 0 0 0 1.5882521,0 Z"
       id="path2" /></g></svg>
