<?xml version="1.0" encoding="UTF-8" standalone="no"?>
<!-- Created with Inkscape (http://www.inkscape.org/) -->

<svg
   width="16"
   height="16"
   viewBox="0 0 4.2333332 4.2333333"
   version="1.1"
   id="svg1"
   inkscape:version="1.4.3 (0d15f75, 2025-12-25)"
   sodipodi:docname="launch-configuration.svg"
   xmlns:inkscape="http://www.inkscape.org/namespaces/inkscape"
   xmlns:sodipodi="http://sodipodi.sourceforge.net/DTD/sodipodi-0.dtd"
   xmlns="http://www.w3.org/2000/svg"
   xmlns:svg="http://www.w3.org/2000/svg">
  <sodipodi:namedview
     id="namedview1"
     pagecolor="#ffffff"
     bordercolor="#000000"
     borderopacity="0.25"
     inkscape:showpageshadow="false"
     inkscape:pageopacity="0.0"
     inkscape:pagecheckerboard="0"
     inkscape:deskcolor="#ffffff"
     inkscape:document-units="px"
     showgrid="true"
     inkscape:zoom="14.904485"
     inkscape:cx="8.0848147"
     inkscape:cy="16.102536"
     inkscape:window-width="1702"
     inkscape:window-height="1376"
     inkscape:window-x="1445"
     inkscape:window-y="117"
     inkscape:window-maximized="0"
     inkscape:current-layer="layer1"
     showguides="true">
    <inkscape:grid
       id="grid1"
       units="px"
       originx="0"
       originy="0"
       spacingx="0.26458333"
       spacingy="0.26458333"
       empcolor="#0099e5"
       empopacity="0.30196078"
       color="#0099e5"
       opacity="0.14901961"
       empspacing="5"
       enabled="true"
       visible="true" />
  </sodipodi:namedview>
  <defs
     id="defs1">
    <inkscape:path-effect
       effect="fillet_chamfer"
       id="path-effect1-551"
       is_visible="true"
       lpeversion="1"
       nodesatellites_param="F,0,0,1,0,1,0,1 @ F,0,0,1,0,1,0,1 @ F,0,0,1,0,1,0,1"
       radius="0.25"
       unit="px"
       method="auto"
       mode="F"
       chamfer_steps="1"
       flexible="false"
       use_knot_distance="true"
       apply_no_radius="true"
       apply_with_radius="true"
       only_selected="false"
       hide_knots="false" />
  </defs>
  <g
     inkscape:label="Layer 1"
     inkscape:groupmode="layer"
     id="layer1">
    <path
       id="path21"
       style="fill:#a8a8a8;stroke-width:0.331433;stroke-linecap:round;stroke-linejoin:round"
       d="M 3.4183144,0 C 3.3990861,-1.5627501e-4 3.3801377,3.2800248e-4 3.3609584,0.00155029 3.3363836,0.00314105 3.3117317,0.00552995 3.2875848,0.00930176 3.2392918,0.01684538 3.1922989,0.02902886 3.1465202,0.04495849 3.0320746,0.08478061 2.9270878,0.14977925 2.8401058,0.23667806 2.7790842,0.29799248 2.7295106,0.36693802 2.6918074,0.44131672 h -5.167e-4 v 5.1677e-4 h 5.167e-4 C 2.5789062,0.66488485 2.5728994,0.93363482 2.6871569,1.1673706 L 1.4449644,2.409672 1.1674863,2.6866577 C 0.88015098,2.5461506 0.54232287,2.5895505 0.29888161,2.7879435 l -5.1672e-4,-5.168e-4 -5.1672e-4,-5.168e-4 c -0.0206053,0.016809 -0.0408066,0.034179 -0.0599394,0.053227 -0.18164469,0.1816957 -0.26437433,0.4349519 -0.23045664,0.6831622 v 5.167e-4 c 0.00144043,0.010297 0.00383647,0.019853 0.00671735,0.028422 0.0011804,0.00347 0.0022167,0.00664 0.0036171,0.00982 h 5.1672e-4 v 5.168e-4 c 0.0013204,0.00295 0.0026333,0.00608 0.0041337,0.00879 h 5.1672e-4 v 5.167e-4 c 0.0015105,0.00267 0.00297,0.00531 0.0046505,0.00775 0.0013904,0.00206 0.0026333,0.0038 0.0041337,0.00568 5.2586e-4,6.618e-4 0.00101,0.00144 0.0015502,0.00207 l 5.1672e-4,5.167e-4 5.1671e-4,5.168e-4 c 0.0026208,0.003 0.0053865,0.00617 0.0082675,0.00879 5.2195e-4,5.029e-4 0.00102,0.00105 0.0015502,0.00155 0.01199467,0.011205 0.02662914,0.01775 0.04237096,0.020154 0.003251,5.029e-4 0.0064566,9.3e-4 0.0098176,0.00103 0.003251,1.114e-4 0.0064866,2.491e-4 0.0098176,0 0.002351,-1.376e-4 0.004854,-1.851e-4 0.007234,-5.168e-4 0.004362,-6.618e-4 0.008998,-0.00183 0.0134347,-0.0031 0.005362,-0.00145 0.0106007,-0.0033 0.0160183,-0.00568 0.016251,-0.00712 0.0325212,-0.018569 0.0480549,-0.034106 L 0.4017087,3.365686 0.50246891,3.2649169 a 0.18862919,0.18797544 46.434646 0 1 0.0186019,-0.01602 0.18862966,0.1879759 46.434627 0 1 0.0656234,-0.032556 0.18862919,0.18797544 46.434646 0 1 0.0733741,-0.00465 0.18862966,0.1879759 46.434627 0 1 0.0475381,0.012919 0.18862966,0.1879759 46.434627 0 1 0.022219,0.010852 0.18862919,0.18797544 46.434646 0 1 0.0387539,0.029972 L 0.96803276,3.464388 v 5.167e-4 l 0.001034,0.00103 a 0.18883689,0.18818242 46.434609 0 1 0.0155015,0.01757 0.18883743,0.18818295 46.434592 0 1 5.1672e-4,0.00103 0.18883743,0.18818295 46.434592 0 1 -0.016535,0.2464965 L 0.86778927,3.8328409 0.65748463,4.0426472 c -0.0475965,0.047533 -0.0553247,0.10255 -0.0273861,0.1395264 4.7374e-4,7.147e-4 9.992e-4,0.00141 0.00155,0.00207 0.001771,0.00198 0.003954,0.00368 0.005684,0.00568 v 5.168e-4 h 5.1672e-4 v 5.168e-4 c 9.2897e-4,9.264e-4 0.001764,0.00212 0.002584,0.0031 l 5.1672e-4,5.167e-4 5.1672e-4,5.168e-4 c 4.5794e-4,5.295e-4 0.001049,0.00102 0.00155,0.00155 3.5201e-4,3.706e-4 0.001227,0.00121 0.00155,0.00155 l 5.1671e-4,5.167e-4 h 5.1673e-4 c 0.007732,0.00672 0.0166518,0.012873 0.0273861,0.01757 0.0107453,0.00471 0.0232094,0.0079 0.0372037,0.00982 0.0141784,0.00196 0.0286283,0.00348 0.0428876,0.00465 0.0126239,0.00101 0.0249785,0.00162 0.0377205,0.00207 0.0116936,4.235e-4 0.0233713,5.696e-4 0.0351369,5.167e-4 0.0154927,-1.261e-4 0.030997,-5.462e-4 0.0465047,-0.00155 0.0245735,-0.00159 0.0492277,-0.00398 0.0733741,-0.00775 C 0.99410753,4.2164941 1.0410993,4.2043071 1.086878,4.1883771 1.2013237,4.1485528 1.3068273,4.083554 1.3938093,3.9966552 1.4547199,3.9354532 1.5044295,3.8662414 1.5421076,3.7920165 V 3.7914998 C 1.6552151,3.5683814 1.6610607,3.2998378 1.5467581,3.0659627 L 2.1166991,2.4959716 V 2.2401733 c 0,-0.3680713 0.4119149,-0.6214455 0.7363247,-0.4811076 h 5.167e-4 L 3.0659121,1.5466756 c 0.2873354,0.1405069 0.6251637,0.097108 0.8686046,-0.1012858 l 5.167e-4,5.167e-4 5.168e-4,5.168e-4 c 0.020604,-0.016811 0.040806,-0.034178 0.05994,-0.053227 C 4.1770094,1.2116254 4.2596821,0.95808143 4.2259462,0.71003417 V 0.7095174 C 4.225258,0.7044654 4.2238859,0.6996599 4.222846,0.695048 v -5.1676e-4 c -0.00204,-0.008864 -0.00449,-0.0164617 -0.00775,-0.0237712 -0.00135,-0.003071 -0.00258,-0.005974 -0.00413,-0.008785 v -5.1676e-4 h -5.167e-4 c -9.792e-4,-0.001771 -0.00204,-0.003498 -0.0031,-0.005168 -5.557e-4,-8.7825e-4 -0.00155,-0.002715 -0.00207,-0.003617 -0.00172,-0.002491 -0.00328,-0.004477 -0.00517,-0.006718 V 0.64543863 H 4.1995936 L 4.1990769,0.64492186 4.1985601,0.6444051 v -5.1677e-4 c -0.00235,-0.002981 -0.00514,-0.005199 -0.00775,-0.007751 -0.00983,-0.009635 -0.021482,-0.0160973 -0.034104,-0.019637 -0.00305,-9.0533e-4 -0.00613,-0.001517 -0.0093,-0.002067 -0.00324,-5.0554e-4 -0.00647,-9.1147e-4 -0.00982,-0.001034 -0.00325,-1.2135e-4 -0.00649,-2.3811e-4 -0.00982,0 -0.011934,8.5501e-4 -0.024264,0.00377 -0.036687,0.009302 -0.00545,0.002371 -0.011101,0.004966 -0.016535,0.008268 v 5.1676e-4 h -5.168e-4 c -0.010668,0.006553 -0.021294,0.0150944 -0.03152,0.0253214 L 3.8316897,0.86764728 3.7309294,0.96841632 a 0.18862966,0.18797591 46.434649 0 1 -0.018601,0.0160197 0.18862966,0.18797591 46.434649 0 1 -0.065623,0.0325562 0.18862966,0.18797591 46.434649 0 1 -0.073375,0.00465 0.18862966,0.18797591 46.434649 0 1 -0.047538,-0.012919 0.18862966,0.18797591 46.434649 0 1 -0.060973,-0.0408243 L 3.2653656,0.7689453 3.2648488,0.76842853 a 0.1888369,0.18818242 46.434588 0 1 -5.166e-4,-0.001034 0.18883742,0.18818295 46.434613 0 1 -0.015502,-0.01757 0.1888369,0.18818242 46.434588 0 1 -5.166e-4,-0.001034 0.18883742,0.18818295 46.434613 0 1 0.016535,-0.24649658 L 3.3656091,0.40049234 3.5759137,0.19068603 c 0.047621,-0.0475568 0.055376,-0.10255031 0.027387,-0.13952636 -0.00188,-0.0028614 -0.00494,-0.0051102 -0.00723,-0.0077515 v -5.1676e-4 h -5.168e-4 v -5.1677e-4 c -0.00108,-0.0010905 -0.00212,-0.0024469 -0.0031,-0.0036174 L 3.591932,0.03824056 3.5914153,0.03772379 c -2.642e-4,-2.4976e-4 -7.685e-4,-7.6342e-4 -0.00103,-0.0010335 -3.573e-4,-3.7418e-4 -0.00123,-0.0012086 -0.00155,-0.0015503 L 3.5883188,0.03462323 H 3.587802 C 3.583832,0.03116153 3.579642,0.02829293 3.574884,0.02532143 3.570284,0.02242003 3.565794,0.01940443 3.560416,0.01705323 3.5497044,0.01233093 3.5372067,0.00915562 3.5232084,0.0072347 3.5079867,0.0051437 3.4929768,0.00320761 3.4777371,0.00206706 3.4661026,0.00119464 3.4543378,9.4697079e-4 3.4426003,5.1676431e-4 3.4346179,2.2532443e-4 3.4263349,6.5231309e-5 3.4183144,0 Z" />
    <path
       style="color:#000000;display:inline;fill:#499c54;fill-opacity:1;stroke:none;stroke-width:1.14203;stroke-linecap:square;-inkscape-stroke:none;paint-order:markers stroke fill"
       d="M 9.4700011,15.152002 5.5299989,8.8479983 a 0.625,0.625 0 0 0 -1.0599978,0 L 0.52999894,15.152002 A 0.55424764,0.55424764 61.002692 0 0 1,16 h 8 a 0.55424764,0.55424764 118.99731 0 0 0.4700011,-0.847998 z"
       id="path40-3"
       inkscape:path-effect="#path-effect1-551"
       inkscape:original-d="M 10,16 5,8 0,16 Z"
       transform="matrix(0,0.23238378,-0.2309762,0,6.2091609,2.0130811)" />
  </g>
</svg>
