<?xml version="1.0" encoding="UTF-8" standalone="no"?>
<!-- Created with Inkscape (http://www.inkscape.org/) -->

<svg
   width="16"
   height="16"
   viewBox="0 0 4.2333332 4.2333333"
   version="1.1"
   id="svg1"
   inkscape:version="1.4.3 (0d15f75, 2025-12-25)"
   sodipodi:docname="locked.svg"
   xml:space="preserve"
   xmlns:inkscape="http://www.inkscape.org/namespaces/inkscape"
   xmlns:sodipodi="http://sodipodi.sourceforge.net/DTD/sodipodi-0.dtd"
   xmlns="http://www.w3.org/2000/svg"
   xmlns:svg="http://www.w3.org/2000/svg"><sodipodi:namedview
     id="namedview1"
     pagecolor="#ffffff"
     bordercolor="#000000"
     borderopacity="0.25"
     inkscape:showpageshadow="false"
     inkscape:pageopacity="0.0"
     inkscape:pagecheckerboard="0"
     inkscape:deskcolor="#ffffff"
     inkscape:document-units="px"
     showgrid="true"
     inkscape:zoom="19.588152"
     inkscape:cx="3.8798965"
     inkscape:cy="7.3769084"
     inkscape:window-width="1728"
     inkscape:window-height="990"
     inkscape:window-x="0"
     inkscape:window-y="33"
     inkscape:window-maximized="1"
     inkscape:current-layer="layer1"
     showguides="true"><inkscape:grid
       id="grid1"
       units="px"
       originx="0"
       originy="0"
       spacingx="0.26458333"
       spacingy="0.26458333"
       empcolor="#0099e5"
       empopacity="0.30196078"
       color="#0099e5"
       opacity="0.14901961"
       empspacing="5"
       enabled="true"
       visible="true" /></sodipodi:namedview><defs
     id="defs1" /><g
     inkscape:label="Layer 1"
     inkscape:groupmode="layer"
     id="layer1"><path
       id="path2"
       style="fill:#a8a8a8;stroke-width:0.529167;stroke-linecap:round;stroke-linejoin:round"
       d="M 2.3816631,2.9111271 A 0.26448001,0.26464793 0 0 1 2.1171831,3.175775 0.26448001,0.26464793 0 0 1 1.852703,2.9111271 a 0.26448001,0.26464793 0 0 1 0.2644801,-0.264648 0.26448001,0.26464793 0 0 1 0.26448,0.264648 z" /><path
       id="rect2"
       style="baseline-shift:baseline;display:inline;overflow:visible;vector-effect:none;fill:#a8a8a8;fill-rule:evenodd;stroke-width:1;enable-background:accumulate;stop-color:#000000"
       d="M 2.1171831,0 C 1.682111,-1.0002442e-7 1.3247763,0.35807854 1.3247763,0.79342693 v 5.1688e-4 h -0.00103 V 1.5878877 H 1.8527031 V 0.79394381 h 0.00103 v -5.1688e-4 c 0,-0.14929545 0.1142462,-0.26361416 0.2634469,-0.26361416 0.1492008,0 0.2660298,0.11431871 0.2660297,0.26361416 v 5.1688e-4 h -0.00155 V 1.5878877 h 0.52896 V 0.79394381 h 0.00155 V 0.79342693 C 2.912173,0.35807854 2.5522554,-1.0002442e-7 2.1171831,0 Z M 1.0850912,1.5884045 c -0.15754268,2e-7 -0.29134166,0.1333667 -0.29134124,0.2910093 v 2.0629101 c 4.35e-6,0.1576395 0.1338017,0.2910091 0.29134124,0.2910093 h 2.0636674 c 0.1575399,-2e-6 0.2908228,-0.1333694 0.2908247,-0.2910093 V 1.8794138 C 3.4395814,1.721774 3.3062985,1.5884065 3.1487586,1.5884045 Z m 0.2381354,0.5292959 h 1.58688 v 1.5884045 h -1.58688 z" /></g></svg>
