<?xml version="1.0" encoding="UTF-8" standalone="no"?>
<!-- Created with Inkscape (http://www.inkscape.org/) -->

<svg
   width="16"
   height="16"
   viewBox="0 0 4.2333332 4.2333333"
   version="1.1"
   id="svg1"
   inkscape:version="1.4.3 (0d15f75, 2025-12-25)"
   sodipodi:docname="new-enum.svg"
   xmlns:inkscape="http://www.inkscape.org/namespaces/inkscape"
   xmlns:sodipodi="http://sodipodi.sourceforge.net/DTD/sodipodi-0.dtd"
   xmlns="http://www.w3.org/2000/svg"
   xmlns:svg="http://www.w3.org/2000/svg">
  <sodipodi:namedview
     id="namedview1"
     pagecolor="#ffffff"
     bordercolor="#000000"
     borderopacity="0.25"
     inkscape:showpageshadow="false"
     inkscape:pageopacity="0.0"
     inkscape:pagecheckerboard="0"
     inkscape:deskcolor="#ffffff"
     inkscape:document-units="px"
     showgrid="true"
     inkscape:zoom="14.904485"
     inkscape:cx="2.8179437"
     inkscape:cy="4.4952911"
     inkscape:window-width="2894"
     inkscape:window-height="1308"
     inkscape:window-x="906"
     inkscape:window-y="89"
     inkscape:window-maximized="0"
     inkscape:current-layer="layer1"
     showguides="true">
    <inkscape:grid
       id="grid1"
       units="px"
       originx="0"
       originy="0"
       spacingx="0.26458333"
       spacingy="0.26458333"
       empcolor="#0099e5"
       empopacity="0.30196078"
       color="#0099e5"
       opacity="0.14901961"
       empspacing="5"
       enabled="true"
       visible="true" />
  </sodipodi:namedview>
  <defs
     id="defs1" />
  <g
     inkscape:label="Layer 1"
     inkscape:groupmode="layer"
     id="layer1">
    <path
       id="path1"
       style="fill:#a8a8a8;stroke-width:0.529167;stroke-linecap:round;stroke-linejoin:round"
       d="M 2.1166666 0 A 2.1166666 2.1166666 0 0 0 0 2.1166666 A 2.1166666 2.1166666 0 0 0 2.1166666 4.2333332 A 2.1166666 2.1166666 0 0 0 2.5517822 4.187858 C 2.5269575 4.1189778 2.5135416 4.0453313 2.5135416 3.9687499 L 2.5135416 3.8364583 L 2.38125 3.8364583 C 2.2356508 3.8364583 2.0997879 3.7874173 1.9895426 3.7052001 L 1.5880167 3.7052001 A 0.264584 0.264584 0 0 1 1.3223999 3.4395833 L 1.3223999 2.1171834 A 0.2645835 0.2645835 0 0 1 1.3223999 2.1151163 L 1.3223999 0.79530028 A 0.2645835 0.2645835 0 0 1 1.3223999 0.79271646 A 0.264584 0.264584 0 0 1 1.5880167 0.52916666 L 2.7207641 0.52916666 A 0.2645835 0.2645835 0 0 1 2.986381 0.79271646 A 0.2645835 0.2645835 0 0 1 2.7207641 1.0588501 L 1.8515665 1.0588501 L 1.8515665 1.8515665 L 2.7207641 1.8515665 A 0.2645835 0.2645835 0 0 1 2.7755411 1.8572509 C 2.8871672 1.7714276 3.0258984 1.7197916 3.1749999 1.7197916 C 3.5356124 1.7197916 3.8364583 2.0206494 3.8364583 2.38125 L 3.8364583 2.5135416 L 3.9687499 2.5135416 C 4.0453301 2.5135416 4.1189773 2.5269555 4.187858 2.5517822 A 2.1166666 2.1166666 0 0 0 4.2333332 2.1166666 A 2.1166666 2.1166666 0 0 0 2.1166666 0 z M 1.8515665 2.3807332 L 1.8515665 2.7827758 C 1.9730157 2.620356 2.1665388 2.5135416 2.38125 2.5135416 L 2.5135416 2.5135416 L 2.5135416 2.38125 L 2.5135416 2.3807332 L 1.8515665 2.3807332 z M 3.1749999 3.0427083 A 0.39691468 0.39691468 0 0 1 3.0427083 3.1749999 A 0.39691468 0.39691468 0 0 1 3.1749999 3.3072916 A 0.39691468 0.39691468 0 0 1 3.3072916 3.1749999 A 0.39691468 0.39691468 0 0 1 3.1749999 3.0427083 z " />
    <path
       id="path1-6"
       style="baseline-shift:baseline;display:inline;overflow:visible;vector-effect:none;fill:#499c54;stroke-width:0.264583;stroke-linecap:round;stroke-linejoin:round;enable-background:accumulate;stop-color:#000000"
       d="M 3.1749999,2.1166666 A 0.26458333,0.26458333 0 0 0 2.9104165,2.3812499 V 2.9104166 H 2.3812499 A 0.26458333,0.26458333 0 0 0 2.1166665,3.1749999 0.26458333,0.26458333 0 0 0 2.3812499,3.4395833 H 2.9104165 V 3.9687499 A 0.26458333,0.26458333 0 0 0 3.1749999,4.2333332 0.26458333,0.26458333 0 0 0 3.4395832,3.9687499 V 3.4395833 H 3.9687499 A 0.26458333,0.26458333 0 0 0 4.2333332,3.1749999 0.26458333,0.26458333 0 0 0 3.9687499,2.9104166 H 3.4395832 V 2.3812499 A 0.26458333,0.26458333 0 0 0 3.1749999,2.1166666 Z" />
  </g>
</svg>
