<?xml version="1.0" encoding="UTF-8" standalone="no"?>
<!-- Created with Inkscape (http://www.inkscape.org/) -->

<svg
   width="16"
   height="16"
   viewBox="0 0 4.2333332 4.2333333"
   version="1.1"
   id="svg1"
   inkscape:version="1.4.3 (0d15f75, 2025-12-25)"
   sodipodi:docname="new-record.svg"
   xmlns:inkscape="http://www.inkscape.org/namespaces/inkscape"
   xmlns:sodipodi="http://sodipodi.sourceforge.net/DTD/sodipodi-0.dtd"
   xmlns="http://www.w3.org/2000/svg"
   xmlns:svg="http://www.w3.org/2000/svg">
  <sodipodi:namedview
     id="namedview1"
     pagecolor="#ffffff"
     bordercolor="#000000"
     borderopacity="0.25"
     inkscape:showpageshadow="false"
     inkscape:pageopacity="0.0"
     inkscape:pagecheckerboard="0"
     inkscape:deskcolor="#ffffff"
     inkscape:document-units="px"
     showgrid="true"
     inkscape:zoom="21.078125"
     inkscape:cx="9.2750185"
     inkscape:cy="15.679763"
     inkscape:window-width="1684"
     inkscape:window-height="1317"
     inkscape:window-x="1943"
     inkscape:window-y="120"
     inkscape:window-maximized="0"
     inkscape:current-layer="layer1"
     showguides="true">
    <inkscape:grid
       id="grid1"
       units="px"
       originx="0"
       originy="0"
       spacingx="0.26458333"
       spacingy="0.26458333"
       empcolor="#0099e5"
       empopacity="0.30196078"
       color="#0099e5"
       opacity="0.14901961"
       empspacing="5"
       enabled="true"
       visible="true" />
  </sodipodi:namedview>
  <defs
     id="defs1" />
  <g
     inkscape:label="Layer 1"
     inkscape:groupmode="layer"
     id="layer1">
    <path
       id="path2"
       style="fill:#a8a8a8;fill-opacity:1;stroke:none;stroke-width:0.529167;stroke-linecap:round;stroke-linejoin:round;stroke-dasharray:none;stroke-opacity:1"
       d="M 2.1166666 0 A 2.1166666 2.1166666 0 0 0 0 2.1166666 A 2.1166666 2.1166666 0 0 0 2.1166666 4.2333332 A 2.1166666 2.1166666 0 0 0 2.5517822 4.187858 C 2.5269576 4.118978 2.5135416 4.045331 2.5135416 3.9687499 L 2.5135416 3.8364583 L 2.38125 3.8364583 C 2.1554757 3.8364583 1.9532346 3.7185902 1.8334798 3.5419026 A 0.26458451 0.26270096 0 0 1 1.5880167 3.7088175 A 0.26458451 0.26270096 0 0 1 1.3223999 3.4452677 L 1.3223999 0.98857013 A 0.26458451 0.26270096 0 0 1 1.3229166 0.96893309 L 1.3229166 0.95756427 C 1.3229166 0.86851427 1.3653766 0.73717807 1.4293701 0.67541096 C 1.6081942 0.50280842 1.8511185 0.3963582 2.1171834 0.39635823 C 2.6620195 0.39635823 3.1093709 0.8437096 3.1093709 1.3885457 C 3.1093709 1.509274 3.0875085 1.625364 3.0473592 1.7327107 C 3.0887884 1.7243398 3.1313969 1.7197916 3.1749999 1.7197916 C 3.5356126 1.7197917 3.8364583 2.020649 3.8364583 2.38125 L 3.8364583 2.5135416 L 3.9687499 2.5135416 C 4.04533 2.5135416 4.1189773 2.5269556 4.187858 2.5517822 A 2.1166666 2.1166666 0 0 0 4.2333332 2.1166666 A 2.1166666 2.1166666 0 0 0 2.1166666 0 z M 2.1171834 0.92552488 C 2.0177494 0.92552487 1.9263889 0.95539385 1.8515665 1.0071736 L 1.8515665 1.7699178 C 1.9263885 1.8216978 2.0177494 1.8515665 2.1171834 1.8515665 C 2.376037 1.8515665 2.5802042 1.6473993 2.5802042 1.3885457 C 2.5802042 1.1296921 2.376037 0.92552504 2.1171834 0.92552488 z M 2.519226 2.2944335 C 2.5043761 2.301095 2.4894843 2.3076145 2.4742675 2.3135538 L 2.5135416 2.3672973 C 2.514069 2.3427451 2.5159909 2.3183208 2.519226 2.2944335 z M 1.8515665 2.3740153 L 1.8515665 2.7827758 C 1.9004 2.7174684 1.9610195 2.6608622 2.0298502 2.6168945 L 1.8515665 2.3740153 z M 3.1749999 3.0427083 A 0.39691468 0.39691468 0 0 1 3.0840494 3.1460611 L 3.1718994 3.2654337 A 0.26945602 0.26945602 0 0 1 3.1868855 3.2886881 A 0.39691468 0.39691468 0 0 1 3.3072916 3.1749999 A 0.39691468 0.39691468 0 0 1 3.1749999 3.0427083 z " />
    <path
       id="path1"
       style="baseline-shift:baseline;display:inline;overflow:visible;vector-effect:none;fill:#499c54;stroke-width:0.264583;stroke-linecap:round;stroke-linejoin:round;enable-background:accumulate;stop-color:#000000"
       d="m 3.175,2.1166673 a 0.26458333,0.26458333 0 0 0 -0.2645833,0.264583 v 0.529167 H 2.38125 A 0.26458333,0.26458333 0 0 0 2.1166667,3.1750003 0.26458333,0.26458333 0 0 0 2.38125,3.4395833 h 0.5291667 v 0.529167 A 0.26458333,0.26458333 0 0 0 3.175,4.2333332 0.26458333,0.26458333 0 0 0 3.4395833,3.9687503 V 3.4395833 H 3.96875 A 0.26458333,0.26458333 0 0 0 4.2333332,3.1750003 0.26458333,0.26458333 0 0 0 3.96875,2.9104173 H 3.4395833 V 2.3812503 A 0.26458333,0.26458333 0 0 0 3.175,2.1166673 Z" />
  </g>
</svg>
