<?xml version="1.0" encoding="UTF-8" standalone="no"?>
<!-- Created with Inkscape (http://www.inkscape.org/) -->

<svg
   width="16"
   height="16"
   viewBox="0 0 4.2333332 4.2333333"
   version="1.1"
   id="svg1"
   inkscape:version="1.4.3 (0d15f75, 2025-12-25)"
   sodipodi:docname="new-record.svg"
   xmlns:inkscape="http://www.inkscape.org/namespaces/inkscape"
   xmlns:sodipodi="http://sodipodi.sourceforge.net/DTD/sodipodi-0.dtd"
   xmlns="http://www.w3.org/2000/svg"
   xmlns:svg="http://www.w3.org/2000/svg">
  <sodipodi:namedview
     id="namedview1"
     pagecolor="#ffffff"
     bordercolor="#000000"
     borderopacity="0.25"
     inkscape:showpageshadow="false"
     inkscape:pageopacity="0.0"
     inkscape:pagecheckerboard="0"
     inkscape:deskcolor="#ffffff"
     inkscape:document-units="px"
     showgrid="true"
     inkscape:zoom="13.940505"
     inkscape:cx="3.1562701"
     inkscape:cy="15.24335"
     inkscape:window-width="1728"
     inkscape:window-height="990"
     inkscape:window-x="0"
     inkscape:window-y="344"
     inkscape:window-maximized="1"
     inkscape:current-layer="layer1"
     showguides="true">
    <inkscape:grid
       id="grid1"
       units="px"
       originx="0"
       originy="0"
       spacingx="0.26458333"
       spacingy="0.26458333"
       empcolor="#0099e5"
       empopacity="0.30196078"
       color="#0099e5"
       opacity="0.14901961"
       empspacing="5"
       enabled="true"
       visible="true" />
  </sodipodi:namedview>
  <defs
     id="defs1" />
  <g
     inkscape:label="Layer 1"
     inkscape:groupmode="layer"
     id="layer1">
    <path
       id="path9"
       style="fill:#a8a8a8;fill-opacity:1;stroke:none;stroke-width:0.529168;stroke-linecap:butt;stroke-linejoin:round;stroke-dasharray:none;stroke-opacity:1"
       d="M 2.1166666 0 A 2.1166668 2.1166668 0 0 0 0 2.1166666 A 2.1166668 2.1166668 0 0 0 2.1166666 4.2333332 A 2.1166668 2.1166668 0 0 0 2.5517822 4.187858 C 2.5269009 4.1189631 2.5135417 4.0453007 2.5135416 3.9687499 L 2.5135416 3.8359415 L 2.3807332 3.8359415 C 2.020121 3.8359415 1.7208257 3.5366456 1.7208252 3.1760335 C 1.7208254 3.0369727 1.7653471 2.9064454 1.8407145 2.7987955 L 1.6732828 2.3807332 C 1.6566648 2.3802832 1.640453 2.3793498 1.624707 2.3786661 C 1.612171 2.3781261 1.6000347 2.3778556 1.5880167 2.3771158 L 1.5880167 3.4333821 A 0.2645835 0.2645835 0 0 1 1.3239502 3.698999 A 0.2645835 0.2645835 0 0 1 1.0583333 3.4333821 L 1.0583333 0.80098468 A 0.2645835 0.2645835 0 0 1 1.3239502 0.53485106 A 0.2645835 0.2645835 0 0 1 1.3689087 0.53898518 C 1.4171881 0.53502318 1.5002162 0.52933016 1.5957682 0.52916666 C 1.7473217 0.52890736 1.9311284 0.53474227 2.1151163 0.60564777 C 2.4683987 0.74179607 2.64635 1.106033 2.64635 1.4665771 C 2.64635 1.7936576 2.4989677 2.1232285 2.201416 2.2789306 L 2.2975341 2.5187093 C 2.3248458 2.5151399 2.3525595 2.5135416 2.3807332 2.5135416 L 2.5135416 2.5135416 L 2.5135416 2.3807332 C 2.513542 2.020121 2.8154213 1.7208253 3.1760335 1.7208252 C 3.5366456 1.7208253 3.8359411 2.020121 3.8359415 2.3807332 L 3.8359415 2.5135416 L 3.9687499 2.5135416 C 4.0453008 2.5135417 4.1189631 2.5269009 4.187858 2.5517822 A 2.1166668 2.1166668 0 0 0 4.2333332 2.1166666 A 2.1166668 2.1166668 0 0 0 2.1166666 0 z M 1.5880167 1.0583333 L 1.5880167 1.8479492 C 1.6067157 1.8494992 1.6271132 1.8506378 1.6484782 1.8515665 C 1.7554553 1.8562135 1.8851524 1.8403746 1.9373494 1.8184936 C 2.0792074 1.7590255 2.1171834 1.6867601 2.1171834 1.4665771 C 2.1171835 1.2488061 2.06042 1.1516845 1.9254638 1.0996745 C 1.8653319 1.0765005 1.716741 1.0581264 1.5957682 1.0583333 C 1.5932382 1.0583377 1.5905267 1.0583193 1.5880167 1.0583333 z " />
    <path
       id="path1"
       style="baseline-shift:baseline;display:inline;overflow:visible;vector-effect:none;fill:#499c54;stroke-width:0.264583;stroke-linecap:round;stroke-linejoin:round;enable-background:accumulate;stop-color:#000000"
       d="m 3.175,2.1166673 a 0.26458333,0.26458333 0 0 0 -0.2645833,0.264583 v 0.529167 H 2.38125 A 0.26458333,0.26458333 0 0 0 2.1166667,3.1750003 0.26458333,0.26458333 0 0 0 2.38125,3.4395833 h 0.5291667 v 0.529167 A 0.26458333,0.26458333 0 0 0 3.175,4.2333332 0.26458333,0.26458333 0 0 0 3.4395833,3.9687503 V 3.4395833 H 3.96875 A 0.26458333,0.26458333 0 0 0 4.2333332,3.1750003 0.26458333,0.26458333 0 0 0 3.96875,2.9104173 H 3.4395833 V 2.3812503 A 0.26458333,0.26458333 0 0 0 3.175,2.1166673 Z" />
  </g>
</svg>
