<?xml version="1.0" encoding="UTF-8" standalone="no"?>
<!-- Created with Inkscape (http://www.inkscape.org/) -->

<svg
   width="16"
   height="16"
   viewBox="0 0 4.2333332 4.2333333"
   version="1.1"
   id="svg1"
   inkscape:version="1.4.3 (0d15f75, 2025-12-25)"
   sodipodi:docname="new-package.svg"
   xml:space="preserve"
   xmlns:inkscape="http://www.inkscape.org/namespaces/inkscape"
   xmlns:sodipodi="http://sodipodi.sourceforge.net/DTD/sodipodi-0.dtd"
   xmlns="http://www.w3.org/2000/svg"
   xmlns:svg="http://www.w3.org/2000/svg"><sodipodi:namedview
     id="namedview1"
     pagecolor="#ffffff"
     bordercolor="#000000"
     borderopacity="0.25"
     inkscape:showpageshadow="false"
     inkscape:pageopacity="0.0"
     inkscape:pagecheckerboard="0"
     inkscape:deskcolor="#ffffff"
     inkscape:document-units="px"
     showgrid="true"
     inkscape:zoom="49.851028"
     inkscape:cx="9.9195547"
     inkscape:cy="9.207433"
     inkscape:window-width="2894"
     inkscape:window-height="1308"
     inkscape:window-x="832"
     inkscape:window-y="125"
     inkscape:window-maximized="0"
     inkscape:current-layer="layer1"
     showguides="true"><inkscape:grid
       id="grid1"
       units="px"
       originx="0"
       originy="0"
       spacingx="0.26458333"
       spacingy="0.26458333"
       empcolor="#0099e5"
       empopacity="0.30196078"
       color="#0099e5"
       opacity="0.14901961"
       empspacing="5"
       enabled="true"
       visible="true" /></sodipodi:namedview><defs
     id="defs1" /><g
     inkscape:label="Layer 1"
     inkscape:groupmode="layer"
     id="layer1"><path
       id="rect1"
       d="M 0.2645833,0 H 1.190625 A 0.26458332,0.26458332 45 0 1 1.4552083,0.26458332 V 1.190625 A 0.26458332,0.26458332 135 0 1 1.190625,1.4552083 H 0.2645833 A 0.26458332,0.26458332 45 0 1 -1.5595054e-8,1.190625 V 0.26458332 A 0.26458332,0.26458332 135 0 1 0.2645833,0 Z"
       style="fill:#a8a8a8;fill-opacity:1;fill-rule:evenodd;stroke-width:0.264583" /><path
       id="rect1-7"
       transform="translate(2.7781249)"
       d="M 0.2645833,0 H 1.190625 A 0.26458332,0.26458332 45 0 1 1.4552083,0.26458332 V 1.190625 A 0.26458332,0.26458332 135 0 1 1.190625,1.4552083 H 0.2645833 A 0.26458332,0.26458332 45 0 1 -1.5595054e-8,1.190625 V 0.26458332 A 0.26458332,0.26458332 135 0 1 0.2645833,0 Z"
       style="fill:#a8a8a8;fill-opacity:1;fill-rule:evenodd;stroke-width:0.264583" /><path
       id="rect1-2"
       style="fill:#a8a8a8;fill-opacity:1;fill-rule:evenodd;stroke-width:0.264583"
       d="M 1.4552083 1.0004559 C 1.3736303 1.0368335 1.2839683 1.0572999 1.1901083 1.0572999 L 1.0572998 1.0572999 L 1.0572998 1.1901084 C 1.0572998 1.2839684 1.0368334 1.3736304 1.0004558 1.4552084 L 1.190625 1.4552084 A 0.26458332 0.26458332 0 0 0 1.4552083 1.1906251 L 1.4552083 1.0004559 z "
       transform="translate(2.7781249,2.7781248)" /><path
       id="rect1-76"
       transform="translate(1.5595054e-8,2.7781248)"
       d="M 0.2645833,0 H 1.190625 A 0.26458332,0.26458332 45 0 1 1.4552083,0.26458332 V 1.190625 A 0.26458332,0.26458332 135 0 1 1.190625,1.4552083 H 0.2645833 A 0.26458332,0.26458332 45 0 1 -1.5595054e-8,1.190625 V 0.26458332 A 0.26458332,0.26458332 135 0 1 0.2645833,0 Z"
       style="fill:#a8a8a8;fill-opacity:1;fill-rule:evenodd;stroke-width:0.264583" /><path
       id="path3"
       style="baseline-shift:baseline;display:inline;overflow:visible;vector-effect:none;fill:#a8a8a8;stroke-linecap:round;stroke-linejoin:round;enable-background:accumulate;stop-color:#000000"
       d="M 2.1171834 0.0041341145 A 0.26458299 0.26458299 0 0 0 1.8515665 0.26975097 L 1.8515665 1.8515665 L 0.27336832 1.8515665 A 0.26458299 0.26458299 0 0 0 0.0098185219 2.1171834 A 0.26458299 0.26458299 0 0 0 0.27336832 2.3807332 L 1.8515665 2.3807332 L 1.8515665 2.7817423 C 1.9726813 2.6194653 2.1657551 2.5130248 2.3802164 2.5130249 L 2.3807332 2.5130249 L 2.3807332 2.3807332 L 2.5130249 2.3807332 L 2.5130249 2.3802164 C 2.5130249 2.165755 2.6194653 1.9726813 2.7817423 1.8515665 L 2.3807332 1.8515665 L 2.3807332 0.26975097 A 0.26458299 0.26458299 0 0 0 2.1171834 0.0041341145 z M 3.5677408 1.8515665 C 3.7294579 1.9726813 3.8354247 2.165755 3.8354247 2.3802164 L 3.8354247 2.3807332 L 3.9687499 2.3807332 A 0.26458299 0.26458299 0 0 0 4.2322997 2.1171834 A 0.26458299 0.26458299 0 0 0 3.9687499 1.8515665 L 3.5677408 1.8515665 z M 1.8515665 3.5677408 L 1.8515665 3.9646158 A 0.26458299 0.26458299 0 0 0 2.1171834 4.2286824 A 0.26458299 0.26458299 0 0 0 2.3807332 3.9646158 L 2.3807332 3.8354247 L 2.3802164 3.8354247 C 2.1657551 3.8354248 1.9726814 3.7294578 1.8515665 3.5677408 z " /><path
       id="path1"
       style="baseline-shift:baseline;display:inline;overflow:visible;vector-effect:none;fill:#499c54;stroke-width:0.264583;stroke-linecap:round;stroke-linejoin:round;enable-background:accumulate;stop-color:#000000"
       d="M 3.1749999,2.1166666 A 0.26458333,0.26458333 0 0 0 2.9104165,2.3812499 V 2.9104166 H 2.3812499 A 0.26458333,0.26458333 0 0 0 2.1166665,3.1749999 0.26458333,0.26458333 0 0 0 2.3812499,3.4395833 H 2.9104165 V 3.9687499 A 0.26458333,0.26458333 0 0 0 3.1749999,4.2333332 0.26458333,0.26458333 0 0 0 3.4395832,3.9687499 V 3.4395833 H 3.9687499 A 0.26458333,0.26458333 0 0 0 4.2333332,3.1749999 0.26458333,0.26458333 0 0 0 3.9687499,2.9104166 H 3.4395832 V 2.3812499 A 0.26458333,0.26458333 0 0 0 3.1749999,2.1166666 Z" /></g></svg>
