<?xml version="1.0" encoding="UTF-8" standalone="no"?>
<svg
   width="16"
   height="16"
   viewBox="0 0 16 16"
   fill="none"
   version="1.1"
   id="svg6"
   sodipodi:docname="new-enum.svg"
   inkscape:version="1.4.2 (f4327f4, 2025-05-13)"
   inkscape:export-filename="import_config_obj_16x16.png"
   inkscape:export-xdpi="96"
   inkscape:export-ydpi="96"
   xmlns:inkscape="http://www.inkscape.org/namespaces/inkscape"
   xmlns:sodipodi="http://sodipodi.sourceforge.net/DTD/sodipodi-0.dtd"
   xmlns="http://www.w3.org/2000/svg"
   xmlns:svg="http://www.w3.org/2000/svg">
  <sodipodi:namedview
     id="namedview6"
     pagecolor="#ffffff"
     bordercolor="#0c0005"
     borderopacity="0.36078431"
     inkscape:showpageshadow="0"
     inkscape:pageopacity="0"
     inkscape:pagecheckerboard="0"
     inkscape:deskcolor="#ffffff"
     inkscape:zoom="14.133223"
     inkscape:cx="9.1274297"
     inkscape:cy="13.90341"
     inkscape:window-width="1972"
     inkscape:window-height="1211"
     inkscape:window-x="1711"
     inkscape:window-y="131"
     inkscape:window-maximized="0"
     inkscape:current-layer="svg6"
     showguides="true"
     showgrid="true"
     inkscape:lockguides="false">
    <inkscape:grid
       id="grid1"
       units="px"
       originx="0"
       originy="0"
       spacingx="1"
       spacingy="1"
       empcolor="#0099e5"
       empopacity="0.30196078"
       color="#0099e5"
       opacity="0.14901961"
       empspacing="5"
       enabled="true"
       visible="true" />
  </sodipodi:namedview>
  <defs
     id="defs6" />
  <path
     id="path1"
     style="fill:#a8a8a8;stroke-width:2;stroke-linecap:round;stroke-linejoin:round"
     d="M 8 0 A 7.9999995 7.9999995 0 0 0 0 8 A 7.9999995 7.9999995 0 0 0 8 16 A 7.9999995 7.9999995 0 0 0 9.6484375 15.828125 C 9.5562885 15.569739 9.5058594 15.293288 9.5058594 15.005859 L 9.5058594 14.503906 L 9.0039062 14.503906 C 8.4502132 14.503908 7.9324797 14.315043 7.5136719 14 L 6 14 A 1.000005 1.000005 0 0 1 5 13 L 5 8 L 5 3 A 1 1 0 0 1 6 2 L 10.285156 2 A 1 1 0 0 1 11.285156 3 A 1 1 0 0 1 10.285156 4 L 7 4 L 7 7 L 9.2871094 7 A 1 1 0 0 1 10.091797 7.40625 C 10.551732 6.8557514 11.2394 6.4999978 12 6.5 C 13.362944 6.500002 14.503906 7.6387671 14.503906 9.0019531 L 14.503906 9.4960938 L 15.005859 9.4960938 C 15.293736 9.496094 15.571355 9.5476031 15.830078 9.640625 A 7.9999995 7.9999995 0 0 0 16 8 A 7.9999995 7.9999995 0 0 0 8 0 z M 9.5058594 8.9765625 A 1 1 0 0 1 9.2871094 9 L 7 9 L 7 10.513672 C 7.4601747 9.8995499 8.1927232 9.496092 9.0039062 9.4960938 L 9.5058594 9.4960938 L 9.5058594 9.0019531 C 9.5058594 8.9930603 9.5057633 8.985436 9.5058594 8.9765625 z " />
  <path
     id="path1-2"
     style="baseline-shift:baseline;display:inline;overflow:visible;vector-effect:none;fill:#499c54;stroke-width:0.999999;stroke-linecap:round;stroke-linejoin:round;enable-background:accumulate;stop-color:#000000"
     d="m 12.000001,8 a 1,1 0 0 0 -1.000002,1 v 2 H 9.0000012 a 1,1 0 0 0 -1.0000026,1 1,1 0 0 0 1.0000026,1 h 1.9999978 v 2 A 1,1 0 0 0 12.000001,16 1,1 0 0 0 13,15 v -2 h 2.000001 A 1,1 0 0 0 16,12 1,1 0 0 0 15.000001,11 H 13 V 9 A 1,1 0 0 0 12.000001,8 Z" />
</svg>
