<?xml version="1.0" encoding="UTF-8" standalone="no"?>
<svg
   width="16"
   height="16"
   id="svg2"
   version="1.1"
   inkscape:version="1.4.3 (0d15f75, 2025-12-25)"
   sodipodi:docname="new_project.svg"
   inkscape:export-filename="C:\Users\D019122\OneDrive - SAP SE\Desktop\iam_package.png"
   inkscape:export-xdpi="96"
   inkscape:export-ydpi="96"
   xml:space="preserve"
   xmlns:inkscape="http://www.inkscape.org/namespaces/inkscape"
   xmlns:sodipodi="http://sodipodi.sourceforge.net/DTD/sodipodi-0.dtd"
   xmlns="http://www.w3.org/2000/svg"
   xmlns:svg="http://www.w3.org/2000/svg"
   xmlns:rdf="http://www.w3.org/1999/02/22-rdf-syntax-ns#"
   xmlns:cc="http://creativecommons.org/ns#"
   xmlns:dc="http://purl.org/dc/elements/1.1/"><defs
     id="defs4" /><sodipodi:namedview
     id="base"
     pagecolor="#ffffff"
     bordercolor="#666666"
     borderopacity="1.0"
     inkscape:pageopacity="0"
     inkscape:pageshadow="2"
     inkscape:zoom="24.976887"
     inkscape:cx="4.5442013"
     inkscape:cy="6.1857189"
     inkscape:document-units="px"
     inkscape:current-layer="svg2"
     showgrid="true"
     inkscape:window-width="1728"
     inkscape:window-height="990"
     inkscape:window-x="0"
     inkscape:window-y="344"
     inkscape:window-maximized="0"
     showguides="false"
     inkscape:guide-bbox="true"
     inkscape:snap-global="false"
     inkscape:snap-bbox="true"
     inkscape:bbox-nodes="true"
     inkscape:document-rotation="0"
     inkscape:showpageshadow="false"
     inkscape:pagecheckerboard="0"
     inkscape:deskcolor="#ffffff"><inkscape:grid
       type="xygrid"
       id="grid3999"
       originx="0"
       originy="0"
       spacingy="1"
       spacingx="1"
       units="px"
       visible="false"
       enabled="true" /><inkscape:grid
       id="grid1"
       units="px"
       originx="0"
       originy="0"
       spacingx="1"
       spacingy="1"
       empcolor="#0099e5"
       empopacity="0.30196078"
       color="#0099e5"
       opacity="0.14901961"
       empspacing="5"
       enabled="true"
       visible="true" /></sodipodi:namedview><metadata
     id="metadata7"><rdf:RDF><cc:Work
         rdf:about=""><dc:format>image/svg+xml</dc:format><dc:type
           rdf:resource="http://purl.org/dc/dcmitype/StillImage" /></cc:Work></rdf:RDF></metadata><path
     id="rect5"
     style="fill:#a8a8a8;stroke-width:2;stroke-linecap:round;paint-order:markers stroke fill"
     d="M 1 0 C 0.446 0 0 0.44464818 0 0.99804688 L 0 2.7226562 C 0 2.7718818 0.002945625 2.8199068 0.009765625 2.8671875 C 0.002941125 2.9145202 0 2.962439 0 3.0117188 L 0 12 C 0 12.554 0.4460002 13 1 13 L 6.7148438 13 C 6.5774856 12.692527 6.5 12.353878 6.5 12 C 6.5 11.649116 6.5757611 11.313206 6.7109375 11.007812 L 5.9980469 11.417969 A 0.25922069 0.25922069 0 0 1 5.6152344 11.138672 L 6.0898438 8.9101562 L 4.4121094 7.3964844 A 0.26864272 0.26864272 0 0 1 4.5644531 6.9296875 L 6.8105469 6.6953125 L 7.7714844 4.546875 A 0.22609391 0.22609391 0 0 1 7.9765625 4.4121094 A 0.22609391 0.22609391 0 0 1 8.1835938 4.546875 L 9.140625 6.6972656 L 10.712891 6.8652344 C 11.090569 6.6342734 11.532309 6.5 12 6.5 C 13.362945 6.5 14.5 7.6370551 14.5 9 L 14.5 9.5 L 15 9.5 C 15.353878 9.5 15.692527 9.5774856 16 9.7148438 L 16 3.0117188 C 16 2.4577186 15.554 2.0117188 15 2.0117188 L 8.9980469 2.0117188 L 7.65625 0.66015625 A 2.2361013 2.233673 0 0 0 6.0683594 0 L 1 0 z " /><path
     id="path1"
     style="baseline-shift:baseline;display:inline;overflow:visible;vector-effect:none;fill:#499c54;stroke-linecap:round;stroke-linejoin:round;enable-background:accumulate;stop-color:#000000"
     d="m 12,8 a 1,1 0 0 0 -1,1 v 2 H 9 a 1,1 0 0 0 -1,1 1,1 0 0 0 1,1 h 2 v 2 a 1,1 0 0 0 1,1 1,1 0 0 0 1,-1 v -2 h 2 a 1,1 0 0 0 1,-1 1,1 0 0 0 -1,-1 H 13 V 9 A 1,1 0 0 0 12,8 Z" /></svg>
