<?xml version="1.0" encoding="UTF-8" standalone="no"?>
<svg
   width="16"
   height="16"
   id="svg2"
   version="1.1"
   inkscape:version="1.4.3 (0d15f75, 2025-12-25)"
   sodipodi:docname="new_text_file.svg"
   inkscape:export-filename="C:\Users\D019122\OneDrive - SAP SE\Desktop\iam_package.png"
   inkscape:export-xdpi="96"
   inkscape:export-ydpi="96"
   xml:space="preserve"
   xmlns:inkscape="http://www.inkscape.org/namespaces/inkscape"
   xmlns:sodipodi="http://sodipodi.sourceforge.net/DTD/sodipodi-0.dtd"
   xmlns="http://www.w3.org/2000/svg"
   xmlns:svg="http://www.w3.org/2000/svg"
   xmlns:rdf="http://www.w3.org/1999/02/22-rdf-syntax-ns#"
   xmlns:cc="http://creativecommons.org/ns#"
   xmlns:dc="http://purl.org/dc/elements/1.1/"><defs
     id="defs4" /><sodipodi:namedview
     id="base"
     pagecolor="#ffffff"
     bordercolor="#666666"
     borderopacity="1.0"
     inkscape:pageopacity="0"
     inkscape:pageshadow="2"
     inkscape:zoom="44.151743"
     inkscape:cx="6.9079946"
     inkscape:cy="9.1162879"
     inkscape:document-units="px"
     inkscape:current-layer="layer1"
     showgrid="true"
     inkscape:window-width="2560"
     inkscape:window-height="1382"
     inkscape:window-x="1728"
     inkscape:window-y="30"
     inkscape:window-maximized="1"
     showguides="false"
     inkscape:guide-bbox="true"
     inkscape:snap-global="false"
     inkscape:snap-bbox="true"
     inkscape:bbox-nodes="true"
     inkscape:document-rotation="0"
     inkscape:showpageshadow="false"
     inkscape:pagecheckerboard="0"
     inkscape:deskcolor="#ffffff"><inkscape:grid
       type="xygrid"
       id="grid3999"
       originx="0"
       originy="0"
       spacingy="1"
       spacingx="1"
       units="px"
       visible="false"
       enabled="true" /><inkscape:grid
       id="grid1"
       units="px"
       originx="0"
       originy="0"
       spacingx="1"
       spacingy="1"
       empcolor="#0099e5"
       empopacity="0.30196078"
       color="#0099e5"
       opacity="0.14901961"
       empspacing="5"
       enabled="true"
       visible="true" /></sodipodi:namedview><metadata
     id="metadata7"><rdf:RDF><cc:Work
         rdf:about=""><dc:format>image/svg+xml</dc:format><dc:type
           rdf:resource="http://purl.org/dc/dcmitype/StillImage" /></cc:Work></rdf:RDF></metadata><g
     inkscape:label="Layer 1"
     inkscape:groupmode="layer"
     id="layer1"
     style="display:inline"
     transform="translate(0,-1036.3622)"><path
       style="display:inline;fill:none;stroke:#a8a8a8;stroke-width:2;stroke-linecap:round;stroke-dasharray:none;stroke-opacity:1"
       d="M 4.4999604,1040.8622 H 7.5000496"
       id="path2" /><path
       style="display:inline;fill:none;stroke:#a8a8a8;stroke-width:2;stroke-linecap:round;stroke-dasharray:none;stroke-opacity:1"
       d="M 4.4999604,1044.3622 H 7.5000496"
       id="path2-1" /><path
       style="display:inline;fill:none;stroke:#a8a8a8;stroke-width:2;stroke-linecap:round;stroke-dasharray:none;stroke-opacity:1"
       d="M 4.4999604,1047.8622 H 7.5000496"
       id="path2-1-1" /><path
       id="rect11"
       style="baseline-shift:baseline;display:inline;overflow:visible;vector-effect:none;fill:#a8a8a8;stroke-linecap:round;stroke-linejoin:round;enable-background:accumulate;stop-color:#000000"
       d="m 1,1036.3622 a 1.000105,1.000105 0 0 0 -1,1 v 14 a 1.000105,1.000105 0 0 0 1,1 h 9.167969 a 2.5003273,2.4456201 0 0 1 -0.1875002,-0.9316 v -0.055 H 9.9257808 A 2.4456201,2.5003273 0 0 1 7.958984,1050.3619 H 2 v -12 h 8 v 7.6543 a 2.5003273,2.4456201 0 0 1 2,-2.0957 v -6.5586 a 1.000105,1.000105 0 0 0 -1,-1 z" /><path
       id="rect6-22-7-21-6"
       style="display:inline;fill:#499c54;stroke-width:2;stroke-linecap:round;stroke-linejoin:round"
       d="m 12.478516,1045.3759 c -0.595469,0 -1.074219,0.4451 -1.074219,0.998 v 1.4258 H 9.9785156 c -0.552899,0 -0.9980468,0.4808 -0.9980468,1.0762 0,0.5954 0.4451478,1.0741 0.9980468,1.0742 h 1.4257814 v 1.4277 c 0,0.5529 0.47875,0.9981 1.074219,0.9981 h 0.0039 c 0.595469,0 1.076172,-0.4453 1.076172,-0.9981 v -1.4277 h 1.423828 c 0.552899,0 0.998047,-0.4788 0.998047,-1.0742 0,-0.5955 -0.445148,-1.0762 -0.998047,-1.0762 h -1.423828 v -1.4258 c 0,-0.5529 -0.480703,-0.998 -1.076172,-0.998 z" /></g></svg>
