<?xml version="1.0" encoding="UTF-8" standalone="no"?>
<svg
   width="16"
   height="16"
   id="svg2"
   version="1.1"
   inkscape:version="1.4.3 (0d15f75, 2025-12-25)"
   sodipodi:docname="newfolder_wiz.svg"
   inkscape:export-filename="C:\Users\D019122\OneDrive - SAP SE\Desktop\iam_package.png"
   inkscape:export-xdpi="96"
   inkscape:export-ydpi="96"
   xml:space="preserve"
   xmlns:inkscape="http://www.inkscape.org/namespaces/inkscape"
   xmlns:sodipodi="http://sodipodi.sourceforge.net/DTD/sodipodi-0.dtd"
   xmlns="http://www.w3.org/2000/svg"
   xmlns:svg="http://www.w3.org/2000/svg"
   xmlns:rdf="http://www.w3.org/1999/02/22-rdf-syntax-ns#"
   xmlns:cc="http://creativecommons.org/ns#"
   xmlns:dc="http://purl.org/dc/elements/1.1/"><defs
     id="defs4" /><sodipodi:namedview
     id="base"
     pagecolor="#ffffff"
     bordercolor="#666666"
     borderopacity="1.0"
     inkscape:pageopacity="0"
     inkscape:pageshadow="2"
     inkscape:zoom="16"
     inkscape:cx="6.53125"
     inkscape:cy="11.125"
     inkscape:document-units="px"
     inkscape:current-layer="svg2"
     showgrid="true"
     inkscape:window-width="2455"
     inkscape:window-height="1322"
     inkscape:window-x="1025"
     inkscape:window-y="102"
     inkscape:window-maximized="0"
     showguides="false"
     inkscape:guide-bbox="true"
     inkscape:snap-global="false"
     inkscape:snap-bbox="true"
     inkscape:bbox-nodes="true"
     inkscape:document-rotation="0"
     inkscape:showpageshadow="false"
     inkscape:pagecheckerboard="0"
     inkscape:deskcolor="#ffffff"><inkscape:grid
       type="xygrid"
       id="grid3999"
       originx="0"
       originy="0"
       spacingy="1"
       spacingx="1"
       units="px"
       visible="false"
       enabled="true" /><inkscape:grid
       id="grid1"
       units="px"
       originx="0"
       originy="0"
       spacingx="1"
       spacingy="1"
       empcolor="#0099e5"
       empopacity="0.30196078"
       color="#0099e5"
       opacity="0.14901961"
       empspacing="5"
       enabled="true"
       visible="true" /></sodipodi:namedview><metadata
     id="metadata7"><rdf:RDF><cc:Work
         rdf:about=""><dc:format>image/svg+xml</dc:format><dc:type
           rdf:resource="http://purl.org/dc/dcmitype/StillImage" /></cc:Work></rdf:RDF></metadata><path
     id="rect5"
     style="fill:#a8a8a8;stroke-width:2;stroke-linecap:round;paint-order:markers stroke fill"
     d="M 1 0 C 0.44600003 -4.4408921e-16 2.220446e-16 -0.44464838 0 -0.99804688 L 0 -2.7226562 C 0 -2.7719215 0.0029349176 -2.8198705 0.009765625 -2.8671875 C 0.002934912 -2.9145559 8.0953762e-18 -2.9624 0 -3.0117188 L 0 -12 C 0 -12.554 0.44600003 -13 1 -13 L 7.546875 -13 A 2.4456201 2.5003273 0 0 0 7.4980469 -12.5 A 2.4456201 2.5003273 0 0 0 9.9433594 -10 L 9.9980469 -10 L 9.9980469 -9.9453125 A 2.5003273 2.4456201 0 0 0 12.498047 -7.5 A 2.5003273 2.4456201 0 0 0 14.998047 -9.9453125 L 14.998047 -10 L 15.052734 -10 A 2.4456201 2.5003273 0 0 0 16 -10.195312 L 16 -3.0117188 C 16 -2.4577186 15.554 -2.0117186 15 -2.0117188 L 8.9980469 -2.0117188 L 7.65625 -0.66015625 A 2.2361013 2.233673 0 0 1 6.0683594 0 L 1 0 z "
     transform="scale(1,-1)" /><g
     id="g1"><path
       id="rect6-22-7-21-6"
       style="display:inline;fill:#499c54;stroke-width:2;stroke-linecap:round;stroke-linejoin:round"
       d="m 9.9951975,11.4252 h 5.0039735 c 0.552899,0 0.998013,0.4794 0.998013,1.0749 v 0 c 0,0.5954 -0.445114,1.0748 -0.998013,1.0748 H 9.9951975 c -0.552899,-10e-5 -0.998013,-0.4794 -0.998013,-1.0748 v 0 c 0,-0.5954 0.445114,-1.0749 0.998013,-1.0749 z" /><path
       id="rect6-22-7-1-6-8"
       style="display:inline;fill:#499c54;stroke-width:2;stroke-linecap:round;stroke-linejoin:round"
       d="M 11.420279,15.002 V 9.998 C 11.420279,9.4451 11.899665,9 12.495134,9 h 0.0041 c 0.595469,0 1.074855,0.4451 1.074855,0.998 v 5.004 c 0,0.5528 -0.479386,0.998 -1.074855,0.998 h -0.0041 c -0.595469,0 -1.074855,-0.4451 -1.074855,-0.998 z" /></g></svg>
