<?xml version="1.0" encoding="UTF-8" standalone="no"?>
<svg
   width="16"
   height="16"
   id="svg2"
   version="1.1"
   inkscape:version="1.4.3 (0d15f75, 2025-12-25)"
   sodipodi:docname="new_project.svg"
   inkscape:export-filename="C:\Users\D019122\OneDrive - SAP SE\Desktop\iam_package.png"
   inkscape:export-xdpi="96"
   inkscape:export-ydpi="96"
   xml:space="preserve"
   xmlns:inkscape="http://www.inkscape.org/namespaces/inkscape"
   xmlns:sodipodi="http://sodipodi.sourceforge.net/DTD/sodipodi-0.dtd"
   xmlns="http://www.w3.org/2000/svg"
   xmlns:svg="http://www.w3.org/2000/svg"
   xmlns:rdf="http://www.w3.org/1999/02/22-rdf-syntax-ns#"
   xmlns:cc="http://creativecommons.org/ns#"
   xmlns:dc="http://purl.org/dc/elements/1.1/"><defs
     id="defs4" /><sodipodi:namedview
     id="base"
     pagecolor="#ffffff"
     bordercolor="#666666"
     borderopacity="1.0"
     inkscape:pageopacity="0"
     inkscape:pageshadow="2"
     inkscape:zoom="34.781441"
     inkscape:cx="6.7708523"
     inkscape:cy="7.7196341"
     inkscape:document-units="px"
     inkscape:current-layer="svg2"
     showgrid="true"
     inkscape:window-width="1728"
     inkscape:window-height="990"
     inkscape:window-x="0"
     inkscape:window-y="344"
     inkscape:window-maximized="0"
     showguides="false"
     inkscape:guide-bbox="true"
     inkscape:snap-global="false"
     inkscape:snap-bbox="true"
     inkscape:bbox-nodes="true"
     inkscape:document-rotation="0"
     inkscape:showpageshadow="false"
     inkscape:pagecheckerboard="0"
     inkscape:deskcolor="#ffffff"><inkscape:grid
       type="xygrid"
       id="grid3999"
       originx="0"
       originy="0"
       spacingy="1"
       spacingx="1"
       units="px"
       visible="false"
       enabled="true" /><inkscape:grid
       id="grid1"
       units="px"
       originx="0"
       originy="0"
       spacingx="1"
       spacingy="1"
       empcolor="#0099e5"
       empopacity="0.30196078"
       color="#0099e5"
       opacity="0.14901961"
       empspacing="5"
       enabled="true"
       visible="true" /></sodipodi:namedview><metadata
     id="metadata7"><rdf:RDF><cc:Work
         rdf:about=""><dc:format>image/svg+xml</dc:format><dc:type
           rdf:resource="http://purl.org/dc/dcmitype/StillImage" /></cc:Work></rdf:RDF></metadata><path
     id="rect6-22-7-21-6-1-4"
     style="display:inline;fill:#499c54;stroke-width:2;stroke-linecap:round;stroke-linejoin:round"
     d="M 12.498047 9 C 11.902578 9 11.423828 9.4451469 11.423828 9.9980469 L 11.423828 11.425781 L 9.9980469 11.425781 C 9.4451483 11.425781 9 11.9046 9 12.5 C 9 13.0954 9.4451483 13.574119 9.9980469 13.574219 L 11.423828 13.574219 L 11.423828 15.001953 C 11.423828 15.554853 11.902578 16 12.498047 16 L 12.501953 16 C 13.097422 16 13.576172 15.554753 13.576172 15.001953 L 13.576172 13.574219 L 15.001953 13.574219 C 15.554852 13.574219 16 13.0954 16 12.5 C 16 11.9045 15.554852 11.425781 15.001953 11.425781 L 13.576172 11.425781 L 13.576172 9.9980469 C 13.576172 9.4451469 13.097422 9 12.501953 9 L 12.498047 9 z " /><path
     id="rect5"
     style="fill:#a8a8a8;stroke-width:2;stroke-linecap:round;paint-order:markers stroke fill"
     d="M 1,1.4844508e-7 C 0.44600003,1.4844508e-7 0,0.44464852 0,0.99804702 V 2.7226564 C 0,2.769852 0.00348758,2.8159114 0.00976563,2.8613282 0.00348758,2.9067945 0,2.9527533 0,3.0000001 V 12 c 0,0.554 0.446,1 1,1 H 7.5410156 A 2.4456201,2.5003273 0 0 1 7.5,12.544922 2.4456201,2.5003273 0 0 1 8.6953125,10.396484 L 7.9472656,10.015625 5.5175781,11.285156 5.9785156,8.5332032 4.0019531,6.6484376 6.7988281,6.2285158 8.0058594,3.7929689 9.2753906,6.2851564 11.998047,6.6660158 9.9863281,8.6269532 10.103516,9.2890626 A 2.5003273,2.4456201 0 0 1 12.5,7.544922 2.5003273,2.4456201 0 0 1 15,9.9902345 v 0.054687 h 0.05469 A 2.4456201,2.5003273 0 0 1 16,10.240234 V 3.0000001 c 0,-0.554 -0.446,-1 -1,-1 H 8.9863281 L 7.65625,0.6601564 A 2.2361013,2.233673 0 0 0 6.0683594,1.4844508e-7 Z" /></svg>
