<?xml version="1.0" encoding="UTF-8" standalone="no"?>
<svg
   width="16"
   height="16"
   id="svg2"
   version="1.1"
   inkscape:version="1.4.3 (0d15f75, 2025-12-25)"
   sodipodi:docname="newfile_wiz.svg"
   inkscape:export-filename="C:\Users\D019122\OneDrive - SAP SE\Desktop\iam_package.png"
   inkscape:export-xdpi="96"
   inkscape:export-ydpi="96"
   xml:space="preserve"
   xmlns:inkscape="http://www.inkscape.org/namespaces/inkscape"
   xmlns:sodipodi="http://sodipodi.sourceforge.net/DTD/sodipodi-0.dtd"
   xmlns="http://www.w3.org/2000/svg"
   xmlns:svg="http://www.w3.org/2000/svg"
   xmlns:rdf="http://www.w3.org/1999/02/22-rdf-syntax-ns#"
   xmlns:cc="http://creativecommons.org/ns#"
   xmlns:dc="http://purl.org/dc/elements/1.1/"><defs
     id="defs4" /><sodipodi:namedview
     id="base"
     pagecolor="#ffffff"
     bordercolor="#666666"
     borderopacity="1.0"
     inkscape:pageopacity="0"
     inkscape:pageshadow="2"
     inkscape:zoom="22.627417"
     inkscape:cx="8.7946406"
     inkscape:cy="2.7400388"
     inkscape:document-units="px"
     inkscape:current-layer="svg2"
     showgrid="true"
     inkscape:window-width="2871"
     inkscape:window-height="1292"
     inkscape:window-x="510"
     inkscape:window-y="216"
     inkscape:window-maximized="0"
     showguides="false"
     inkscape:guide-bbox="true"
     inkscape:snap-global="false"
     inkscape:snap-bbox="true"
     inkscape:bbox-nodes="true"
     inkscape:document-rotation="0"
     inkscape:showpageshadow="false"
     inkscape:pagecheckerboard="0"
     inkscape:deskcolor="#ffffff"><inkscape:grid
       type="xygrid"
       id="grid3999"
       originx="0"
       originy="0"
       spacingy="1"
       spacingx="1"
       units="px"
       visible="false"
       enabled="true" /><inkscape:grid
       id="grid1"
       units="px"
       originx="0"
       originy="0"
       spacingx="1"
       spacingy="1"
       empcolor="#0099e5"
       empopacity="0.30196078"
       color="#0099e5"
       opacity="0.14901961"
       empspacing="5"
       enabled="true"
       visible="true" /></sodipodi:namedview><metadata
     id="metadata7"><rdf:RDF><cc:Work
         rdf:about=""><dc:format>image/svg+xml</dc:format><dc:type
           rdf:resource="http://purl.org/dc/dcmitype/StillImage" /></cc:Work></rdf:RDF></metadata><path
     id="rect1"
     style="display:inline;fill:#a8a8a8;stroke-width:2;stroke-linecap:round;stroke-linejoin:round"
     d="M 0.75 1036.3622 C 0.3357864 1036.3622 0 1036.8099 0 1037.3622 L 0 1051.3622 C 0 1051.9145 0.3357864 1052.3622 0.75 1052.3622 L 10.195312 1052.3622 A 2.5003273 2.4454734 0 0 1 10 1051.4169 L 10 1051.3622 L 9.9453125 1051.3622 A 2.4456201 2.5001773 0 0 1 7.5 1048.8622 A 2.4456201 2.5001773 0 0 1 9.9453125 1046.3622 L 10 1046.3622 L 10 1046.3075 A 2.5003273 2.4454734 0 0 1 12 1043.911 L 12 1040.3036 A 2.3753742 2.3753742 0 0 0 11.308594 1038.6278 L 9.7949219 1037.1063 A 2.5296687 2.5296687 0 0 0 8.0019531 1036.3622 L 0.75 1036.3622 z "
     transform="translate(0,-1036.3622)" /><g
     inkscape:label="Layer 1"
     inkscape:groupmode="layer"
     id="layer1"
     style="display:inline"
     transform="translate(0,-1036.3622)"><path
       id="rect6-22-7-21-6"
       style="display:inline;fill:#499c54;stroke-width:2;stroke-linecap:round;stroke-linejoin:round"
       d="m 12.498046,1045.3621 c -0.595468,0 -1.074217,0.4451 -1.074217,0.9979 v 1.4278 H 9.9980464 c -0.552899,0 -0.9980469,0.4787 -0.9980469,1.0741 0,0.5954 0.4451479,1.074 0.9980469,1.0741 h 1.4257816 v 1.4277 c 0,0.5529 0.47875,0.998 1.074217,0.998 h 0.0039 c 0.595469,0 1.074217,-0.4452 1.074217,-0.998 v -1.4277 h 1.425783 c 0.552899,0 0.998046,-0.4787 0.998046,-1.0741 0,-0.5955 -0.445147,-1.0741 -0.998046,-1.0741 h -1.425783 v -1.4278 c 0,-0.5528 -0.478748,-0.9979 -1.074217,-0.9979 z" /></g></svg>
