<?xml version="1.0" encoding="UTF-8" standalone="no"?>
<svg
   width="16"
   height="16"
   id="svg2"
   version="1.1"
   inkscape:version="1.4.3 (0d15f75, 2025-12-25)"
   sodipodi:docname="new_text_file.svg"
   inkscape:export-filename="C:\Users\D019122\OneDrive - SAP SE\Desktop\iam_package.png"
   inkscape:export-xdpi="96"
   inkscape:export-ydpi="96"
   xml:space="preserve"
   xmlns:inkscape="http://www.inkscape.org/namespaces/inkscape"
   xmlns:sodipodi="http://sodipodi.sourceforge.net/DTD/sodipodi-0.dtd"
   xmlns="http://www.w3.org/2000/svg"
   xmlns:svg="http://www.w3.org/2000/svg"
   xmlns:rdf="http://www.w3.org/1999/02/22-rdf-syntax-ns#"
   xmlns:cc="http://creativecommons.org/ns#"
   xmlns:dc="http://purl.org/dc/elements/1.1/"><defs
     id="defs4" /><sodipodi:namedview
     id="base"
     pagecolor="#ffffff"
     bordercolor="#666666"
     borderopacity="1.0"
     inkscape:pageopacity="0"
     inkscape:pageshadow="2"
     inkscape:zoom="22.596876"
     inkscape:cx="0.73018941"
     inkscape:cy="8.8286538"
     inkscape:document-units="px"
     inkscape:current-layer="layer1"
     showgrid="true"
     inkscape:window-width="1728"
     inkscape:window-height="990"
     inkscape:window-x="0"
     inkscape:window-y="344"
     inkscape:window-maximized="1"
     showguides="false"
     inkscape:guide-bbox="true"
     inkscape:snap-global="false"
     inkscape:snap-bbox="true"
     inkscape:bbox-nodes="true"
     inkscape:document-rotation="0"
     inkscape:showpageshadow="false"
     inkscape:pagecheckerboard="0"
     inkscape:deskcolor="#ffffff"><inkscape:grid
       type="xygrid"
       id="grid3999"
       originx="0"
       originy="0"
       spacingy="1"
       spacingx="1"
       units="px"
       visible="false"
       enabled="true" /><inkscape:grid
       id="grid1"
       units="px"
       originx="0"
       originy="0"
       spacingx="1"
       spacingy="1"
       empcolor="#0099e5"
       empopacity="0.30196078"
       color="#0099e5"
       opacity="0.14901961"
       empspacing="5"
       enabled="true"
       visible="true" /></sodipodi:namedview><metadata
     id="metadata7"><rdf:RDF><cc:Work
         rdf:about=""><dc:format>image/svg+xml</dc:format><dc:type
           rdf:resource="http://purl.org/dc/dcmitype/StillImage" /></cc:Work></rdf:RDF></metadata><g
     inkscape:label="Layer 1"
     inkscape:groupmode="layer"
     id="layer1"
     style="display:inline"
     transform="translate(0,-1036.3622)"><path
       id="path2"
       style="baseline-shift:baseline;display:inline;overflow:visible;vector-effect:none;fill:#a8a8a8;stroke-linecap:round;enable-background:accumulate;stop-color:#000000;stop-opacity:1;opacity:1"
       d="M 1 1036.3622 A 1.000105 1.000105 0 0 0 0 1037.3622 L 0 1043.9208 L 0 1051.3622 A 1.000105 1.000105 0 0 0 1 1052.3622 L 9.7148438 1052.3622 C 9.5774922 1052.0547 9.5 1051.7161 9.5 1051.3622 L 9.5 1050.8622 L 9 1050.8622 C 8.4474019 1050.8622 7.931276 1050.6753 7.5136719 1050.3622 L 2 1050.3622 L 2 1046.0165 L 2 1038.3622 L 10 1038.3622 L 10 1043.8759 C 10.45914 1043.2635 11.189644 1042.8622 12 1042.8622 L 12 1037.3622 A 1.000105 1.000105 0 0 0 11.966797 1037.1024 A 1.000105 1.000105 0 0 0 11.609375 1036.5692 A 1.000105 1.000105 0 0 0 11 1036.3622 L 1 1036.3622 z M 4.5 1039.8622 A 1 1 0 0 0 3.5 1040.8622 A 1 1 0 0 0 4.5 1041.8622 L 7.5 1041.8622 A 1 1 0 0 0 8.5 1040.8622 A 1 1 0 0 0 7.5 1039.8622 L 4.5 1039.8622 z M 4.5 1043.3622 A 1 1 0 0 0 3.5 1044.3622 A 1 1 0 0 0 4.5 1045.3622 L 7.5 1045.3622 A 1 1 0 0 0 8.5 1044.3622 A 1 1 0 0 0 7.5 1043.3622 L 4.5 1043.3622 z M 4.5 1046.8622 A 1 1 0 0 0 3.5 1047.8622 A 1 1 0 0 0 4.5 1048.8622 L 6.5527344 1048.8622 C 6.5188115 1048.7003 6.5 1048.533 6.5 1048.3622 C 6.5 1047.8033 6.6920967 1047.2823 7.0117188 1046.8622 L 4.5 1046.8622 z " /><path
       id="path1"
       style="baseline-shift:baseline;display:inline;overflow:visible;vector-effect:none;fill:#499c54;stroke-linecap:round;stroke-linejoin:round;enable-background:accumulate;stop-color:#000000"
       d="m 12,1044.3622 a 1,1 0 0 0 -1,1 v 2 H 9 a 1,1 0 0 0 -1,1 1,1 0 0 0 1,1 h 2 v 2 a 1,1 0 0 0 1,1 1,1 0 0 0 1,-1 v -2 h 2 a 1,1 0 0 0 1,-1 1,1 0 0 0 -1,-1 h -2 v -2 a 1,1 0 0 0 -1,-1 z" /></g></svg>
