<?xml version="1.0" encoding="UTF-8" standalone="no"?>
<svg
   width="16"
   height="16"
   id="svg2"
   version="1.1"
   inkscape:version="1.4.3 (0d15f75, 2025-12-25)"
   sodipodi:docname="newgroup_wiz.svg"
   inkscape:export-filename="C:\Users\D019122\OneDrive - SAP SE\Desktop\iam_package.png"
   inkscape:export-xdpi="96"
   inkscape:export-ydpi="96"
   xml:space="preserve"
   xmlns:inkscape="http://www.inkscape.org/namespaces/inkscape"
   xmlns:sodipodi="http://sodipodi.sourceforge.net/DTD/sodipodi-0.dtd"
   xmlns="http://www.w3.org/2000/svg"
   xmlns:svg="http://www.w3.org/2000/svg"
   xmlns:rdf="http://www.w3.org/1999/02/22-rdf-syntax-ns#"
   xmlns:cc="http://creativecommons.org/ns#"
   xmlns:dc="http://purl.org/dc/elements/1.1/"><defs
     id="defs4" /><sodipodi:namedview
     id="base"
     pagecolor="#ffffff"
     bordercolor="#666666"
     borderopacity="1.0"
     inkscape:pageopacity="0"
     inkscape:pageshadow="2"
     inkscape:zoom="45.254834"
     inkscape:cx="12.473806"
     inkscape:cy="11.844039"
     inkscape:document-units="px"
     inkscape:current-layer="svg2"
     showgrid="true"
     inkscape:window-width="2138"
     inkscape:window-height="1322"
     inkscape:window-x="1512"
     inkscape:window-y="87"
     inkscape:window-maximized="0"
     showguides="false"
     inkscape:guide-bbox="true"
     inkscape:snap-global="false"
     inkscape:snap-bbox="true"
     inkscape:bbox-nodes="true"
     inkscape:document-rotation="0"
     inkscape:showpageshadow="false"
     inkscape:pagecheckerboard="0"
     inkscape:deskcolor="#ffffff"><inkscape:grid
       type="xygrid"
       id="grid3999"
       originx="0"
       originy="0"
       spacingy="1"
       spacingx="1"
       units="px"
       visible="false"
       enabled="true" /><inkscape:grid
       id="grid1"
       units="px"
       originx="0"
       originy="0"
       spacingx="1"
       spacingy="1"
       empcolor="#0099e5"
       empopacity="0.30196078"
       color="#0099e5"
       opacity="0.14901961"
       empspacing="5"
       enabled="true"
       visible="true" /></sodipodi:namedview><metadata
     id="metadata7"><rdf:RDF><cc:Work
         rdf:about=""><dc:format>image/svg+xml</dc:format><dc:type
           rdf:resource="http://purl.org/dc/dcmitype/StillImage" /></cc:Work></rdf:RDF></metadata><path
     id="rect5"
     style="fill:#a8a8a8;fill-opacity:1;stroke:none;stroke-width:2;stroke-linecap:round;stroke-opacity:1;paint-order:markers stroke fill"
     d="M 1 0 C 0.44600003 4.4408921e-16 2.220446e-16 0.44464838 0 0.99804688 L 0 2.7226562 C 0 2.7698519 0.0034875823 2.8159113 0.009765625 2.8613281 C 0.0034875767 2.9067943 0 2.9527532 0 3 L 0 12 C 0 12.554 0.44600003 13 1 13 L 7.5683594 13 A 2.4456201 2.5003273 0 0 1 7.5136719 12.470703 A 2.4456201 2.5003273 0 0 1 9.2089844 10.091797 A 1 1 0 0 1 8.75 9.25 A 1 1 0 0 1 9.75 8.25 A 1 1 0 0 1 10.449219 8.5351562 A 2.5003273 2.4456201 0 0 1 12.513672 7.4707031 A 2.5003273 2.4456201 0 0 1 15.013672 9.9160156 L 15.013672 9.9707031 L 15.068359 9.9707031 A 2.4456201 2.5003273 0 0 1 16 10.160156 L 16 3 C 16 2.446 15.554 2 15 2 L 8.9863281 2 L 7.65625 0.66015625 A 2.2361013 2.233673 0 0 0 6.0683594 0 L 1 0 z M 6.25 4.75 A 1 1 0 0 1 7.25 5.75 A 1 1 0 0 1 6.25 6.75 A 1 1 0 0 1 5.25 5.75 A 1 1 0 0 1 6.25 4.75 z M 9.75 4.75 A 1 1 0 0 1 10.75 5.75 A 1 1 0 0 1 9.75 6.75 A 1 1 0 0 1 8.75 5.75 A 1 1 0 0 1 9.75 4.75 z M 6.25 8.25 A 1 1 0 0 1 7.25 9.25 A 1 1 0 0 1 6.25 10.25 A 1 1 0 0 1 5.25 9.25 A 1 1 0 0 1 6.25 8.25 z " /><path
     id="rect6-22-7-21-6"
     style="display:inline;fill:#499c54;stroke-width:2;stroke-linecap:round;stroke-linejoin:round"
     d="M 12.511719 8.9707031 C 11.91625 8.9707031 11.435547 9.41585 11.435547 9.96875 L 11.435547 11.396484 L 10.011719 11.396484 C 9.4588198 11.396484 9.0136719 11.875303 9.0136719 12.470703 C 9.0136719 13.066103 9.4588199 13.544822 10.011719 13.544922 L 11.435547 13.544922 L 11.435547 14.972656 C 11.435547 15.525556 11.91625 15.970703 12.511719 15.970703 L 12.515625 15.970703 C 13.111094 15.970703 13.589844 15.525456 13.589844 14.972656 L 13.589844 13.544922 L 15.015625 13.544922 C 15.568524 13.544922 16.013672 13.066103 16.013672 12.470703 C 16.013672 11.875203 15.568524 11.396484 15.015625 11.396484 L 13.589844 11.396484 L 13.589844 9.96875 C 13.589844 9.41585 13.111094 8.9707031 12.515625 8.9707031 L 12.511719 8.9707031 z " /></svg>
