<?xml version="1.0" encoding="UTF-8" standalone="no"?>
<!-- Created with Inkscape (http://www.inkscape.org/) -->

<svg
   width="16"
   height="16"
   viewBox="0 0 4.2333332 4.2333333"
   version="1.1"
   id="svg1"
   inkscape:version="1.4.3 (0d15f75, 2025-12-25)"
   sodipodi:docname="next.svg"
   xml:space="preserve"
   xmlns:inkscape="http://www.inkscape.org/namespaces/inkscape"
   xmlns:sodipodi="http://sodipodi.sourceforge.net/DTD/sodipodi-0.dtd"
   xmlns="http://www.w3.org/2000/svg"
   xmlns:svg="http://www.w3.org/2000/svg"><sodipodi:namedview
     id="namedview1"
     pagecolor="#ffffff"
     bordercolor="#000000"
     borderopacity="0.25"
     inkscape:showpageshadow="false"
     inkscape:pageopacity="0.0"
     inkscape:pagecheckerboard="0"
     inkscape:deskcolor="#ffffff"
     inkscape:document-units="px"
     showgrid="true"
     inkscape:zoom="21.078125"
     inkscape:cx="-7.06894"
     inkscape:cy="13.995552"
     inkscape:window-width="2226"
     inkscape:window-height="1338"
     inkscape:window-x="921"
     inkscape:window-y="155"
     inkscape:window-maximized="0"
     inkscape:current-layer="layer1"
     showguides="true"><inkscape:grid
       id="grid1"
       units="px"
       originx="0"
       originy="0"
       spacingx="0.26458333"
       spacingy="0.26458333"
       empcolor="#0099e5"
       empopacity="0.30196078"
       color="#0099e5"
       opacity="0.14901961"
       empspacing="5"
       enabled="true"
       visible="true" /></sodipodi:namedview><defs
     id="defs1" /><g
     inkscape:label="Layer 1"
     inkscape:groupmode="layer"
     id="layer1"><path
       id="rect1"
       style="fill:#ff7f27;fill-opacity:1;fill-rule:evenodd;stroke-width:0.264583"
       d="m 0.39697419,2.3806787 a 0.20707073,0.13532826 0 0 0 0.027389,0.072347 L 1.0010717,3.1077661 a 225.55089,147.40573 0 0 0 0.3570841,0.4046265 l 0.5792928,0.6531901 a 0.20707073,0.13532826 0 0 0 0.3586344,0 L 2.8753758,3.5123926 A 225.55089,147.40573 0 0 0 3.23246,3.1077661 L 3.8091689,2.4530257 A 0.20707073,0.13532826 0 0 0 3.6298517,2.2504541 L 2.9105158,2.2494206 V 0.31207116 A 0.26458332,0.3120039 0 0 0 2.6459325,-5.4435909e-5 H 1.5875992 A 0.26458332,0.3120039 0 0 0 1.3230158,0.31207116 V 2.2494206 l -0.71933581,0.00103 a 0.20707073,0.13532826 0 0 0 -0.2067058,0.1302281 z" /></g></svg>
