<?xml version="1.0" encoding="UTF-8" standalone="no"?>
<!-- Created with Inkscape (http://www.inkscape.org/) -->

<svg
   width="16"
   height="16"
   viewBox="0 0 4.2333332 4.2333333"
   version="1.1"
   id="svg1"
   inkscape:version="1.4.3 (0d15f75, 2025-12-25)"
   sodipodi:docname="options.svg"
   xml:space="preserve"
   xmlns:inkscape="http://www.inkscape.org/namespaces/inkscape"
   xmlns:sodipodi="http://sodipodi.sourceforge.net/DTD/sodipodi-0.dtd"
   xmlns="http://www.w3.org/2000/svg"
   xmlns:svg="http://www.w3.org/2000/svg"><sodipodi:namedview
     id="namedview1"
     pagecolor="#ffffff"
     bordercolor="#000000"
     borderopacity="0.25"
     inkscape:showpageshadow="false"
     inkscape:pageopacity="0.0"
     inkscape:pagecheckerboard="0"
     inkscape:deskcolor="#ffffff"
     inkscape:document-units="px"
     showgrid="true"
     inkscape:zoom="17.28125"
     inkscape:cx="9.3453888"
     inkscape:cy="6.1338155"
     inkscape:window-width="2894"
     inkscape:window-height="1308"
     inkscape:window-x="699"
     inkscape:window-y="127"
     inkscape:window-maximized="0"
     inkscape:current-layer="layer1"
     showguides="true"><inkscape:grid
       id="grid1"
       units="px"
       originx="0"
       originy="0"
       spacingx="0.26458333"
       spacingy="0.26458333"
       empcolor="#0099e5"
       empopacity="0.30196078"
       color="#0099e5"
       opacity="0.14901961"
       empspacing="5"
       enabled="true"
       visible="true" /></sodipodi:namedview><defs
     id="defs1" /><g
     inkscape:label="Layer 1"
     inkscape:groupmode="layer"
     id="layer1"><path
       id="path1"
       style="fill:#a8a8a8;stroke-width:0.529165;stroke-linecap:round;stroke-linejoin:round"
       d="M 2.6898863,0.57321978 A 0.57321978,0.57321978 0 0 1 2.1166666,1.1464396 0.57321978,0.57321978 0 0 1 1.5434468,0.57321978 0.57321978,0.57321978 0 0 1 2.1166666,0 0.57321978,0.57321978 0 0 1 2.6898863,0.57321978 Z" /><path
       id="path1-2"
       style="fill:#a8a8a8;stroke-width:0.529165;stroke-linecap:round;stroke-linejoin:round"
       d="M 2.6898863,2.1166666 A 0.57321978,0.57321978 0 0 1 2.1166666,2.6898863 0.57321978,0.57321978 0 0 1 1.5434468,2.1166666 0.57321978,0.57321978 0 0 1 2.1166666,1.5434468 0.57321978,0.57321978 0 0 1 2.6898863,2.1166666 Z" /><path
       id="path1-6"
       style="fill:#a8a8a8;stroke-width:0.529165;stroke-linecap:round;stroke-linejoin:round"
       d="M 2.6898863,3.6601136 A 0.57321978,0.57321978 0 0 1 2.1166666,4.2333333 0.57321978,0.57321978 0 0 1 1.5434468,3.6601136 0.57321978,0.57321978 0 0 1 2.1166666,3.0868938 0.57321978,0.57321978 0 0 1 2.6898863,3.6601136 Z" /></g></svg>
