<?xml version="1.0" encoding="UTF-8" standalone="no"?>
<svg
   width="7"
   height="8"
   id="svg2"
   version="1.1"
   inkscape:version="1.4.3 (0d15f75, 2025-12-25)"
   sodipodi:docname="ovr_warning.svg"
   inkscape:export-filename="C:\Users\D019122\OneDrive - SAP SE\Desktop\iam_package.png"
   inkscape:export-xdpi="96"
   inkscape:export-ydpi="96"
   xml:space="preserve"
   xmlns:inkscape="http://www.inkscape.org/namespaces/inkscape"
   xmlns:sodipodi="http://sodipodi.sourceforge.net/DTD/sodipodi-0.dtd"
   xmlns="http://www.w3.org/2000/svg"
   xmlns:svg="http://www.w3.org/2000/svg"
   xmlns:rdf="http://www.w3.org/1999/02/22-rdf-syntax-ns#"
   xmlns:cc="http://creativecommons.org/ns#"
   xmlns:dc="http://purl.org/dc/elements/1.1/"><defs
     id="defs4" /><sodipodi:namedview
     id="base"
     pagecolor="#ffffff"
     bordercolor="#666666"
     borderopacity="1.0"
     inkscape:pageopacity="0"
     inkscape:pageshadow="2"
     inkscape:zoom="31.648697"
     inkscape:cx="10.490163"
     inkscape:cy="5.7664301"
     inkscape:document-units="px"
     inkscape:current-layer="layer1"
     showgrid="true"
     inkscape:window-width="1728"
     inkscape:window-height="990"
     inkscape:window-x="0"
     inkscape:window-y="33"
     inkscape:window-maximized="0"
     showguides="true"
     inkscape:guide-bbox="true"
     inkscape:snap-global="false"
     inkscape:snap-bbox="true"
     inkscape:bbox-nodes="true"
     inkscape:document-rotation="0"
     inkscape:showpageshadow="false"
     inkscape:pagecheckerboard="0"
     inkscape:deskcolor="#ffffff"><sodipodi:guide
       position="-32.526912,-1.7218637"
       orientation="1,0"
       id="guide1"
       inkscape:locked="false" /><inkscape:grid
       id="grid14"
       units="px"
       originx="0"
       originy="0"
       spacingx="1"
       spacingy="1"
       empcolor="#0099e5"
       empopacity="0.30196078"
       color="#0099e5"
       opacity="0.14901961"
       empspacing="5"
       enabled="true"
       visible="true"
       dotted="false" /><sodipodi:guide
       position="-14.318912,58.426407"
       orientation="0,-1"
       id="guide16"
       inkscape:locked="false" /><sodipodi:guide
       position="-15.202796,51.708892"
       orientation="0.70710678,-0.70710678"
       id="guide17"
       inkscape:locked="false" /><sodipodi:guide
       position="-4.065864,27.711456"
       orientation="0,-1"
       id="guide18"
       inkscape:locked="false" /></sodipodi:namedview><metadata
     id="metadata7"><rdf:RDF><cc:Work
         rdf:about=""><dc:format>image/svg+xml</dc:format><dc:type
           rdf:resource="http://purl.org/dc/dcmitype/StillImage" /></cc:Work></rdf:RDF></metadata><g
     inkscape:label="Layer 1"
     inkscape:groupmode="layer"
     id="layer1"
     style="display:inline"
     transform="translate(0,-1036.3622)"><path
       id="path4"
       style="fill:#ffd700;fill-opacity:1;stroke-width:2;stroke-linecap:round;stroke-opacity:0"
       inkscape:transform-center-x="0.013210989"
       inkscape:transform-center-y="-1.2102548"
       d="m 3.4847334,1036.8624 a 0.28870777,0.33067472 0.51640899 0 0 -0.2298709,0.1649 l -3.21819364,6.3672 a 0.27222194,0.31179249 0.51640899 0 0 0.23499821,0.4674 H 6.7319814 a 0.26811714,0.30709101 0.51640899 0 0 0.2324344,-0.4606 l -3.2096481,-6.3714 a 0.28870777,0.33067472 0.51640899 0 0 -0.2700343,-0.1641 z m 0.015381,1.6535 a 0.43752393,0.43752392 2.5832468 0 1 0.4375237,0.4376 l -9e-7,2.2858 a 0.43752393,0.43752392 2.5832468 0 1 -0.4375238,0.4376 0.43752393,0.43752392 2.5832468 0 1 -0.437524,-0.4376 l 8e-7,-2.2858 a 0.43752393,0.43752392 2.5832468 0 1 0.4375242,-0.4376 z m 9e-7,3.8147 a 0.43752393,0.43752392 2.5832468 0 1 0.4375241,0.4375 0.43752393,0.43752392 2.5832468 0 1 -0.4375242,0.4375 0.43752393,0.43752392 2.5832468 0 1 -0.4375237,-0.4375 0.43752393,0.43752392 2.5832468 0 1 0.4375238,-0.4375 z" /></g></svg>
