<?xml version="1.0" encoding="UTF-8" standalone="no"?>
<svg
   width="7"
   height="8"
   id="svg2"
   version="1.1"
   inkscape:version="1.4.3 (0d15f75, 2025-12-25)"
   sodipodi:docname="ovr_error.svg"
   inkscape:export-filename="C:\Users\D019122\OneDrive - SAP SE\Desktop\iam_package.png"
   inkscape:export-xdpi="96"
   inkscape:export-ydpi="96"
   xml:space="preserve"
   xmlns:inkscape="http://www.inkscape.org/namespaces/inkscape"
   xmlns:sodipodi="http://sodipodi.sourceforge.net/DTD/sodipodi-0.dtd"
   xmlns="http://www.w3.org/2000/svg"
   xmlns:svg="http://www.w3.org/2000/svg"
   xmlns:rdf="http://www.w3.org/1999/02/22-rdf-syntax-ns#"
   xmlns:cc="http://creativecommons.org/ns#"
   xmlns:dc="http://purl.org/dc/elements/1.1/"><defs
     id="defs4" /><sodipodi:namedview
     id="base"
     pagecolor="#ffffff"
     bordercolor="#666666"
     borderopacity="1.0"
     inkscape:pageopacity="0"
     inkscape:pageshadow="2"
     inkscape:zoom="31.648697"
     inkscape:cx="7.4568631"
     inkscape:cy="4.7553301"
     inkscape:document-units="px"
     inkscape:current-layer="layer1"
     showgrid="true"
     inkscape:window-width="1728"
     inkscape:window-height="990"
     inkscape:window-x="0"
     inkscape:window-y="344"
     inkscape:window-maximized="0"
     showguides="true"
     inkscape:guide-bbox="true"
     inkscape:snap-global="false"
     inkscape:snap-bbox="true"
     inkscape:bbox-nodes="true"
     inkscape:document-rotation="0"
     inkscape:showpageshadow="false"
     inkscape:pagecheckerboard="0"
     inkscape:deskcolor="#ffffff"><sodipodi:guide
       position="-32.526912,-1.7218637"
       orientation="1,0"
       id="guide1"
       inkscape:locked="false" /><inkscape:grid
       id="grid14"
       units="px"
       originx="0"
       originy="0"
       spacingx="1"
       spacingy="1"
       empcolor="#0099e5"
       empopacity="0.30196078"
       color="#0099e5"
       opacity="0.14901961"
       empspacing="5"
       enabled="true"
       visible="true"
       dotted="false" /><sodipodi:guide
       position="-14.318912,58.426407"
       orientation="0,-1"
       id="guide16"
       inkscape:locked="false" /><sodipodi:guide
       position="-15.202796,51.708892"
       orientation="0.70710678,-0.70710678"
       id="guide17"
       inkscape:locked="false" /><sodipodi:guide
       position="-4.065864,27.711456"
       orientation="0,-1"
       id="guide18"
       inkscape:locked="false" /></sodipodi:namedview><metadata
     id="metadata7"><rdf:RDF><cc:Work
         rdf:about=""><dc:format>image/svg+xml</dc:format><dc:type
           rdf:resource="http://purl.org/dc/dcmitype/StillImage" /></cc:Work></rdf:RDF></metadata><g
     inkscape:label="Layer 1"
     inkscape:groupmode="layer"
     id="layer1"
     style="display:inline"
     transform="translate(0,-1036.3622)"><path
       id="rect19"
       style="display:inline;fill:#c80000;fill-opacity:1;stroke:none;stroke-width:2;stroke-linecap:round;stroke-opacity:1"
       d="m 0.49816887,1036.8622 c -0.27621939,0 -0.498168995,0.2238 -0.498168995,0.5015 v 5.9969 c 0,0.2779 0.221949515,0.5016 0.498168995,0.5016 H 6.5018311 c 0.2762191,0 0.498169,-0.2237 0.498169,-0.5016 v -5.9969 c 0,-0.2777 -0.2219499,-0.5015 -0.498169,-0.5015 z m 0.59558103,0.6562 a 0.4375,0.4375 0 0 1 0.3093262,0.1282 l 2.096924,2.097 2.0969236,-2.097 a 0.4375,0.4375 0 0 1 0.6186521,0 0.4375,0.4375 0 0 1 0,0.6187 l -2.0969232,2.0969 2.0969232,2.0969 a 0.4375,0.4375 0 0 1 0,0.6187 0.4375,0.4375 0 0 1 -0.6186521,0 l -2.0969236,-2.0969 -2.096924,2.0969 a 0.4375,0.4375 0 0 1 -0.61865238,0 0.4375,0.4375 0 0 1 0,-0.6187 l 2.09692378,-2.0969 -2.09692378,-2.0969 a 0.4375,0.4375 0 0 1 0,-0.6187 0.4375,0.4375 0 0 1 0.30932618,-0.1282 z" /></g></svg>
