<?xml version="1.0" encoding="UTF-8" standalone="no"?>
<svg
   width="7"
   height="8"
   id="svg2"
   version="1.1"
   inkscape:version="1.4.3 (0d15f75, 2025-12-25)"
   sodipodi:docname="ovr_java.svg"
   inkscape:export-filename="C:\Users\D019122\OneDrive - SAP SE\Desktop\iam_package.png"
   inkscape:export-xdpi="96"
   inkscape:export-ydpi="96"
   xml:space="preserve"
   xmlns:inkscape="http://www.inkscape.org/namespaces/inkscape"
   xmlns:sodipodi="http://sodipodi.sourceforge.net/DTD/sodipodi-0.dtd"
   xmlns="http://www.w3.org/2000/svg"
   xmlns:svg="http://www.w3.org/2000/svg"
   xmlns:rdf="http://www.w3.org/1999/02/22-rdf-syntax-ns#"
   xmlns:cc="http://creativecommons.org/ns#"
   xmlns:dc="http://purl.org/dc/elements/1.1/"><defs
     id="defs4"><inkscape:path-effect
       effect="fillet_chamfer"
       id="path-effect2"
       is_visible="true"
       lpeversion="1"
       nodesatellites_param="F,0,0,1,0,0,0,1 @ F,0,0,1,0,0,0,1 @ F,0,0,1,0,0,0,1 @ F,0,0,1,0,0,0,1 @ F,0,0,1,0,0,0,1 @ F,0,0,1,0,0,0,1 @ F,0,0,1,0,0,0,1 @ F,0,0,1,0,0,0,1 @ F,0,0,1,0,0,0,1 @ F,0,0,1,0,0,0,1 @ F,0,0,1,0,0,0,1 @ F,0,0,1,0,0,0,1 @ F,0,0,1,0,0,0,1 @ F,0,0,1,0,0,0,1 @ F,0,0,1,0,0,0,1 @ F,0,0,1,0,0,0,1 @ F,0,0,1,0,0,0,1 @ F,0,0,1,0,0.73442855,0,1 @ F,0,1,1,0,0.73442855,0,1 @ F,0,0,1,0,0,0,1 @ F,0,0,1,0,0,0,1 @ F,0,0,1,0,0,0,1"
       radius="0"
       unit="px"
       method="auto"
       mode="F"
       chamfer_steps="1"
       flexible="false"
       use_knot_distance="true"
       apply_no_radius="true"
       apply_with_radius="true"
       only_selected="false"
       hide_knots="false" /></defs><sodipodi:namedview
     id="base"
     pagecolor="#ffffff"
     bordercolor="#666666"
     borderopacity="1.0"
     inkscape:pageopacity="0"
     inkscape:pageshadow="2"
     inkscape:zoom="31.999637"
     inkscape:cx="-0.046875532"
     inkscape:cy="0.17187695"
     inkscape:document-units="px"
     inkscape:current-layer="layer1"
     showgrid="true"
     inkscape:window-width="1728"
     inkscape:window-height="990"
     inkscape:window-x="0"
     inkscape:window-y="344"
     inkscape:window-maximized="0"
     showguides="true"
     inkscape:guide-bbox="true"
     inkscape:snap-global="false"
     inkscape:snap-bbox="true"
     inkscape:bbox-nodes="true"
     inkscape:document-rotation="0"
     inkscape:showpageshadow="false"
     inkscape:pagecheckerboard="0"
     inkscape:deskcolor="#ffffff"><sodipodi:guide
       position="-32.526912,-1.7218637"
       orientation="1,0"
       id="guide1"
       inkscape:locked="false" /><inkscape:grid
       id="grid14"
       units="px"
       originx="0"
       originy="0"
       spacingx="1"
       spacingy="1"
       empcolor="#0099e5"
       empopacity="0.30196078"
       color="#0099e5"
       opacity="0.14901961"
       empspacing="5"
       enabled="true"
       visible="true"
       dotted="false" /><sodipodi:guide
       position="-14.318912,58.426407"
       orientation="0,-1"
       id="guide16"
       inkscape:locked="false" /><sodipodi:guide
       position="-15.202796,51.708892"
       orientation="0.70710678,-0.70710678"
       id="guide17"
       inkscape:locked="false" /><sodipodi:guide
       position="-4.065864,27.711456"
       orientation="0,-1"
       id="guide18"
       inkscape:locked="false" /></sodipodi:namedview><metadata
     id="metadata7"><rdf:RDF><cc:Work
         rdf:about=""><dc:format>image/svg+xml</dc:format><dc:type
           rdf:resource="http://purl.org/dc/dcmitype/StillImage" /></cc:Work></rdf:RDF></metadata><g
     inkscape:label="Layer 1"
     inkscape:groupmode="layer"
     id="layer1"
     style="display:inline"
     transform="translate(0,-1036.3622)"><path
       id="path3"
       style="baseline-shift:baseline;display:inline;overflow:visible;opacity:1;vector-effect:none;fill:#0065c7;stroke-width:1;stroke-linecap:round;stroke-linejoin:round;enable-background:accumulate;stop-color:#000000;stop-opacity:1"
       d="m 5.0973937,1036.3622 c -0.4440297,10e-4 -0.7997334,0.3534 -0.7997334,0.7977 v 4.8421 a 0.26660446,0.26660446 0 0 1 -0.00417,0.044 c -0.022737,0.1324 -0.051163,0.3037 -0.1770243,0.4603 -0.1258614,0.1561 -0.3483204,0.252 -0.606048,0.252 -0.3008047,-10e-5 -0.5497945,-0.1534 -0.7143452,-0.3397 -0.1645506,-0.1862 -0.2723662,-0.4028 -0.374875,-0.6018 -0.1025087,-0.1989 -0.1986814,-0.3796 -0.2978174,-0.4916 -0.099136,-0.1112 -0.1726314,-0.1571 -0.3123959,-0.1562 a 0.26660446,0.26660446 0 0 0 -0.00208,0 c -0.2337573,0 -0.4031095,0.075 -0.5206597,0.1939 -0.1175506,0.119 -0.1904412,0.29 -0.1895202,0.5247 a 0.26660446,0.26660446 0 0 1 0,0.011 c 0,0 -0.00776,0.5695 0.2853215,1.1746 0.2759809,0.5698 1.0711719,1.2892 2.1263745,1.2892 1.0553571,0 1.8501267,-0.7291 2.118044,-1.3017 0.2853897,-0.6097 0.2686604,-1.1788 0.2686604,-1.1788 a 0.26660446,0.26660446 0 0 1 0.00417,0 v -0.015 h -0.00417 v -0.011 -4.6942 c 0,-0.4449 -0.3548901,-0.7997 -0.7997334,-0.7997 z" /></g></svg>
