<?xml version="1.0" encoding="UTF-8" standalone="no"?>
<!-- Created with Inkscape (http://www.inkscape.org/) -->

<svg
   width="16"
   height="16"
   viewBox="0 0 4.2333332 4.2333333"
   version="1.1"
   id="svg1"
   inkscape:version="1.4.3 (0d15f75, 2025-12-25)"
   sodipodi:docname="package.svg"
   xml:space="preserve"
   xmlns:inkscape="http://www.inkscape.org/namespaces/inkscape"
   xmlns:sodipodi="http://sodipodi.sourceforge.net/DTD/sodipodi-0.dtd"
   xmlns="http://www.w3.org/2000/svg"
   xmlns:svg="http://www.w3.org/2000/svg"><sodipodi:namedview
     id="namedview1"
     pagecolor="#ffffff"
     bordercolor="#000000"
     borderopacity="0.25"
     inkscape:showpageshadow="false"
     inkscape:pageopacity="0.0"
     inkscape:pagecheckerboard="0"
     inkscape:deskcolor="#ffffff"
     inkscape:document-units="px"
     showgrid="true"
     inkscape:zoom="17.625"
     inkscape:cx="-7.3191489"
     inkscape:cy="8.4539007"
     inkscape:window-width="2894"
     inkscape:window-height="1308"
     inkscape:window-x="832"
     inkscape:window-y="125"
     inkscape:window-maximized="0"
     inkscape:current-layer="layer1"
     showguides="true"><inkscape:grid
       id="grid1"
       units="px"
       originx="0"
       originy="0"
       spacingx="0.26458333"
       spacingy="0.26458333"
       empcolor="#0099e5"
       empopacity="0.30196078"
       color="#0099e5"
       opacity="0.14901961"
       empspacing="5"
       enabled="true"
       visible="true" /></sodipodi:namedview><defs
     id="defs1" /><g
     inkscape:label="Layer 1"
     inkscape:groupmode="layer"
     id="layer1"><path
       id="rect1"
       d="M 0.2645833,0 H 1.190625 A 0.26458332,0.26458332 45 0 1 1.4552083,0.26458332 V 1.190625 A 0.26458332,0.26458332 135 0 1 1.190625,1.4552083 H 0.2645833 A 0.26458332,0.26458332 45 0 1 -1.5595054e-8,1.190625 V 0.26458332 A 0.26458332,0.26458332 135 0 1 0.2645833,0 Z"
       style="fill:#a8a8a8;fill-opacity:1;fill-rule:evenodd;stroke-width:0.264583" /><path
       id="rect1-7"
       transform="translate(2.7781249)"
       d="M 0.2645833,0 H 1.190625 A 0.26458332,0.26458332 45 0 1 1.4552083,0.26458332 V 1.190625 A 0.26458332,0.26458332 135 0 1 1.190625,1.4552083 H 0.2645833 A 0.26458332,0.26458332 45 0 1 -1.5595054e-8,1.190625 V 0.26458332 A 0.26458332,0.26458332 135 0 1 0.2645833,0 Z"
       style="fill:#a8a8a8;fill-opacity:1;fill-rule:evenodd;stroke-width:0.264583" /><path
       id="rect1-2"
       transform="translate(2.7781249,2.7781248)"
       d="M 0.2645833,0 H 1.190625 A 0.26458332,0.26458332 45 0 1 1.4552083,0.26458332 V 1.190625 A 0.26458332,0.26458332 135 0 1 1.190625,1.4552083 H 0.2645833 A 0.26458332,0.26458332 45 0 1 -1.5595054e-8,1.190625 V 0.26458332 A 0.26458332,0.26458332 135 0 1 0.2645833,0 Z"
       style="fill:#a8a8a8;fill-opacity:1;fill-rule:evenodd;stroke-width:0.264583" /><path
       id="rect1-76"
       transform="translate(1.5595054e-8,2.7781248)"
       d="M 0.2645833,0 H 1.190625 A 0.26458332,0.26458332 45 0 1 1.4552083,0.26458332 V 1.190625 A 0.26458332,0.26458332 135 0 1 1.190625,1.4552083 H 0.2645833 A 0.26458332,0.26458332 45 0 1 -1.5595054e-8,1.190625 V 0.26458332 A 0.26458332,0.26458332 135 0 1 0.2645833,0 Z"
       style="fill:#a8a8a8;fill-opacity:1;fill-rule:evenodd;stroke-width:0.264583" /><path
       id="path3"
       style="baseline-shift:baseline;display:inline;overflow:visible;vector-effect:none;fill:#a8a8a8;stroke-linecap:round;stroke-linejoin:round;enable-background:accumulate;stop-color:#000000"
       d="M 2.1171834 0.0041341145 A 0.26458299 0.26458299 0 0 0 1.8515665 0.26975097 L 1.8515665 1.8515665 L 0.27336832 1.8515665 A 0.26458299 0.26458299 0 0 0 0.0098185219 2.1171834 A 0.26458299 0.26458299 0 0 0 0.27336832 2.3807332 L 1.8515665 2.3807332 L 1.8515665 3.9646158 A 0.26458299 0.26458299 0 0 0 2.1171834 4.2286824 A 0.26458299 0.26458299 0 0 0 2.3807332 3.9646158 L 2.3807332 2.3807332 L 3.9687499 2.3807332 A 0.26458299 0.26458299 0 0 0 4.2322997 2.1171834 A 0.26458299 0.26458299 0 0 0 3.9687499 1.8515665 L 2.3807332 1.8515665 L 2.3807332 0.26975097 A 0.26458299 0.26458299 0 0 0 2.1171834 0.0041341145 z " /></g></svg>
