<?xml version="1.0" encoding="UTF-8" standalone="no"?>
<!-- Created with Inkscape (http://www.inkscape.org/) -->

<svg
   width="16"
   height="16"
   viewBox="0 0 4.2333332 4.2333333"
   version="1.1"
   id="svg1"
   inkscape:version="1.4.3 (0d15f75, 2025-12-25)"
   sodipodi:docname="previous.svg"
   xml:space="preserve"
   xmlns:inkscape="http://www.inkscape.org/namespaces/inkscape"
   xmlns:sodipodi="http://sodipodi.sourceforge.net/DTD/sodipodi-0.dtd"
   xmlns="http://www.w3.org/2000/svg"
   xmlns:svg="http://www.w3.org/2000/svg"><sodipodi:namedview
     id="namedview1"
     pagecolor="#ffffff"
     bordercolor="#000000"
     borderopacity="0.25"
     inkscape:showpageshadow="false"
     inkscape:pageopacity="0.0"
     inkscape:pagecheckerboard="0"
     inkscape:deskcolor="#ffffff"
     inkscape:document-units="px"
     showgrid="true"
     inkscape:zoom="10.539063"
     inkscape:cx="-10.295033"
     inkscape:cy="21.918458"
     inkscape:window-width="2226"
     inkscape:window-height="1338"
     inkscape:window-x="921"
     inkscape:window-y="155"
     inkscape:window-maximized="0"
     inkscape:current-layer="layer1"
     showguides="true"><inkscape:grid
       id="grid1"
       units="px"
       originx="0"
       originy="0"
       spacingx="0.26458333"
       spacingy="0.26458333"
       empcolor="#0099e5"
       empopacity="0.30196078"
       color="#0099e5"
       opacity="0.14901961"
       empspacing="5"
       enabled="true"
       visible="true" /></sodipodi:namedview><defs
     id="defs1" /><g
     inkscape:label="Layer 1"
     inkscape:groupmode="layer"
     id="layer1"><path
       id="rect1"
       style="fill:#ff7f27;fill-opacity:1;fill-rule:evenodd;stroke-width:0.264583"
       d="m 0.39697419,1.8525009 a 0.20707073,0.13532826 0 0 1 0.027389,-0.072347 L 1.0010717,1.1254135 A 225.55089,147.40573 0 0 1 1.3581558,0.72078699 l 0.5792928,-0.6531901 a 0.20707073,0.13532826 0 0 1 0.3586344,0 l 0.5792928,0.6531901 A 225.55089,147.40573 0 0 1 3.23246,1.1254135 L 3.8091689,1.7801539 A 0.20707073,0.13532826 0 0 1 3.6298517,1.9827255 L 2.9105158,1.983759 V 3.9211084 A 0.26458332,0.3120039 0 0 1 2.6459325,4.233234 H 1.5875992 A 0.26458332,0.3120039 0 0 1 1.3230158,3.9211084 V 1.983759 L 0.60367999,1.982729 A 0.20707073,0.13532826 0 0 1 0.39697419,1.8525009 Z" /></g></svg>
