<?xml version="1.0" encoding="UTF-8" standalone="no"?>
<!-- Created with Inkscape (http://www.inkscape.org/) -->

<svg
   width="16"
   height="16"
   viewBox="0 0 4.2333332 4.2333333"
   version="1.1"
   id="svg1"
   inkscape:version="1.4.3 (0d15f75, 2025-12-25)"
   sodipodi:docname="progress-ok.svg"
   xml:space="preserve"
   xmlns:inkscape="http://www.inkscape.org/namespaces/inkscape"
   xmlns:sodipodi="http://sodipodi.sourceforge.net/DTD/sodipodi-0.dtd"
   xmlns="http://www.w3.org/2000/svg"
   xmlns:svg="http://www.w3.org/2000/svg"><sodipodi:namedview
     id="namedview1"
     pagecolor="#ffffff"
     bordercolor="#000000"
     borderopacity="0.25"
     inkscape:showpageshadow="false"
     inkscape:pageopacity="0.0"
     inkscape:pagecheckerboard="0"
     inkscape:deskcolor="#ffffff"
     inkscape:document-units="px"
     showgrid="true"
     inkscape:zoom="18.703125"
     inkscape:cx="4.7050961"
     inkscape:cy="12.377611"
     inkscape:window-width="2135"
     inkscape:window-height="1377"
     inkscape:window-x="1548"
     inkscape:window-y="82"
     inkscape:window-maximized="0"
     inkscape:current-layer="layer1"
     showguides="true"><inkscape:grid
       id="grid1"
       units="px"
       originx="0"
       originy="0"
       spacingx="0.26458333"
       spacingy="0.26458333"
       empcolor="#0099e5"
       empopacity="0.30196078"
       color="#0099e5"
       opacity="0.14901961"
       empspacing="5"
       enabled="true"
       visible="true" /></sodipodi:namedview><defs
     id="defs1" /><g
     inkscape:label="Layer 1"
     inkscape:groupmode="layer"
     id="layer1"><path
       id="path3-1"
       style="baseline-shift:baseline;display:inline;overflow:visible;vector-effect:none;fill:#a8a8a8;stroke-width:1;stroke-linecap:round;stroke-linejoin:round;enable-background:accumulate;stop-color:#000000"
       d="M 2.5362792 0 L 3.5925455 1.0588501 L 2.9057657 1.7461466 C 2.9933904 1.7294544 3.0838122 1.7208252 3.1760335 1.7208252 C 3.3279858 1.7208252 3.4746139 1.7445914 3.6126993 1.7885213 L 4.1553018 1.2464355 A 0.26454848 0.26460996 0 0 0 4.1553018 0.87126463 L 3.2830037 0 L 2.5362792 0 z " /><path
       id="path3-1-7"
       style="baseline-shift:baseline;display:inline;overflow:visible;vector-effect:none;fill:#a8a8a8;stroke-width:1;stroke-linecap:round;stroke-linejoin:round;enable-background:accumulate;stop-color:#000000"
       d="M 1.0326685,0 2.089206,1.05885 1.0316352,2.1166666 h 0.748101 l 0.8695122,-0.870231 a 0.26454848,0.26460996 0 0 0 0,-0.37517105 L 1.7787029,0 Z" /><path
       id="path3-1-7-7"
       style="baseline-shift:baseline;display:inline;overflow:visible;vector-effect:none;fill:#a8a8a8;stroke-width:1;stroke-linecap:round;stroke-linejoin:round;enable-background:accumulate;stop-color:#000000"
       d="M 0.26452182,0 A 0.26452185,0.26458333 0 0 0 0,0.26458325 V 1.8520833 a 0.26452187,0.26458335 0 0 0 0.26452182,0.2645833 h 0.00103 L 1.1355801,1.2464356 a 0.26454848,0.26460996 0 0 0 0,-0.37517105 z" /><path
       id="path1"
       style="fill:#0065c7;stroke-width:0.79375;stroke-linecap:round;stroke-linejoin:round"
       d="M 3.1749999 2.1166666 A 1.0583333 1.0583333 0 0 0 2.1166666 3.1749999 A 1.0583333 1.0583333 0 0 0 3.1749999 4.2333332 A 1.0583333 1.0583333 0 0 0 4.2333332 3.1749999 A 1.0583333 1.0583333 0 0 0 3.1749999 2.1166666 z M 3.7041666 2.6013916 A 0.2645835 0.2645835 0 0 1 3.8653971 2.6561686 A 0.2645835 0.2645835 0 0 1 3.9139729 3.0272053 L 3.2809366 3.8504109 A 0.26458251 0.26458251 0 0 0 3.2804199 3.8509277 L 3.2695678 3.8648803 A 0.26458251 0.26458251 0 0 1 3.2483805 3.889685 A 0.26458251 0.26458251 0 0 1 3.2457966 3.8922688 A 0.26458251 0.26458251 0 0 1 3.2380452 3.9000203 A 0.26458251 0.26458251 0 0 1 3.2204752 3.9139729 A 0.26458251 0.26458251 0 0 1 3.1920532 3.9330932 A 0.26458251 0.26458251 0 0 1 3.1610473 3.9485961 A 0.26458251 0.26458251 0 0 1 2.898531 3.9139729 A 0.26458251 0.26458251 0 0 1 2.8737263 3.8927856 A 0.2645835 0.2645835 0 0 1 2.8711425 3.8902017 A 0.26458251 0.26458251 0 0 1 2.8633911 3.8824503 L 2.5057902 3.4917765 A 0.26458251 0.26458251 0 0 1 2.5233601 3.1191894 A 0.26458251 0.26458251 0 0 1 2.896464 3.1346923 L 3.0416747 3.293339 L 3.4943603 2.7047444 A 0.2645835 0.2645835 0 0 1 3.7041666 2.6013916 z " /></g></svg>
