<?xml version="1.0" encoding="UTF-8" standalone="no"?>
<!-- Created with Inkscape (http://www.inkscape.org/) -->

<svg
   width="16"
   height="16"
   viewBox="0 0 4.2333332 4.2333333"
   version="1.1"
   id="svg1"
   inkscape:version="1.4.3 (0d15f75, 2025-12-25)"
   sodipodi:docname="protected-access-modifier.svg"
   xml:space="preserve"
   xmlns:inkscape="http://www.inkscape.org/namespaces/inkscape"
   xmlns:sodipodi="http://sodipodi.sourceforge.net/DTD/sodipodi-0.dtd"
   xmlns="http://www.w3.org/2000/svg"
   xmlns:svg="http://www.w3.org/2000/svg"><sodipodi:namedview
     id="namedview1"
     pagecolor="#ffffff"
     bordercolor="#000000"
     borderopacity="0.25"
     inkscape:showpageshadow="false"
     inkscape:pageopacity="0.0"
     inkscape:pagecheckerboard="0"
     inkscape:deskcolor="#ffffff"
     inkscape:document-units="px"
     showgrid="true"
     inkscape:zoom="18.3125"
     inkscape:cx="13.924915"
     inkscape:cy="9.4197952"
     inkscape:window-width="1728"
     inkscape:window-height="990"
     inkscape:window-x="0"
     inkscape:window-y="344"
     inkscape:window-maximized="0"
     inkscape:current-layer="layer1"
     showguides="true"><inkscape:grid
       id="grid1"
       units="px"
       originx="0"
       originy="0"
       spacingx="0.26458333"
       spacingy="0.26458333"
       empcolor="#0099e5"
       empopacity="0.30196078"
       color="#0099e5"
       opacity="0.14901961"
       empspacing="5"
       enabled="true"
       visible="true" /></sodipodi:namedview><defs
     id="defs1" /><g
     inkscape:label="Layer 1"
     inkscape:groupmode="layer"
     id="layer1"><path
       id="path1"
       style="fill:#a8a8a8;stroke-width:0.529167;stroke-linecap:round;stroke-linejoin:round"
       d="M 3.3072916,2.1166667 A 1.190625,1.190625 0 0 1 2.1200243,3.3072869 1.190625,1.190625 0 0 1 0.92606061,2.1233819 1.190625,1.190625 0 0 1 2.1065939,0.92608427 1.190625,1.190625 0 0 1 3.3072159,2.1032364" /><path
       style="baseline-shift:baseline;display:inline;overflow:visible;opacity:1;vector-effect:none;fill:#a8a8a8;stroke-width:0.999826;stroke-linecap:round;stroke-linejoin:round;enable-background:accumulate;stop-color:#000000;stop-opacity:1"
       d="M 1.9942055,0.00452633 C 1.0785441,0.06670715 0.20986982,0.73923612 0.00486176,1.8015833 A 0.26446511,0.26461031 0 0 0 0.21570487,2.1121617 0.26446511,0.26461031 0 0 0 0.52416054,1.9012028 C 0.68474117,1.0690775 1.3477473,0.57834215 2.0312983,0.53192352 2.7148493,0.48550488 3.4172519,0.85377216 3.7121865,1.9226894 A 0.26446511,0.26461031 0 0 0 4.0382124,2.1063018 0.26446511,0.26461031 0 0 0 4.2236763,1.7800969 C 3.8760313,0.52014369 2.9098671,-0.05765449 1.9942055,0.00452633 Z"
       id="path4" /></g></svg>
