<?xml version="1.0" encoding="UTF-8" standalone="no"?>
<!-- Created with Inkscape (http://www.inkscape.org/) -->

<svg
   width="16"
   height="16"
   viewBox="0 0 4.2333332 4.2333333"
   version="1.1"
   id="svg1"
   inkscape:version="1.4.3 (0d15f75, 2025-12-25)"
   sodipodi:docname="record.svg"
   xml:space="preserve"
   xmlns:inkscape="http://www.inkscape.org/namespaces/inkscape"
   xmlns:sodipodi="http://sodipodi.sourceforge.net/DTD/sodipodi-0.dtd"
   xmlns="http://www.w3.org/2000/svg"
   xmlns:svg="http://www.w3.org/2000/svg"><sodipodi:namedview
     id="namedview1"
     pagecolor="#ffffff"
     bordercolor="#000000"
     borderopacity="0.25"
     inkscape:showpageshadow="false"
     inkscape:pageopacity="0.0"
     inkscape:pagecheckerboard="0"
     inkscape:deskcolor="#ffffff"
     inkscape:document-units="px"
     showgrid="true"
     inkscape:zoom="13.114621"
     inkscape:cx="-1.3725139"
     inkscape:cy="10.255729"
     inkscape:window-width="1922"
     inkscape:window-height="1129"
     inkscape:window-x="532"
     inkscape:window-y="302"
     inkscape:window-maximized="0"
     inkscape:current-layer="layer1"
     showguides="true"><inkscape:grid
       id="grid1"
       units="px"
       originx="0"
       originy="0"
       spacingx="0.26458333"
       spacingy="0.26458333"
       empcolor="#0099e5"
       empopacity="0.30196078"
       color="#0099e5"
       opacity="0.14901961"
       empspacing="5"
       enabled="true"
       visible="true" /></sodipodi:namedview><defs
     id="defs1" /><g
     inkscape:label="Layer 1"
     inkscape:groupmode="layer"
     id="layer1"><path
       id="path2"
       style="fill:#a8a8a8;fill-opacity:1;stroke:none;stroke-width:0.529167;stroke-linecap:round;stroke-linejoin:round;stroke-dasharray:none;stroke-opacity:1"
       d="M 2.1166666 0 A 2.1166666 2.1166666 0 0 0 0 2.1166666 A 2.1166666 2.1166666 0 0 0 2.1166666 4.2333332 A 2.1166666 2.1166666 0 0 0 4.2333332 2.1166666 A 2.1166666 2.1166666 0 0 0 2.1166666 0 z M 2.1171834 0.39635823 C 2.6620195 0.39635823 3.1093709 0.84370959 3.1093709 1.3885457 C 3.1093709 1.807658 2.8444405 2.1690684 2.4742675 2.3135538 L 3.1718994 3.2654337 A 0.26945602 0.26945602 0 0 1 3.1145385 3.6411213 A 0.26945602 0.26945602 0 0 1 2.7383341 3.5837605 L 1.8515665 2.3740153 L 1.8515665 3.4452677 A 0.26458451 0.26270096 0 0 1 1.5880167 3.7088175 A 0.26458451 0.26270096 0 0 1 1.3223999 3.4452677 L 1.3223999 0.98857013 A 0.26458451 0.26270096 0 0 1 1.3229166 0.96893309 L 1.3229166 0.95756427 C 1.3229166 0.86851424 1.3653766 0.73717807 1.4293701 0.67541096 C 1.6081942 0.50280848 1.8511185 0.3963582 2.1171834 0.39635823 z M 2.1171834 0.92552488 C 2.0177494 0.92552487 1.9263889 0.95539374 1.8515665 1.0071736 L 1.8515665 1.7699178 C 1.9263889 1.8216977 2.0177494 1.8515665 2.1171834 1.8515665 C 2.376037 1.8515665 2.5802042 1.6473993 2.5802042 1.3885457 C 2.5802042 1.1296921 2.376037 0.92552488 2.1171834 0.92552488 z " /></g></svg>
