<?xml version="1.0" encoding="UTF-8" standalone="no"?>
<svg
   width="16"
   height="16"
   viewBox="0 0 16 16"
   fill="none"
   version="1.1"
   id="svg6"
   sodipodi:docname="refresh.svg"
   inkscape:version="1.4.3 (0d15f75, 2025-12-25)"
   inkscape:export-filename="refresh_tab_16x16.png"
   inkscape:export-xdpi="96"
   inkscape:export-ydpi="96"
   xmlns:inkscape="http://www.inkscape.org/namespaces/inkscape"
   xmlns:sodipodi="http://sodipodi.sourceforge.net/DTD/sodipodi-0.dtd"
   xmlns="http://www.w3.org/2000/svg"
   xmlns:svg="http://www.w3.org/2000/svg">
  <sodipodi:namedview
     id="namedview6"
     pagecolor="#ffffff"
     bordercolor="#eeeeee"
     borderopacity="1"
     inkscape:showpageshadow="0"
     inkscape:pageopacity="0"
     inkscape:pagecheckerboard="0"
     inkscape:deskcolor="#545454"
     inkscape:zoom="25.324755"
     inkscape:cx="6.1797243"
     inkscape:cy="8.4304865"
     inkscape:window-width="1728"
     inkscape:window-height="990"
     inkscape:window-x="80"
     inkscape:window-y="1113"
     inkscape:window-maximized="1"
     inkscape:current-layer="svg6"
     showguides="false"
     showgrid="true">
    <inkscape:grid
       id="grid1"
       units="px"
       originx="0"
       originy="0"
       spacingx="1"
       spacingy="1"
       empcolor="#0099e5"
       empopacity="0.30196078"
       color="#0099e5"
       opacity="0.14901961"
       empspacing="5"
       enabled="true"
       visible="true" />
  </sodipodi:namedview>
  <defs
     id="defs6">
    <inkscape:path-effect
       effect="fillet_chamfer"
       id="path-effect4"
       is_visible="true"
       lpeversion="1"
       nodesatellites_param="F,0,0,1,0,0,0,1 @ F,0,0,1,0,0,0,1 @ F,0,0,1,0,0,0,1 @ F,0,0,1,0,0.91274802,0,1 @ F,0,0,1,0,0.79375784,0,1 @ F,0,0,1,0,0,0,1 @ F,0,0,1,0,0,0,1 @ F,0,0,1,0,0,0,1 @ F,0,0,1,0,0,0,1 @ F,0,0,1,0,0,0,1 @ F,0,0,1,0,0,0,1 @ F,0,0,1,0,0,0,1"
       radius="0"
       unit="px"
       method="auto"
       mode="F"
       chamfer_steps="1"
       flexible="false"
       use_knot_distance="true"
       apply_no_radius="true"
       apply_with_radius="true"
       only_selected="false"
       hide_knots="false" />
    <inkscape:path-effect
       effect="fillet_chamfer"
       id="path-effect5"
       is_visible="true"
       lpeversion="1"
       nodesatellites_param="F,0,0,1,0,0,0,1 @ F,0,0,1,0,0,0,1 @ F,0,0,1,0,0,0,1 @ F,0,0,1,0,0.5785156,0,1 @ F,0,1,1,0,0.5785156,0,1 @ F,0,0,1,0,0,0,1 @ F,0,0,1,0,0,0,1 @ F,0,0,1,0,0,0,1 @ F,0,0,1,0,0,0,1 @ F,0,0,1,0,0,0,1 @ F,0,0,1,0,0,0,1"
       radius="0"
       unit="px"
       method="auto"
       mode="F"
       chamfer_steps="1"
       flexible="false"
       use_knot_distance="true"
       apply_no_radius="true"
       apply_with_radius="true"
       only_selected="false"
       hide_knots="false" />
    <inkscape:perspective
       sodipodi:type="inkscape:persp3d"
       inkscape:vp_x="1.4641604e-15 : -21.061751 : 0"
       inkscape:vp_y="-2385.4101 : 1378.6851 : 0"
       inkscape:vp_z="20.115543 : 11.626094 : 0"
       inkscape:persp3d-origin="17.786866 : 1.777515 : 1"
       id="perspective1" />
    <clipPath
       clipPathUnits="userSpaceOnUse"
       id="clipPath7">
      <g
         id="g8">
        <rect
           width="16"
           height="16"
           fill="#ffffff"
           id="rect8"
           x="0"
           y="0" />
      </g>
    </clipPath>
    <inkscape:perspective
       sodipodi:type="inkscape:persp3d"
       inkscape:vp_x="1.4641604e-15 : -21.061751 : 0"
       inkscape:vp_y="-2385.4101 : 1378.6851 : 0"
       inkscape:vp_z="20.115543 : 11.626094 : 0"
       inkscape:persp3d-origin="30.236303 : -7.549373 : 1"
       id="perspective1-4" />
  </defs>
  <path
     id="path2"
     style="fill:#a8a8a8;stroke-width:0.991981;stroke-linecap:round;stroke-linejoin:bevel;fill-opacity:1"
     d="M 12.756956 0.88729593 A 0.89904358 0.91328844 0 0 0 11.863184 1.8059311 L 11.87372 3.5789861 C 11.850219 3.5594705 11.826924 3.539265 11.805238 3.5201221 C 10.59716 2.4536921 9.0134436 1.8059311 7.2819481 1.8059311 C 3.5090843 1.8059311 0.43028696 4.8826964 0.43028696 8.6555602 C 0.43028696 12.428424 3.5090843 15.506973 7.2819481 15.506973 C 10.429458 15.506973 13.091313 13.365202 13.887778 10.46429 C 14.021142 9.9785493 13.661406 9.568844 13.157309 9.568844 L 13.015078 9.568844 C 12.576698 9.568844 12.163107 9.9227806 12.017707 10.33586 C 11.330305 12.288753 9.4772651 13.680405 7.2819481 13.680405 C 4.4964305 13.680405 2.2564601 11.441078 2.2564601 8.6555602 C 2.2564601 5.8700426 4.4964305 3.6324988 7.2819481 3.6324988 C 8.5184684 3.6324988 9.6455819 4.0734852 10.518138 4.8079951 C 10.534637 4.8218841 10.551623 4.8359947 10.567304 4.8508053 L 8.7938087 4.8615078 A 0.89904358 0.91328844 0 0 0 7.9000374 5.780143 A 0.89904358 0.91328844 0 0 0 8.8043443 6.6880756 L 12.778027 6.6648867 A 0.89904358 0.91328844 0 0 0 13.227546 6.5400237 A 0.89904358 0.91328844 0 0 0 13.68409 5.7409003 L 13.661262 1.7952285 A 0.89904358 0.91328844 0 0 0 12.756956 0.88729593 z "
     transform="matrix(1.1122987,0,0,1.0949498,0.02139237,-0.979357)" />
</svg>
