<?xml version="1.0" encoding="UTF-8" standalone="no"?>
<svg
   width="16"
   height="16"
   id="svg2"
   version="1.1"
   inkscape:version="1.4.3 (0d15f75, 2025-12-25)"
   sodipodi:docname="rem_all_co.svg"
   inkscape:export-filename="C:\Users\D019122\OneDrive - SAP SE\Desktop\iam_package.png"
   inkscape:export-xdpi="96"
   inkscape:export-ydpi="96"
   xml:space="preserve"
   xmlns:inkscape="http://www.inkscape.org/namespaces/inkscape"
   xmlns:sodipodi="http://sodipodi.sourceforge.net/DTD/sodipodi-0.dtd"
   xmlns="http://www.w3.org/2000/svg"
   xmlns:svg="http://www.w3.org/2000/svg"
   xmlns:rdf="http://www.w3.org/1999/02/22-rdf-syntax-ns#"
   xmlns:cc="http://creativecommons.org/ns#"
   xmlns:dc="http://purl.org/dc/elements/1.1/"><defs
     id="defs4" /><sodipodi:namedview
     id="base"
     pagecolor="#ffffff"
     bordercolor="#666666"
     borderopacity="1.0"
     inkscape:pageopacity="0"
     inkscape:pageshadow="2"
     inkscape:zoom="37.345062"
     inkscape:cx="7.1361509"
     inkscape:cy="7.8591381"
     inkscape:document-units="px"
     inkscape:current-layer="layer1"
     showgrid="true"
     inkscape:window-width="1728"
     inkscape:window-height="990"
     inkscape:window-x="0"
     inkscape:window-y="344"
     inkscape:window-maximized="0"
     showguides="true"
     inkscape:guide-bbox="true"
     inkscape:snap-global="false"
     inkscape:snap-bbox="true"
     inkscape:bbox-nodes="true"
     inkscape:document-rotation="0"
     inkscape:showpageshadow="false"
     inkscape:pagecheckerboard="0"
     inkscape:deskcolor="#ffffff"><sodipodi:guide
       position="-32.526912,-1.7218637"
       orientation="1,0"
       id="guide1"
       inkscape:locked="false" /><inkscape:grid
       id="grid14"
       units="px"
       originx="0"
       originy="0"
       spacingx="1"
       spacingy="1"
       empcolor="#0099e5"
       empopacity="0.30196078"
       color="#0099e5"
       opacity="0.14901961"
       empspacing="5"
       enabled="true"
       visible="true"
       dotted="false" /><sodipodi:guide
       position="-14.318912,58.426407"
       orientation="0,-1"
       id="guide16"
       inkscape:locked="false" /><sodipodi:guide
       position="-15.202796,51.708892"
       orientation="0.70710678,-0.70710678"
       id="guide17"
       inkscape:locked="false" /><sodipodi:guide
       position="-4.065864,27.711456"
       orientation="0,-1"
       id="guide18"
       inkscape:locked="false" /></sodipodi:namedview><metadata
     id="metadata7"><rdf:RDF><cc:Work
         rdf:about=""><dc:format>image/svg+xml</dc:format><dc:type
           rdf:resource="http://purl.org/dc/dcmitype/StillImage" /></cc:Work></rdf:RDF></metadata><g
     inkscape:label="Layer 1"
     inkscape:groupmode="layer"
     id="layer1"
     style="display:inline"
     transform="translate(0,-1036.3622)"><path
       style="baseline-shift:baseline;display:inline;overflow:visible;opacity:1;vector-effect:none;fill:#a8a8a8;fill-rule:evenodd;enable-background:accumulate;stop-color:#000000;stop-opacity:1"
       d="m 4.599609,1039.8622 c -0.595668,0 -1.099609,0.5059 -1.099609,1.1016 v 10.2988 c 0,0.5957 0.503941,1.0996 1.099609,1.0996 h 10.300782 c 0.595668,0 1.099609,-0.5039 1.099609,-1.0996 v -10.2988 c 0,-0.5957 -0.503941,-1.1016 -1.099609,-1.1016 z m 0.900391,2 H 14 v 8.5 H 5.5 Z"
       id="rect1-7" /><path
       id="rect1-7-2"
       style="baseline-shift:baseline;display:inline;overflow:visible;vector-effect:none;fill:#a8a8a8;fill-rule:evenodd;enable-background:accumulate;stop-color:#000000"
       d="M 1.0996094 1036.3622 C 0.50394137 1036.3622 0 1036.8681 0 1037.4638 L 0 1047.7626 C 0 1048.3583 0.50394137 1048.8622 1.0996094 1048.8622 L 4 1048.8622 L 4 1046.8622 L 2 1046.8622 L 2 1038.3622 L 10.5 1038.3622 L 10.5 1040.3622 L 12.5 1040.3622 L 12.5 1037.4638 C 12.5 1036.8681 11.996059 1036.3622 11.400391 1036.3622 L 1.0996094 1036.3622 z " /><path
       id="path2"
       style="baseline-shift:baseline;display:inline;overflow:visible;vector-effect:none;fill:#a8a8a8;stroke-linecap:round;stroke-linejoin:round;enable-background:accumulate;stop-color:#000000"
       d="m 8,1043.3622 a 1,1 0 0 0 -0.7070312,0.293 1,1 0 0 0 0,1.414 l 1.0429687,1.043 -1.0429687,1.043 a 1,1 0 0 0 0,1.414 1,1 0 0 0 1.4140624,0 L 9.75,1047.5263 l 1.042969,1.0429 a 1,1 0 0 0 1.414062,0 1,1 0 0 0 0,-1.414 l -1.042969,-1.043 1.042969,-1.043 a 1,1 0 0 0 0,-1.414 1,1 0 0 0 -0.707031,-0.293 1,1 0 0 0 -0.707031,0.293 L 9.75,1044.6981 8.7070312,1043.6552 A 1,1 0 0 0 8,1043.3622 Z" /></g></svg>
