<?xml version="1.0" encoding="UTF-8" standalone="no"?>
<svg
   width="16"
   height="16"
   id="svg2"
   version="1.1"
   inkscape:version="1.4 (86a8ad7, 2024-10-11)"
   sodipodi:docname="rem_all_co.svg"
   inkscape:export-filename="C:\Users\D019122\OneDrive - SAP SE\Desktop\iam_package.png"
   inkscape:export-xdpi="96"
   inkscape:export-ydpi="96"
   xml:space="preserve"
   xmlns:inkscape="http://www.inkscape.org/namespaces/inkscape"
   xmlns:sodipodi="http://sodipodi.sourceforge.net/DTD/sodipodi-0.dtd"
   xmlns="http://www.w3.org/2000/svg"
   xmlns:svg="http://www.w3.org/2000/svg"
   xmlns:rdf="http://www.w3.org/1999/02/22-rdf-syntax-ns#"
   xmlns:cc="http://creativecommons.org/ns#"
   xmlns:dc="http://purl.org/dc/elements/1.1/"><defs
     id="defs4" /><sodipodi:namedview
     id="base"
     pagecolor="#ffffff"
     bordercolor="#666666"
     borderopacity="1.0"
     inkscape:pageopacity="0"
     inkscape:pageshadow="2"
     inkscape:zoom="16"
     inkscape:cx="3.3125"
     inkscape:cy="0.21875"
     inkscape:document-units="px"
     inkscape:current-layer="layer1"
     showgrid="true"
     inkscape:window-width="1920"
     inkscape:window-height="991"
     inkscape:window-x="-9"
     inkscape:window-y="-9"
     inkscape:window-maximized="1"
     showguides="false"
     inkscape:guide-bbox="true"
     inkscape:snap-global="false"
     inkscape:snap-bbox="true"
     inkscape:bbox-nodes="true"
     inkscape:document-rotation="0"
     inkscape:showpageshadow="false"
     inkscape:pagecheckerboard="0"
     inkscape:deskcolor="#ffffff"><inkscape:grid
       type="xygrid"
       id="grid3999"
       originx="0"
       originy="0"
       spacingy="1"
       spacingx="1"
       units="px"
       visible="false"
       enabled="true" /><inkscape:grid
       id="grid1"
       units="px"
       originx="0"
       originy="0"
       spacingx="1"
       spacingy="1"
       empcolor="#0099e5"
       empopacity="0.30196078"
       color="#0099e5"
       opacity="0.14901961"
       empspacing="5"
       enabled="true"
       visible="true" /></sodipodi:namedview><metadata
     id="metadata7"><rdf:RDF><cc:Work
         rdf:about=""><dc:format>image/svg+xml</dc:format><dc:type
           rdf:resource="http://purl.org/dc/dcmitype/StillImage" /></cc:Work></rdf:RDF></metadata><g
     inkscape:label="Layer 1"
     inkscape:groupmode="layer"
     id="layer1"
     style="display:inline"
     transform="translate(0,-1036.3622)"><path
       id="rect2-0"
       style="fill:#a8a8a8;stroke-linecap:round"
       d="M 2 1036.3622 C 0.90929723 1036.3622 0 1037.2715 0 1038.3622 L 0 1046.7333 C 0 1047.824 0.90929723 1048.7333 2 1048.7333 L 3.6289062 1048.7333 L 3.6289062 1050.3622 C 3.6289062 1051.4529 4.5382035 1052.3622 5.6289062 1052.3622 L 14 1052.3622 C 15.090703 1052.3622 16 1051.4529 16 1050.3622 L 16 1041.9931 C 16 1040.9024 15.090703 1039.9931 14 1039.9931 L 12.371094 1039.9931 L 12.371094 1038.3622 C 12.371094 1037.2715 11.461797 1036.3622 10.371094 1036.3622 L 2 1036.3622 z M 2 1038.3622 L 10.371094 1038.3622 L 10.371094 1039.9911 L 5.6289062 1039.9911 C 5.083048 1039.9911 4.5844495 1040.2186 4.2207031 1040.5829 C 4.1756148 1040.6281 4.1305583 1040.6744 4.0898438 1040.7235 C 4.0895385 1040.7239 4.0901487 1040.7251 4.0898438 1040.7255 C 4.0491948 1040.7747 4.0105408 1040.825 3.9746094 1040.8778 C 3.9743147 1040.8783 3.9749037 1040.8793 3.9746094 1040.8798 C 3.9387359 1040.9326 3.9038576 1040.9877 3.8730469 1041.0438 C 3.8727804 1041.0443 3.8733129 1041.0453 3.8730469 1041.0458 C 3.8422984 1041.102 3.8124507 1041.1586 3.7871094 1041.2177 C 3.786878 1041.2182 3.7873403 1041.2191 3.7871094 1041.2196 C 3.7618307 1041.2787 3.74023 1041.3395 3.7207031 1041.4013 C 3.7205171 1041.4018 3.7208886 1041.4026 3.7207031 1041.4032 C 3.701238 1041.465 3.683289 1041.5267 3.6699219 1041.5907 C 3.6697915 1041.5913 3.6700517 1041.592 3.6699219 1041.5927 C 3.6566165 1041.6567 3.6455311 1041.7221 3.6386719 1041.788 C 3.6386043 1041.7886 3.6387388 1041.7893 3.6386719 1041.7899 C 3.6318763 1041.8559 3.6289062 1041.9236 3.6289062 1041.9911 L 3.6289062 1041.9931 L 3.6289062 1046.7333 L 2 1046.7333 L 2 1038.3622 z M 5.6289062 1041.9931 L 14 1041.9931 L 14 1050.3622 L 5.6289062 1050.3622 L 5.6289062 1048.7333 L 5.6289062 1041.9931 z " /><path
       style="display:inline;fill:none;fill-opacity:1;stroke:#a8a8a8;stroke-width:2;stroke-linecap:round;stroke-dasharray:none"
       d="m 8.5,1044.8622 3,3"
       id="path2-4-8" /><path
       style="display:inline;fill:none;fill-opacity:1;stroke:#a8a8a8;stroke-width:2;stroke-linecap:round;stroke-dasharray:none"
       d="m 11.5,1044.8622 -3,3"
       id="path2-4-8-8" /></g></svg>
