<?xml version="1.0" encoding="UTF-8" standalone="no"?>
<!-- Created with Inkscape (http://www.inkscape.org/) -->

<svg
   width="16"
   height="16"
   viewBox="0 0 4.2333332 4.2333333"
   version="1.1"
   id="svg1"
   inkscape:version="1.4.3 (0d15f75, 2025-12-25)"
   sodipodi:docname="resource-count 1.svg"
   xmlns:inkscape="http://www.inkscape.org/namespaces/inkscape"
   xmlns:sodipodi="http://sodipodi.sourceforge.net/DTD/sodipodi-0.dtd"
   xmlns="http://www.w3.org/2000/svg"
   xmlns:svg="http://www.w3.org/2000/svg">
  <sodipodi:namedview
     id="namedview1"
     pagecolor="#ffffff"
     bordercolor="#000000"
     borderopacity="0.25"
     inkscape:showpageshadow="false"
     inkscape:pageopacity="0.0"
     inkscape:pagecheckerboard="0"
     inkscape:deskcolor="#ffffff"
     inkscape:document-units="px"
     showgrid="true"
     inkscape:zoom="28.808981"
     inkscape:cx="10.69111"
     inkscape:cy="8.2092455"
     inkscape:window-width="1728"
     inkscape:window-height="990"
     inkscape:window-x="0"
     inkscape:window-y="344"
     inkscape:window-maximized="0"
     inkscape:current-layer="layer1"
     showguides="true">
    <inkscape:grid
       id="grid1"
       units="px"
       originx="0"
       originy="0"
       spacingx="0.26458333"
       spacingy="0.26458333"
       empcolor="#0099e5"
       empopacity="0.30196078"
       color="#0099e5"
       opacity="0.14901961"
       empspacing="5"
       enabled="true"
       visible="true" />
  </sodipodi:namedview>
  <defs
     id="defs1" />
  <g
     inkscape:label="Layer 1"
     inkscape:groupmode="layer"
     id="layer1">
    <path
       style="baseline-shift:baseline;display:inline;overflow:visible;opacity:1;vector-effect:none;fill:#a8a8a8;stroke-width:1;stroke-linecap:round;stroke-linejoin:round;enable-background:accumulate;stop-color:#000000;stop-opacity:1"
       d="M 0.26372841,0 A 0.26464023,0.2645835 0 0 0 0,0.26367188 0.26464023,0.2645835 0 0 0 0.26372841,0.52929687 H 3.9696009 A 0.26464023,0.2645835 0 0 0 4.2333293,0.26367188 0.26464023,0.2645835 0 0 0 3.9696009,0 Z"
       id="path3-1" />
    <path
       id="rect1"
       style="fill:#a8a8a8;fill-opacity:1;fill-rule:evenodd;stroke-width:0.264583"
       d="M -5.0270832 -3.9687501 A 0.26458332 0.26458332 0 0 0 -5.2916665 -3.7041667 L -5.2916665 -0.92604178 A 0.26458332 0.26458332 0 0 0 -5.0270832 -0.66145845 L -3.5155476 -0.66145845 C -3.5288358 -0.69197615 -3.5396758 -0.72325993 -3.5481037 -0.75499279 C -3.5632747 -0.80992119 -3.5718748 -0.86789031 -3.5718749 -0.92707531 C -3.5718749 -0.97600791 -3.5658374 -1.0236143 -3.5553384 -1.0697023 C -3.5200711 -1.23512 -3.4241471 -1.3875181 -3.2747354 -1.4867311 L -2.9228189 -1.7203085 L -3.2747354 -1.953886 C -3.4267459 -2.0548148 -3.5236825 -2.21097 -3.5574055 -2.3796998 C -3.5667345 -2.4233137 -3.5718749 -2.4685283 -3.5718749 -2.5145753 C -3.5718749 -2.5217603 -3.5705622 -2.5286226 -3.5703246 -2.5357626 C -3.5701836 -2.5366832 -3.5698374 -2.5386 -3.5698078 -2.53938 C -3.5688078 -2.565061 -3.5670499 -2.5904373 -3.5630899 -2.6153443 C -3.5550199 -2.6683747 -3.5393384 -2.7203954 -3.5181314 -2.7708904 C -3.5178272 -2.7716004 -3.5174079 -2.7722481 -3.5170979 -2.7729574 C -3.5016379 -2.809405 -3.4838363 -2.8449171 -3.4612873 -2.8788941 C -3.3739659 -3.0104692 -3.2455278 -3.1011887 -3.1031696 -3.1450277 C -3.0691544 -3.1556587 -3.0342285 -3.1633221 -2.9982665 -3.1682821 C -2.9770185 -3.1713121 -2.9551329 -3.1734633 -2.9336709 -3.1744833 C -2.9122079 -3.1755033 -2.8911052 -3.1755133 -2.8695922 -3.1744833 L -1.3213663 -3.1744833 C -1.2282306 -3.1744833 -1.139189 -3.1544982 -1.0583333 -3.1186728 L -1.0583333 -3.7041667 A 0.26458332 0.26458332 0 0 0 -1.3229166 -3.9687501 L -5.0270832 -3.9687501 z "
       transform="translate(5.2916665,4.8947917)" />
    <path
       id="rect8-1-2-9"
       style="fill:#ff7f27;fill-opacity:1;fill-rule:evenodd;stroke-width:0.264583"
       d="m 2.38125,2.1166704 a 0.26458332,0.26458332 0 0 0 -0.2645834,0.2645834 0.26458332,0.26458332 0 0 0 0,0.00258 0.26988038,0.2699185 89.998423 0 0 0.1204061,0.2273763 L 3.0866332,3.1750037 2.2370727,3.7387936 a 0.2699185,0.26988038 0.0015775 0 0 -0.1204061,0.2273763 0.26458332,0.26458332 0 0 0 0,0.00258 0.26458332,0.26458332 0 0 0 0.2645834,0.2645833 h 0.00517 5.168e-4 1.5818155 A 0.26458332,0.26458332 0 0 0 4.2333332,3.9687537 0.26458332,0.26458332 0 0 0 3.9687499,3.7041704 H 3.2654337 L 3.7160522,3.4049639 a 0.2699185,0.26988038 0.0015775 0 0 0.1198893,-0.2185913 0.26988038,0.2699185 89.998423 0 0 0,-0.022738 0.26988038,0.2699185 89.998423 0 0 -0.1198893,-0.218591 L 3.2654337,2.6458371 H 3.9687499 A 0.26458332,0.26458332 0 0 0 4.2333332,2.3812538 0.26458332,0.26458332 0 0 0 3.9687499,2.1166704 H 2.3864176 Z" />
  </g>
</svg>
