<?xml version="1.0" encoding="UTF-8" standalone="no"?>
<!-- Created with Inkscape (http://www.inkscape.org/) -->

<svg
   width="16"
   height="16"
   viewBox="0 0 4.2333332 4.2333333"
   version="1.1"
   id="svg1"
   inkscape:version="1.4.3 (0d15f75, 2025-12-25)"
   sodipodi:docname="restart_stop.svg"
   xml:space="preserve"
   xmlns:inkscape="http://www.inkscape.org/namespaces/inkscape"
   xmlns:sodipodi="http://sodipodi.sourceforge.net/DTD/sodipodi-0.dtd"
   xmlns="http://www.w3.org/2000/svg"
   xmlns:svg="http://www.w3.org/2000/svg"><sodipodi:namedview
     id="namedview1"
     pagecolor="#ffffff"
     bordercolor="#000000"
     borderopacity="0.25"
     inkscape:showpageshadow="false"
     inkscape:pageopacity="0.0"
     inkscape:pagecheckerboard="0"
     inkscape:deskcolor="#ffffff"
     inkscape:document-units="px"
     showgrid="true"
     inkscape:zoom="18.453125"
     inkscape:cx="16.799322"
     inkscape:cy="19.427603"
     inkscape:window-width="1717"
     inkscape:window-height="1385"
     inkscape:window-x="1624"
     inkscape:window-y="44"
     inkscape:window-maximized="0"
     inkscape:current-layer="layer1"
     showguides="true"><inkscape:grid
       id="grid1"
       units="px"
       originx="0"
       originy="0"
       spacingx="0.26458333"
       spacingy="0.26458333"
       empcolor="#0099e5"
       empopacity="0.30196078"
       color="#0099e5"
       opacity="0.14901961"
       empspacing="5"
       enabled="true"
       visible="true" /></sodipodi:namedview><defs
     id="defs1" /><g
     inkscape:label="Layer 1"
     inkscape:groupmode="layer"
     id="layer1"><path
       id="rect1"
       style="fill:#c80000;fill-opacity:1;fill-rule:evenodd;stroke-width:0.264583"
       d="M 0.25424804 0 A 0.254 0.254 0 0 0 0 0.25424804 L 0 2.9207519 A 0.254 0.254 0 0 0 0.25424804 3.1749999 L 2.2499918 3.1749999 C 2.2499912 3.0672837 2.2498475 2.9595686 2.2499918 2.8515055 L 2.2499918 2.3027018 A 0.39691468 0.39691468 0 0 1 2.2499918 2.3006347 C 2.2505879 2.1080315 2.3393224 1.922851 2.5021728 1.8122924 C 2.5833362 1.7571909 2.6895729 1.7276049 2.7982788 1.7270263 C 2.9069846 1.7264478 3.0178186 1.7551046 3.1073038 1.8164266 L 3.1078206 1.8164266 L 3.1083373 1.8164266 L 3.1088541 1.8164266 L 3.1093709 1.8164266 L 3.1749999 1.8608683 L 3.1749999 0.25424804 A 0.254 0.254 0 0 0 2.9207519 0 L 0.25424804 0 z " /><path
       id="path1-4"
       style="fill:#499c54;fill-opacity:1;stroke-width:0.529168;stroke-linecap:round;stroke-linejoin:round"
       inkscape:transform-center-x="-0.28949835"
       d="M 2.8826444,2.1420956 A 0.1573338,0.18673919 0 0 0 2.6460485,2.3027198 v 0.5487993 a 171.37127,203.40024 0 0 0 0,0.6447277 V 4.0450461 A 0.1573338,0.18673919 0 0 0 2.8826444,4.2079013 L 3.2832172,3.9335016 A 171.37127,203.40024 0 0 0 3.7540661,3.6122532 L 4.154639,3.3356226 a 0.1573338,0.18673919 0 0 0 0,-0.3234793 L 3.7540661,2.7377437 A 171.37127,203.40024 0 0 0 3.2832172,2.4142644 Z" /></g></svg>
