<?xml version="1.0" encoding="UTF-8" standalone="no"?>
<!-- Created with Inkscape (http://www.inkscape.org/) -->

<svg
   width="16"
   height="16"
   viewBox="0 0 4.2333332 4.2333333"
   version="1.1"
   id="svg1"
   inkscape:version="1.4.3 (0d15f75, 2025-12-25)"
   sodipodi:docname="run-last-debug.svg"
   xmlns:inkscape="http://www.inkscape.org/namespaces/inkscape"
   xmlns:sodipodi="http://sodipodi.sourceforge.net/DTD/sodipodi-0.dtd"
   xmlns="http://www.w3.org/2000/svg"
   xmlns:svg="http://www.w3.org/2000/svg">
  <sodipodi:namedview
     id="namedview1"
     pagecolor="#ffffff"
     bordercolor="#000000"
     borderopacity="0.25"
     inkscape:showpageshadow="false"
     inkscape:pageopacity="0.0"
     inkscape:pagecheckerboard="0"
     inkscape:deskcolor="#ffffff"
     inkscape:document-units="px"
     showgrid="true"
     inkscape:zoom="28.459365"
     inkscape:cx="7.5721999"
     inkscape:cy="8.134405"
     inkscape:window-width="1728"
     inkscape:window-height="990"
     inkscape:window-x="0"
     inkscape:window-y="33"
     inkscape:window-maximized="0"
     inkscape:current-layer="layer1"
     showguides="true">
    <inkscape:grid
       id="grid1"
       units="px"
       originx="0"
       originy="0"
       spacingx="0.26458333"
       spacingy="0.26458333"
       empcolor="#0099e5"
       empopacity="0.30196078"
       color="#0099e5"
       opacity="0.14901961"
       empspacing="5"
       enabled="true"
       visible="true" />
  </sodipodi:namedview>
  <defs
     id="defs1">
    <inkscape:path-effect
       effect="fillet_chamfer"
       id="path-effect1"
       is_visible="true"
       lpeversion="1"
       nodesatellites_param="F,0,0,1,0,1,0,1 @ F,0,0,1,0,1,0,1 @ F,0,0,1,0,1,0,1"
       radius="0.25"
       unit="px"
       method="auto"
       mode="F"
       chamfer_steps="1"
       flexible="false"
       use_knot_distance="true"
       apply_no_radius="true"
       apply_with_radius="true"
       only_selected="false"
       hide_knots="false" />
  </defs>
  <g
     inkscape:label="Layer 1"
     inkscape:groupmode="layer"
     id="layer1">
    <path
       id="path11"
       style="color:#000000;fill:#499c54;fill-opacity:1;stroke-width:0.331649;stroke-linecap:round;stroke-linejoin:round;-inkscape-stroke:none"
       d="M 2.7972452 0 A 0.26456752 0.24953652 0 0 0 2.6959594 0.021187337 A 0.26456752 0.24953652 0 0 0 2.5559163 0.15864664 L 2.3900349 0.5560384 C 2.3013389 0.5382445 2.2101738 0.52916666 2.1161499 0.52916666 C 1.9873215 0.52916666 1.8630364 0.54645559 1.7445963 0.57929279 L 1.5688965 0.15864664 A 0.26456752 0.24953652 0 0 0 1.4288533 0.021187337 A 0.26456752 0.24953652 0 0 0 1.3280843 0.00051676431 A 0.26456752 0.24953652 0 0 0 1.2262817 0.017569987 A 0.26456752 0.24953652 0 0 0 1.0769368 0.34106445 L 1.2727905 0.81080321 C 1.1517974 0.89983804 1.0421141 1.0076195 0.94671222 1.1296468 C 1.2531486 1.4137026 1.6633232 1.5873667 2.1156331 1.5875 L 2.1177002 1.5875 C 2.5695959 1.587103 2.9793849 1.413486 3.2855875 1.1296468 C 3.1686406 0.98018825 3.0308136 0.85261157 2.8763102 0.75395913 L 3.0483927 0.34106445 A 0.26456752 0.24953652 0 0 0 2.8990478 0.017569987 A 0.26456752 0.24953652 0 0 0 2.7972452 0 z M 0.73587238 1.4696777 C 0.68838847 1.567772 0.64838732 1.6708398 0.61649983 1.778186 L 0.41857909 1.6371093 A 0.26456752 0.26456605 0 0 0 0.22117513 1.5911173 A 0.26456752 0.26456605 0 0 0 0.049609374 1.6986043 A 0.26456752 0.26456605 0 0 0 0.11110433 2.0680908 L 0.52916666 2.3667806 C 0.52913416 2.3716006 0.52916666 2.376432 0.52916666 2.38125 C 0.52916666 2.47992 0.5358128 2.5769384 0.5488037 2.6721883 L 0.23874511 2.7026774 A 0.26456752 0.26456605 0 0 0 0.0015502929 2.9910318 A 0.26456752 0.26456605 0 0 0 0.29042154 3.2292602 L 0.68884683 3.1905029 C 0.74539263 3.3264534 0.81562897 3.4536558 0.89813638 3.5692911 L 0.63975422 3.753776 A 0.26464695 0.26456605 0 0 0 0.57825927 4.1222289 A 0.26464695 0.26456605 0 0 0 0.94774575 4.1842406 L 1.2727905 3.9516967 C 1.4626005 4.0909043 1.6808641 4.1839758 1.9182291 4.2178303 L 1.9182291 3.8772826 L 1.912028 3.8710815 A 0.39691468 0.39691468 0 0 1 1.912028 3.8690144 C 1.7901507 3.7455795 1.7218552 3.5789491 1.7208252 3.4059936 A 0.39691468 0.39691468 0 0 1 1.7208252 3.3884236 C 1.7209252 3.3758216 1.7220769 3.3643043 1.7228922 3.3517333 C 1.7237422 3.3385023 1.7227925 3.3256212 1.7244425 3.3124592 A 0.39691468 0.39691468 0 0 1 1.7265096 3.3047078 C 1.7428926 3.190324 1.7881515 3.0813444 1.859318 2.9899983 A 0.39691468 0.39691468 0 0 1 1.878955 2.970878 L 1.8908406 2.9569254 L 1.8908406 2.9564086 C 1.8911517 2.9557288 1.8915608 2.9545029 1.8918741 2.9538248 L 1.8923909 2.953308 C 1.8999799 2.944918 1.9081421 2.9359866 1.9161621 2.9279866 L 1.9182291 2.9259195 L 1.9182291 2.8442708 A 0.19832752 0.19841663 0 0 1 2.1166666 2.6458333 A 0.19832752 0.19841663 0 0 1 2.1843627 2.6577189 L 2.4727172 2.3672973 C 2.5962923 2.2427721 2.7654619 2.1719867 2.9414225 2.1719604 C 3.0639702 2.1719787 3.164718 2.2454828 3.2675007 2.3083862 C 3.2789157 2.1856901 3.1480824 2.0750979 3.2287434 1.9724894 C 3.3233712 1.8522249 3.4566993 1.769777 3.6039143 1.7368449 C 3.5742519 1.6444247 3.5382929 1.5550191 3.4969441 1.4696777 C 3.125851 1.7899825 2.6433536 1.984375 2.1161499 1.984375 C 1.589086 1.984375 1.1067813 1.7898305 0.73587238 1.4696777 z M 3.9775349 1.5880167 A 0.26456752 0.26456605 0 0 0 3.8142374 1.6371093 L 3.6943481 1.7228922 C 3.7160362 1.7211111 3.7380129 1.7204412 3.7599771 1.7208252 C 3.9052453 1.7233102 4.0449547 1.7733441 4.1584024 1.8634521 C 4.1591603 1.8640258 4.1853214 1.8837788 4.2245483 1.920813 A 0.26456752 0.26456605 0 0 0 4.1837239 1.6986043 A 0.26456752 0.26456605 0 0 0 4.0121581 1.5911173 A 0.26456752 0.26456605 0 0 0 3.9775349 1.5880167 z M 3.7015828 4.0028564 C 3.601021 4.0229274 3.509266 4.0148088 3.4101277 4.0235269 C 3.4037734 4.094629 3.428819 4.1659751 3.4447509 4.2333332 A 0.26464695 0.26456605 0 0 0 3.6545572 4.1222289 A 0.26464695 0.26456605 0 0 0 3.7015828 4.0028564 z " />
    <path
       id="path1-4"
       style="baseline-shift:baseline;display:inline;overflow:visible;vector-effect:none;fill:#ff7f27;stroke-width:0.264583;stroke-linecap:round;stroke-linejoin:round;enable-background:accumulate;stop-color:#000000"
       d="m 3.7521411,2.1167029 a 0.26423611,0.26620985 0 0 0 -0.2121114,0.1013883 0.26423611,0.26620985 0 0 0 0.044899,0.3753974 c 0,0 0.04665,0.0391 0.077929,0.098269 0.043072,0.081477 0.051667,0.1671501 0.029417,0.2360531 -0.031358,0.097107 -0.098295,0.1328656 -0.2244974,0.1804195 -0.039754,0.014979 -0.1239707,0.021748 -0.2451407,0.024437 H 3.0192992 l 0.1094102,-0.110228 a 0.26423461,0.26620834 0 0 0 0,-0.376437 0.26423461,0.26620834 0 0 0 -0.1868231,-0.077991 0.26423461,0.26620834 0 0 0 -0.1868231,0.077991 L 2.1971745,3.2080586 a 0.26423594,0.26620968 0 0 0 -0.023223,0.025997 0.26423461,0.26620834 0 0 0 -0.00103,0.00104 0.26423594,0.26620968 0 0 0 -0.053672,0.1263456 0.26423461,0.26620834 0 0 0 -0.00207,0.031196 0.26423461,0.26620834 0 0 0 -5.16e-4,0.00415 0.26423461,0.26620834 0 0 0 5.16e-4,0.0078 0.26423461,0.26620834 0 0 0 0.076897,0.1861388 l 0.5604693,0.5646558 a 0.26423461,0.26620834 0 0 0 0.3736461,0 0.26423461,0.26620834 0 0 0 0,-0.3764372 L 3.0239439,3.6739255 c 0.2294288,0.00718 0.4276706,0.00799 0.6296248,-0.068112 C 3.8245152,3.5413999 4.0953941,3.4025093 4.1954587,3.0926317 4.2686204,2.8660664 4.229964,2.6324168 4.1293998,2.4421857 4.0402254,2.2734999 3.9126438,2.1749363 3.9126438,2.1749363 A 0.26423611,0.26620985 0 0 0 3.7521411,2.1167029 Z" />
    <g
       id="path1-4-9"
       style="opacity:1" />
  </g>
</svg>
