<?xml version="1.0" encoding="UTF-8" standalone="no"?>
<svg
   width="16"
   height="16"
   id="svg2"
   version="1.1"
   inkscape:version="1.4.2 (ebf0e940, 2025-05-08)"
   sodipodi:docname="saveall_edit.svg"
   inkscape:export-filename="C:\Users\D019122\OneDrive - SAP SE\Desktop\iam_package.png"
   inkscape:export-xdpi="96"
   inkscape:export-ydpi="96"
   xml:space="preserve"
   xmlns:inkscape="http://www.inkscape.org/namespaces/inkscape"
   xmlns:sodipodi="http://sodipodi.sourceforge.net/DTD/sodipodi-0.dtd"
   xmlns="http://www.w3.org/2000/svg"
   xmlns:svg="http://www.w3.org/2000/svg"
   xmlns:rdf="http://www.w3.org/1999/02/22-rdf-syntax-ns#"
   xmlns:cc="http://creativecommons.org/ns#"
   xmlns:dc="http://purl.org/dc/elements/1.1/"><defs
     id="defs4" /><sodipodi:namedview
     id="base"
     pagecolor="#ffffff"
     bordercolor="#666666"
     borderopacity="1.0"
     inkscape:pageopacity="0"
     inkscape:pageshadow="2"
     inkscape:zoom="16"
     inkscape:cx="-0.09375"
     inkscape:cy="20.53125"
     inkscape:document-units="px"
     inkscape:current-layer="layer1"
     showgrid="true"
     inkscape:window-width="1920"
     inkscape:window-height="1022"
     inkscape:window-x="0"
     inkscape:window-y="30"
     inkscape:window-maximized="0"
     showguides="false"
     inkscape:guide-bbox="true"
     inkscape:snap-global="false"
     inkscape:snap-bbox="true"
     inkscape:bbox-nodes="true"
     inkscape:document-rotation="0"
     inkscape:showpageshadow="false"
     inkscape:pagecheckerboard="0"
     inkscape:deskcolor="#ffffff"><inkscape:grid
       type="xygrid"
       id="grid3999"
       originx="0"
       originy="0"
       spacingy="1"
       spacingx="1"
       units="px"
       visible="false"
       enabled="true" /><inkscape:grid
       id="grid1"
       units="px"
       originx="0"
       originy="0"
       spacingx="1"
       spacingy="1"
       empcolor="#0099e5"
       empopacity="0.30196078"
       color="#0099e5"
       opacity="0.14901961"
       empspacing="5"
       enabled="true"
       visible="true" /></sodipodi:namedview><metadata
     id="metadata7"><rdf:RDF><cc:Work
         rdf:about=""><dc:format>image/svg+xml</dc:format><dc:type
           rdf:resource="http://purl.org/dc/dcmitype/StillImage" /></cc:Work></rdf:RDF></metadata><g
     inkscape:label="Layer 1"
     inkscape:groupmode="layer"
     id="layer1"
     style="display:inline"
     transform="translate(0,-1036.3622)"><path
       id="rect1"
       style="display:inline;fill:#a8a8a8;fill-opacity:1;stroke-width:2;stroke-linecap:round;stroke-linejoin:round"
       d="m 4.2929687,1039.8622 c -0.4395752,0 -0.7929687,0.354 -0.7929687,0.7929 v 10.9141 c 0,0.439 0.3533935,0.793 0.7929687,0.793 H 5.5 v -4 -0.793 a 0.70625,0.70625 0 0 1 0.7070312,-0.707 H 9.7480469 9.75 13.292969 a 0.70625,0.70625 0 0 1 0.705078,0.707 v 0.793 H 14 v 4 h 1.207031 c 0.439576,0 0.792969,-0.354 0.792969,-0.793 v -8.8359 a 1.2902139,1.2884825 0 0 0 -0.376953,-0.9101 l -1.503906,-1.502 a 1.5676003,1.5654967 0 0 0 -1.109375,-0.459 H 12.25 v 2 0.7402 a 0.759375,0.759375 0 0 1 -0.759765,0.7598 H 9.75 8.0097656 A 0.759375,0.759375 0 0 1 7.25,1042.6024 v -0.7402 -2 z m 4.4570313,0 v 2 h 1 1 v -2 z m -1.75,8.5 v 4 h 5.5 v -4 H 9.75 9.74805 Z" /><path
       id="rect6-5-1-8-1"
       d="m 0,1038.3622 v -0.9781 a 1.021875,1.021875 0 0 1 1.021875,-1.0219 H 9.95625 a 1.04375,1.04375 0 0 1 1.04375,1.0437 0.96567051,0.96567051 0 0 1 -0.975,0.9563 z"
       style="display:inline;fill:#a8a8a8;fill-opacity:1;stroke-width:2;stroke-linecap:round;stroke-linejoin:round" /><path
       id="rect6-5-1-8-1-1"
       d="M 0.99687501,1050.3622 H 1.01875 A 0.98125,0.98125 0 0 0 2,1049.3809 v -11.0187 H 1.4886814e-8 v 11.0031 A 0.996875,0.996875 0 0 0 0.99687501,1050.3622 Z"
       style="display:inline;fill:#a8a8a8;fill-opacity:1;stroke-width:2;stroke-linecap:round;stroke-linejoin:round" /></g></svg>
