<?xml version="1.0" encoding="UTF-8" standalone="no"?>
<!-- Created with Inkscape (http://www.inkscape.org/) -->

<svg
   width="16"
   height="16"
   viewBox="0 0 4.2333332 4.2333333"
   version="1.1"
   id="svg1"
   inkscape:version="1.4.3 (0d15f75, 2025-12-25)"
   sodipodi:docname="segment-selection.svg"
   xml:space="preserve"
   xmlns:inkscape="http://www.inkscape.org/namespaces/inkscape"
   xmlns:sodipodi="http://sodipodi.sourceforge.net/DTD/sodipodi-0.dtd"
   xmlns="http://www.w3.org/2000/svg"
   xmlns:svg="http://www.w3.org/2000/svg"><sodipodi:namedview
     id="namedview1"
     pagecolor="#ffffff"
     bordercolor="#000000"
     borderopacity="0.25"
     inkscape:showpageshadow="false"
     inkscape:pageopacity="0.0"
     inkscape:pagecheckerboard="0"
     inkscape:deskcolor="#ffffff"
     inkscape:document-units="px"
     showgrid="true"
     inkscape:zoom="24.925514"
     inkscape:cx="11.253529"
     inkscape:cy="6.4993645"
     inkscape:window-width="2894"
     inkscape:window-height="1308"
     inkscape:window-x="706"
     inkscape:window-y="159"
     inkscape:window-maximized="0"
     inkscape:current-layer="layer1"
     showguides="true"><inkscape:grid
       id="grid1"
       units="px"
       originx="0"
       originy="0"
       spacingx="0.26458333"
       spacingy="0.26458333"
       empcolor="#0099e5"
       empopacity="0.30196078"
       color="#0099e5"
       opacity="0.14901961"
       empspacing="5"
       enabled="true"
       visible="true" /></sodipodi:namedview><defs
     id="defs1" /><g
     inkscape:label="Layer 1"
     inkscape:groupmode="layer"
     id="layer1"><path
       id="rect3-7"
       d="M 0.26458332,2.6677322e-8 H 0.52916664 V 0.52916667 H 0 V 0.26458335 A 0.26458332,0.26458332 135 0 1 0.26458332,2.6677322e-8 Z"
       style="fill:#ff7f27;fill-opacity:1;fill-rule:evenodd;stroke-width:0.264583" /><path
       id="rect3-8-9-3-6"
       transform="rotate(90,2.1166666,2.1166666)"
       d="M 0.26458332,2.6677322e-8 H 0.52916664 V 0.52916667 H 0 V 0.26458335 A 0.26458332,0.26458332 135 0 1 0.26458332,2.6677322e-8 Z"
       style="fill:#ff7f27;fill-opacity:1;fill-rule:evenodd;stroke-width:0.264583" /><path
       id="rect3-1-27-1"
       style="fill:#ff7f27;fill-rule:evenodd;stroke-width:0.264583"
       transform="rotate(90)"
       d="M 4.9227904e-8,-3.307291 H 0.52916669 v 0.5291666 H 4.9227904e-8 Z" /><path
       id="rect3-1-2-7-4"
       style="fill:#ff7f27;fill-rule:evenodd;stroke-width:0.264583"
       transform="rotate(90)"
       d="M 4.9227904e-8,-1.4552077 H 0.52916669 v 0.52916663 H 4.9227904e-8 Z" /><path
       id="rect3-1-2-2-9-2"
       style="fill:#ff7f27;fill-rule:evenodd;stroke-width:0.264583"
       transform="rotate(90)"
       d="M 4.9227904e-8,-2.3812494 H 0.52916669 v 0.5291666 H 4.9227904e-8 Z" /><path
       id="rect3-8-7"
       transform="rotate(-90,2.1166666,2.1166667)"
       d="M 0.26458332,2.6677322e-8 H 0.52916664 V 0.52916667 H 0 V 0.26458335 A 0.26458332,0.26458332 135 0 1 0.26458332,2.6677322e-8 Z"
       style="fill:#ff7f27;fill-opacity:1;fill-rule:evenodd;stroke-width:0.264583" /><path
       id="rect3-8-9-9"
       transform="rotate(180,2.1166665,2.1166667)"
       d="M 0.26458332,2.6677322e-8 H 0.52916664 V 0.52916667 H 0 V 0.26458335 A 0.26458332,0.26458332 135 0 1 0.26458332,2.6677322e-8 Z"
       style="fill:#ff7f27;fill-opacity:1;fill-rule:evenodd;stroke-width:0.264583" /><path
       id="rect3-1-27-6-5"
       style="fill:#ff7f27;fill-rule:evenodd;stroke-width:0.264583"
       transform="rotate(90)"
       d="m 3.7041669,-3.307291 h 0.5291666 v 0.5291666 H 3.7041669 Z" /><path
       id="rect3-1-2-7-5-4"
       style="fill:#ff7f27;fill-rule:evenodd;stroke-width:0.264583"
       transform="rotate(90)"
       d="m 3.7041669,-1.4552081 h 0.5291666 v 0.52916668 H 3.7041669 Z" /><path
       id="rect3-1-2-2-9-0-3"
       style="fill:#ff7f27;fill-rule:evenodd;stroke-width:0.264583"
       transform="rotate(90)"
       d="m 3.7041669,-2.3812494 h 0.5291666 v 0.5291666 H 3.7041669 Z" /><path
       id="rect2"
       d="m 0.26458332,0.92604166 3.70416648,0 A 0.26458332,0.26458332 45 0 1 4.2333331,1.190625 V 3.0427082 A 0.26458332,0.26458332 135 0 1 3.9687498,3.3072916 l -3.70416648,0 A 0.26458332,0.26458332 45 0 1 0,3.0427082 V 1.190625 A 0.26458332,0.26458332 135 0 1 0.26458332,0.92604166 Z"
       style="fill:#ff7f27;fill-opacity:1;fill-rule:evenodd;stroke-width:0.26785" /></g></svg>
