<?xml version="1.0" encoding="UTF-8" standalone="no"?>
<!-- Created with Inkscape (http://www.inkscape.org/) -->

<svg
   width="16"
   height="16"
   viewBox="0 0 4.2333332 4.2333333"
   version="1.1"
   id="svg1"
   inkscape:version="1.4.3 (0d15f75, 2025-12-25)"
   sodipodi:docname="sleeping.svg"
   xml:space="preserve"
   xmlns:inkscape="http://www.inkscape.org/namespaces/inkscape"
   xmlns:sodipodi="http://sodipodi.sourceforge.net/DTD/sodipodi-0.dtd"
   xmlns="http://www.w3.org/2000/svg"
   xmlns:svg="http://www.w3.org/2000/svg"><sodipodi:namedview
     id="namedview1"
     pagecolor="#ffffff"
     bordercolor="#000000"
     borderopacity="0.25"
     inkscape:showpageshadow="false"
     inkscape:pageopacity="0.0"
     inkscape:pagecheckerboard="0"
     inkscape:deskcolor="#ffffff"
     inkscape:document-units="px"
     showgrid="true"
     inkscape:zoom="12.750019"
     inkscape:cx="-10.666651"
     inkscape:cy="16.941151"
     inkscape:window-width="2033"
     inkscape:window-height="1334"
     inkscape:window-x="1313"
     inkscape:window-y="87"
     inkscape:window-maximized="0"
     inkscape:current-layer="layer1"
     showguides="true"><inkscape:grid
       id="grid1"
       units="px"
       originx="0"
       originy="0"
       spacingx="0.26458333"
       spacingy="0.26458333"
       empcolor="#0099e5"
       empopacity="0.30196078"
       color="#0099e5"
       opacity="0.14901961"
       empspacing="5"
       enabled="true"
       visible="true" /></sodipodi:namedview><defs
     id="defs1" /><g
     inkscape:label="Layer 1"
     inkscape:groupmode="layer"
     id="layer1"><path
       id="path4"
       style="baseline-shift:baseline;display:inline;overflow:visible;vector-effect:none;fill:#a8a8a8;stroke-width:1;stroke-linecap:round;stroke-linejoin:round;enable-background:accumulate;stop-color:#000000"
       d="m 2.3813846,1.3229166 a 0.26452657,0.26452657 0 0 0 -0.2634931,0.2655597 0.26452657,0.26452657 0 0 0 0.2634931,0.263493 h 1.0932381 l -1.313849,1.9705151 a 0.26452657,0.26452657 0 0 0 0.074398,0.3668237 0.26452657,0.26452657 0 0 0 0.1704955,0.042882 H 3.9690597 A 0.26452657,0.26452657 0 0 0 4.2325528,3.9686972 0.26452657,0.26452657 0 0 0 3.9690597,3.7052041 H 2.875305 l 1.3143656,-1.970515 a 0.26452657,0.26452657 0 0 0 0.023249,-0.2474769 0.26452657,0.26452657 0 0 0 -0.012916,-0.026866 0.26452657,0.26452657 0 0 0 -0.0062,-0.01085 0.26452657,0.26452657 0 0 0 -0.011367,-0.016533 0.26452657,0.26452657 0 0 0 -0.0093,-0.011883 0.26452657,0.26452657 0 0 0 -0.011366,-0.013433 0.26452657,0.26452657 0 0 0 -0.01085,-0.01085 0.26452657,0.26452657 0 0 0 -0.018083,-0.016017 0.26452657,0.26452657 0 0 0 -0.0031,-0.00258 0.26452657,0.26452657 0 0 0 -0.014466,-0.010333 0.26452657,0.26452657 0 0 0 -0.0031,-0.00207 0.26452657,0.26452657 0 0 0 -0.023766,-0.01395 0.26452657,0.26452657 0 0 0 -0.0031,-0.00155 0.26452657,0.26452657 0 0 0 -0.00258,-0.00103 0.26452657,0.26452657 0 0 0 -0.028416,-0.011367 0.26452657,0.26452657 0 0 0 -0.00103,-5.166e-4 0.26452657,0.26452657 0 0 0 -0.00155,-5.167e-4 0.26452657,0.26452657 0 0 0 -0.032032,-0.00827 0.26452657,0.26452657 0 0 0 -0.034099,-0.00465 0.26452657,0.26452657 0 0 0 -0.016532,-0.00103 z" /><path
       id="path10"
       style="baseline-shift:baseline;display:inline;overflow:visible;vector-effect:none;fill:#a8a8a8;stroke-width:1;stroke-linecap:round;stroke-linejoin:round;enable-background:accumulate;stop-color:#000000"
       d="M 0.26348497,0 A 0.26451841,0.26451841 0 0 0 0,0.26348497 0.26451841,0.26451841 0 0 0 0.26348497,0.52903649 H 1.3582392 L 0.05941328,2.4777919 A 0.26451841,0.26451841 0 0 0 0.00568301,2.594552 0.26451841,0.26451841 0 0 0 0,2.645699 a 0.26451841,0.26451841 0 0 0 0.00154991,0.017049 0.26451841,0.26451841 0 0 0 0.00464973,0.034098 0.26451841,0.26451841 0 0 0 0.00878283,0.033582 0.26451841,0.26451841 0 0 0 0.01291594,0.031515 0.26451841,0.26451841 0 0 0 0.01446584,0.025832 0.26451841,0.26451841 0 0 0 0.005683,0.00827 0.26451841,0.26451841 0 0 0 0.01601576,0.020666 0.26451841,0.26451841 0 0 0 0.0041331,0.00465 0.26451841,0.26451841 0 0 0 0.01859893,0.019115 0.26451841,0.26451841 0 0 0 0.0072329,0.0062 0.26451841,0.26451841 0 0 0 0.01911558,0.014982 0.26451841,0.26451841 0 0 0 0.004133,0.0031 0.26451841,0.26451841 0 0 0 0.005167,0.0031 0.26451841,0.26451841 0 0 0 0.0160158,0.0093 0.26451841,0.26451841 0 0 0 0.0185989,0.0093 0.26451841,0.26451841 0 0 0 0.0108494,0.00413 0.26451841,0.26451841 0 0 0 0.017049,0.0062 0.26451841,0.26451841 0 0 0 0.0154991,0.00465 0.26451841,0.26451841 0 0 0 0.0206655,0.00413 0.26451841,0.26451841 0 0 0 0.008266,0.00155 0.26451841,0.26451841 0 0 0 0.0031,0 0.26451841,0.26451841 0 0 0 0.0237654,0.00155 0.26451841,0.26451841 0 0 0 0.007233,5.166e-4 0.26451841,0.26451841 0 0 0 0.006199,0 H 1.851111 A 0.26451841,0.26451841 0 0 0 2.1166626,2.645699 0.26451841,0.26451841 0 0 0 1.851111,2.3801475 H 0.75894003 l 1.30915857,-1.96270466 0.00103,-0.00155 a 0.26451841,0.26451841 0 0 0 0.00258,-0.004133 0.26451841,0.26451841 0 0 0 0.030482,-0.0619964 0.26451841,0.26451841 0 0 0 0.00878,-0.0335814 0.26451841,0.26451841 0 0 0 0.00413,-0.0320315 0.26451841,0.26451841 0 0 0 5.166e-4,-0.002066 0.26451841,0.26451841 0 0 0 0,-0.002066 0.26451841,0.26451841 0 0 0 0.00103,-0.0165324 0.26451841,0.26451841 0 0 0 -0.00103,-0.0139492 0.26451841,0.26451841 0 0 0 0,-0.002066 0.26451841,0.26451841 0 0 0 -5.166e-4,-0.002583 0.26451841,0.26451841 0 0 0 -0.00413,-0.0304816 0.26451841,0.26451841 0 0 0 0,-0.00155 0.26451841,0.26451841 0 0 0 -5.167e-4,-0.001034 A 0.26451841,0.26451841 0 0 0 1.9027748,0.00568301 0.26451841,0.26451841 0 0 0 1.851111,0 Z" /></g></svg>
