<?xml version="1.0" encoding="UTF-8" standalone="no"?>
<svg
   width="16"
   height="16"
   viewBox="0 0 16 16"
   fill="none"
   version="1.1"
   id="svg6"
   sodipodi:docname="sort.svg"
   inkscape:version="1.4.2 (f4327f4, 2025-05-13)"
   inkscape:export-filename="import_config_obj_16x16.png"
   inkscape:export-xdpi="96"
   inkscape:export-ydpi="96"
   xmlns:inkscape="http://www.inkscape.org/namespaces/inkscape"
   xmlns:sodipodi="http://sodipodi.sourceforge.net/DTD/sodipodi-0.dtd"
   xmlns="http://www.w3.org/2000/svg"
   xmlns:svg="http://www.w3.org/2000/svg">
  <sodipodi:namedview
     id="namedview6"
     pagecolor="#ffffff"
     bordercolor="#0c0005"
     borderopacity="0.36078431"
     inkscape:showpageshadow="0"
     inkscape:pageopacity="0"
     inkscape:pagecheckerboard="0"
     inkscape:deskcolor="#ffffff"
     inkscape:zoom="15.765625"
     inkscape:cx="17.6333"
     inkscape:cy="18.616452"
     inkscape:window-width="1972"
     inkscape:window-height="1211"
     inkscape:window-x="1063"
     inkscape:window-y="121"
     inkscape:window-maximized="0"
     inkscape:current-layer="svg6"
     showguides="true"
     showgrid="true"
     inkscape:lockguides="false">
    <inkscape:grid
       id="grid1"
       units="px"
       originx="0"
       originy="0"
       spacingx="1"
       spacingy="1"
       empcolor="#0099e5"
       empopacity="0.30196078"
       color="#0099e5"
       opacity="0.14901961"
       empspacing="5"
       enabled="true"
       visible="true" />
  </sodipodi:namedview>
  <defs
     id="defs6" />
  <path
     id="path1-7"
     style="baseline-shift:baseline;display:inline;overflow:visible;vector-effect:none;fill:#a8a8a8;fill-opacity:1;stroke-width:1;stroke-linecap:round;stroke-linejoin:round;enable-background:accumulate;stop-color:#000000"
     d="m 3.0000005,2.8e-5 a 1.000131,1 0 0 0 -1.000131,1 V 12.55081 l -0.363329,-0.378907 a 0.9592668,0.99999499 0 0 0 -1.35564705,0 0.9592668,0.99999499 0 0 0 0,1.414062 l 2.03347005,2.121094 a 0.9592668,0.99999499 0 0 0 0.671963,0.291016 0.9592668,0.99999499 0 0 0 0.02735,0.002 0.9592668,0.99999499 0 0 0 0.01563,-0.002 0.9592668,0.99999499 0 0 0 0.111343,-0.0078 0.9592716,1 0 0 0 0.455137,-0.203125 0.9592668,0.99999499 0 0 0 0.0039,-0.002 0.9592716,1 0 0 0 0.09376,-0.08789 l 2.025652,-2.111294 a 0.9592668,0.99999499 0 0 0 7e-6,-1.414062 0.9592668,0.99999499 0 0 0 -1.355646,0 l -0.363328,0.376953 V 1.000028 A 1.000131,1 0 0 0 3.2930075,0.04495 0.9592716,1 0 0 0 3.1601775,0.0137 a 1.000131,1 0 0 0 -0.07618,-0.0098 0.9592716,1 0 0 0 -0.002,0 A 1.000131,1 0 0 0 2.9999575,0 Z" />
  <path
     id="path1-0-9"
     style="baseline-shift:baseline;display:inline;overflow:visible;vector-effect:none;fill:#a8a8a8;stroke-linecap:round;enable-background:accumulate;stop-color:#000000;stop-opacity:1;opacity:1"
     d="M 5.5019531 3.5 L 5.5019531 5.5 L 15 5.5 A 1 1 0 0 0 16 4.5 A 1 1 0 0 0 15 3.5 L 5.5019531 3.5 z M 0.50195312 3.6328125 A 1 1 0 0 0 0 4.5 A 1 1 0 0 0 0.50195312 5.3671875 L 0.50195312 3.6328125 z " />
  <path
     id="path1-0-9-5"
     style="baseline-shift:baseline;display:inline;overflow:visible;vector-effect:none;fill:#a8a8a8;stroke-linecap:round;enable-background:accumulate;stop-color:#000000;stop-opacity:1;opacity:1"
     d="M 5.2910156 0 C 5.427064 0.30880606 5.5015998 0.64743618 5.5019531 0.99804688 A 1.50015 1.50015 0 0 0 5.5019531 1 L 5.5019531 2 L 15 2 A 1 1 0 0 0 16 1 A 1 1 0 0 0 15 0 L 5.2910156 0 z M 0.6953125 0.046875 A 1 1 0 0 0 0 1 A 1 1 0 0 0 0.50195312 1.8671875 L 0.50195312 1 C 0.50195312 0.66419186 0.57090603 0.3416161 0.6953125 0.046875 z " />
  <path
     id="path1-0-9-6"
     style="baseline-shift:baseline;display:inline;overflow:visible;vector-effect:none;fill:#a8a8a8;stroke-linecap:round;enable-background:accumulate;stop-color:#000000;stop-opacity:1;opacity:1"
     d="M 5.5019531 7 L 5.5019531 9 L 15 9 A 1 1 0 0 0 16 8 A 1 1 0 0 0 15 7 L 5.5019531 7 z M 0.50195312 7.1328125 A 1 1 0 0 0 0 8 A 1 1 0 0 0 0.50195312 8.8671875 L 0.50195312 7.1328125 z " />
  <path
     id="path1-0-9-6-4"
     style="baseline-shift:baseline;display:inline;overflow:visible;vector-effect:none;fill:#a8a8a8;stroke-linecap:round;enable-background:accumulate;stop-color:#000000;stop-opacity:1;opacity:1"
     d="M 5.5019531 10.5 L 5.5019531 10.59375 C 5.9703631 10.68763 6.4571874 10.773108 6.8027344 11.132812 C 7.176132 11.522143 7.4013738 12.00201 7.4765625 12.5 L 15 12.5 A 1 1 0 0 0 16 11.5 A 1 1 0 0 0 15 10.5 L 5.5019531 10.5 z " />
  <path
     id="path1-0-9-6-4-1"
     style="baseline-shift:baseline;display:inline;overflow:visible;vector-effect:none;fill:#a8a8a8;stroke-linecap:round;enable-background:accumulate;stop-color:#000000;stop-opacity:1;opacity:1"
     d="M 7.2421875 14 C 7.1310527 14.224263 6.9846514 14.435321 6.8027344 14.625 L 5.484375 16 L 15 16 A 1 1 0 0 0 16 15 A 1 1 0 0 0 15 14 L 7.2421875 14 z " />
</svg>
