<?xml version="1.0" encoding="UTF-8" standalone="no"?>
<!-- Created with Inkscape (http://www.inkscape.org/) -->

<svg
   width="16"
   height="16"
   viewBox="0 0 4.2333332 4.2333333"
   version="1.1"
   id="svg1"
   inkscape:version="1.4.3 (0d15f75, 2025-12-25)"
   sodipodi:docname="stop_all.svg"
   xmlns:inkscape="http://www.inkscape.org/namespaces/inkscape"
   xmlns:sodipodi="http://sodipodi.sourceforge.net/DTD/sodipodi-0.dtd"
   xmlns="http://www.w3.org/2000/svg"
   xmlns:svg="http://www.w3.org/2000/svg">
  <sodipodi:namedview
     id="namedview1"
     pagecolor="#ffffff"
     bordercolor="#000000"
     borderopacity="0.25"
     inkscape:showpageshadow="false"
     inkscape:pageopacity="0.0"
     inkscape:pagecheckerboard="0"
     inkscape:deskcolor="#ffffff"
     inkscape:document-units="px"
     showgrid="true"
     inkscape:zoom="14.904485"
     inkscape:cx="18.484369"
     inkscape:cy="23.75124"
     inkscape:window-width="2204"
     inkscape:window-height="1308"
     inkscape:window-x="1416"
     inkscape:window-y="81"
     inkscape:window-maximized="0"
     inkscape:current-layer="layer1"
     showguides="true">
    <inkscape:grid
       id="grid1"
       units="px"
       originx="0"
       originy="0"
       spacingx="0.26458333"
       spacingy="0.26458333"
       empcolor="#0099e5"
       empopacity="0.30196078"
       color="#0099e5"
       opacity="0.14901961"
       empspacing="5"
       enabled="true"
       visible="true" />
  </sodipodi:namedview>
  <defs
     id="defs1" />
  <g
     inkscape:label="Layer 1"
     inkscape:groupmode="layer"
     id="layer1">
    <path
       id="rect1-7-2"
       style="baseline-shift:baseline;display:inline;overflow:visible;vector-effect:none;fill:#c80000;fill-rule:evenodd;stroke-width:0.264583;enable-background:accumulate;stop-color:#000000;fill-opacity:1"
       d="M 0.2909383,-3.4797668e-8 C 0.1333345,-3.4797668e-8 0,0.13385267 0,0.29146497 V 3.0163558 C 0,3.173968 0.1333345,3.3072916 0.2909383,3.3072916 H 1.0583332 V 2.7781249 H 0.5291667 V 0.52916657 H 2.778125 V 1.0583333 H 3.3072916 V 0.29146497 C 3.3072916,0.13385267 3.1739571,-3.4797668e-8 3.0163533,-3.4797668e-8 Z" />
    <path
       id="rect1"
       transform="translate(0.66145842,-4.6302084)"
       d="M 0.52916664,5.5562501 H 3.3072915 A 0.26458332,0.26458332 45 0 1 3.5718748,5.8208334 V 8.5989583 A 0.26458332,0.26458332 135 0 1 3.3072915,8.8635416 H 0.52916664 A 0.26458332,0.26458332 45 0 1 0.26458332,8.5989583 V 5.8208334 A 0.26458332,0.26458332 135 0 1 0.52916664,5.5562501 Z"
       style="fill:#c80000;fill-opacity:1;fill-rule:evenodd;stroke-width:0.264583" />
  </g>
</svg>
