<?xml version="1.0" encoding="UTF-8" standalone="no"?>
<svg
   width="16"
   height="16"
   viewBox="0 0 16 16"
   fill="none"
   version="1.1"
   id="svg6"
   sodipodi:docname="synchronize-resources.svg"
   inkscape:version="1.4.3 (0d15f75, 2025-12-25)"
   inkscape:export-filename="refresh_tab_16x16.png"
   inkscape:export-xdpi="96"
   inkscape:export-ydpi="96"
   xmlns:inkscape="http://www.inkscape.org/namespaces/inkscape"
   xmlns:sodipodi="http://sodipodi.sourceforge.net/DTD/sodipodi-0.dtd"
   xmlns="http://www.w3.org/2000/svg"
   xmlns:svg="http://www.w3.org/2000/svg">
  <sodipodi:namedview
     id="namedview6"
     pagecolor="#ffffff"
     bordercolor="#eeeeee"
     borderopacity="1"
     inkscape:showpageshadow="0"
     inkscape:pageopacity="0"
     inkscape:pagecheckerboard="0"
     inkscape:deskcolor="#545454"
     inkscape:zoom="31.236242"
     inkscape:cx="9.9883973"
     inkscape:cy="9.2680802"
     inkscape:window-width="1728"
     inkscape:window-height="990"
     inkscape:window-x="0"
     inkscape:window-y="33"
     inkscape:window-maximized="1"
     inkscape:current-layer="svg6"
     showguides="false"
     showgrid="true">
    <inkscape:grid
       id="grid1"
       units="px"
       originx="0"
       originy="0"
       spacingx="1"
       spacingy="1"
       empcolor="#0099e5"
       empopacity="0.30196078"
       color="#0099e5"
       opacity="0.14901961"
       empspacing="5"
       enabled="true"
       visible="true" />
  </sodipodi:namedview>
  <defs
     id="defs6">
    <inkscape:path-effect
       effect="fillet_chamfer"
       id="path-effect4"
       is_visible="true"
       lpeversion="1"
       nodesatellites_param="F,0,0,1,0,0,0,1 @ F,0,0,1,0,0,0,1 @ F,0,0,1,0,0,0,1 @ F,0,0,1,0,0.91274802,0,1 @ F,0,0,1,0,0.79375784,0,1 @ F,0,0,1,0,0,0,1 @ F,0,0,1,0,0,0,1 @ F,0,0,1,0,0,0,1 @ F,0,0,1,0,0,0,1 @ F,0,0,1,0,0,0,1 @ F,0,0,1,0,0,0,1 @ F,0,0,1,0,0,0,1"
       radius="0"
       unit="px"
       method="auto"
       mode="F"
       chamfer_steps="1"
       flexible="false"
       use_knot_distance="true"
       apply_no_radius="true"
       apply_with_radius="true"
       only_selected="false"
       hide_knots="false" />
    <inkscape:path-effect
       effect="fillet_chamfer"
       id="path-effect5"
       is_visible="true"
       lpeversion="1"
       nodesatellites_param="F,0,0,1,0,0,0,1 @ F,0,0,1,0,0,0,1 @ F,0,0,1,0,0,0,1 @ F,0,0,1,0,0.5785156,0,1 @ F,0,1,1,0,0.5785156,0,1 @ F,0,0,1,0,0,0,1 @ F,0,0,1,0,0,0,1 @ F,0,0,1,0,0,0,1 @ F,0,0,1,0,0,0,1 @ F,0,0,1,0,0,0,1 @ F,0,0,1,0,0,0,1"
       radius="0"
       unit="px"
       method="auto"
       mode="F"
       chamfer_steps="1"
       flexible="false"
       use_knot_distance="true"
       apply_no_radius="true"
       apply_with_radius="true"
       only_selected="false"
       hide_knots="false" />
    <inkscape:perspective
       sodipodi:type="inkscape:persp3d"
       inkscape:vp_x="1.4641604e-15 : -21.061751 : 0"
       inkscape:vp_y="-2385.4101 : 1378.6851 : 0"
       inkscape:vp_z="20.115543 : 11.626094 : 0"
       inkscape:persp3d-origin="17.786866 : 1.777515 : 1"
       id="perspective1" />
    <clipPath
       clipPathUnits="userSpaceOnUse"
       id="clipPath7">
      <g
         id="g8">
        <rect
           width="16"
           height="16"
           fill="#ffffff"
           id="rect8"
           x="0"
           y="0" />
      </g>
    </clipPath>
    <inkscape:perspective
       sodipodi:type="inkscape:persp3d"
       inkscape:vp_x="1.4641604e-15 : -21.061751 : 0"
       inkscape:vp_y="-2385.4101 : 1378.6851 : 0"
       inkscape:vp_z="20.115543 : 11.626094 : 0"
       inkscape:persp3d-origin="30.236303 : -7.549373 : 1"
       id="perspective1-4" />
  </defs>
  <path
     id="path3-1-7"
     style="baseline-shift:baseline;display:inline;overflow:visible;vector-effect:none;fill:#a8a8a8;stroke-width:0.999996;stroke-linecap:round;stroke-linejoin:round;enable-background:accumulate;stop-color:#000000"
     d="M 1 7.5 A 1.0000341 1 0 0 0 0.86914062 7.5078125 A 1.0000341 1 0 0 0 0 8.5 L 0 11.5 A 1.0000341 1 0 0 0 1 12.5 A 1.0000341 1 0 0 0 2 11.5 L 2 10.910156 C 3.315884 12.127572 5.405729 13.5 8.140625 13.5 C 8.2794152 13.5 8.4173526 13.497136 8.5527344 13.490234 C 8.5187427 13.328662 8.5 13.160953 8.5 12.990234 L 8.5 11.5 C 8.5 11.496211 8.4999824 11.492067 8.5 11.488281 C 8.3816815 11.495768 8.2618969 11.5 8.140625 11.5 C 6.137323 11.5 4.515259 10.453345 3.453125 9.5 L 4 9.5 A 1.0000341 1 0 0 0 5 8.5 A 1.0000341 1 0 0 0 4 7.5 L 1 7.5 z " />
  <path
     id="path3-1"
     style="baseline-shift:baseline;display:inline;overflow:visible;vector-effect:none;fill:#a8a8a8;stroke-width:0.999996;stroke-linecap:round;stroke-linejoin:round;enable-background:accumulate;stop-color:#000000"
     d="M 7.85937,0 C 2.942253,0 0.157936,4.460938 0.157936,4.460938 A 1.0000341,1 0 0 0 0.460681,5.841797 1.0000341,1 0 0 0 1.841587,5.539063 c 0,0 2.3421,-3.539063 6.017783,-3.539063 2.003302,0 3.625524,1.0466544 4.687659,2 h -0.546893 a 1.0000341,1 0 0 0 -1.000035,1 1.0000341,1 0 0 0 1.000035,1 h 3.000102 A 1.0000341,1 0 0 0 15.131101,5.9922 1.0000341,1 0 0 0 16.000272,5.000013 V 2.0000025 a 1.0000341,1 0 0 0 -1.000034,-1 1.0000341,1 0 0 0 -1.000034,1 V 2.5898438 C 12.68432,1.3724279 10.594265,0 7.85937,0 Z" />
  <circle
     style="fill:#a8a8a8;stroke:none;stroke-width:3;stroke-linecap:round;stroke-linejoin:round"
     id="path1"
     cx="11"
     cy="-9"
     transform="scale(1,-1)"
     r="1" />
  <circle
     style="fill:#a8a8a8;stroke:none;stroke-width:3;stroke-linecap:round;stroke-linejoin:round"
     id="path1-8"
     cx="15"
     cy="-9"
     transform="scale(1,-1)"
     r="1" />
  <path
     id="path7"
     style="baseline-shift:baseline;display:inline;overflow:visible;vector-effect:none;fill:#a8a8a8;stroke-linecap:round;stroke-linejoin:round;enable-background:accumulate;stop-color:#000000"
     d="M 11 10.5 A 1 1 0 0 0 10 11.5 L 10 12.990234 A 1 1 0 0 0 11 13.990234 A 1 1 0 0 0 11.091797 13.986328 A 1 1 0 0 0 11.1875 13.990234 L 14 13.990234 L 14 15 A 1 1 0 0 0 15 16 A 1 1 0 0 0 16 15 L 16 11.5 A 1 1 0 0 0 15 10.5 A 1 1 0 0 0 14 11.5 L 14 11.990234 L 12 11.990234 L 12 11.5 A 1 1 0 0 0 11 10.5 z " />
</svg>
