<?xml version="1.0" encoding="UTF-8" standalone="no"?>
<svg
   width="16"
   height="16"
   viewBox="0 0 16 16"
   fill="none"
   version="1.1"
   id="svg6"
   sodipodi:docname="synchronize-resources.svg"
   inkscape:version="1.4.3 (0d15f75, 2025-12-25)"
   inkscape:export-filename="refresh_tab_16x16.png"
   inkscape:export-xdpi="96"
   inkscape:export-ydpi="96"
   xmlns:inkscape="http://www.inkscape.org/namespaces/inkscape"
   xmlns:sodipodi="http://sodipodi.sourceforge.net/DTD/sodipodi-0.dtd"
   xmlns="http://www.w3.org/2000/svg"
   xmlns:svg="http://www.w3.org/2000/svg">
  <sodipodi:namedview
     id="namedview6"
     pagecolor="#ffffff"
     bordercolor="#eeeeee"
     borderopacity="1"
     inkscape:showpageshadow="0"
     inkscape:pageopacity="0"
     inkscape:pagecheckerboard="0"
     inkscape:deskcolor="#545454"
     inkscape:zoom="10.387799"
     inkscape:cx="13.188549"
     inkscape:cy="3.8025378"
     inkscape:window-width="1728"
     inkscape:window-height="990"
     inkscape:window-x="0"
     inkscape:window-y="33"
     inkscape:window-maximized="1"
     inkscape:current-layer="svg6"
     showguides="false"
     showgrid="true">
    <inkscape:grid
       id="grid1"
       units="px"
       originx="0"
       originy="0"
       spacingx="1"
       spacingy="1"
       empcolor="#0099e5"
       empopacity="0.30196078"
       color="#0099e5"
       opacity="0.14901961"
       empspacing="5"
       enabled="true"
       visible="true" />
  </sodipodi:namedview>
  <defs
     id="defs6">
    <inkscape:path-effect
       effect="fillet_chamfer"
       id="path-effect4"
       is_visible="true"
       lpeversion="1"
       nodesatellites_param="F,0,0,1,0,0,0,1 @ F,0,0,1,0,0,0,1 @ F,0,0,1,0,0,0,1 @ F,0,0,1,0,0.91274802,0,1 @ F,0,0,1,0,0.79375784,0,1 @ F,0,0,1,0,0,0,1 @ F,0,0,1,0,0,0,1 @ F,0,0,1,0,0,0,1 @ F,0,0,1,0,0,0,1 @ F,0,0,1,0,0,0,1 @ F,0,0,1,0,0,0,1 @ F,0,0,1,0,0,0,1"
       radius="0"
       unit="px"
       method="auto"
       mode="F"
       chamfer_steps="1"
       flexible="false"
       use_knot_distance="true"
       apply_no_radius="true"
       apply_with_radius="true"
       only_selected="false"
       hide_knots="false" />
    <inkscape:path-effect
       effect="fillet_chamfer"
       id="path-effect5"
       is_visible="true"
       lpeversion="1"
       nodesatellites_param="F,0,0,1,0,0,0,1 @ F,0,0,1,0,0,0,1 @ F,0,0,1,0,0,0,1 @ F,0,0,1,0,0.5785156,0,1 @ F,0,1,1,0,0.5785156,0,1 @ F,0,0,1,0,0,0,1 @ F,0,0,1,0,0,0,1 @ F,0,0,1,0,0,0,1 @ F,0,0,1,0,0,0,1 @ F,0,0,1,0,0,0,1 @ F,0,0,1,0,0,0,1"
       radius="0"
       unit="px"
       method="auto"
       mode="F"
       chamfer_steps="1"
       flexible="false"
       use_knot_distance="true"
       apply_no_radius="true"
       apply_with_radius="true"
       only_selected="false"
       hide_knots="false" />
    <inkscape:perspective
       sodipodi:type="inkscape:persp3d"
       inkscape:vp_x="1.4641604e-15 : -21.061751 : 0"
       inkscape:vp_y="-2385.4101 : 1378.6851 : 0"
       inkscape:vp_z="20.115543 : 11.626094 : 0"
       inkscape:persp3d-origin="17.786866 : 1.777515 : 1"
       id="perspective1" />
    <clipPath
       clipPathUnits="userSpaceOnUse"
       id="clipPath7">
      <g
         id="g8">
        <rect
           width="16"
           height="16"
           fill="#ffffff"
           id="rect8"
           x="0"
           y="0" />
      </g>
    </clipPath>
    <inkscape:perspective
       sodipodi:type="inkscape:persp3d"
       inkscape:vp_x="1.4641604e-15 : -21.061751 : 0"
       inkscape:vp_y="-2385.4101 : 1378.6851 : 0"
       inkscape:vp_z="20.115543 : 11.626094 : 0"
       inkscape:persp3d-origin="30.236303 : -7.549373 : 1"
       id="perspective1-4" />
  </defs>
  <path
     id="path3-1-7-5"
     style="baseline-shift:baseline;display:inline;overflow:visible;vector-effect:none;fill:#a8a8a8;stroke-width:0.999996;stroke-linecap:round;stroke-linejoin:round;enable-background:accumulate;stop-color:#000000"
     d="M 1 7.5 A 1.0000341 1 0 0 0 0.86914062 7.5078125 A 1.0000341 1 0 0 0 0 8.5 L 0 11.5 A 1.0000341 1 0 0 0 1 12.5 A 1.0000341 1 0 0 0 2 11.5 L 2 10.910156 C 3.3015269 12.11429 5.3596619 13.470559 8.0507812 13.5 C 8.4936033 12.549308 9.1823021 11.744685 10.039062 11.208984 C 10.033689 11.201275 10.028741 11.193307 10.023438 11.185547 C 9.4450555 11.380101 8.8150202 11.5 8.140625 11.5 C 6.137323 11.5 4.5152597 10.453345 3.453125 9.5 L 4 9.5 A 1.0000341 1 0 0 0 5 8.5 A 1.0000341 1 0 0 0 4 7.5 L 1 7.5 z M 15.021484 7.5 A 1.0000341 1 0 0 0 14.75 7.5332031 C 15.215483 8.0642383 15.5 8.7561038 15.5 9.5058594 C 15.5 9.5106731 15.500023 9.5147223 15.5 9.5195312 C 15.726222 9.2239718 15.841797 9.0390625 15.841797 9.0390625 A 1.0000341 1 0 0 0 15.539062 7.6582031 A 1.0000341 1 0 0 0 15.021484 7.5 z " />
  <path
     id="path3-1-9"
     style="baseline-shift:baseline;display:inline;overflow:visible;vector-effect:none;fill:#a8a8a8;stroke-width:0.999996;stroke-linecap:round;stroke-linejoin:round;enable-background:accumulate;stop-color:#000000"
     d="M 7.8593703,0 C 2.9422535,0 0.15793613,4.4609375 0.15793613,4.4609375 A 1.0000341,1 0 0 0 0.46068082,5.8417969 1.0000341,1 0 0 0 1.8415872,5.5390625 C 1.8415872,5.5390625 4.1836876,2 7.8593703,2 9.8626718,2 11.484894,3.0466544 12.547029,4 h -0.546893 a 1.0000341,1 0 0 0 -1.000035,1 1.0000341,1 0 0 0 1.000035,1 h 3.000102 a 1.0000341,1 0 0 0 0.130863,-0.00781 1.0000341,1 0 0 0 0.869171,-0.9921875 v -3 a 1.0000341,1 0 0 0 -1.000034,-1 1.0000341,1 0 0 0 -1.000034,1 V 2.5898438 C 12.68432,1.3724279 10.594265,0 7.8593703,0 Z" />
  <ellipse
     style="fill:#a8a8a8;fill-opacity:1;stroke:none;stroke-width:2.00001;stroke-linecap:round;stroke-linejoin:round"
     id="path1"
     cx="12.5"
     cy="9.5050287"
     rx="1.5"
     ry="1.5050292" />
  <path
     id="path2"
     style="fill:#a8a8a8;fill-opacity:1;stroke:none;stroke-width:2.00001;stroke-linecap:round;stroke-linejoin:round"
     d="M 12.500001,12 A 3.4999993,4.0000002 0 0 0 8.9999998,16 H 16 a 3.4999993,4.0000002 0 0 0 -3.499999,-4 z" />
</svg>
