<?xml version="1.0" encoding="UTF-8" standalone="no"?>
<!-- Created with Inkscape (http://www.inkscape.org/) -->

<svg
   width="16"
   height="16"
   viewBox="0 0 4.2333332 4.2333333"
   version="1.1"
   id="svg1"
   inkscape:version="1.4.3 (0d15f75, 2025-12-25)"
   sodipodi:docname="tasks 1.svg"
   xmlns:inkscape="http://www.inkscape.org/namespaces/inkscape"
   xmlns:sodipodi="http://sodipodi.sourceforge.net/DTD/sodipodi-0.dtd"
   xmlns="http://www.w3.org/2000/svg"
   xmlns:svg="http://www.w3.org/2000/svg">
  <sodipodi:namedview
     id="namedview1"
     pagecolor="#ffffff"
     bordercolor="#000000"
     borderopacity="0.25"
     inkscape:showpageshadow="false"
     inkscape:pageopacity="0.0"
     inkscape:pagecheckerboard="0"
     inkscape:deskcolor="#ffffff"
     inkscape:document-units="px"
     showgrid="true"
     inkscape:zoom="24.150089"
     inkscape:cx="4.0786599"
     inkscape:cy="6.6045305"
     inkscape:window-width="1728"
     inkscape:window-height="990"
     inkscape:window-x="0"
     inkscape:window-y="344"
     inkscape:window-maximized="0"
     inkscape:current-layer="layer1"
     showguides="true">
    <inkscape:grid
       id="grid1"
       units="px"
       originx="0"
       originy="0"
       spacingx="0.26458333"
       spacingy="0.26458333"
       empcolor="#0099e5"
       empopacity="0.30196078"
       color="#0099e5"
       opacity="0.14901961"
       empspacing="5"
       enabled="true"
       visible="true" />
  </sodipodi:namedview>
  <defs
     id="defs1" />
  <g
     inkscape:label="Layer 1"
     inkscape:groupmode="layer"
     id="layer1">
    <path
       id="path4"
       style="baseline-shift:baseline;display:inline;overflow:visible;vector-effect:none;fill:#a8a8a8;stroke-width:0.999997;stroke-linecap:round;enable-background:accumulate;stop-color:#000000"
       d="M 3.9529285,4.5957738e-4 A 0.26453508,0.26456978 0 0 0 3.7498773,0.11569204 L 2.0278171,2.6497727 1.3773298,2.0079848 a 0.26453508,0.26456978 0 0 0 -0.3751022,0.00207 0.26453508,0.26456978 0 0 0 0.00362,0.3751515 l 0.8592211,0.8474491 a 0.26453508,0.26456978 0 0 0 0.2319847,0.070276 0.26453508,0.26456978 0 0 0 5.166e-4,0 0.26453508,0.26456978 0 0 0 0.2030512,-0.1152319 L 4.1869798,0.41436631 A 0.26453508,0.26456978 0 0 0 4.1167128,0.04541573 0.26453508,0.26456978 0 0 0 3.9529285,4.5957738e-4 Z" />
    <path
       id="path1-4"
       style="baseline-shift:baseline;display:inline;overflow:visible;opacity:1;vector-effect:none;fill:#a8a8a8;stroke-width:1;stroke-linecap:round;stroke-linejoin:round;enable-background:accumulate;stop-color:#000000;stop-opacity:1"
       d="M 0.26361416,0 A 0.26467458,0.26467458 0 0 0 0,0.26361416 V 3.9697191 A 0.26467458,0.26467458 0 0 0 0.26361416,4.2333332 H 3.9697191 A 0.26467458,0.26467458 0 0 0 4.2333332,3.9697191 V 0.99449734 L 3.7061049,1.7682824 V 3.7061049 H 0.52929588 V 0.52929588 H 3.1090964 L 3.4698859,0 Z" />
  </g>
</svg>
