<?xml version="1.0" encoding="UTF-8" standalone="no"?>
<!-- Created with Inkscape (http://www.inkscape.org/) -->

<svg
   width="16"
   height="16"
   viewBox="0 0 4.2333332 4.2333333"
   version="1.1"
   id="svg1"
   inkscape:version="1.4.3 (0d15f75, 2025-12-25)"
   sodipodi:docname="templates.svg"
   xmlns:inkscape="http://www.inkscape.org/namespaces/inkscape"
   xmlns:sodipodi="http://sodipodi.sourceforge.net/DTD/sodipodi-0.dtd"
   xmlns="http://www.w3.org/2000/svg"
   xmlns:svg="http://www.w3.org/2000/svg">
  <sodipodi:namedview
     id="namedview1"
     pagecolor="#ffffff"
     bordercolor="#000000"
     borderopacity="0.25"
     inkscape:showpageshadow="false"
     inkscape:pageopacity="0.0"
     inkscape:pagecheckerboard="0"
     inkscape:deskcolor="#ffffff"
     inkscape:document-units="px"
     showgrid="true"
     inkscape:zoom="29.80897"
     inkscape:cx="0.98963499"
     inkscape:cy="7.4138757"
     inkscape:window-width="2894"
     inkscape:window-height="1308"
     inkscape:window-x="1279"
     inkscape:window-y="112"
     inkscape:window-maximized="0"
     inkscape:current-layer="layer1"
     showguides="true">
    <inkscape:grid
       id="grid1"
       units="px"
       originx="0"
       originy="0"
       spacingx="0.26458333"
       spacingy="0.26458333"
       empcolor="#0099e5"
       empopacity="0.30196078"
       color="#0099e5"
       opacity="0.14901961"
       empspacing="5"
       enabled="true"
       visible="true" />
  </sodipodi:namedview>
  <defs
     id="defs1" />
  <g
     inkscape:label="Layer 1"
     inkscape:groupmode="layer"
     id="layer1">
    <path
       id="rect1"
       d="M 0.26458332,0 H 3.9687498 A 0.26458332,0.26458332 45 0 1 4.2333331,0.26458332 0.26458332,0.26458332 135 0 1 3.9687498,0.52916664 H 0.26458332 A 0.26458332,0.26458332 45 0 1 0,0.26458332 0.26458332,0.26458332 135 0 1 0.26458332,0 Z"
       style="fill:#a8a8a8;fill-opacity:1;fill-rule:evenodd;stroke-width:0.264583" />
    <path
       id="rect2"
       d="m 3.1749999,0.92604166 0.79375,0 A 0.26458332,0.26458332 45 0 1 4.2333332,1.190625 V 3.9687499 A 0.26458332,0.26458332 135 0 1 3.9687499,4.2333332 h -0.79375 A 0.26458332,0.26458332 45 0 1 2.9104166,3.9687499 l 0,-2.7781249 A 0.26458332,0.26458332 135 0 1 3.1749999,0.92604166 Z"
       style="fill:#a8a8a8;fill-opacity:1;fill-rule:evenodd;stroke-width:0.264583" />
    <path
       id="rect3"
       d="M 0.26458332,0.9260416 H 2.2489584 A 0.26458332,0.26458332 45 0 1 2.5135417,1.1906249 V 2.5135415 A 0.26458332,0.26458332 135 0 1 2.2489584,2.7781248 H 0.26458332 A 0.26458332,0.26458332 45 0 1 0,2.5135415 V 1.1906249 A 0.26458332,0.26458332 135 0 1 0.26458332,0.9260416 Z"
       style="fill:#a8a8a8;fill-opacity:1;fill-rule:evenodd;stroke-width:0.264583" />
    <path
       id="rect4"
       d="M 0.26458332,3.175 H 2.2470737 A 0.26458332,0.26458332 45 0 1 2.511657,3.4395833 V 3.9687499 A 0.26458332,0.26458332 135 0 1 2.2470737,4.2333332 H 0.26458332 A 0.26458332,0.26458332 45 0 1 0,3.9687499 V 3.4395833 A 0.26458332,0.26458332 135 0 1 0.26458332,3.175 Z"
       style="fill:#a8a8a8;fill-opacity:1;fill-rule:evenodd;stroke-width:0.264583" />
  </g>
</svg>
