<?xml version="1.0" encoding="UTF-8" standalone="no"?>
<svg
   width="16"
   height="16"
   viewBox="0 0 16 16"
   fill="none"
   version="1.1"
   id="svg6"
   sodipodi:docname="test-fail.svg"
   inkscape:version="1.4.3 (0d15f75, 2025-12-25)"
   inkscape:export-filename="import_config_obj_16x16.png"
   inkscape:export-xdpi="96"
   inkscape:export-ydpi="96"
   xmlns:inkscape="http://www.inkscape.org/namespaces/inkscape"
   xmlns:sodipodi="http://sodipodi.sourceforge.net/DTD/sodipodi-0.dtd"
   xmlns="http://www.w3.org/2000/svg"
   xmlns:svg="http://www.w3.org/2000/svg">
  <sodipodi:namedview
     id="namedview6"
     pagecolor="#ffffff"
     bordercolor="#0c0005"
     borderopacity="0.36078431"
     inkscape:showpageshadow="0"
     inkscape:pageopacity="0"
     inkscape:pagecheckerboard="0"
     inkscape:deskcolor="#ffffff"
     inkscape:zoom="19.987395"
     inkscape:cx="11.75741"
     inkscape:cy="7.7799033"
     inkscape:window-width="1728"
     inkscape:window-height="990"
     inkscape:window-x="0"
     inkscape:window-y="33"
     inkscape:window-maximized="0"
     inkscape:current-layer="svg6"
     showguides="true"
     showgrid="true"
     inkscape:lockguides="false">
    <inkscape:grid
       id="grid1"
       units="px"
       originx="0"
       originy="0"
       spacingx="1"
       spacingy="1"
       empcolor="#0099e5"
       empopacity="0.30196078"
       color="#0099e5"
       opacity="0.14901961"
       empspacing="5"
       enabled="true"
       visible="true" />
  </sodipodi:namedview>
  <defs
     id="defs6" />
  <path
     id="rect1"
     d="M 8.7215857,7.7289652e-4 H 15.276775 A 0.723225,0.81237268 0 0 1 16,0.8131459 v 2.707909 a 0.723225,0.81237268 0 0 1 -0.723225,0.812373 H 8.7215857 A 0.723225,0.81237268 0 0 1 7.9983615,3.5210549 V 0.8131459 A 0.723225,0.81237268 0 0 1 8.7215857,7.7289652e-4 Z"
     style="fill:#a8a8a8;fill-opacity:1;fill-rule:evenodd;stroke-width:1" />
  <path
     id="rect1-8"
     style="fill:#a8a8a8;fill-opacity:1;fill-rule:evenodd;stroke-width:1"
     d="M 8.7207031 5.8339844 A 0.723225 0.81237268 0 0 0 7.9980469 6.6464844 L 7.9980469 6.7148438 C 8.3059551 6.5770251 8.6454936 6.5 9 6.5 L 15 6.5 C 15.353877 6.5 15.692528 6.577486 16 6.7148438 L 16 6.6464844 A 0.723225 0.81237268 0 0 0 15.277344 5.8339844 L 8.7207031 5.8339844 z " />
  <path
     style="baseline-shift:baseline;display:inline;overflow:visible;vector-effect:none;fill:#a8a8a8;stroke-width:3.77953;stroke-linecap:round;stroke-linejoin:round;enable-background:accumulate;stop-color:#000000"
     d="M 4.9066849,0.1926869 2.3963282,2.0380119 1.6727549,1.3736949 a 1.0002055,0.99992093 0 0 0 -1.4102297,0.06643 1.0002055,0.99992093 0 0 0 0.059067,1.409828 l 1.3290123,1.217915 a 1.0003055,1.0000209 0 0 0 1.2699451,0.07381 L 6.0880289,1.8091889 A 1.0002055,0.99992093 0 0 0 6.3021475,0.4067419 1.0002055,0.99992093 0 0 0 4.9066847,0.1926839 Z"
     id="path4" />
  <path
     style="baseline-shift:baseline;display:inline;overflow:visible;vector-effect:none;fill:#a8a8a8;stroke-width:3.77953;stroke-linecap:round;stroke-linejoin:round;enable-background:accumulate;stop-color:#000000"
     d="M 4.9879024,11.862524 2.484929,13.70785 1.7613557,13.043533 a 1.0002055,0.99992093 0 0 0 -1.4176131,0.05905 1.0002055,0.99992093 0 0 0 0.059067,1.409828 l 1.3290123,1.225296 a 1.0003055,1.0000209 0 0 0 1.2699451,0.06643 L 6.1766299,13.471648 A 1.0002055,0.99992093 0 0 0 6.3907485,12.076582 1.0002055,0.99992093 0 0 0 4.9879024,11.862524 Z"
     id="path4-0" />
  <path
     style="baseline-shift:baseline;display:inline;overflow:visible;vector-effect:none;fill:#a8a8a8;stroke-width:3.77953;stroke-linecap:round;stroke-linejoin:round;enable-background:accumulate;stop-color:#000000"
     d="M 4.9066849,6.0312962 2.3963282,7.8766218 1.6727549,7.2123045 a 1.0002055,0.99992093 0 0 0 -1.4102297,0.059051 1.0002055,0.99992093 0 0 0 0.059067,1.4098288 l 1.3290123,1.225296 a 1.0003055,1.0000209 0 0 0 1.2699451,0.066433 L 6.0880291,7.6404199 A 1.0002055,0.99992093 0 0 0 6.3021477,6.2379725 1.0002055,0.99992093 0 0 0 4.9066849,6.0312962 Z"
     id="path4-0-2" />
  <path
     id="rect3-4"
     style="fill:#0065c7;fill-opacity:1;fill-rule:evenodd;stroke-width:1;stroke-dasharray:none"
     d="M 9,8 A 1,1 0 0 0 8,9 v 6 a 1,1 0 0 0 1,1 h 6 a 1,1 0 0 0 1,-1 V 9 A 1,1 0 0 0 15,8 Z m 1.289062,3 h 3.421875 a 1,1 0 0 1 1,1 1,1 0 0 1 -1,1 h -3.421875 a 1,1 0 0 1 -1,-1 1,1 0 0 1 1,-1 z" />
</svg>
