<?xml version="1.0" encoding="UTF-8" standalone="no"?>
<!-- Created with Inkscape (http://www.inkscape.org/) -->

<svg
   width="16"
   height="16"
   viewBox="0 0 4.2333332 4.2333333"
   version="1.1"
   id="svg1"
   inkscape:version="1.4.3 (0d15f75, 2025-12-25)"
   sodipodi:docname="testcase.svg"
   xml:space="preserve"
   xmlns:inkscape="http://www.inkscape.org/namespaces/inkscape"
   xmlns:sodipodi="http://sodipodi.sourceforge.net/DTD/sodipodi-0.dtd"
   xmlns="http://www.w3.org/2000/svg"
   xmlns:svg="http://www.w3.org/2000/svg"><sodipodi:namedview
     id="namedview1"
     pagecolor="#ffffff"
     bordercolor="#000000"
     borderopacity="0.25"
     inkscape:showpageshadow="false"
     inkscape:pageopacity="0.0"
     inkscape:pagecheckerboard="0"
     inkscape:deskcolor="#ffffff"
     inkscape:document-units="px"
     showgrid="true"
     inkscape:zoom="17.625"
     inkscape:cx="4.0283688"
     inkscape:cy="9.6170213"
     inkscape:window-width="1728"
     inkscape:window-height="990"
     inkscape:window-x="0"
     inkscape:window-y="344"
     inkscape:window-maximized="0"
     inkscape:current-layer="layer1"
     showguides="true"><inkscape:grid
       id="grid1"
       units="px"
       originx="0"
       originy="0"
       spacingx="0.26458333"
       spacingy="0.26458333"
       empcolor="#0099e5"
       empopacity="0.30196078"
       color="#0099e5"
       opacity="0.14901961"
       empspacing="5"
       enabled="true"
       visible="true" /></sodipodi:namedview><defs
     id="defs1"><inkscape:path-effect
       effect="fillet_chamfer"
       id="path-effect2"
       is_visible="true"
       lpeversion="1"
       nodesatellites_param="F,0,0,1,0,0.26458332,0,1 @ F,0,0,1,0,0.26458332,0,1 @ F,0,0,1,0,0.26458332,0,1 @ F,0,0,1,0,0.26458332,0,1"
       radius="1"
       unit="px"
       method="auto"
       mode="F"
       chamfer_steps="1"
       flexible="false"
       use_knot_distance="true"
       apply_no_radius="true"
       apply_with_radius="true"
       only_selected="false"
       hide_knots="false" /><inkscape:path-effect
       effect="fillet_chamfer"
       id="path-effect2-3"
       is_visible="true"
       lpeversion="1"
       nodesatellites_param="F,0,0,1,0,0.26458332,0,1 @ F,0,0,1,0,0.26458332,0,1 @ F,0,0,1,0,0.26458332,0,1 @ F,0,0,1,0,0.26458332,0,1"
       radius="1"
       unit="px"
       method="auto"
       mode="F"
       chamfer_steps="1"
       flexible="false"
       use_knot_distance="true"
       apply_no_radius="true"
       apply_with_radius="true"
       only_selected="false"
       hide_knots="false" /><inkscape:path-effect
       effect="fillet_chamfer"
       id="path-effect2-57"
       is_visible="true"
       lpeversion="1"
       nodesatellites_param="F,0,0,1,0,0.26458332,0,1 @ F,0,0,1,0,0.26458332,0,1 @ F,0,0,1,0,0.26458332,0,1 @ F,0,0,1,0,0.26458332,0,1"
       radius="1"
       unit="px"
       method="auto"
       mode="F"
       chamfer_steps="1"
       flexible="false"
       use_knot_distance="true"
       apply_no_radius="true"
       apply_with_radius="true"
       only_selected="false"
       hide_knots="false" /></defs><g
     inkscape:label="Layer 1"
     inkscape:groupmode="layer"
     id="layer1"><path
       id="rect1"
       d="M 2.3075864,2.0353238e-4 H 4.04198 A 0.19135328,0.21494027 0 0 1 4.2333332,0.2151438 V 0.93161146 A 0.19135328,0.21494027 0 0 1 4.04198,1.1465517 H 2.3075864 A 0.19135328,0.21494027 0 0 1 2.1162332,0.93161146 V 0.2151438 A 0.19135328,0.21494027 0 0 1 2.3075864,2.0353238e-4 Z"
       style="fill:#a8a8a8;fill-opacity:1;fill-rule:evenodd;stroke-width:0.264584" /><path
       id="rect1-1"
       d="M 2.3075862,3.0868511 H 4.0419798 A 0.19135328,0.21494027 0 0 1 4.233333,3.3017914 V 4.0182591 A 0.19135328,0.21494027 0 0 1 4.0419798,4.2331992 H 2.3075862 A 0.19135328,0.21494027 0 0 1 2.116233,4.0182591 V 3.3017914 A 0.19135328,0.21494027 0 0 1 2.3075862,3.0868511 Z"
       style="fill:#a8a8a8;fill-opacity:1;fill-rule:evenodd;stroke-width:0.264584" /><path
       id="rect1-8"
       d="M 2.3075863,1.5435274 H 4.0419799 A 0.19135328,0.21494027 0 0 1 4.2333331,1.7584676 V 2.4749353 A 0.19135328,0.21494027 0 0 1 4.0419799,2.6898755 H 2.3075863 A 0.19135328,0.21494027 0 0 1 2.1162331,2.4749353 V 1.7584676 A 0.19135328,0.21494027 0 0 1 2.3075863,1.5435274 Z"
       style="fill:#a8a8a8;fill-opacity:1;fill-rule:evenodd;stroke-width:0.264584" /><path
       style="baseline-shift:baseline;display:inline;overflow:visible;vector-effect:none;fill:#a8a8a8;stroke-width:1;stroke-linecap:round;stroke-linejoin:round;enable-background:accumulate;stop-color:#000000"
       d="M 1.2982271,0.05098073 0.63402858,0.53922306 0.44258314,0.36345582 a 0.26463769,0.26456241 0 0 0 -0.37312328,0.0175767 0.26463769,0.26456241 0 0 0 0.0156282,0.37301713 l 0.3516345,0.32223992 a 0.26466415,0.26458887 0 0 0 0.3360063,0.019529 L 1.6107911,0.47868101 A 0.26463769,0.26456241 0 0 0 1.6674433,0.10761684 0.26463769,0.26456241 0 0 0 1.2982271,0.05098073 Z"
       id="path4" /><path
       style="baseline-shift:baseline;display:inline;overflow:visible;vector-effect:none;fill:#a8a8a8;stroke-width:1;stroke-linecap:round;stroke-linejoin:round;enable-background:accumulate;stop-color:#000000"
       d="M 1.3197159,3.1386252 0.65747088,3.6268675 0.46602544,3.4511003 a 0.26463769,0.26456241 0 0 0 -0.37507681,0.015624 0.26463769,0.26456241 0 0 0 0.0156282,0.3730172 l 0.35163451,0.3241928 a 0.26466415,0.26458887 0 0 0 0.33600629,0.017577 L 1.6342334,3.5643724 A 0.26463769,0.26456241 0 0 0 1.6908856,3.1952613 0.26463769,0.26456241 0 0 0 1.3197159,3.1386252 Z"
       id="path4-0" /><path
       style="baseline-shift:baseline;display:inline;overflow:visible;vector-effect:none;fill:#a8a8a8;stroke-width:1;stroke-linecap:round;stroke-linejoin:round;enable-background:accumulate;stop-color:#000000"
       d="M 1.2982271,1.5957794 0.63402858,2.0840218 0.44258314,1.9082545 a 0.26463769,0.26456241 0 0 0 -0.37312328,0.015624 0.26463769,0.26456241 0 0 0 0.0156282,0.3730172 l 0.3516345,0.3241929 a 0.26466415,0.26458887 0 0 0 0.3360063,0.017577 L 1.6107911,2.0215267 A 0.26463769,0.26456241 0 0 0 1.6674433,1.6504625 0.26463769,0.26456241 0 0 0 1.2982271,1.5957794 Z"
       id="path4-0-2" /></g></svg>
