<?xml version="1.0" encoding="UTF-8" standalone="no"?>
<!-- Created with Inkscape (http://www.inkscape.org/) -->

<svg
   width="16"
   height="16"
   viewBox="0 0 16 16"
   version="1.1"
   id="svg1"
   inkscape:version="1.4.3 (0d15f75, 2025-12-25)"
   sodipodi:docname="thread-terminated.svg"
   xml:space="preserve"
   inkscape:export-filename="threadt_obj_16x16.png"
   inkscape:export-xdpi="96"
   inkscape:export-ydpi="96"
   xmlns:inkscape="http://www.inkscape.org/namespaces/inkscape"
   xmlns:sodipodi="http://sodipodi.sourceforge.net/DTD/sodipodi-0.dtd"
   xmlns="http://www.w3.org/2000/svg"
   xmlns:svg="http://www.w3.org/2000/svg"><sodipodi:namedview
     id="namedview1"
     pagecolor="#ffffff"
     bordercolor="#000000"
     borderopacity="0.25"
     inkscape:showpageshadow="2"
     inkscape:pageopacity="0.0"
     inkscape:pagecheckerboard="0"
     inkscape:deskcolor="#d1d1d1"
     inkscape:document-units="px"
     inkscape:zoom="32"
     inkscape:cx="8.125"
     inkscape:cy="10.046875"
     inkscape:window-width="1728"
     inkscape:window-height="990"
     inkscape:window-x="0"
     inkscape:window-y="344"
     inkscape:window-maximized="1"
     inkscape:current-layer="layer2"
     showguides="true"
     inkscape:export-bgcolor="#ffffff00"
     showgrid="true"><inkscape:grid
       id="grid1"
       units="px"
       originx="0"
       originy="0"
       spacingx="1"
       spacingy="1"
       empcolor="#0099e5"
       empopacity="0.30196078"
       color="#0099e5"
       opacity="0.14901961"
       empspacing="5"
       dotted="false"
       gridanglex="30"
       gridanglez="30"
       visible="true" /></sodipodi:namedview><defs
     id="defs1"><inkscape:path-effect
       effect="fillet_chamfer"
       id="path-effect1"
       is_visible="true"
       lpeversion="1"
       nodesatellites_param="F,0,0,1,0,1,0,1 @ F,0,0,1,0,1,0,1 @ F,0,0,1,0,1,0,1"
       radius="0.25"
       unit="px"
       method="auto"
       mode="F"
       chamfer_steps="1"
       flexible="false"
       use_knot_distance="true"
       apply_no_radius="true"
       apply_with_radius="true"
       only_selected="false"
       hide_knots="false" /><inkscape:path-effect
       effect="fillet_chamfer"
       id="path-effect1-9"
       is_visible="true"
       lpeversion="1"
       nodesatellites_param="F,0,0,1,0,1,0,1 @ F,0,0,1,0,1,0,1 @ F,0,0,1,0,1,0,1"
       radius="0.25"
       unit="px"
       method="auto"
       mode="F"
       chamfer_steps="1"
       flexible="false"
       use_knot_distance="true"
       apply_no_radius="true"
       apply_with_radius="true"
       only_selected="false"
       hide_knots="false" /></defs><g
     inkscape:groupmode="layer"
     id="layer2"
     inkscape:label="Icon"
     transform="matrix(1.2534827,0,0,1.2534827,-1.8232783,-2.3969923)"
     style="display:inline"><path
       id="path13"
       style="display:inline;fill:#a8a8a8;stroke-linecap:round;paint-order:markers stroke fill"
       d="M 11.027897 1.912266 A 0.79777497 0.79777497 0 0 0 10.583822 2.0462676 A 0.79777497 0.79777497 0 0 0 10.462286 2.1459898 L 8.8698473 3.7415443 A 0.79777497 0.79777497 0 0 0 8.8698473 4.8696512 A 0.79777497 0.79777497 0 0 0 9.9963961 4.8696512 L 10.23012 4.6359274 L 10.23012 6.703604 L 7.8352299 6.703604 L 5.4434563 6.703604 L 5.4434563 4.6359274 L 5.6771801 4.8696512 A 0.79777497 0.79777497 0 0 0 6.805287 4.8696512 A 0.79777497 0.79777497 0 0 0 6.805287 3.7415443 L 5.2097325 2.1459898 A 0.79777497 0.79777497 0 0 0 4.0816256 2.1459898 L 2.486071 3.7415443 A 0.79777497 0.79777497 0 0 0 2.486071 4.8696512 A 0.79777497 0.79777497 0 0 0 3.6126198 4.8696512 L 3.8479018 4.6343692 L 3.8479018 7.4967068 A 0.79777497 0.79777497 0 0 0 3.8479018 7.4998231 A 0.79777497 0.79777497 0 0 0 3.8479018 7.5013813 A 0.79777497 0.79777497 0 0 0 3.8681578 7.6758951 A 0.79777497 0.79777497 0 0 0 4.6472372 8.3007167 L 7.0390108 8.3007167 L 7.0390108 8.4549744 C 7.5284332 7.6430229 8.4190601 7.0978182 9.4323426 7.0978182 L 11.825674 7.0978182 L 11.825674 4.6374856 L 12.05784 4.8696512 A 0.79777497 0.79777497 0 0 0 13.187505 4.8696512 A 0.79777497 0.79777497 0 0 0 13.187505 3.7415443 L 11.591951 2.1459898 A 0.79777497 0.79777497 0 0 0 11.027897 1.912266 z " /><path
       id="path5"
       style="display:inline;color:#000000;fill:#0065c7;fill-opacity:1;stroke-width:1;stroke-linecap:round;-inkscape-stroke:none;paint-order:markers stroke fill"
       d="m 9.4323423,8.2944841 c -0.8673759,0 -1.5955545,0.7283207 -1.5955545,1.5958662 v 3.1917317 c 0,0.867545 0.7281795,1.59462 1.5955545,1.59462 h 3.1911087 c 0.867375,0 1.595555,-0.727075 1.595555,-1.59462 V 9.8903503 c 0,-0.8675453 -0.728179,-1.5958662 -1.595555,-1.5958662 z" /></g></svg>
