<?xml version="1.0" encoding="UTF-8" standalone="no"?>
<!-- Created with Inkscape (http://www.inkscape.org/) -->

<svg
   width="16"
   height="16"
   viewBox="0 0 4.2333332 4.2333333"
   version="1.1"
   id="svg1"
   inkscape:version="1.4.3 (0d15f75, 2025-12-25)"
   sodipodi:docname="tip.svg"
   xml:space="preserve"
   xmlns:inkscape="http://www.inkscape.org/namespaces/inkscape"
   xmlns:sodipodi="http://sodipodi.sourceforge.net/DTD/sodipodi-0.dtd"
   xmlns="http://www.w3.org/2000/svg"
   xmlns:svg="http://www.w3.org/2000/svg"><sodipodi:namedview
     id="namedview1"
     pagecolor="#ffffff"
     bordercolor="#000000"
     borderopacity="0.25"
     inkscape:showpageshadow="false"
     inkscape:pageopacity="0.0"
     inkscape:pagecheckerboard="0"
     inkscape:deskcolor="#ffffff"
     inkscape:document-units="px"
     showgrid="true"
     inkscape:zoom="27.444582"
     inkscape:cx="7.5060353"
     inkscape:cy="6.3036121"
     inkscape:window-width="1909"
     inkscape:window-height="1214"
     inkscape:window-x="699"
     inkscape:window-y="170"
     inkscape:window-maximized="0"
     inkscape:current-layer="layer1"
     showguides="false"><inkscape:grid
       id="grid1"
       units="px"
       originx="0"
       originy="0"
       spacingx="0.26458333"
       spacingy="0.26458333"
       empcolor="#0099e5"
       empopacity="0.30196078"
       color="#0099e5"
       opacity="0.14901961"
       empspacing="5"
       enabled="true"
       visible="true" /></sodipodi:namedview><defs
     id="defs1" /><g
     inkscape:label="Layer 1"
     inkscape:groupmode="layer"
     id="layer1"><path
       id="path1"
       style="fill:#a8a8a8;fill-opacity:1;stroke:none;stroke-width:0.79375;stroke-linecap:round;stroke-linejoin:round"
       d="M 2.1166666 0.52916666 A 2.1166668 1.4787818 0 0 0 0 2.0081461 A 2.1166668 1.4787818 0 0 0 0.41186116 2.8845784 C 0.29893066 3.1335586 0.14810166 3.5274683 0.25114746 3.6623087 C 0.36285476 3.8084831 0.9786565 3.5383174 1.3141316 3.3760213 A 2.1166668 1.4787818 0 0 0 2.1166666 3.4866088 A 2.1166668 1.4787818 0 0 0 4.2333332 2.0081461 A 2.1166668 1.4787818 0 0 0 2.1166666 0.52916666 z M 2.1171834 0.92552488 A 0.26458299 0.26458299 0 0 1 2.3807332 1.1916585 L 2.3807332 1.8923909 A 0.26458299 0.26458299 0 0 1 2.1171834 2.1564575 A 0.26458299 0.26458299 0 0 1 1.8515665 1.8923909 L 1.8515665 1.1916585 A 0.26458299 0.26458299 0 0 1 2.1171834 0.92552488 z M 2.1166666 2.5564331 A 0.26458332 0.26458332 0 0 1 2.38125 2.8210164 A 0.26458332 0.26458332 0 0 1 2.1166666 3.0855997 A 0.26458332 0.26458332 0 0 1 1.8520833 2.8210164 A 0.26458332 0.26458332 0 0 1 2.1166666 2.5564331 z " /></g></svg>
