<?xml version="1.0" encoding="UTF-8" standalone="no"?>
<!-- Created with Inkscape (http://www.inkscape.org/) -->

<svg
   width="16"
   height="16"
   viewBox="0 0 4.2333332 4.2333333"
   version="1.1"
   id="svg1"
   inkscape:version="1.4.3 (0d15f75, 2025-12-25)"
   sodipodi:docname="tree-view 1.svg"
   xml:space="preserve"
   xmlns:inkscape="http://www.inkscape.org/namespaces/inkscape"
   xmlns:sodipodi="http://sodipodi.sourceforge.net/DTD/sodipodi-0.dtd"
   xmlns="http://www.w3.org/2000/svg"
   xmlns:svg="http://www.w3.org/2000/svg"><sodipodi:namedview
     id="namedview1"
     pagecolor="#ffffff"
     bordercolor="#000000"
     borderopacity="0.25"
     inkscape:showpageshadow="false"
     inkscape:pageopacity="0.0"
     inkscape:pagecheckerboard="0"
     inkscape:deskcolor="#ffffff"
     inkscape:document-units="px"
     showgrid="true"
     inkscape:zoom="8.9383497"
     inkscape:cx="19.634497"
     inkscape:cy="13.481236"
     inkscape:window-width="1920"
     inkscape:window-height="1022"
     inkscape:window-x="1728"
     inkscape:window-y="30"
     inkscape:window-maximized="1"
     inkscape:current-layer="layer1"
     showguides="true"><inkscape:grid
       id="grid1"
       units="px"
       originx="0"
       originy="0"
       spacingx="0.26458333"
       spacingy="0.26458333"
       empcolor="#0099e5"
       empopacity="0.30196078"
       color="#0099e5"
       opacity="0.14901961"
       empspacing="5"
       enabled="true"
       visible="true" /></sodipodi:namedview><defs
     id="defs1" /><g
     inkscape:label="Layer 1"
     inkscape:groupmode="layer"
     id="layer1"><g
       id="g1"
       transform="translate(0.06614587,0.00166192)"><path
         style="baseline-shift:baseline;display:inline;overflow:visible;vector-effect:none;fill:#a8a8a8;stroke-width:0.999999;stroke-linecap:round;stroke-linejoin:round;enable-background:accumulate;stop-color:#000000"
         d="M 1.5885415,2.0372937 A 0.2645835,0.26306132 0 0 0 1.3229166,2.2994486 v 0.5340193 a 0.2645835,0.26306132 0 0 0 0.2656249,0.262155 0.2645835,0.26306132 0 0 0 0.2636719,-0.262155 V 2.2994486 A 0.2645835,0.26306132 0 0 0 1.5885415,2.0372937 Z"
         id="path4" /><path
         id="path3"
         style="fill:#a8a8a8;stroke-width:0.529168;stroke-linecap:round;stroke-linejoin:round"
         d="M 1.8520833,1.3874006 A 0.26458332,0.26458332 0 0 1 1.5875,1.6519839 0.26458332,0.26458332 0 0 1 1.3229167,1.3874006 0.26458332,0.26458332 0 0 1 1.5875,1.1228172 0.26458332,0.26458332 0 0 1 1.8520833,1.3874006 Z" /><path
         id="path3-5"
         style="fill:#a8a8a8;stroke-width:0.529168;stroke-linecap:round;stroke-linejoin:round"
         d="M 2.7781249,2.8426089 A 0.26458332,0.26458332 0 0 1 2.5135416,3.1071922 0.26458332,0.26458332 0 0 1 2.2489582,2.8426089 0.26458332,0.26458332 0 0 1 2.5135416,2.5780255 0.26458332,0.26458332 0 0 1 2.7781249,2.8426089 Z" /></g><path
       id="rect1"
       style="fill:#a8a8a8;fill-opacity:1;fill-rule:evenodd;stroke-width:0.264583"
       d="M 4.4979166,0.26458332 V 3.96875 A 0.26458321,0.26458321 45 0 0 4.7624998,4.2333332 H 8.4666663 A 0.26458346,0.26458346 135 0 0 8.7312498,3.9687497 V 0.26458348 A 0.26458348,0.26458348 45 0 0 8.4666663,0 H 4.7624999 A 0.26458332,0.26458332 135 0 0 4.4979166,0.26458332 Z m 0.5291666,0.26458334 h 3.175 V 3.7041666 h -3.175 z"
       transform="translate(-4.4979166)" /></g></svg>
