<?xml version="1.0" encoding="UTF-8" standalone="no"?>
<svg
   width="16"
   height="16"
   id="svg2"
   version="1.1"
   inkscape:version="1.4.3 (0d15f75, 2025-12-25)"
   sodipodi:docname="warn_tsk.svg"
   inkscape:export-filename="C:\Users\D019122\OneDrive - SAP SE\Desktop\iam_package.png"
   inkscape:export-xdpi="96"
   inkscape:export-ydpi="96"
   xml:space="preserve"
   xmlns:inkscape="http://www.inkscape.org/namespaces/inkscape"
   xmlns:sodipodi="http://sodipodi.sourceforge.net/DTD/sodipodi-0.dtd"
   xmlns="http://www.w3.org/2000/svg"
   xmlns:svg="http://www.w3.org/2000/svg"
   xmlns:rdf="http://www.w3.org/1999/02/22-rdf-syntax-ns#"
   xmlns:cc="http://creativecommons.org/ns#"
   xmlns:dc="http://purl.org/dc/elements/1.1/"><defs
     id="defs4" /><sodipodi:namedview
     id="base"
     pagecolor="#ffffff"
     bordercolor="#666666"
     borderopacity="1.0"
     inkscape:pageopacity="0"
     inkscape:pageshadow="2"
     inkscape:zoom="45.254834"
     inkscape:cx="7.5572037"
     inkscape:cy="8.7946406"
     inkscape:document-units="px"
     inkscape:current-layer="layer1"
     showgrid="true"
     inkscape:window-width="2066"
     inkscape:window-height="1252"
     inkscape:window-x="709"
     inkscape:window-y="194"
     inkscape:window-maximized="0"
     showguides="true"
     inkscape:guide-bbox="true"
     inkscape:snap-global="false"
     inkscape:snap-bbox="true"
     inkscape:bbox-nodes="true"
     inkscape:document-rotation="0"
     inkscape:showpageshadow="false"
     inkscape:pagecheckerboard="0"
     inkscape:deskcolor="#ffffff"><sodipodi:guide
       position="-32.526912,-1.7218637"
       orientation="1,0"
       id="guide1"
       inkscape:locked="false" /><inkscape:grid
       id="grid14"
       units="px"
       originx="0"
       originy="0"
       spacingx="1"
       spacingy="1"
       empcolor="#0099e5"
       empopacity="0.30196078"
       color="#0099e5"
       opacity="0.14901961"
       empspacing="5"
       enabled="true"
       visible="true"
       dotted="false" /><sodipodi:guide
       position="-14.318912,58.426407"
       orientation="0,-1"
       id="guide16"
       inkscape:locked="false" /><sodipodi:guide
       position="-15.202796,51.708892"
       orientation="0.70710678,-0.70710678"
       id="guide17"
       inkscape:locked="false" /><sodipodi:guide
       position="-4.065864,27.711456"
       orientation="0,-1"
       id="guide18"
       inkscape:locked="false" /></sodipodi:namedview><metadata
     id="metadata7"><rdf:RDF><cc:Work
         rdf:about=""><dc:format>image/svg+xml</dc:format><dc:type
           rdf:resource="http://purl.org/dc/dcmitype/StillImage" /></cc:Work></rdf:RDF></metadata><g
     inkscape:label="Layer 1"
     inkscape:groupmode="layer"
     id="layer1"
     style="display:inline"
     transform="translate(0,-1036.3622)"><path
       id="path4"
       style="fill:#ff7f27;stroke-width:2.32062;stroke-linecap:round;stroke-opacity:0"
       inkscape:transform-center-x="0.030182475"
       inkscape:transform-center-y="-2.767107"
       d="M 21.905489 1038.1043 A 0.81940866 0.81940866 61.309622 0 0 21.257159 1038.5178 L 12.280556 1054.3635 A 0.77261867 0.77261867 81.732581 0 0 12.95902 1055.5167 L 31.29387 1055.3709 A 0.76096846 0.76096846 45 0 0 31.942188 1054.2246 L 22.675913 1038.5051 A 0.81940866 0.81940866 61.309622 0 0 21.905489 1038.1043 z M 21.989892 1042.2012 A 1.2417778 1.0841799 0.02166299 0 1 23.242405 1043.2761 L 23.298738 1048.9403 A 1.2417778 1.0841799 0.02166299 0 1 22.067789 1050.0337 A 1.2417778 1.0841799 0.02166299 0 1 20.815276 1048.9589 L 20.758944 1043.2947 A 1.2417778 1.0841799 0.02166299 0 1 21.989892 1042.2012 z M 22.083899 1051.6536 A 1.2417778 1.0841799 0.02166299 0 1 23.336412 1052.7284 A 1.2417778 1.0841799 0.02166299 0 1 22.105463 1053.8219 A 1.2417778 1.0841799 0.02166299 0 1 20.85295 1052.747 A 1.2417778 1.0841799 0.02166299 0 1 22.083899 1051.6536 z "
       transform="matrix(0.80526744,0.00690935,-0.00800865,0.92232135,-1.3611194,78.747061)" /></g></svg>
