<?xml version="1.0" encoding="UTF-8" standalone="no"?>
<!-- Created with Inkscape (http://www.inkscape.org/) -->

<svg
   width="16"
   height="16"
   viewBox="0 0 4.2333332 4.2333333"
   version="1.1"
   id="svg1"
   inkscape:version="1.4.3 (0d15f75, 2025-12-25)"
   sodipodi:docname="working_sets.svg"
   xmlns:inkscape="http://www.inkscape.org/namespaces/inkscape"
   xmlns:sodipodi="http://sodipodi.sourceforge.net/DTD/sodipodi-0.dtd"
   xmlns="http://www.w3.org/2000/svg"
   xmlns:svg="http://www.w3.org/2000/svg">
  <sodipodi:namedview
     id="namedview1"
     pagecolor="#ffffff"
     bordercolor="#000000"
     borderopacity="0.25"
     inkscape:showpageshadow="false"
     inkscape:pageopacity="0.0"
     inkscape:pagecheckerboard="0"
     inkscape:deskcolor="#ffffff"
     inkscape:document-units="px"
     showgrid="true"
     inkscape:zoom="29.80897"
     inkscape:cx="7.8332126"
     inkscape:cy="6.9274449"
     inkscape:window-width="2061"
     inkscape:window-height="1287"
     inkscape:window-x="1033"
     inkscape:window-y="174"
     inkscape:window-maximized="0"
     inkscape:current-layer="layer1"
     showguides="true">
    <inkscape:grid
       id="grid1"
       units="px"
       originx="0"
       originy="0"
       spacingx="0.26458333"
       spacingy="0.26458333"
       empcolor="#0099e5"
       empopacity="0.30196078"
       color="#0099e5"
       opacity="0.14901961"
       empspacing="5"
       enabled="true"
       visible="true" />
  </sodipodi:namedview>
  <defs
     id="defs1">
    <inkscape:path-effect
       effect="fillet_chamfer"
       id="path-effect2"
       is_visible="true"
       lpeversion="1"
       nodesatellites_param="F,0,0,1,0,0.026458333,0,1 @ F,0,0,1,0,0.026458333,0,1 @ F,0,0,1,0,0.026458333,0,1 @ F,0,0,1,0,0.026458333,0,1"
       radius="0.1"
       unit="px"
       method="auto"
       mode="F"
       chamfer_steps="1"
       flexible="false"
       use_knot_distance="true"
       apply_no_radius="true"
       apply_with_radius="true"
       only_selected="false"
       hide_knots="false" />
  </defs>
  <g
     inkscape:label="Layer 1"
     inkscape:groupmode="layer"
     id="layer1">
    <path
       style="fill:none;stroke:#a8a8a8;stroke-width:0.529167;stroke-linecap:square;stroke-linejoin:miter"
       d="M 0.29104165,0.26458332 H 3.9422917 A 0.02645833,0.02645833 45 0 1 3.96875,0.29104165 V 3.9422914 a 0.02645833,0.02645833 135 0 1 -0.026458,0.026458 H 0.29104165 A 0.02645833,0.02645833 45 0 1 0.26458332,3.9422914 V 0.29104165 a 0.02645833,0.02645833 135 0 1 0.0264583,-0.0264583 z"
       id="path1"
       inkscape:path-effect="#path-effect2"
       inkscape:original-d="M 0.26458332,0.26458332 H 3.96875 V 3.9687497 H 0.26458332 Z" />
    <path
       id="rect5"
       style="display:inline;fill:#a8a8a8;stroke-width:0.297656;stroke-linecap:round;paint-order:markers stroke fill"
       d="m 1.0748698,1.1494427 c -0.082451,0 -0.14882813,0.066172 -0.14882813,0.1485635 v 0.2563813 c 0,0.00741 4.497e-4,0.014817 0.00146,0.021696 -0.00101,0.00714 -0.00146,0.014288 -0.00146,0.021431 v 1.3377068 c 0,0.082444 0.066377,0.1488281 0.14882813,0.1488281 h 2.0835937 c 0.082451,0 0.1488281,-0.066384 0.1488281,-0.1488281 V 1.5975146 c 0,-0.082444 -0.066377,-0.1488282 -0.1488281,-0.1488282 H 2.265204 L 2.0655071,1.2475502 A 0.33279476,0.33243337 0 0 0 1.8294749,1.1492839 Z" />
  </g>
</svg>
