<?xml version="1.0" encoding="UTF-8" standalone="no"?>
<svg
   width="16"
   height="16"
   id="svg2"
   version="1.1"
   inkscape:version="1.4.2 (ebf0e94, 2025-05-08)"
   sodipodi:docname="console_view.svg"
   inkscape:export-filename="C:\Users\D019122\OneDrive - SAP SE\Desktop\iam_package.png"
   inkscape:export-xdpi="96"
   inkscape:export-ydpi="96"
   xml:space="preserve"
   xmlns:inkscape="http://www.inkscape.org/namespaces/inkscape"
   xmlns:sodipodi="http://sodipodi.sourceforge.net/DTD/sodipodi-0.dtd"
   xmlns="http://www.w3.org/2000/svg"
   xmlns:svg="http://www.w3.org/2000/svg"
   xmlns:rdf="http://www.w3.org/1999/02/22-rdf-syntax-ns#"
   xmlns:cc="http://creativecommons.org/ns#"
   xmlns:dc="http://purl.org/dc/elements/1.1/"><defs
     id="defs4" /><sodipodi:namedview
     id="base"
     pagecolor="#ffffff"
     bordercolor="#666666"
     borderopacity="1.0"
     inkscape:pageopacity="0"
     inkscape:pageshadow="2"
     inkscape:zoom="32"
     inkscape:cx="10.125"
     inkscape:cy="11.078125"
     inkscape:document-units="px"
     inkscape:current-layer="layer2"
     showgrid="true"
     inkscape:window-width="2382"
     inkscape:window-height="1425"
     inkscape:window-x="930"
     inkscape:window-y="19"
     inkscape:window-maximized="0"
     showguides="false"
     inkscape:guide-bbox="true"
     inkscape:snap-global="false"
     inkscape:snap-bbox="true"
     inkscape:bbox-nodes="true"
     inkscape:document-rotation="0"
     inkscape:showpageshadow="false"
     inkscape:pagecheckerboard="0"
     inkscape:deskcolor="#ffffff"><inkscape:grid
       type="xygrid"
       id="grid3999"
       originx="0"
       originy="0"
       spacingy="1"
       spacingx="1"
       units="px"
       visible="false"
       enabled="true" /><inkscape:grid
       id="grid1"
       units="px"
       originx="0"
       originy="0"
       spacingx="1"
       spacingy="1"
       empcolor="#0099e5"
       empopacity="0.30196078"
       color="#0099e5"
       opacity="0.14901961"
       empspacing="5"
       enabled="true"
       visible="true" /></sodipodi:namedview><metadata
     id="metadata7"><rdf:RDF><cc:Work
         rdf:about=""><dc:format>image/svg+xml</dc:format><dc:type
           rdf:resource="http://purl.org/dc/dcmitype/StillImage" /></cc:Work></rdf:RDF></metadata><g
     inkscape:groupmode="layer"
     id="layer2"
     inkscape:label="Layer 2"><path
       id="rect4-1-3"
       style="fill:#a8a8a8;stroke:none;stroke-width:2;stroke-linecap:round;stroke-linejoin:round;stroke-opacity:1"
       d="M 1.0006127 0.000727705 A 1 1 0 0 0 0.000612715 1.0007277 L 0.000612715 15.000728 A 1 1 0 0 0 1.0006127 16.000728 L 15.000613 16.000728 A 1 1 0 0 0 16.000613 15.000728 L 16.000613 1.0007277 A 1 1 0 0 0 15.000613 0.000727705 L 1.0006127 0.000727705 z M 2.0240502 1.9558058 C 2.2791698 1.9557972 2.5336491 2.0532953 2.7291283 2.2487746 L 7.6822533 7.2018996 C 7.8877352 7.4073814 7.9857334 7.6783691 7.9752221 7.9460402 C 7.9841724 8.2122197 7.8862983 8.4822296 7.6822533 8.6862746 L 2.7291283 13.637446 C 2.3381698 14.028405 1.7099569 14.028431 1.3189721 13.637446 L 1.3150658 13.635493 C 0.92408106 13.244509 0.92410738 12.614342 1.3150658 12.223384 L 5.5963158 7.9440871 L 1.3150658 3.6628371 C 0.92410742 3.2718786 0.9240811 2.6436656 1.3150658 2.2526808 L 1.3189721 2.2487746 C 1.5144645 2.0532822 1.7689306 1.9558144 2.0240502 1.9558058 z M 9.020144 11.955806 L 14.02405 11.955806 C 14.576949 11.955806 15.022097 12.400917 15.022097 12.953853 L 15.022097 12.957759 C 15.022097 13.510695 14.576949 13.955806 14.02405 13.955806 L 9.020144 13.955806 C 8.4672451 13.955806 8.0220971 13.510695 8.0220971 12.957759 L 8.0220971 12.953853 C 8.0220971 12.400917 8.4672451 11.955806 9.020144 11.955806 z "
       transform="translate(-0.02209709,0.04419417)" /></g></svg>
