<?xml version="1.0" encoding="UTF-8" standalone="no"?>
<svg
   width="16"
   height="16"
   id="svg2"
   version="1.1"
   inkscape:version="1.4.2 (ebf0e940, 2025-05-08)"
   sodipodi:docname="console_view.svg"
   inkscape:export-filename="C:\Users\D019122\OneDrive - SAP SE\Desktop\iam_package.png"
   inkscape:export-xdpi="96"
   inkscape:export-ydpi="96"
   xml:space="preserve"
   xmlns:inkscape="http://www.inkscape.org/namespaces/inkscape"
   xmlns:sodipodi="http://sodipodi.sourceforge.net/DTD/sodipodi-0.dtd"
   xmlns="http://www.w3.org/2000/svg"
   xmlns:svg="http://www.w3.org/2000/svg"
   xmlns:rdf="http://www.w3.org/1999/02/22-rdf-syntax-ns#"
   xmlns:cc="http://creativecommons.org/ns#"
   xmlns:dc="http://purl.org/dc/elements/1.1/"><defs
     id="defs4" /><sodipodi:namedview
     id="base"
     pagecolor="#ffffff"
     bordercolor="#666666"
     borderopacity="1.0"
     inkscape:pageopacity="0"
     inkscape:pageshadow="2"
     inkscape:zoom="32"
     inkscape:cx="10.125"
     inkscape:cy="11.0625"
     inkscape:document-units="px"
     inkscape:current-layer="layer2"
     showgrid="true"
     inkscape:window-width="1920"
     inkscape:window-height="1021"
     inkscape:window-x="0"
     inkscape:window-y="31"
     inkscape:window-maximized="0"
     showguides="false"
     inkscape:guide-bbox="true"
     inkscape:snap-global="false"
     inkscape:snap-bbox="true"
     inkscape:bbox-nodes="true"
     inkscape:document-rotation="0"
     inkscape:showpageshadow="false"
     inkscape:pagecheckerboard="0"
     inkscape:deskcolor="#ffffff"><inkscape:grid
       type="xygrid"
       id="grid3999"
       originx="0"
       originy="0"
       spacingy="1"
       spacingx="1"
       units="px"
       visible="false"
       enabled="true" /><inkscape:grid
       id="grid1"
       units="px"
       originx="0"
       originy="0"
       spacingx="1"
       spacingy="1"
       empcolor="#0099e5"
       empopacity="0.30196078"
       color="#0099e5"
       opacity="0.14901961"
       empspacing="5"
       enabled="true"
       visible="true" /></sodipodi:namedview><metadata
     id="metadata7"><rdf:RDF><cc:Work
         rdf:about=""><dc:format>image/svg+xml</dc:format><dc:type
           rdf:resource="http://purl.org/dc/dcmitype/StillImage" /></cc:Work></rdf:RDF></metadata><g
     inkscape:groupmode="layer"
     id="layer2"
     inkscape:label="Layer 2"><path
       id="path2"
       style="fill:#a8a8a8;stroke:none;stroke-width:2;stroke-linecap:round;stroke-linejoin:round;stroke-opacity:1"
       d="M 1 0 A 1 1 0 0 0 0 1 L 0 15 A 1 1 0 0 0 1 16 L 15 16 A 1 1 0 0 0 16 15 L 16 1 A 1 1 0 0 0 15 0 L 1 0 z M 2.0019531 2 C 2.2570727 1.9999914 2.5115521 2.09749 2.7070312 2.2929688 L 7.6601562 7.2460938 C 7.8656381 7.4515755 7.9636363 7.7225633 7.953125 7.9902344 C 7.962075 8.2564139 7.8642011 8.5264238 7.6601562 8.7304688 L 2.7070312 13.681641 C 2.3160728 14.0726 1.6878598 14.072626 1.296875 13.681641 L 1.2929688 13.679688 C 0.90198399 13.288704 0.90201032 12.658536 1.2929688 12.267578 L 5.5742188 7.9882812 L 1.2929688 3.7070312 C 0.90201035 3.3160728 0.90198403 2.6878598 1.2929688 2.296875 L 1.296875 2.2929688 C 1.4923674 2.0975272 1.7468335 2.0000086 2.0019531 2 z M 8.9980469 12 L 14.001953 12 C 14.554852 12 15 12.445111 15 12.998047 L 15 13.001953 C 15 13.554895 14.554852 14 14.001953 14 L 8.9980469 14 C 8.445148 14 8 13.554889 8 13.001953 L 8 12.998047 C 8 12.445105 8.445148 12 8.9980469 12 z " /></g></svg>
