<?xml version="1.0" encoding="UTF-8" standalone="no"?>
<svg
   width="16"
   height="16"
   id="svg2"
   version="1.1"
   inkscape:version="1.4.2 (ebf0e94, 2025-05-08)"
   sodipodi:docname="console_view.svg"
   inkscape:export-filename="C:\Users\D019122\OneDrive - SAP SE\Desktop\iam_package.png"
   inkscape:export-xdpi="96"
   inkscape:export-ydpi="96"
   xml:space="preserve"
   xmlns:inkscape="http://www.inkscape.org/namespaces/inkscape"
   xmlns:sodipodi="http://sodipodi.sourceforge.net/DTD/sodipodi-0.dtd"
   xmlns="http://www.w3.org/2000/svg"
   xmlns:svg="http://www.w3.org/2000/svg"
   xmlns:rdf="http://www.w3.org/1999/02/22-rdf-syntax-ns#"
   xmlns:cc="http://creativecommons.org/ns#"
   xmlns:dc="http://purl.org/dc/elements/1.1/"><defs
     id="defs4" /><sodipodi:namedview
     id="base"
     pagecolor="#ffffff"
     bordercolor="#666666"
     borderopacity="1.0"
     inkscape:pageopacity="0"
     inkscape:pageshadow="2"
     inkscape:zoom="16"
     inkscape:cx="-6.96875"
     inkscape:cy="21.75"
     inkscape:document-units="px"
     inkscape:current-layer="layer2"
     showgrid="true"
     inkscape:window-width="2493"
     inkscape:window-height="1354"
     inkscape:window-x="1172"
     inkscape:window-y="72"
     inkscape:window-maximized="0"
     showguides="false"
     inkscape:guide-bbox="true"
     inkscape:snap-global="false"
     inkscape:snap-bbox="true"
     inkscape:bbox-nodes="true"
     inkscape:document-rotation="0"
     inkscape:showpageshadow="false"
     inkscape:pagecheckerboard="0"
     inkscape:deskcolor="#ffffff"><inkscape:grid
       type="xygrid"
       id="grid3999"
       originx="0"
       originy="0"
       spacingy="1"
       spacingx="1"
       units="px"
       visible="false"
       enabled="true" /><inkscape:grid
       id="grid1"
       units="px"
       originx="0"
       originy="0"
       spacingx="1"
       spacingy="1"
       empcolor="#0099e5"
       empopacity="0.30196078"
       color="#0099e5"
       opacity="0.14901961"
       empspacing="5"
       enabled="true"
       visible="true" /></sodipodi:namedview><metadata
     id="metadata7"><rdf:RDF><cc:Work
         rdf:about=""><dc:format>image/svg+xml</dc:format><dc:type
           rdf:resource="http://purl.org/dc/dcmitype/StillImage" /></cc:Work></rdf:RDF></metadata><g
     inkscape:groupmode="layer"
     id="layer2"
     inkscape:label="Layer 2"><path
       id="rect5"
       style="fill:#a8a8a8;fill-opacity:1;stroke:none;stroke-width:2;stroke-linecap:round;stroke-linejoin:round;stroke-dasharray:none;stroke-opacity:1"
       d="M 0.98046875 0 A 0.98128157 0.98128157 0 0 0 0 0.98046875 L 0 3.0585938 C 3.9996201e-05 2.816101 0.076568171 2.5730194 0.234375 2.3769531 L 0.2578125 2.3496094 C 0.60450505 1.9188629 1.2037701 1.881622 1.6015625 2.265625 L 6.671875 7.1601562 C 6.9046323 7.3848452 7.0158747 7.7023628 6.9980469 8.0136719 C 7.0057075 8.3045767 6.8982649 8.5977279 6.6796875 8.8105469 L 1.6289062 13.728516 C 1.2325175 14.114462 0.62570392 14.085774 0.26757812 13.664062 L 0.25 13.644531 C -0.1081258 13.22282 -0.078029461 12.571493 0.31835938 12.185547 L 4.625 7.9941406 L 0.328125 3.8476562 C 0.1114925 3.6385335 4.7852179e-05 3.3487179 0 3.0585938 L 0 14.996094 A 1.0033787 1.0033787 0 0 0 1.0039062 16 L 14.996094 16 A 1.0033787 1.0033787 0 0 0 16 14.996094 L 16 13.001953 C 16 13.554889 15.554852 14 15.001953 14 L 7.9980469 14 C 7.445148 14 7 13.554889 7 13.001953 L 7 12.998047 C 7 12.445111 7.445148 12 7.9980469 12 L 15.001953 12 C 15.554852 12 16 12.445111 16 12.998047 L 16 0.95898438 A 0.95918448 0.95918448 0 0 0 15.041016 0 L 0.98046875 0 z " /></g></svg>
