<?xml version="1.0" encoding="UTF-8" standalone="no"?>
<svg
   width="16"
   height="16"
   viewBox="0 0 16 16"
   fill="none"
   version="1.1"
   id="svg6"
   sodipodi:docname="disconnect_co.svg"
   inkscape:version="1.3.2 (091e20e, 2023-11-25, custom)"
   inkscape:export-filename="disconnect_co_16x16.png"
   inkscape:export-xdpi="96"
   inkscape:export-ydpi="96"
   xmlns:inkscape="http://www.inkscape.org/namespaces/inkscape"
   xmlns:sodipodi="http://sodipodi.sourceforge.net/DTD/sodipodi-0.dtd"
   xmlns="http://www.w3.org/2000/svg"
   xmlns:svg="http://www.w3.org/2000/svg">
  <sodipodi:namedview
     id="namedview6"
     pagecolor="#ffffff"
     bordercolor="#eeeeee"
     borderopacity="1"
     inkscape:showpageshadow="0"
     inkscape:pageopacity="0"
     inkscape:pagecheckerboard="0"
     inkscape:deskcolor="#545454"
     inkscape:zoom="35.134368"
     inkscape:cx="5.6497387"
     inkscape:cy="7.6420899"
     inkscape:window-width="1920"
     inkscape:window-height="991"
     inkscape:window-x="-9"
     inkscape:window-y="-9"
     inkscape:window-maximized="1"
     inkscape:current-layer="svg6"
     showgrid="true">
    <inkscape:grid
       id="grid9"
       units="px"
       originx="0"
       originy="0"
       spacingx="1"
       spacingy="1"
       empcolor="#0099e5"
       empopacity="0.30196078"
       color="#0099e5"
       opacity="0.14901961"
       empspacing="5"
       dotted="false"
       gridanglex="30"
       gridanglez="30"
       visible="true" />
  </sodipodi:namedview>
  <defs
     id="defs6">
    <mask
       id="path-1-inside-1_0_1"
       fill="white">
      <rect
         width="16"
         height="16"
         rx="1"
         id="rect3" />
    </mask>
    <clipPath
       clipPathUnits="userSpaceOnUse"
       id="clipPath6">
      <g
         id="g7">
        <rect
           width="16"
           height="16"
           fill="#ffffff"
           id="rect7"
           x="0"
           y="0" />
      </g>
    </clipPath>
    <clipPath
       clipPathUnits="userSpaceOnUse"
       id="clipPath7">
      <g
         id="g8">
        <rect
           width="16"
           height="16"
           fill="#ffffff"
           id="rect8"
           x="0"
           y="0" />
      </g>
    </clipPath>
  </defs>
  <path
     id="path9-1"
     style="color:#000000;fill:#c80000;stroke-linecap:square;-inkscape-stroke:none;fill-opacity:1"
     d="M 9.4296875 0.001953125 C 7.9752975 0.038684712 6.616559 0.71120516 5.8710938 2 L 5.0546875 3.4121094 L 6.7871094 4.4121094 L 7.6035156 3 C 7.8972476 2.4921825 8.4377717 2.1490152 9.0859375 2.0351562 C 9.7341033 1.9212972 10.489792 2.0375467 11.210938 2.453125 C 12.653227 3.2842908 13.124574 4.8242092 12.537109 5.8398438 L 11.716797 7.2597656 L 13.449219 8.2597656 L 14.269531 6.8417969 C 15.492859 4.7268523 14.448338 2.0112021 12.208984 0.72070312 C 11.649146 0.39807828 11.04884 0.18392866 10.445312 0.078125 C 10.105828 0.018610437 9.765316 -0.0065233952 9.4296875 0.001953125 z M 2.5507812 7.7421875 L 1.7304688 9.1582031 C 0.50714203 11.273148 1.551663 13.988798 3.7910156 15.279297 C 6.0303679 16.569796 8.9055773 16.114943 10.128906 14 L 10.945312 12.589844 L 9.2128906 11.587891 L 8.3964844 13 C 7.8090196 14.015634 6.2313518 14.378041 4.7890625 13.546875 C 3.3467729 12.71571 2.875427 11.175791 3.4628906 10.160156 L 4.2832031 8.7421875 L 2.5507812 7.7421875 z " />
  <path
     style="color:#000000;fill:#c80000;stroke-linecap:round;-inkscape-stroke:none;paint-order:markers stroke fill;fill-opacity:1"
     d="M 2.2265625,3.8496094 A 1,1 0 0 0 1.6191406,4.3164062 1,1 0 0 0 1.984375,5.6816406 l 11.03125,6.3691404 a 1,1 0 0 0 1.365234,-0.367187 1,1 0 0 0 -0.365234,-1.365235 L 2.984375,3.9492188 A 1,1 0 0 0 2.2265625,3.8496094 Z"
     id="path4" />
</svg>
