<?xml version="1.0" encoding="UTF-8" standalone="no"?>
<!-- Created with Inkscape (http://www.inkscape.org/) -->

<svg
   width="16"
   height="16"
   viewBox="0 0 16 16"
   version="1.1"
   id="svg1"
   inkscape:version="1.3.2 (091e20e, 2023-11-25, custom)"
   sodipodi:docname="rem_all_co.svg"
   xml:space="preserve"
   inkscape:export-filename="rem_all_co_32x32.png"
   inkscape:export-xdpi="192"
   inkscape:export-ydpi="192"
   xmlns:inkscape="http://www.inkscape.org/namespaces/inkscape"
   xmlns:sodipodi="http://sodipodi.sourceforge.net/DTD/sodipodi-0.dtd"
   xmlns="http://www.w3.org/2000/svg"
   xmlns:svg="http://www.w3.org/2000/svg"><sodipodi:namedview
     id="namedview1"
     pagecolor="#ffffff"
     bordercolor="#000000"
     borderopacity="0.25"
     inkscape:showpageshadow="2"
     inkscape:pageopacity="0.0"
     inkscape:pagecheckerboard="0"
     inkscape:deskcolor="#d1d1d1"
     inkscape:document-units="px"
     inkscape:zoom="22.627417"
     inkscape:cx="5.9883106"
     inkscape:cy="10.893864"
     inkscape:window-width="1920"
     inkscape:window-height="991"
     inkscape:window-x="-9"
     inkscape:window-y="-9"
     inkscape:window-maximized="1"
     inkscape:current-layer="svg1"
     showguides="true"
     inkscape:export-bgcolor="#ffffff00"
     showgrid="true"><inkscape:grid
       id="grid1"
       units="px"
       originx="0"
       originy="0"
       spacingx="1"
       spacingy="1"
       empcolor="#0099e5"
       empopacity="0.30196078"
       color="#0099e5"
       opacity="0.14901961"
       empspacing="5"
       dotted="false"
       gridanglex="30"
       gridanglez="30"
       visible="true" /></sodipodi:namedview><defs
     id="defs1"><inkscape:path-effect
       effect="fillet_chamfer"
       id="path-effect1"
       is_visible="true"
       lpeversion="1"
       nodesatellites_param="F,0,0,1,0,1,0,1 @ F,0,0,1,0,1,0,1 @ F,0,0,1,0,1,0,1"
       radius="0.25"
       unit="px"
       method="auto"
       mode="F"
       chamfer_steps="1"
       flexible="false"
       use_knot_distance="true"
       apply_no_radius="true"
       apply_with_radius="true"
       only_selected="false"
       hide_knots="false" /><inkscape:path-effect
       effect="fillet_chamfer"
       id="path-effect1-9"
       is_visible="true"
       lpeversion="1"
       nodesatellites_param="F,0,0,1,0,1,0,1 @ F,0,0,1,0,1,0,1 @ F,0,0,1,0,1,0,1"
       radius="0.25"
       unit="px"
       method="auto"
       mode="F"
       chamfer_steps="1"
       flexible="false"
       use_knot_distance="true"
       apply_no_radius="true"
       apply_with_radius="true"
       only_selected="false"
       hide_knots="false" /></defs><path
     style="fill:#c80000;stroke-width:1.957;stroke-linecap:round;paint-order:markers stroke fill;fill-opacity:1"
     d="m 4.1425783,2.9472234 a 0.9599353,1.0417255 0 0 0 -0.5292968,0.2910156 0.9599353,1.0417255 0 0 0 3e-7,1.4746092 L 6.6425779,7.9999581 3.6132815,11.28902 a 0.9599353,1.0417255 0 0 0 -0.00195,1.470703 0.9599353,1.0417255 0 0 0 1.3593751,0 L 8,9.4726142 11.029298,12.759723 a 0.9599353,1.0417255 0 0 0 1.359374,1e-6 0.9599353,1.0417255 0 0 0 -0.0039,-1.470704 L 9.3554686,8.0019112 12.386719,4.7128486 a 0.9599353,1.0417255 0 0 0 0,-1.4746092 0.9599353,1.0417255 0 0 0 -1.357422,0.00195 L 8.0000006,6.5292543 4.9687509,3.2401914 A 0.9599353,1.0417255 0 0 0 4.1425783,2.9472234 Z"
     id="path18" /><rect
     style="fill:none;stroke:#c80000;stroke-width:2.0735;stroke-linecap:round;stroke-opacity:1"
     id="rect19"
     width="14.849242"
     height="14.18633"
     x="0.35355338"
     y="0.26516503"
     rx="1.0576712"
     ry="1.0162392"
     transform="matrix(0.94547344,0,0,0.98402025,0.64594261,0.75925432)" /></svg>
